<svg width="82" height="62" viewBox="0 0 82 62" fill="none" xmlns="http://www.w3.org/2000/svg">
<g id="Group 10">
<path id="Vector 3" d="M12.926 54.3918H1V52.3579C1.65999 16.5796 50.9445 20.2104 57.0005 36.5952C61.4742 36.3645 62.9252 35.7249 64.2599 32.5274C67.5312 31.2477 69.5367 31.2053 71.5192 32.5274C73.4014 28.2298 74.3397 26.2319 75.6674 23.8833H79.2971L75.6674 34.5613C86.5141 49.2567 78.5886 53.7143 71.5192 54.3918C66.6453 54.5489 62.2674 54.5397 57.0005 54.3918M12.926 54.3918C11.2776 56.9721 11.1872 58.4227 12.926 61.0019H40.4078C47.6096 59.7326 51.2758 58.3495 57.0005 54.3918M12.926 54.3918H57.0005" stroke="#344F10"/>
<path id="Vector 4" d="M12.4071 29.985L14.9997 23.3748M14.9997 23.3748L9.81445 12.1884M14.9997 23.3748L22.259 25.4087L26.9257 19.8155M9.81445 12.1884L12.4071 5.06972M9.81445 12.1884L17.5923 9.64599M26.9257 19.8155V9.64599M26.9257 19.8155L33.6665 24.9002M26.9257 9.64599L32.111 2.52734M26.9257 9.64599H34.7036" stroke="#344F10"/>
<path id="Vector 6" d="M69.4452 39.6462L71.7786 42.4428M74.1119 45.2394L71.7786 42.4428M71.7786 42.4428L74.1119 39.6462M71.7786 42.4428L68.4082 45.2394M43.0005 38.1207H33.1486V43.714H43.0005V48.2902H19.1484V32.019L44.0376 33.036L43.0005 38.1207Z" stroke="#344F10"/>
<path id="Vector 7" d="M64.2598 32.5272L65.9882 24.3916H69.445V31.7032" stroke="#344F10"/>
<path id="Vector 8" d="M67.3709 16.7647C68.5184 15.0683 67.9314 14.1846 65.2969 12.6969C64.4644 11.1121 65.1695 10.2223 67.3709 8.62907C68.1791 7.17925 67.6422 6.27306 65.2969 4.56128C64.7322 2.78172 65.1748 2.01828 67.3709 1.00195" stroke="#344F10"/>
<path id="Vector 9" d="M77.2228 17.2731C78.1674 15.4876 77.8937 14.4857 75.1487 12.6969C74.5763 11.5098 74.8224 10.6768 77.2228 8.62907C77.3179 7.04195 77.1016 6.15431 75.1487 4.56128C75.0688 2.71825 75.4162 1.88166 77.2228 1.00195" stroke="#344F10"/>
<path id="Vector 10" d="M36.2598 38.6289V43.7137" stroke="#344F10"/>
<path id="Vector 11" d="M13.9626 39.646L9.81445 46.2562" stroke="#344F10"/>
<path id="Ellipse 2" d="M50.2781 39.646C50.2781 40.2032 49.8148 40.6715 49.2226 40.6715C48.6303 40.6715 48.167 40.2032 48.167 39.646C48.167 39.0889 48.6303 38.6206 49.2226 38.6206C49.8148 38.6206 50.2781 39.0889 50.2781 39.646Z" stroke="#344F10"/>
</g>
</svg>
