<svg width="80" height="70" viewBox="0 0 80 70" fill="none" xmlns="http://www.w3.org/2000/svg">
<g id="Group 11">
<g id="Group 8">
<path id="Vector 12" d="M60.7011 11.858L56.5475 14.8593C45.3405 -0.176773 39.2707 -8.20033 19.9209 18.6109L33.5143 26.8644C35.4464 20.411 37.0725 17.1231 41.0662 11.858L45.5973 20.8618L41.0662 24.2383C46.5473 24.7633 49.4827 24.832 54.282 24.2383C57.5351 20.3273 59.0364 17.7307 60.7011 11.858Z" stroke="#344F10"/>
</g>
<g id="Group 8.1">
<path id="Vector 12_2" d="M51.1431 61.9809L50.5151 56.8543C68.9139 54.043 78.7745 52.4631 64.7055 22.4685L51.0609 30.635C55.7457 35.429 57.8267 38.4426 60.4972 44.5054L50.5182 44.2488L49.7442 38.6074C46.6769 43.2356 45.2188 45.8154 43.4481 50.3698C45.2953 55.1284 46.8354 57.7015 51.1431 61.9809Z" stroke="#344F10"/>
</g>
<g id="Group 8.2">
<path id="Vector 12_3" d="M9.04056 28.3636L13.7743 30.2932C7.28256 47.9454 3.86657 57.4414 36.6029 59.5286L36.1629 43.4891C29.7495 45.3122 26.1368 45.6934 19.6038 45.1182L24.6639 36.4078L29.9132 38.4578C27.4017 33.4983 25.8797 30.9565 22.8033 27.1807C17.7964 26.5088 14.8265 26.6248 9.04056 28.3636Z" stroke="#344F10"/>
</g>
</g>
</svg>
