<svg width="82" height="77" viewBox="0 0 82 77" fill="none" xmlns="http://www.w3.org/2000/svg">
<g id="Group 9">
<path id="Vector" d="M45.1688 76.0013L42.2048 70.4869M15.8248 21.4086L23.2349 35.1946M23.2349 35.1946L26.6358 23.6143M23.2349 35.1946L11.7063 31.8859M23.2349 35.1946L29.7558 47.3263M29.7558 47.3263L34.3579 29.6802M29.7558 47.3263L14.2804 42.9148M29.7558 47.3263L37.4623 61.6638M37.4623 61.6638L43.6244 38.5033M37.4623 61.6638L15.8248 55.598M37.4623 61.6638L42.2048 70.4869M42.2048 70.4869C64.5834 40.8367 68.2823 24.8804 6.04346 1.55664" stroke="#344F10"/>
<path id="Vector 12" d="M6.02918 1.00195C-7.9954 67.9911 8.35849 71.5886 42.08 70.4878M55.9796 48.4301L58.0388 45.2063M69.3646 27.4753L62.6721 37.9527M62.6721 37.9527H71.4238M62.6721 37.9527L60.0981 29.6811M62.6721 37.9527L58.0388 45.2063M58.0388 45.2063H69.3646M58.0388 45.2063L52.3759 55.5988L65.7609 56.7017" stroke="#344F10"/>
<path id="Vector 13" d="M44.6538 67.1789C75.9053 66.743 87.7534 60.0903 77.2704 13.2241" stroke="#344F10"/>
<path id="Vector 14" d="M77.6014 13.6895C66.3007 16.3079 60.4287 18.554 52.8906 27.4755" stroke="#344F10"/>
</g>
</svg>
