<?xml version="1.0" standalone="no"?>
<!DOCTYPE svg PUBLIC "-//W3C//DTD SVG 20010904//EN"
 "http://www.w3.org/TR/2001/REC-SVG-20010904/DTD/svg10.dtd">
<svg version="1.0" xmlns="http://www.w3.org/2000/svg"
 width="268.000000pt" height="268.000000pt" viewBox="0 0 268.000000 268.000000"
 preserveAspectRatio="xMidYMid meet">
<metadata>
Created by potrace 1.14, written by Peter Selinger 2001-2017
</metadata>
<g transform="translate(0.000000,268.000000) scale(0.100000,-0.100000)"
fill="#000000" stroke="none">
<path d="M1300 2294 c0 -7 8 -10 20 -7 11 3 20 9 20 14 0 4 -9 7 -20 6 -11 -1
-20 -7 -20 -13z"/>
<path d="M1341 2245 c0 -5 4 -17 9 -25 7 -12 12 -12 22 -2 9 9 9 12 -4 12 -9
0 -19 6 -21 13 -3 6 -6 8 -6 2z"/>
<path d="M1230 2220 c0 -5 7 -10 16 -10 8 0 12 5 9 10 -3 6 -10 10 -16 10 -5
0 -9 -4 -9 -10z"/>
<path d="M1275 2220 c-3 -5 -1 -10 4 -10 6 0 11 5 11 10 0 6 -2 10 -4 10 -3 0
-8 -4 -11 -10z"/>
<path d="M1305 2220 c-3 -5 3 -10 15 -10 12 0 18 5 15 10 -3 6 -10 10 -15 10
-5 0 -12 -4 -15 -10z"/>
<path d="M1203 2196 c-3 -6 -3 -8 2 -4 4 4 14 3 21 -3 8 -7 19 -7 30 -1 14 8
11 10 -15 14 -18 3 -35 0 -38 -6z"/>
<path d="M1363 2170 c-18 -41 -27 -46 -51 -31 -11 7 -10 9 3 14 9 4 13 3 10
-3 -3 -6 -1 -10 4 -10 19 0 12 19 -10 31 -15 8 -19 8 -15 0 4 -7 -1 -11 -14
-11 -11 0 -23 -7 -26 -15 -4 -8 -14 -15 -23 -16 -13 0 -12 -2 3 -8 28 -11
-267 -81 -342 -81 -66 0 -95 7 -86 21 3 5 -7 9 -21 9 -18 0 -25 -4 -22 -12 3
-9 -6 -13 -27 -13 -17 1 -31 5 -30 10 0 6 -12 23 -28 38 -26 26 -28 26 -28 7
0 -18 -6 -20 -82 -20 -80 0 -99 -13 -33 -23 21 -3 15 -4 -19 -6 -39 -1 -47 2
-42 14 4 11 -2 15 -24 15 -30 0 -41 -14 -17 -23 6 -3 -22 -6 -63 -7 -172 -4
-163 -2 -174 -37 -5 -18 -14 -33 -20 -34 -6 0 -29 -2 -51 -4 -67 -6 -93 3 -97
33 -2 16 -9 27 -18 27 -13 0 -15 -102 -18 -842 -2 -802 -2 -843 15 -845 10 -1
93 -2 185 -2 155 -1 167 0 162 17 -3 9 -1 17 5 17 6 0 11 -8 11 -18 0 -18 13
-19 217 -21 167 -1 218 1 224 11 7 10 12 11 29 1 24 -15 70 -17 70 -3 0 6 8
10 18 10 14 0 15 -2 2 -10 -13 -8 -12 -10 3 -10 9 0 17 5 17 10 0 6 15 10 33
11 25 0 28 2 13 8 -18 7 -18 8 5 14 37 10 40 9 35 -18 -5 -25 -4 -25 74 -25
43 0 82 5 85 10 3 6 12 10 18 10 7 0 6 -4 -3 -10 -11 -7 0 -10 38 -10 34 0 59
5 68 15 14 13 13 15 -5 15 -12 0 -21 5 -21 10 0 6 7 10 15 10 21 0 19 18 -2
23 -14 4 -12 5 5 6 48 2 18 20 -40 24 l-63 3 63 2 c41 1 61 6 57 12 -8 13
-275 12 -275 -1 0 -5 28 -9 62 -9 34 0 59 -3 56 -6 -9 -9 -308 -10 -308 -1 0
5 35 7 78 6 80 -3 111 12 45 22 l-38 5 40 6 c26 3 12 5 -42 6 -59 2 -83 -2
-83 -10 0 -9 -3 -9 -12 0 -14 14 -98 16 -98 2 0 -5 -10 -10 -22 -10 -19 0 -20
2 -8 10 18 12 18 12 -92 10 -47 -1 -88 2 -90 7 -3 4 3 16 13 25 16 15 20 16
33 3 16 -17 30 -20 21 -6 -3 5 1 15 8 23 8 7 16 26 19 41 5 27 4 27 -47 27
l-52 0 -6 68 c-3 37 -5 117 -4 177 l2 110 68 3 67 3 0 47 c0 34 3 43 10 32 5
-8 10 -10 10 -5 0 6 -6 17 -12 23 -10 10 -10 15 1 21 11 7 11 9 0 14 -8 3 -9
6 -4 6 7 1 10 34 8 91 -2 50 0 90 6 90 5 0 8 8 7 17 -1 14 7 17 39 16 56 -2
55 -1 56 -20 0 -15 2 -15 8 2 6 14 8 8 7 -22 0 -24 -5 -43 -11 -43 -5 0 -4 -4
3 -8 9 -6 14 -54 18 -163 2 -85 8 -174 11 -199 4 -25 5 -49 3 -55 -7 -23 2
-170 10 -173 6 -2 10 -8 10 -13 0 -6 -4 -7 -10 -4 -6 4 -10 -10 -10 -34 0 -23
5 -41 11 -41 5 0 8 -4 5 -9 -4 -5 -4 -16 0 -24 4 -11 25 -14 97 -13 l92 1 3
53 3 52 -39 0 c-31 0 -41 4 -45 20 -3 11 -12 20 -21 20 -17 0 -22 -16 -7 -22
5 -1 3 -8 -4 -15 -10 -9 -16 -9 -29 0 -14 11 -20 113 -16 325 l0 33 80 -2 c44
-1 80 -6 80 -10 0 -5 3 -9 8 -9 4 0 8 24 8 53 1 28 3 93 4 144 1 60 6 93 14
96 8 3 11 -5 9 -27 -1 -21 1 -17 8 13 8 31 8 50 0 65 l-11 21 5 -22 c3 -12 1
-24 -5 -28 -17 -10 -23 1 -16 30 5 20 12 25 39 25 20 0 27 -3 19 -8 -8 -6 -1
-13 23 -22 19 -8 35 -17 35 -22 0 -4 -12 -3 -26 2 -33 13 -47 4 -34 -20 6 -11
6 -21 1 -24 -10 -7 5 -88 18 -96 5 -3 11 -14 14 -25 2 -11 5 -1 6 23 1 35 4
42 21 42 18 0 21 -6 20 -52 -1 -29 1 -93 4 -143 3 -49 8 -173 11 -275 2 -102
5 -188 5 -192 0 -5 56 -8 124 -8 l124 0 6 148 c3 81 9 219 12 307 3 88 7 176
9 195 2 19 4 55 5 80 0 35 3 41 11 28 10 -17 39 -14 39 4 0 6 -8 4 -17 -3 -15
-12 -16 -12 -11 8 4 16 2 20 -8 16 -20 -7 -17 7 4 23 9 7 34 14 55 14 34 0 37
-2 37 -29 0 -20 -6 -31 -17 -34 -14 -4 -12 -5 5 -6 13 -1 22 -7 22 -18 0 -9
-3 -14 -6 -10 -9 9 -34 -19 -34 -37 0 -8 5 -18 12 -22 6 -4 8 -3 5 4 -8 12 2
42 13 42 8 0 13 -82 10 -167 0 -17 4 -34 9 -37 5 -3 10 -47 10 -98 1 -50 3
-94 6 -96 3 -3 5 29 5 71 l0 77 84 0 84 0 2 -175 1 -175 -36 0 c-37 0 -44 -10
-22 -32 8 -7 13 -28 13 -46 -1 -30 1 -32 32 -32 l32 0 0 71 c0 39 4 68 9 65
11 -7 18 62 10 103 -4 17 -3 31 2 31 4 0 6 13 4 30 -2 16 0 32 5 35 5 3 6 16
2 28 -4 12 -4 63 -1 112 3 50 6 84 7 78 2 -16 32 -17 32 -2 0 5 -4 8 -9 5 -17
-11 -20 48 -3 60 8 6 13 17 10 25 -3 8 1 20 8 27 12 11 14 9 14 -10 0 -19 2
-20 10 -8 8 13 10 12 10 -2 0 -10 -6 -18 -12 -18 -9 0 -10 -3 -2 -8 6 -4 14
-14 17 -22 3 -8 6 12 8 45 1 53 2 56 9 25 l7 -35 2 33 c1 41 31 46 31 5 0 -23
-2 -25 -11 -13 -9 12 -10 11 -6 -7 3 -13 2 -23 -2 -23 -11 0 4 -91 17 -99 5
-3 12 -20 14 -36 l3 -30 78 2 c54 2 77 -1 78 -10 0 -15 0 -224 0 -294 l-1 -53
-72 0 c-77 0 -86 -14 -11 -17 54 -2 77 -25 35 -34 -21 -5 -23 -7 -7 -9 11 -1
27 -2 37 -1 9 1 20 -3 24 -10 4 -7 3 -9 -3 -6 -6 4 -14 -1 -17 -10 -4 -10 -4
-14 0 -10 4 4 13 2 19 -3 18 -15 45 -2 38 18 -5 11 -2 14 8 10 11 -4 15 1 15
18 0 15 -6 24 -15 24 -14 1 -14 1 0 10 9 5 16 26 18 52 1 24 6 44 11 46 6 2 6
10 1 21 -6 10 -9 32 -9 49 1 42 -9 51 -21 21 -8 -19 -10 -20 -10 -6 -1 11 8
31 19 47 11 15 17 30 13 34 -3 3 -2 6 3 6 5 0 10 12 10 28 1 15 -1 21 -3 15
-3 -7 -13 -13 -24 -13 -15 0 -19 7 -19 31 0 23 4 30 14 26 23 -9 29 20 33 153
2 69 5 136 7 150 2 14 4 32 5 41 1 20 33 31 81 29 27 -1 31 2 20 9 -13 9 -13
11 3 11 15 0 17 -10 18 -72 0 -40 2 -138 4 -218 2 -85 0 -135 -5 -120 -7 21
-8 22 -10 5 l-1 -20 -9 20 c-8 19 -9 19 -9 1 -1 -15 -4 -16 -16 -6 -8 7 -15 9
-16 4 0 -5 -4 0 -9 11 -7 17 -9 14 -9 -13 -1 -18 3 -31 8 -27 5 3 12 -4 16
-15 4 -11 11 -18 16 -15 5 4 9 -1 9 -9 0 -9 -6 -16 -12 -16 -7 -1 1 -7 17 -14
41 -18 57 -38 43 -56 -8 -13 -9 -12 -5 2 4 10 -1 18 -14 21 -15 4 -17 2 -9
-12 6 -13 5 -18 -6 -18 -9 0 -14 11 -14 29 0 20 -4 28 -13 25 -6 -2 -11 -11
-11 -20 1 -13 -2 -14 -16 -7 -26 14 -29 13 -25 -10 2 -11 -2 -20 -8 -20 -8 0
-8 -3 1 -9 7 -4 14 -14 16 -22 6 -37 19 -59 34 -59 16 -1 16 -2 0 -14 -10 -7
-15 -16 -11 -19 3 -4 -3 -7 -15 -7 -11 0 -24 -4 -27 -10 -3 -5 0 -10 6 -10 8
0 4 -7 -7 -16 -20 -16 -20 -17 9 -45 16 -16 34 -29 42 -29 7 0 16 -8 21 -18
10 -23 12 -62 2 -62 -4 0 -5 -7 -2 -15 9 -22 -26 -32 -41 -11 -7 9 -19 14 -28
10 -10 -3 -27 5 -44 21 -15 14 -40 29 -55 32 -15 3 -33 12 -39 19 -6 8 -17 14
-24 14 -8 0 -15 6 -18 13 -3 8 -11 3 -25 -13 -12 -14 -21 -19 -22 -12 0 6 -5
12 -11 12 -6 0 -9 -6 -6 -13 3 -8 1 -20 -4 -28 -6 -10 -9 -10 -9 -1 0 9 -30
12 -122 10 -101 -1 -112 -3 -63 -8 l60 -7 -68 -1 c-43 -1 -66 2 -62 8 4 6 -7
10 -27 10 -25 0 -29 -3 -18 -10 19 -12 -10 -13 -222 -10 -102 1 -158 -2 -158
-8 0 -6 40 -11 102 -11 56 -1 104 -3 106 -6 3 -3 -40 -5 -96 -5 -56 0 -104 -4
-107 -10 -4 -6 17 -10 55 -10 34 0 59 -4 56 -9 -3 -4 -21 -7 -40 -5 -18 3 -44
0 -57 -6 -20 -8 -14 -9 31 -9 132 2 332 -2 327 -7 -8 -8 -36 -12 -87 -13 -33
-1 -41 -4 -30 -11 11 -7 -1 -9 -40 -9 -50 2 -52 2 -20 9 l35 7 -35 3 c-70 4
-192 2 -197 -4 -4 -3 32 -7 78 -7 67 -2 76 -3 44 -9 -29 -5 -13 -8 62 -9 72
-1 103 3 107 12 5 9 7 9 12 0 4 -10 81 -13 335 -13 181 0 329 -3 329 -7 0 -5
-492 -8 -1093 -8 -600 0 -1123 -2 -1162 -6 l-70 -5 70 -3 c39 -1 213 -2 387
-3 174 -1 315 -5 312 -10 -3 -4 -178 -8 -390 -8 -240 0 -384 -4 -384 -10 0 -5
41 -9 98 -9 499 1 934 -2 929 -7 -3 -3 -236 -6 -516 -5 -405 1 -511 -1 -511
-11 0 -10 43 -12 191 -10 119 1 196 -2 207 -8 14 -9 10 -10 -18 -9 -111 6
-380 -2 -380 -11 0 -6 76 -10 209 -10 116 0 212 -3 214 -7 3 -5 -91 -8 -209
-8 -156 0 -214 -3 -214 -12 0 -8 28 -11 88 -11 48 0 408 -1 801 -1 393 -1 712
-3 709 -6 -3 -3 -345 -6 -760 -6 -415 0 -773 -3 -796 -6 -61 -8 -51 -21 16
-21 31 -1 461 -3 956 -6 494 -3 901 -8 905 -12 3 -3 -410 -4 -918 -1 -508 2
-941 2 -963 0 -21 -3 -38 -10 -38 -15 0 -5 80 -8 188 -7 465 3 1132 -2 1132
-9 0 -4 -297 -6 -660 -4 -604 4 -660 3 -660 -12 0 -14 18 -16 152 -15 512 1
898 -2 898 -8 0 -5 -236 -6 -525 -5 -474 3 -525 2 -525 -12 0 -15 124 -16
1340 -16 946 0 1340 3 1340 11 0 6 -19 10 -47 8 -102 -4 -496 1 -490 7 3 3
125 5 271 5 229 -2 266 0 266 13 0 13 -85 15 -667 15 -366 1 -669 3 -671 6 -5
5 803 9 1161 6 153 -1 177 0 177 14 0 13 -45 15 -377 15 -207 0 -374 2 -371 5
3 3 172 6 377 6 315 0 371 2 371 15 0 12 -62 14 -422 14 -232 0 -419 2 -417 5
3 2 193 5 422 7 328 2 417 5 417 15 0 10 -69 13 -317 14 -175 1 -311 3 -303 5
8 2 150 5 314 6 215 2 300 6 303 15 3 8 -75 11 -298 12 -166 0 -304 3 -307 6
-3 3 133 5 301 5 198 0 307 4 307 10 0 6 -51 10 -132 10 -129 1 -249 8 -257
16 -2 2 84 4 192 4 124 0 197 4 197 10 0 6 -69 10 -186 10 -103 -1 -189 2
-192 5 -3 3 21 5 54 6 153 2 300 6 314 9 41 8 -99 17 -201 13 -77 -3 -119 -1
-124 6 -7 12 21 13 223 11 l112 -1 0 850 c-1 790 -5 911 -26 826 -3 -14 -12
-25 -20 -25 -8 0 -14 -4 -14 -8 0 -4 -24 -12 -54 -18 -38 -7 -52 -6 -49 1 2 6
-8 17 -21 25 -14 7 -23 17 -20 22 3 4 0 8 -6 8 -6 0 -8 5 -5 10 6 9 -38 15
-73 11 -8 -1 -23 6 -35 16 -11 10 -17 13 -14 7 4 -8 -5 -13 -26 -16 -46 -5
-67 1 -68 20 0 14 -2 13 -9 -3 -6 -13 -9 -15 -9 -5 -1 9 -12 15 -29 16 -15 1
-21 -1 -14 -3 6 -3 12 -9 12 -14 0 -13 -40 -5 -50 10 -6 10 -10 9 -18 -4 -7
-13 -15 -16 -28 -10 -11 5 -23 7 -28 6 -4 -1 -22 3 -40 8 -53 17 -254 21 -266
6 -6 -8 -19 -11 -28 -8 -12 4 -14 3 -7 -5 6 -6 24 -12 40 -15 19 -2 11 -5 -22
-6 -29 0 -96 10 -149 24 -105 27 -139 31 -84 10 53 -20 29 -18 -82 10 -96 24
-103 24 -158 10 -32 -8 -66 -15 -76 -14 -11 0 15 9 56 20 41 11 89 17 107 14
27 -5 31 -3 26 14 -3 11 -12 22 -22 24 -14 4 -15 5 0 6 11 1 17 10 17 26 0 34
-5 32 -25 -15z m-23 -89 c-23 -14 -94 -25 -87 -15 3 5 20 11 38 12 18 1 35 5
38 7 2 3 9 5 15 5 6 0 4 -5 -4 -9z m45 -2 c4 -6 13 -8 20 -5 8 3 32 -4 54 -15
46 -22 55 -34 14 -18 -16 6 -41 13 -58 15 -43 7 -55 12 -55 24 0 13 17 13 25
-1z m-220 -9 c-11 -5 -27 -9 -35 -9 -9 0 -8 4 5 9 11 5 27 9 35 9 9 0 8 -4 -5
-9z m-470 -10 c4 -6 -15 -9 -52 -8 l-58 1 45 7 c25 4 48 8 52 8 4 1 10 -2 13
-8z m545 1 c0 -11 -4 -12 -103 -36 -38 -9 -71 -14 -74 -12 -6 7 108 41 129 38
9 -1 19 3 23 9 8 13 25 13 25 1z m-159 -12 c-36 -14 -162 -42 -167 -36 -3 2
32 14 78 25 89 22 128 27 89 11z m506 5 c-3 -3 -12 -4 -19 -1 -8 3 -5 6 6 6
11 1 17 -2 13 -5z m453 -4 c0 -5 -7 -10 -15 -10 -8 0 -15 5 -15 10 0 6 7 10
15 10 8 0 15 -4 15 -10z m-661 -6 c18 -4 28 -11 24 -17 -4 -7 0 -8 12 -3 19 7
228 -42 233 -55 2 -4 9 -6 16 -3 7 3 48 -5 92 -17 43 -12 95 -25 114 -29 19
-4 47 -12 61 -18 14 -6 39 -13 55 -16 42 -7 356 -82 442 -105 119 -31 114 -41
-25 -43 -54 -1 -105 2 -111 6 -7 4 -12 2 -12 -4 0 -8 -9 -10 -25 -6 -14 4 -25
2 -25 -3 0 -12 -53 -19 -76 -10 -17 7 -16 8 6 10 14 1 -2 5 -35 8 -33 3 -61 3
-63 -1 -6 -13 -22 -9 -22 5 0 6 5 19 10 27 9 13 11 13 20 0 6 -10 10 -11 10
-3 0 9 7 10 23 4 30 -12 212 -12 240 -1 22 9 22 9 -1 9 -13 1 -21 5 -18 10 4
5 -3 7 -14 4 -21 -6 -88 8 -137 29 -15 6 -45 13 -65 14 -20 2 -79 15 -130 29
-51 15 -118 32 -148 40 -30 7 -56 19 -58 25 -4 10 -6 10 -12 0 -6 -9 -17 -9
-49 1 -22 7 -41 16 -41 20 0 5 -6 6 -14 3 -20 -8 -136 26 -136 40 0 7 -3 7 -8
-1 -6 -10 -19 -9 -57 2 -28 9 -57 18 -65 22 -35 15 -47 13 -279 -43 -36 -9
-72 -17 -80 -19 -9 -2 -70 -17 -136 -33 -159 -39 -305 -74 -330 -78 -11 -2
-60 -15 -110 -29 -49 -14 -100 -25 -112 -25 -13 0 -23 -4 -23 -10 0 -5 18 -10
40 -10 48 0 54 -19 8 -21 -84 -4 -188 2 -188 11 0 7 59 25 185 54 61 14 124
30 140 35 70 22 247 61 255 56 5 -3 10 -2 12 2 5 11 137 45 148 38 6 -4 10 -2
10 3 0 8 38 18 105 27 6 1 17 5 25 8 20 9 251 65 271 66 9 1 30 -2 48 -5z
m151 -9 c11 -13 10 -14 -4 -9 -9 3 -16 10 -16 15 0 13 6 11 20 -6z m249 -25
c180 -46 221 -58 203 -59 -8 -1 -56 10 -108 24 -52 14 -96 25 -100 25 -12 0 9
-22 30 -31 15 -7 8 -8 -27 -4 -27 2 -55 9 -63 16 -7 6 -21 9 -29 5 -8 -3 -15
-1 -15 4 0 5 -9 7 -21 5 -13 -3 -19 0 -16 8 4 13 16 13 57 1 47 -13 9 11 -43
28 -95 30 -26 19 132 -22z m-1540 16 c9 -10 8 -15 -4 -20 -10 -4 -15 1 -15 14
0 24 4 25 19 6z m1375 1 c3 4 6 -1 6 -10 0 -13 -6 -14 -32 -6 -18 5 -34 9 -36
9 -2 0 -1 4 3 10 3 6 15 6 29 0 13 -5 27 -6 30 -3z m-789 -18 c-70 -19 -180
-25 -188 -11 -3 4 5 7 16 8 68 3 107 9 107 16 0 4 30 8 68 7 l67 -1 -70 -19z
m1015 11 l25 -8 -25 0 c-14 0 -34 3 -45 8 l-20 9 20 -1 c11 0 31 -4 45 -8z
m-980 -26 c-25 -7 -54 -13 -65 -13 -24 1 61 27 90 27 11 1 0 -6 -25 -14z m80
-14 c-63 -16 -119 -29 -125 -29 -18 1 59 27 83 28 12 1 22 5 22 11 0 5 6 7 13
5 6 -3 26 -1 42 4 17 5 41 9 55 9 14 1 -27 -12 -90 -28z m990 20 c0 -13 -30
-13 -50 0 -11 7 -7 10 18 10 17 0 32 -4 32 -10z m54 1 c3 -3 -6 -8 -20 -9 -13
-1 -24 2 -24 6 0 10 38 13 44 3z m-1387 -27 c-3 -3 -12 -4 -19 -1 -8 3 -5 6 6
6 11 1 17 -2 13 -5z m71 -1 c-10 -2 -28 -2 -40 0 -13 2 -5 4 17 4 22 1 32 -1
23 -4z m566 -1 c2 -4 1 -14 -3 -20 -10 -17 -41 -4 -34 14 6 15 29 19 37 6z
m-720 -39 c-51 -13 -81 -16 -129 -14 -26 1 -28 3 -12 12 10 6 21 8 24 5 3 -3
13 -1 23 4 9 5 38 10 63 11 26 2 47 7 47 12 0 5 7 3 16 -4 14 -12 10 -15 -32
-26z m219 30 c-7 -2 -19 -2 -25 0 -7 3 -2 5 12 5 14 0 19 -2 13 -5z m1197 -29
c0 -3 -12 -3 -27 0 -16 2 -32 5 -36 5 -5 1 -6 5 -2 10 5 9 65 -5 65 -15z
m-1160 6 c0 -5 -7 -10 -15 -10 -8 0 -15 5 -15 10 0 6 7 10 15 10 8 0 15 -4 15
-10z m680 -27 c0 -6 -6 -13 -12 -16 -9 -3 -6 -12 10 -28 l22 -23 0 32 c0 48
17 39 21 -12 3 -32 1 -42 -8 -39 -8 3 -13 -3 -13 -14 0 -10 -5 -24 -11 -30 -7
-7 -4 -12 10 -16 16 -4 21 0 22 16 1 17 2 18 6 5 2 -10 11 -18 18 -18 7 0 16
-6 19 -12 3 -7 3 -3 0 10 -4 16 -1 22 11 22 14 0 14 3 -2 28 -9 15 -13 24 -9
20 8 -7 36 14 36 26 0 4 -11 4 -25 0 -31 -8 -32 -1 -3 28 l21 21 19 -22 c10
-13 15 -27 12 -32 -3 -5 0 -8 6 -7 7 2 18 -15 25 -37 7 -22 13 -34 14 -26 1
11 6 10 25 -3 14 -8 43 -18 65 -22 61 -10 49 -23 -19 -22 -56 1 -60 3 -54 21
5 16 3 19 -11 14 -9 -4 -19 -7 -21 -7 -2 0 -4 -9 -4 -21 0 -16 -4 -19 -21 -14
-15 5 -19 4 -15 -4 5 -7 -7 -11 -36 -10 -33 0 -38 2 -23 9 l20 9 -20 2 c-30 3
-46 2 -90 -6 -22 -4 -60 -9 -85 -10 l-45 -3 45 7 c25 5 36 9 25 9 -12 1 -26 7
-33 14 -8 8 -12 8 -12 1 0 -7 -33 -11 -96 -12 -70 0 -94 3 -91 12 2 7 16 13
31 15 27 3 27 4 10 23 -17 18 -16 19 24 17 38 -1 51 -18 15 -18 -22 0 -14 -6
20 -14 19 -4 26 -3 22 4 -3 5 -2 10 4 10 5 0 11 -5 13 -11 4 -13 68 -21 68 -8
0 5 7 6 15 3 10 -4 15 0 15 10 0 13 -4 15 -19 6 -25 -13 -44 -13 -36 0 3 6 15
10 26 10 11 0 23 8 26 18 4 9 11 20 17 24 6 4 -5 6 -25 5 -20 -1 -43 -8 -52
-15 -12 -10 -17 -10 -23 -1 -5 8 -3 9 6 4 10 -6 12 -4 7 8 -5 12 -1 17 12 17
11 0 22 6 24 13 4 9 8 9 15 -1 7 -11 10 -10 16 3 4 11 12 14 26 10 16 -5 19
-3 14 10 -5 12 -15 16 -35 13 -15 -3 -26 -1 -23 4 3 4 14 8 25 8 11 0 22 7 25
15 5 11 10 12 25 2 10 -6 19 -17 19 -24z m785 20 c33 -5 36 -7 19 -13 -12 -5
-48 -2 -85 7 -113 26 -87 28 66 6z m-1618 1 c-3 -3 -12 -4 -19 -1 -8 3 -5 6 6
6 11 1 17 -2 13 -5z m603 -43 c0 -14 8 -33 18 -44 16 -19 16 -20 -5 -8 -12 6
-24 23 -26 38 -4 27 -4 27 -12 5 l-8 -23 -13 27 c-18 34 -18 48 1 41 8 -4 17
-1 21 5 9 14 24 -11 24 -41z m750 39 c0 -5 -5 -10 -11 -10 -5 0 -7 5 -4 10 3
6 8 10 11 10 2 0 4 -4 4 -10z m97 4 c-3 -3 -12 -4 -19 -1 -8 3 -5 6 6 6 11 1
17 -2 13 -5z m-1382 -14 c-11 -5 -27 -9 -35 -9 -9 0 -8 4 5 9 11 5 27 9 35 9
9 0 8 -4 -5 -9z m-175 -10 c-34 -11 -60 -11 -35 0 11 5 29 8 40 8 16 0 15 -2
-5 -8z m1507 4 c-3 -3 -12 -4 -19 -1 -8 3 -5 6 6 6 11 1 17 -2 13 -5z m-1638
-8 c-2 -2 -17 -6 -34 -10 -22 -5 -26 -4 -15 4 14 9 59 15 49 6z m1400 -31 c-7
-6 -13 -5 -19 5 -12 20 -2 32 15 17 8 -8 10 -16 4 -22z m-1342 19 c-3 -3 -12
-4 -19 -1 -8 3 -5 6 6 6 11 1 17 -2 13 -5z m651 -16 c2 -10 13 -18 23 -18 11
0 19 -4 19 -10 0 -5 -4 -10 -9 -10 -5 0 -13 -9 -16 -21 -4 -13 -13 -19 -24
-16 -9 2 -22 -2 -29 -10 -7 -7 -18 -13 -25 -13 -7 0 -4 7 6 14 26 20 40 75 22
83 -19 7 -11 20 11 20 9 0 19 -9 22 -19z m1301 8 c9 -11 3 -12 -41 -4 -68 12
-73 18 -16 18 26 0 50 -6 57 -14z m-2086 -3 c-7 -2 -19 -2 -25 0 -7 3 -2 5 12
5 14 0 19 -2 13 -5z m94 1 c-3 -3 -12 -4 -19 -1 -8 3 -5 6 6 6 11 1 17 -2 13
-5z m516 -1 c4 -3 -1 -12 -11 -19 -20 -15 -56 -19 -47 -4 3 5 12 7 20 3 9 -3
15 1 15 11 0 16 12 21 23 9z m107 -5 c0 11 20 -22 20 -33 0 -5 -4 -3 -10 5 -5
8 -12 11 -17 7 -4 -4 -2 -17 5 -27 10 -17 10 -20 -3 -20 -8 0 -23 17 -33 39
l-19 39 28 -8 c16 -5 29 -6 29 -2z m150 2 c0 -5 -2 -10 -4 -10 -3 0 -8 5 -11
10 -3 6 -1 10 4 10 6 0 11 -4 11 -10z m1010 -2 c0 -11 -48 -10 -54 1 -3 5 8 8
24 7 17 0 30 -4 30 -8z m-1820 -2 c0 -2 -11 -6 -25 -8 -13 -3 -22 -1 -19 3 5
9 44 13 44 5z m921 -27 c-5 -13 -10 -19 -10 -12 -1 15 10 45 15 40 3 -2 0 -15
-5 -28z m393 10 c6 -5 5 -17 -2 -31 -11 -21 -11 -21 -5 6 5 24 3 28 -10 23 -8
-3 -21 1 -29 10 -11 14 -10 15 12 8 14 -4 29 -11 34 -16z m31 13 c14 -9 17
-52 4 -52 -5 0 -9 -4 -9 -10 0 -18 16 -10 29 14 15 27 74 42 100 25 14 -9 14
-10 -1 -5 -10 3 -18 1 -18 -4 0 -6 8 -10 17 -10 9 0 25 -7 35 -17 10 -9 21
-14 24 -11 3 3 -5 15 -17 27 -26 24 -14 28 15 6 11 -8 29 -12 41 -9 13 3 27
-1 34 -10 8 -9 22 -16 32 -16 24 0 35 -20 18 -31 -11 -7 -10 -9 4 -9 9 0 17
-4 17 -10 0 -5 -11 -10 -25 -10 -14 0 -25 5 -25 10 0 6 -5 10 -11 10 -5 0 -7
-4 -4 -10 6 -9 -15 -12 -80 -12 -77 0 -96 3 -92 15 4 13 7 13 109 16 53 1 66
4 62 15 -8 22 -42 26 -79 10 -41 -17 -48 -17 -39 -3 4 7 0 9 -14 5 -11 -4 -23
-2 -27 3 -3 7 0 8 9 5 9 -3 16 -1 16 5 0 15 -23 14 -39 -1 -10 -11 -15 -10
-25 4 -14 18 -26 14 -26 -9 0 -7 6 -13 14 -13 8 0 18 -4 21 -10 3 -5 0 -8 -7
-5 -7 2 -26 7 -42 9 -43 8 -55 24 -32 42 13 9 15 14 6 14 -7 0 -10 3 -7 7 4 3
2 12 -4 20 -12 14 -1 18 16 5z m-1545 -12 c0 -5 -4 -10 -10 -10 -5 0 -10 5
-10 10 0 6 5 10 10 10 6 0 10 -4 10 -10z m2090 0 c12 -8 11 -10 -7 -10 -13 0
-23 5 -23 10 0 13 11 13 30 0z m107 4 c-3 -3 -12 -4 -19 -1 -8 3 -5 6 6 6 11
1 17 -2 13 -5z m-2112 -14 c-11 -5 -27 -9 -35 -9 -9 0 -8 4 5 9 11 5 27 9 35
9 9 0 8 -4 -5 -9z m950 -3 c16 -13 15 -14 -13 -9 -18 2 -32 8 -32 13 0 13 24
11 45 -4z m1285 -13 c25 -7 38 -13 30 -13 -19 -1 -120 26 -129 34 -6 7 17 2
99 -21z m70 16 c0 -5 -10 -10 -22 -10 -19 0 -20 2 -8 10 19 13 30 13 30 0z
m-243 -6 c-3 -3 -12 -4 -19 -1 -8 3 -5 6 6 6 11 1 17 -2 13 -5z m-1373 -20
c10 -25 6 -41 -5 -21 -5 9 -14 17 -19 17 -14 0 -12 -27 3 -34 6 -3 -1 -2 -18
1 -16 3 -34 11 -38 17 -6 8 -10 8 -13 -1 -3 -7 -12 -9 -20 -6 -10 4 -12 0 -8
-11 5 -12 21 -16 68 -18 73 -1 98 0 105 9 3 3 0 8 -6 10 -15 5 -18 33 -4 33
10 0 26 -19 26 -31 0 -10 35 -41 35 -31 0 5 20 9 45 9 28 -1 45 -6 45 -14 0
-7 -7 -10 -15 -7 -8 4 -15 1 -15 -4 0 -6 17 -13 38 -15 l37 -4 -42 -1 c-23 -1
-43 2 -45 8 -3 11 -94 17 -104 7 -4 -3 -15 -2 -26 4 -10 6 -29 7 -41 2 -20 -6
-18 -8 13 -14 l35 -6 -42 -2 c-24 0 -43 3 -43 9 0 5 -10 10 -22 10 -31 -1
-420 8 -435 9 -7 1 -13 7 -13 14 0 9 18 11 72 7 46 -3 88 -1 112 7 21 7 51 13
67 13 15 0 30 4 34 10 3 5 12 7 20 4 7 -3 22 -1 32 5 11 5 45 11 77 12 31 1
59 6 62 11 9 14 42 9 48 -8z m1509 -6 c31 -15 36 -28 7 -21 -11 3 -20 10 -20
17 0 7 -4 6 -9 -2 -7 -11 -9 -11 -14 2 -8 19 0 20 36 4z m-1306 -23 c0 -8 -4
-12 -9 -9 -4 3 -8 9 -8 15 0 5 4 9 8 9 5 0 9 -7 9 -15z m1411 -21 c-7 -15 -14
-21 -16 -15 -2 7 2 18 8 26 18 22 21 18 8 -11z m-2371 -50 c-3 -3 -12 -4 -19
-1 -8 3 -5 6 6 6 11 1 17 -2 13 -5z m100 0 c-3 -3 -12 -4 -19 -1 -8 3 -5 6 6
6 11 1 17 -2 13 -5z m246 -1 c-13 -2 -33 -2 -45 0 -13 2 -3 4 22 4 25 0 35 -2
23 -4z m210 0 c-13 -2 -33 -2 -45 0 -13 2 -3 4 22 4 25 0 35 -2 23 -4z m1030
0 c-7 -2 -21 -2 -30 0 -10 3 -4 5 12 5 17 0 24 -2 18 -5z m240 0 c-13 -2 -35
-2 -50 0 -16 2 -5 4 22 4 28 0 40 -2 28 -4z m400 -10 c-7 -2 -21 -2 -30 0 -10
3 -4 5 12 5 17 0 24 -2 18 -5z m-1458 -83 c8 0 11 8 8 23 -3 14 1 11 13 -11
11 -22 22 -31 32 -27 8 3 21 0 30 -7 13 -11 14 -10 4 8 -11 21 -7 34 10 34 5
0 7 -4 3 -9 -3 -5 -1 -12 5 -16 5 -3 10 -1 10 6 0 10 3 10 12 1 18 -18 27 -15
21 7 -3 10 1 22 8 27 8 5 11 3 7 -8 -4 -8 -2 -21 3 -29 6 -10 9 -10 9 -1 0 25
20 11 21 -15 1 -27 1 -26 12 7 11 35 11 35 15 8 3 -25 8 -30 28 -27 4 0 10 -5
15 -12 6 -10 12 -9 26 6 11 13 27 19 42 17 17 -3 22 0 19 10 -3 7 0 18 7 25
10 9 14 7 19 -10 5 -17 8 -19 15 -8 5 8 7 21 4 30 -4 13 -2 13 10 -1 8 -10 22
-18 31 -18 9 0 16 -7 16 -15 0 -8 9 -15 21 -15 11 0 17 5 14 10 -3 6 -1 10 5
10 7 0 10 7 6 15 -8 22 28 2 48 -26 l14 -21 7 22 c5 17 10 19 21 9 11 -9 14
-8 14 5 0 9 8 16 20 16 11 0 20 -5 20 -10 0 -6 6 -10 13 -9 13 2 41 -6 69 -22
23 -12 38 -12 38 1 0 5 -7 7 -15 4 -8 -4 -15 -1 -15 5 0 12 12 18 45 23 15 2
19 -2 17 -16 -2 -11 1 -15 7 -11 6 3 12 16 12 28 1 17 2 18 6 5 5 -21 19 -24
26 -5 3 9 7 9 19 0 8 -7 18 -10 22 -6 4 4 9 -3 13 -15 3 -12 11 -22 19 -22 8
0 11 6 7 16 -3 9 0 20 8 25 22 14 28 11 22 -11 -4 -14 0 -20 11 -20 15 0 21
12 16 35 -1 6 4 4 11 -2 9 -10 16 -10 26 -1 8 6 13 7 12 2 -3 -19 1 -37 9 -30
7 7 8 11 11 37 1 6 6 5 16 -3 31 -28 41 -34 77 -45 42 -12 48 -9 48 24 0 13 4
23 10 23 5 0 9 -3 7 -7 -1 -5 3 -8 8 -8 6 0 9 6 9 12 -1 7 2 10 7 7 5 -3 9
-19 9 -35 0 -19 4 -28 11 -24 6 4 8 13 5 21 -3 8 -1 14 4 14 6 0 10 -12 10
-27 0 -26 1 -26 15 -7 11 13 13 14 9 3 -3 -10 2 -19 13 -23 10 -4 19 -2 21 3
2 6 16 11 30 12 27 0 27 0 5 11 -24 12 -32 40 -10 35 6 -1 11 4 9 11 -1 8 3
12 10 10 7 -3 15 -18 18 -34 4 -19 8 -25 13 -16 5 6 5 17 1 24 -4 7 -3 8 4 4
7 -4 12 -15 12 -24 1 -16 1 -16 10 0 6 10 18 14 29 11 16 -4 19 -12 16 -44 -5
-47 -12 -62 -27 -53 -6 4 -5 9 3 15 10 6 7 8 -8 6 -12 0 -20 -4 -17 -8 2 -4
-3 -9 -11 -12 -9 -4 -12 -1 -9 7 4 10 -12 13 -71 12 -42 -1 -79 -6 -83 -11 -4
-6 -16 -11 -27 -13 l-20 -4 20 16 c20 15 20 15 -2 13 -13 -1 -23 -8 -23 -17 0
-12 -2 -12 -9 -1 -6 9 -30 13 -80 13 -120 -1 -118 -1 -101 -13 13 -8 12 -9 -4
-7 -10 2 -21 -2 -23 -8 -4 -12 19 -15 61 -7 18 3 24 8 17 13 -7 4 17 7 53 6
43 -1 67 -5 71 -13 5 -15 95 -18 95 -3 0 6 25 10 55 10 30 0 55 -4 55 -10 0
-5 18 -10 40 -10 33 0 40 -4 40 -19 0 -10 7 -21 15 -25 8 -3 15 -12 15 -21 0
-13 -18 -15 -110 -15 -100 0 -111 2 -108 18 3 15 -7 17 -80 20 -77 3 -84 2
-89 -17 -5 -20 -13 -21 -114 -21 -102 0 -109 1 -109 20 0 18 -7 20 -81 20 -72
0 -81 -2 -86 -20 -4 -17 -14 -20 -55 -20 -27 0 -47 -4 -44 -8 3 -5 -1 -9 -9
-9 -8 0 -12 4 -9 9 3 4 -17 8 -44 8 -41 0 -51 3 -55 20 -5 18 -14 20 -112 20
-98 0 -107 -2 -112 -20 -5 -18 -14 -20 -109 -20 -97 0 -104 1 -104 20 0 19 -7
20 -89 20 -75 0 -90 -3 -93 -17 -2 -13 -19 -16 -105 -18 -95 -3 -103 -1 -103
16 0 17 -8 19 -91 19 -77 0 -90 -2 -85 -15 4 -12 -3 -15 -29 -15 -49 0 -48 0
-66 -16 -15 -13 -17 -13 -22 1 -5 10 -20 15 -52 15 -37 0 -45 3 -45 19 0 10 7
21 15 25 8 3 15 12 15 21 0 10 10 15 34 15 19 0 38 5 41 10 3 6 36 10 73 9 47
0 61 -3 47 -9 -15 -6 -6 -9 33 -9 33 -1 51 3 47 9 -4 6 20 10 64 10 39 0 70
-3 68 -7 -3 -11 6 -13 49 -13 21 0 33 4 29 10 -4 6 18 10 59 10 37 0 66 -4 66
-10 0 -5 21 -10 46 -10 27 0 43 4 39 10 -4 6 16 10 54 10 32 0 61 -4 63 -9 3
-9 42 -14 83 -12 16 1 17 3 6 10 -10 6 14 11 67 13 75 3 101 -3 70 -15 -7 -3
9 -6 35 -6 30 -1 46 3 42 9 -4 6 20 10 65 10 43 0 69 4 65 10 -8 12 -149 2
-154 -12 -2 -6 -7 -5 -12 3 -7 12 -9 11 -9 -1 0 -13 -1 -13 -10 0 -7 12 -64
15 -355 16 -347 2 -393 7 -347 35 18 11 19 14 5 24 -12 9 -9 11 14 10 16 0 28
5 28 13 0 6 3 12 8 12 4 0 16 0 26 0 12 0 21 -8 24 -22 3 -16 5 -12 6 12 2 35
2 35 15 11 9 -17 15 -20 21 -11 5 9 9 9 14 1 6 -9 21 -8 60 1 44 10 54 9 62
-3 6 -10 9 -6 10 16 1 24 3 25 6 8 2 -13 10 -23 18 -23z m716 13 c-12 -20 -14
-14 -5 12 4 9 9 14 11 11 3 -2 0 -13 -6 -23z m-1044 -3 c18 0 33 -4 33 -9 0
-4 -11 -6 -25 -3 -14 2 -25 0 -25 -6 0 -12 -38 -23 -45 -13 -2 4 -1 18 2 30 4
16 9 19 16 12 6 -6 26 -11 44 -11z m-125 -9 c7 11 11 11 15 2 2 -7 9 -13 14
-13 6 0 7 5 4 10 -3 6 -2 10 2 10 5 0 14 -14 20 -31 10 -25 15 -29 26 -21 16
14 34 3 34 -21 0 -15 -6 -18 -28 -13 -16 3 -31 1 -34 -4 -4 -6 -10 -8 -16 -5
-5 3 -33 7 -64 7 -30 1 -55 5 -55 10 0 4 -5 8 -11 8 -5 0 -8 -4 -5 -9 4 -5
-19 -11 -50 -13 -31 -1 -58 1 -61 6 -3 5 -12 -2 -20 -15 -14 -23 -14 -22 -9
16 3 22 6 51 6 65 1 22 2 23 11 7 10 -18 11 -18 24 0 10 13 13 14 12 3 -1 -8
3 -15 8 -15 6 0 9 4 7 10 -2 5 7 1 19 -10 22 -20 22 -20 17 2 -5 17 -2 20 11
16 9 -3 22 -10 29 -16 11 -9 16 -3 13 16 -1 5 3 6 9 2 6 -3 7 -11 4 -17 -5 -8
-1 -9 10 -5 11 4 15 3 10 -4 -3 -6 -18 -9 -31 -6 -14 3 -37 -2 -52 -10 -26
-15 -26 -15 11 -9 25 5 37 3 40 -6 8 -23 60 8 58 35 -3 32 1 45 7 23 4 -15 7
-16 15 -5z m720 2 c-6 -2 -9 -10 -5 -16 4 -7 -1 -6 -10 2 -22 18 -21 21 6 20
12 0 16 -3 9 -6z m-892 -97 c0 -3 -4 -8 -10 -11 -5 -3 -10 -1 -10 4 0 6 5 11
10 11 6 0 10 -2 10 -4z m805 -6 c3 -5 1 -10 -4 -10 -6 0 -11 5 -11 10 0 6 2
10 4 10 3 0 8 -4 11 -10z m-372 -187 c-7 -2 -21 -2 -30 0 -10 3 -4 5 12 5 17
0 24 -2 18 -5z m432 -3 c3 -5 0 -10 -7 -10 -8 0 -6 -5 5 -11 21 -12 13 -29
-14 -29 -15 0 -19 6 -17 23 3 20 -1 22 -39 21 -23 0 -40 3 -37 8 7 11 102 10
109 -2z m-830 -63 l-5 -32 12 28 c18 41 29 32 12 -10 -12 -31 -12 -35 0 -20
13 16 14 15 20 -15 13 -68 17 -94 19 -135 1 -24 4 -43 7 -43 3 0 4 -27 3 -60
-1 -37 2 -60 9 -60 7 0 8 15 4 41 -4 25 -3 38 3 35 5 -4 14 2 20 11 9 16 11
15 11 -7 0 -14 3 -51 6 -83 4 -38 2 -63 -6 -72 -9 -11 -9 -15 -1 -15 7 0 11
-29 11 -86 0 -62 -3 -85 -12 -82 -14 5 -48 -26 -48 -44 0 -7 -6 -4 -12 6 -10
17 -12 16 -29 -19 -11 -21 -19 -49 -19 -61 0 -13 -7 -24 -17 -27 -16 -3 -16
-5 2 -12 36 -15 49 -54 18 -51 -28 2 -47 55 -31 84 10 19 10 25 -2 32 -8 6
-11 10 -6 10 5 0 3 7 -4 15 -10 12 -10 15 4 15 9 0 16 8 16 20 0 13 5 18 15
14 12 -5 13 -10 4 -20 -7 -9 -8 -14 -1 -14 14 0 22 24 12 40 -7 11 -16 12 -44
3 -30 -9 -36 -9 -36 3 0 8 5 14 11 14 8 0 8 5 -1 15 -10 12 -10 15 0 15 16 0
50 29 50 42 0 5 -5 6 -12 2 -8 -5 -9 0 -5 15 5 21 4 22 -12 7 -22 -20 -38 -21
-22 -2 9 11 9 14 -1 13 -46 -1 -55 3 -53 28 3 26 41 95 59 107 6 4 7 8 2 8 -5
0 -1 9 8 19 10 11 16 28 13 38 -4 14 -5 14 -6 -4 -1 -16 -7 -23 -21 -23 -17 0
-20 7 -21 43 -2 81 3 109 22 128 19 19 19 19 19 -3 0 -18 2 -20 9 -9 5 8 7 21
3 29 -3 10 -1 13 6 8 8 -5 10 -2 6 8 -7 18 -21 21 -26 6 -1 -5 -8 2 -15 15 -9
20 -8 25 3 25 8 0 14 -6 14 -12 1 -7 7 -3 14 10 8 15 10 39 6 67 -5 33 -4 42
6 38 8 -3 12 -16 9 -36z m1631 31 c4 -7 3 -8 -4 -4 -7 4 -12 3 -12 -3 0 -5 8
-15 18 -20 16 -10 16 -10 -2 -11 -17 0 -17 -1 -2 -25 21 -32 20 -35 -6 -34
-13 0 -17 3 -10 6 20 8 13 19 -13 19 -14 0 -25 -4 -25 -8 0 -4 6 -8 13 -8 8 0
7 -4 -3 -10 -10 -6 -11 -10 -2 -10 6 0 12 -8 11 -17 0 -11 -3 -13 -6 -5 -7 18
-20 15 -43 -10 l-20 -22 0 22 c0 12 4 22 8 22 5 0 15 19 22 43 17 51 29 69 43
60 6 -4 8 0 4 10 -7 20 18 24 29 5z m-73 -11 c7 -19 -8 -43 -17 -28 -4 6 -1
11 6 12 10 0 10 2 1 6 -15 5 -17 23 -4 23 5 0 11 -6 14 -13z m-1593 -52 c0
-14 -2 -25 -4 -25 -2 0 -6 11 -8 25 -3 14 -1 25 3 25 5 0 9 -11 9 -25z m865
-16 c-5 -15 -4 -19 4 -15 6 4 11 1 11 -8 0 -8 -4 -18 -10 -21 -5 -3 -10 -1
-10 5 0 6 -4 8 -10 5 -13 -8 -13 -2 2 30 14 30 22 33 13 4z m-35 -10 c0 -11
-4 -18 -10 -14 -5 3 -7 12 -3 20 7 21 13 19 13 -6z m743 1 c-3 -11 -7 -20 -9
-20 -2 0 -4 9 -4 20 0 11 4 20 9 20 5 0 7 -9 4 -20z m-746 -72 c-3 -8 -6 -5
-6 6 -1 11 2 17 5 13 3 -3 4 -12 1 -19z m753 -12 c0 -3 -4 -8 -10 -11 -5 -3
-10 -1 -10 4 0 6 5 11 10 11 6 0 10 -2 10 -4z m350 -131 c5 3 10 1 10 -4 0 -6
-4 -11 -10 -11 -5 0 -7 -7 -4 -15 4 -9 0 -15 -8 -15 -10 0 -15 13 -16 43 -1
35 0 38 8 19 6 -13 14 -20 20 -17z m307 -31 c-3 -3 -12 -4 -19 -1 -8 3 -5 6 6
6 11 1 17 -2 13 -5z m-1127 -74 l0 -40 -79 0 -79 0 -4 35 c-2 20 -2 38 1 40 2
3 40 5 83 5 l78 0 0 -40z m807 -51 c-11 -29 -12 -29 -15 -9 -3 18 10 38 25 40
1 0 -4 -14 -10 -31z m-1983 -88 c3 -5 0 -11 -7 -14 -8 -3 -14 1 -14 9 0 16 13
19 21 5z m2274 -49 c2 -7 -3 -12 -12 -12 -9 0 -16 7 -16 16 0 17 22 14 28 -4z
m-301 -79 c-3 -10 -5 -4 -5 12 0 17 2 24 5 18 2 -7 2 -21 0 -30z m-1747 5 c0
-10 -4 -18 -9 -18 -5 0 -14 -12 -19 -27 -10 -27 -10 -26 -11 13 -1 22 1 43 4
46 12 12 35 3 35 -14z m815 2 c3 -5 1 -10 -4 -10 -6 0 -11 5 -11 10 0 6 2 10
4 10 3 0 8 -4 11 -10z m1100 0 c-3 -5 -15 -10 -26 -10 -11 0 -17 5 -14 10 3 6
15 10 26 10 11 0 17 -4 14 -10z m30 -20 c3 -6 -4 -9 -19 -8 -13 1 -22 6 -20
10 7 11 32 10 39 -2z m-1578 -32 c-3 -8 -6 -5 -6 6 -1 11 2 17 5 13 3 -3 4
-12 1 -19z m-224 -8 c4 -17 0 -19 -39 -18 -32 0 -44 5 -44 15 0 11 8 14 29 11
17 -2 28 -1 25 4 -3 4 1 8 9 8 8 0 17 -9 20 -20z m-317 1 c-4 -5 -1 -11 6 -13
7 -3 8 -7 2 -11 -14 -8 -38 9 -30 22 4 6 12 11 17 11 6 0 8 -4 5 -9z m634 -1
c0 -5 -4 -10 -9 -10 -6 0 -13 5 -16 10 -3 6 1 10 9 10 9 0 16 -4 16 -10z
m1560 0 c0 -5 -4 -10 -10 -10 -5 0 -10 5 -10 10 0 6 5 10 10 10 6 0 10 -4 10
-10z m-2206 -38 c2 -4 -4 -9 -15 -9 -11 -1 -17 2 -14 8 7 11 22 12 29 1z m242
-7 c-3 -20 -16 -31 -16 -13 0 13 8 28 16 28 1 0 1 -7 0 -15z m418 4 c-6 -10
-44 -18 -44 -10 0 12 8 17 29 17 11 0 18 -3 15 -7z m863 -11 c-3 -8 -6 -5 -6
6 -1 11 2 17 5 13 3 -3 4 -12 1 -19z m-1514 -20 c-2 -5 1 -15 7 -23 10 -12 9
-15 -4 -15 -9 0 -16 -6 -16 -13 0 -7 -9 -13 -19 -14 -15 -1 -18 3 -14 15 6 15
4 15 -15 -2 -30 -26 -52 -16 -24 12 12 12 22 29 22 37 0 12 9 15 34 13 19 -1
32 -6 29 -10z m604 -34 c-3 -3 -12 -4 -19 -1 -8 3 -5 6 6 6 11 1 17 -2 13 -5z
m1050 -9 c0 -8 -2 -15 -4 -15 -3 0 -11 7 -19 15 -14 13 -13 15 4 15 10 0 19
-7 19 -15z m-1177 -21 c0 -2 -11 -4 -25 -4 -14 0 -25 4 -25 9 0 4 11 6 25 3
14 -2 25 -6 25 -8z m893 -4 c-9 -10 -93 -1 -93 9 0 3 23 4 51 2 28 -1 47 -7
42 -11z m-943 -44 c0 -17 -7 -25 -25 -28 -17 -4 -25 -1 -25 8 0 8 10 14 22 14
42 0 3 19 -47 23 -48 3 -48 3 13 5 59 2 62 1 62 -22z m327 12 c-21 -7 -32 -7
-40 1 -8 8 0 11 29 10 39 -1 39 -1 11 -11z m130 6 c-3 -3 -12 -4 -19 -1 -8 3
-5 6 6 6 11 1 17 -2 13 -5z m483 -3 c0 -9 -159 -6 -168 4 -3 3 34 5 81 5 48 0
87 -4 87 -9z m128 2 c-21 -2 -57 -2 -80 0 -24 2 -7 4 37 4 44 0 63 -2 43 -4z
m-1141 -45 c-3 -8 -6 -5 -6 6 -1 11 2 17 5 13 3 -3 4 -12 1 -19z m473 12 c0
-5 -11 -10 -25 -10 -14 0 -25 5 -25 10 0 6 11 10 25 10 14 0 25 -4 25 -10z
m40 6 c0 -3 -4 -8 -10 -11 -5 -3 -10 -1 -10 4 0 6 5 11 10 11 6 0 10 -2 10 -4z
m40 -6 c0 -5 -7 -7 -15 -4 -8 4 -15 8 -15 10 0 2 7 4 15 4 8 0 15 -4 15 -10z
m76 1 c-3 -5 -15 -7 -26 -4 -28 7 -25 13 6 13 14 0 23 -4 20 -9z m-351 -85
c11 -2 -18 -4 -65 -4 -47 -1 -80 2 -73 6 10 6 92 5 138 -2z m1045 0 c14 -2
-110 -3 -275 -3 -165 0 -280 3 -255 6 44 6 480 3 530 -3z m-977 -3 c-7 -2 -19
-2 -25 0 -7 3 -2 5 12 5 14 0 19 -2 13 -5z m130 0 c-7 -2 -19 -2 -25 0 -7 3
-2 5 12 5 14 0 19 -2 13 -5z m54 1 c-3 -3 -12 -4 -19 -1 -8 3 -5 6 6 6 11 1
17 -2 13 -5z m76 -1 c-13 -2 -33 -2 -45 0 -13 2 -3 4 22 4 25 0 35 -2 23 -4z
m75 0 c-10 -2 -26 -2 -35 0 -10 3 -2 5 17 5 19 0 27 -2 18 -5z m55 0 c-7 -2
-19 -2 -25 0 -7 3 -2 5 12 5 14 0 19 -2 13 -5z m760 0 c-23 -2 -64 -2 -90 0
-26 2 -7 3 42 3 50 0 71 -1 48 -3z m74 1 c-3 -3 -12 -4 -19 -1 -8 3 -5 6 6 6
11 1 17 -2 13 -5z m-438 -33 c-53 -3 -244 -3 -425 0 l-329 5 425 0 c234 1 382
-2 329 -5z m144 2 c-7 -2 -21 -2 -30 0 -10 3 -4 5 12 5 17 0 24 -2 18 -5z
m232 -3 c4 -6 -12 -10 -42 -9 -36 0 -43 3 -28 9 28 12 63 12 70 0z m45 6 c0
-11 -19 -15 -25 -6 -3 5 1 10 9 10 9 0 16 -2 16 -4z m37 -2 c-3 -3 -12 -4 -19
-1 -8 3 -5 6 6 6 11 1 17 -2 13 -5z m-189 -11 c-10 -2 -26 -2 -35 0 -10 3 -2
5 17 5 19 0 27 -2 18 -5z m-883 -26 c22 -2 -140 -4 -360 -4 -220 -1 -390 2
-377 5 22 7 653 5 737 -1z m805 -1 c14 -1 -153 -3 -370 -3 -217 1 -357 3 -310
6 86 6 633 4 680 -3z m73 -3 c-7 -2 -21 -2 -30 0 -10 3 -4 5 12 5 17 0 24 -2
18 -5z m-1423 -31 c0 -9 -88 -7 -98 2 -3 3 18 6 46 6 29 0 52 -4 52 -8z m295
-3 c-27 -10 -202 -11 -209 0 -3 4 47 8 112 8 69 0 109 -3 97 -8z m116 -7 c-13
-2 -27 0 -32 5 -6 6 3 7 23 4 28 -4 29 -6 9 -9z m234 8 c3 -5 -1 -10 -9 -10
-8 0 -18 5 -21 10 -3 6 1 10 9 10 8 0 18 -4 21 -10z m650 1 c4 -7 -100 -10
-299 -8 -168 1 -300 4 -294 8 19 12 586 11 593 0z m42 -7 c-3 -3 -12 -4 -19
-1 -8 3 -5 6 6 6 11 1 17 -2 13 -5z m61 -1 c-10 -2 -26 -2 -35 0 -10 3 -2 5
17 5 19 0 27 -2 18 -5z m-373 -33 c18 -8 17 -9 -7 -9 -16 -1 -28 4 -28 9 0 12
8 12 35 0z m122 -7 c-20 -2 -52 -2 -70 0 -17 2 0 4 38 4 39 0 53 -2 32 -4z
m-667 -113 c0 -13 -20 -13 -40 0 -12 8 -9 10 13 10 15 0 27 -4 27 -10z m170
-6 c0 -2 -19 -4 -42 -3 -35 1 -38 2 -18 8 23 7 60 4 60 -5z m110 0 c0 -2 -7
-4 -15 -4 -8 0 -15 4 -15 10 0 5 7 7 15 4 8 -4 15 -8 15 -10z m60 6 c11 -8 9
-9 -12 -8 -16 1 -28 6 -28 10 0 11 22 10 40 -2z m73 -7 c-7 -2 -21 -2 -30 0
-10 3 -4 5 12 5 17 0 24 -2 18 -5z m205 0 c-27 -2 -69 -2 -95 0 -27 2 -5 3 47
3 52 0 74 -1 48 -3z m269 1 c-3 -3 -12 -4 -19 -1 -8 3 -5 6 6 6 11 1 17 -2 13
-5z m76 -1 c-7 -2 -19 -2 -25 0 -7 3 -2 5 12 5 14 0 19 -2 13 -5z"/>
<path d="M1406 1857 c3 -10 9 -15 12 -12 3 3 0 11 -7 18 -10 9 -11 8 -5 -6z"/>
<path d="M1441 1824 c0 -11 3 -14 6 -6 3 7 2 16 -1 19 -3 4 -6 -2 -5 -13z"/>
<path d="M1560 1830 c-13 -9 -13 -12 2 -20 9 -6 24 -17 32 -25 9 -10 17 -11
21 -5 9 14 -5 32 -20 26 -19 -7 -27 5 -14 21 13 15 1 17 -21 3z"/>
<path d="M1415 1811 c-3 -5 -2 -12 3 -15 5 -3 9 1 9 9 0 17 -3 19 -12 6z"/>
<path d="M1396 1785 c4 -8 11 -15 16 -15 6 0 5 6 -2 15 -7 8 -14 15 -16 15 -2
0 -1 -7 2 -15z"/>
<path d="M991 1854 c0 -11 3 -14 6 -6 3 7 2 16 -1 19 -3 4 -6 -2 -5 -13z"/>
<path d="M756 1798 c-18 -10 -21 -28 -6 -28 6 0 20 8 31 18 21 20 5 27 -25 10z"/>
<path d="M653 1773 c9 -2 25 -2 35 0 9 3 1 5 -18 5 -19 0 -27 -2 -17 -5z"/>
<path d="M1380 1613 c0 -35 11 -53 34 -53 21 1 21 1 -2 13 -12 7 -20 16 -16
19 3 4 1 15 -5 25 -10 17 -10 16 -11 -4z"/>
<path d="M2010 1615 c0 -25 24 -45 41 -33 11 7 11 11 1 15 -7 2 -19 11 -27 20
-13 13 -15 13 -15 -2z"/>
<path d="M1610 1611 c0 -5 14 -14 30 -20 17 -5 30 -8 30 -6 0 3 -13 11 -30 20
-16 9 -30 11 -30 6z"/>
<path d="M820 1602 c0 -5 7 -9 15 -9 8 0 12 4 9 9 -3 4 -9 8 -15 8 -5 0 -9 -4
-9 -8z"/>
<path d="M997 1603 c-12 -12 -7 -19 12 -19 15 0 17 3 9 13 -12 15 -13 15 -21
6z"/>
<path d="M1267 1583 c-13 -13 -7 -21 13 -16 11 3 20 9 20 14 0 10 -24 12 -33
2z"/>
<path d="M1455 1570 c-3 -6 1 -7 9 -4 18 7 21 14 7 14 -6 0 -13 -4 -16 -10z"/>
<path d="M2098 1573 c7 -3 16 -2 19 1 4 3 -2 6 -13 5 -11 0 -14 -3 -6 -6z"/>
<path d="M1848 1563 c7 -3 16 -2 19 1 4 3 -2 6 -13 5 -11 0 -14 -3 -6 -6z"/>
<path d="M1660 1553 c0 -7 -21 -11 -62 -10 -45 2 -66 -2 -75 -13 -19 -23 -16
-26 27 -22 22 2 40 8 40 13 0 5 27 9 60 9 41 0 60 -4 60 -12 0 -9 15 -13 43
-12 59 1 64 3 47 15 -11 7 6 9 59 7 43 -2 76 1 78 7 2 6 -27 10 -74 9 -52 0
-78 -4 -81 -13 -3 -8 -8 -7 -18 6 -13 17 -14 17 -8 1 7 -21 -2 -23 -21 -5 -7
8 -24 13 -37 12 -12 -1 -26 3 -30 9 -6 8 -8 8 -8 -1z"/>
<path d="M322 1055 c0 -16 2 -22 5 -12 2 9 2 23 0 30 -3 6 -5 -1 -5 -18z"/>
<path d="M421 904 c10 -13 10 -17 -2 -25 -12 -7 -12 -9 1 -9 12 0 12 -2 2 -9
-11 -7 -11 -9 2 -14 13 -5 16 1 16 33 0 30 -4 40 -16 40 -14 0 -14 -3 -3 -16z"/>
<path d="M451 904 c0 -11 3 -14 6 -6 3 7 2 16 -1 19 -3 4 -6 -2 -5 -13z"/>
<path d="M416 813 c7 -4 14 -19 17 -33 4 -22 5 -21 4 4 -1 17 -9 31 -17 33
-10 3 -11 2 -4 -4z"/>
<path d="M420 739 c0 -5 5 -7 10 -4 6 3 10 8 10 11 0 2 -4 4 -10 4 -5 0 -10
-5 -10 -11z"/>
<path d="M431 704 c0 -11 3 -14 6 -6 3 7 2 16 -1 19 -3 4 -6 -2 -5 -13z"/>
<path d="M1405 2190 c4 -6 11 -8 16 -5 14 9 11 15 -7 15 -8 0 -12 -5 -9 -10z"/>
<path d="M1184 2150 c0 -19 16 -27 29 -13 7 6 -11 33 -22 33 -4 0 -7 -9 -7
-20z"/>
<path d="M1446 2162 c-2 -4 -1 -14 3 -21 6 -10 10 -9 14 3 6 16 -8 32 -17 18z"/>
<path d="M1400 2143 c0 -10 4 -14 8 -8 4 6 11 13 16 18 5 4 2 7 -7 7 -10 0
-17 -8 -17 -17z"/>
<path d="M1425 2100 c11 -5 29 -9 40 -9 l20 0 -20 9 c-11 5 -29 9 -40 9 l-20
0 20 -9z"/>
<path d="M2265 2070 c3 -5 8 -10 11 -10 2 0 4 5 4 10 0 6 -5 10 -11 10 -5 0
-7 -4 -4 -10z"/>
<path d="M2360 1300 c0 -5 5 -10 11 -10 5 0 7 5 4 10 -3 6 -8 10 -11 10 -2 0
-4 -4 -4 -10z"/>
<path d="M2360 1276 c0 -2 7 -7 16 -10 8 -3 12 -2 9 4 -6 10 -25 14 -25 6z"/>
<path d="M1562 1240 c0 -14 2 -19 5 -12 2 6 2 18 0 25 -3 6 -5 1 -5 -13z"/>
<path d="M2362 1240 c0 -14 2 -19 5 -12 2 6 2 18 0 25 -3 6 -5 1 -5 -13z"/>
<path d="M1542 1190 c0 -14 2 -19 5 -12 2 6 2 18 0 25 -3 6 -5 1 -5 -13z"/>
<path d="M1562 1180 c0 -19 2 -27 5 -17 2 9 2 25 0 35 -3 9 -5 1 -5 -18z"/>
<path d="M2305 1199 c-11 -16 -1 -19 13 -3 7 8 8 14 3 14 -5 0 -13 -5 -16 -11z"/>
<path d="M2361 1194 c0 -11 3 -14 6 -6 3 7 2 16 -1 19 -3 4 -6 -2 -5 -13z"/>
<path d="M716 1165 c-3 -8 -1 -15 4 -15 6 0 10 7 10 15 0 8 -2 15 -4 15 -2 0
-6 -7 -10 -15z"/>
<path d="M1510 1173 c0 -5 5 -15 10 -23 8 -12 10 -11 10 8 0 12 -4 22 -10 22
-5 0 -10 -3 -10 -7z"/>
<path d="M721 1124 c0 -11 3 -14 6 -6 3 7 2 16 -1 19 -3 4 -6 -2 -5 -13z"/>
<path d="M785 1130 c-3 -5 -1 -10 4 -10 6 0 11 5 11 10 0 6 -2 10 -4 10 -3 0
-8 -4 -11 -10z"/>
<path d="M1500 1128 c0 -2 7 -21 15 -43 l14 -40 1 43 c0 31 -4 42 -15 42 -8 0
-15 -1 -15 -2z"/>
<path d="M2280 1122 c0 -5 14 -7 30 -4 17 2 30 6 30 8 0 2 -13 4 -30 4 -16 0
-30 -4 -30 -8z"/>
<path d="M1126 1111 c-4 -7 -5 -15 -2 -18 9 -9 19 4 14 18 -4 11 -6 11 -12 0z"/>
<path d="M1971 1094 c0 -11 3 -14 6 -6 3 7 2 16 -1 19 -3 4 -6 -2 -5 -13z"/>
<path d="M1125 1070 c-3 -5 -1 -10 4 -10 6 0 11 5 11 10 0 6 -2 10 -4 10 -3 0
-8 -4 -11 -10z"/>
<path d="M1951 1064 c0 -11 3 -14 6 -6 3 7 2 16 -1 19 -3 4 -6 -2 -5 -13z"/>
<path d="M1931 1054 c0 -11 3 -14 6 -6 3 7 2 16 -1 19 -3 4 -6 -2 -5 -13z"/>
<path d="M1043 925 c0 -8 4 -12 9 -9 4 3 8 9 8 15 0 5 -4 9 -8 9 -5 0 -9 -7
-9 -15z"/>
<path d="M1918 903 c7 -3 16 -2 19 1 4 3 -2 6 -13 5 -11 0 -14 -3 -6 -6z"/>
<path d="M1901 874 c0 -11 3 -14 6 -6 3 7 2 16 -1 19 -3 4 -6 -2 -5 -13z"/>
<path d="M1635 790 c3 -5 8 -10 11 -10 2 0 4 5 4 10 0 6 -5 10 -11 10 -5 0 -7
-4 -4 -10z"/>
<path d="M1636 755 c4 -8 8 -15 10 -15 2 0 4 7 4 15 0 8 -4 15 -10 15 -5 0 -7
-7 -4 -15z"/>
<path d="M1655 568 c3 -66 3 -68 29 -68 13 0 27 -6 29 -12 4 -10 6 -10 6 0 1
6 11 12 24 12 20 1 21 2 5 14 -10 7 -18 19 -18 25 0 7 -4 9 -10 6 -5 -3 -10 1
-10 10 0 9 4 14 8 11 4 -2 14 -1 22 5 10 6 11 9 3 9 -7 0 -13 7 -13 15 0 11
-11 15 -38 15 l-39 0 2 -42z"/>
<path d="M2053 553 c9 -2 23 -2 30 0 6 3 -1 5 -18 5 -16 0 -22 -2 -12 -5z"/>
<path d="M2290 500 c-24 -5 -28 -8 -12 -9 14 0 20 -5 17 -12 -4 -6 2 -5 14 3
12 7 21 16 21 20 0 5 -1 7 -2 7 -2 -1 -19 -5 -38 -9z"/>
<path d="M1098 483 c7 -3 16 -2 19 1 4 3 -2 6 -13 5 -11 0 -14 -3 -6 -6z"/>
</g>
</svg>
