<?xml version="1.0" standalone="no"?>
<!DOCTYPE svg PUBLIC "-//W3C//DTD SVG 20010904//EN"
 "http://www.w3.org/TR/2001/REC-SVG-20010904/DTD/svg10.dtd">
<svg version="1.0" xmlns="http://www.w3.org/2000/svg"
 width="276.000000pt" height="276.000000pt" viewBox="0 0 276.000000 276.000000"
 preserveAspectRatio="xMidYMid meet">
<metadata>
Created by potrace 1.14, written by Peter Selinger 2001-2017
</metadata>
<g transform="translate(0.000000,276.000000) scale(0.100000,-0.100000)"
fill="#000000" stroke="none">
<path d="M2404 2734 c-10 -16 -24 -33 -31 -37 -7 -4 -13 -17 -13 -27 0 -10 -4
-21 -8 -24 -5 -3 -7 -20 -6 -39 4 -45 -8 -56 -166 -160 -36 -24 -90 -57 -120
-74 -111 -62 -438 -248 -550 -313 -277 -162 -302 -175 -316 -156 -9 13 -13 14
-18 4 -3 -7 -4 -3 -2 10 2 12 0 23 -5 23 -34 5 -44 0 -60 -31 -11 -19 -19 -46
-19 -61 0 -14 -10 -38 -23 -52 -24 -27 -51 -61 -162 -197 -38 -48 -105 -127
-148 -176 -71 -81 -282 -324 -350 -403 -20 -23 -33 -30 -48 -26 -12 4 -20 1
-21 -7 -3 -26 -5 -33 -18 -60 -7 -16 -19 -28 -27 -28 -7 0 -13 -6 -13 -14 0
-8 -3 -21 -6 -30 -4 -11 -1 -16 10 -16 9 0 16 -6 16 -14 0 -8 6 -16 12 -18 7
-3 13 -13 13 -23 0 -13 11 -22 33 -29 17 -5 32 -15 32 -22 0 -8 6 -11 16 -7
12 4 14 0 8 -23 -4 -16 -14 -40 -23 -54 -10 -15 -11 -21 -3 -16 9 6 10 2 2
-16 -6 -13 -32 -37 -58 -53 -37 -24 -46 -36 -44 -55 1 -13 7 -27 12 -30 6 -4
9 -21 7 -39 -3 -25 -12 -38 -38 -54 -100 -61 -139 -90 -139 -104 0 -9 -8 -21
-17 -28 -13 -10 -15 -16 -6 -26 12 -15 13 -18 13 -49 0 -14 7 -20 21 -20 34 0
49 -23 42 -66 -3 -22 -10 -45 -16 -51 -5 -7 -7 -20 -3 -28 5 -13 158 -15 1301
-15 l1295 0 0 1118 0 1118 -82 62 c-99 73 -138 107 -138 117 0 9 47 -21 80
-52 14 -13 51 -42 83 -64 l57 -40 0 85 c0 82 -1 86 -27 103 -16 10 -35 26 -43
35 -15 17 -77 62 -138 100 -28 17 -32 25 -27 46 5 22 4 24 -9 13 -8 -7 -20
-10 -26 -6 -5 3 -10 0 -10 -7 -1 -7 -8 -1 -16 15 -8 15 -22 27 -32 28 -9 0 -4
5 12 9 16 5 33 7 38 4 4 -3 8 -1 8 4 0 12 -40 48 -40 36 -1 -5 -7 2 -14 15
l-13 24 -19 -29z m156 -693 c0 -11 5 -23 10 -26 6 -3 10 1 10 10 0 9 5 13 10
10 13 -8 13 -42 0 -50 -20 -12 -50 15 -50 45 0 17 5 30 10 30 6 0 10 -9 10
-19z m-206 -37 c-7 -3 -10 -13 -7 -23 3 -10 0 -22 -6 -25 -6 -4 -11 -2 -11 4
0 6 -5 8 -11 4 -6 -3 -3 5 6 20 10 14 22 26 29 25 8 0 8 -2 0 -5z m211 -34 c3
-6 -1 -7 -9 -4 -18 7 -21 14 -7 14 6 0 13 -4 16 -10z m-856 -93 c-2 -2 -24
-18 -49 -37 -25 -19 -37 -25 -27 -14 9 11 17 26 17 33 0 7 4 10 8 7 4 -2 14
-1 22 5 13 8 39 14 29 6z m841 -15 c0 -4 -9 -13 -20 -20 -23 -14 -26 -8 -7 13
13 16 27 19 27 7z m47 -9 c3 -7 -4 -9 -16 -6 -12 3 -18 9 -15 15 7 11 26 6 31
-9z m-128 -10 c0 -12 -199 -136 -206 -129 -8 8 -11 5 72 57 39 23 81 51 94 61
25 19 41 23 40 11z m-869 -44 c0 -5 -4 -9 -10 -9 -5 0 -10 7 -10 16 0 8 5 12
10 9 6 -3 10 -10 10 -16z m453 -9 c-26 -25 -43 -22 -31 5 7 16 16 21 29 18 19
-5 19 -6 2 -23z m-818 -80 c3 -5 1 -10 -4 -10 -6 0 -11 5 -11 10 0 6 2 10 4
10 3 0 8 -4 11 -10z m170 -40 c0 -25 -4 -30 -23 -30 -13 0 -20 -4 -17 -10 3
-6 -1 -7 -10 -3 -12 4 -13 8 -5 13 6 4 12 11 13 16 2 11 29 44 37 44 3 0 5
-13 5 -30z m849 6 c-3 -9 -10 -13 -15 -10 -5 3 -9 0 -9 -5 0 -6 -5 -11 -12
-11 -6 0 -1 11 12 25 25 27 34 27 24 1z m-1001 1 c3 -8 2 -19 -3 -26 -5 -10
-9 -8 -14 4 -3 9 -6 21 -6 26 0 14 17 11 23 -4z m13 -63 c-3 -9 -6 -18 -6 -20
0 -2 -7 -4 -15 -4 -8 0 -15 -6 -16 -12 0 -10 -2 -10 -6 0 -5 14 24 52 40 52 5
0 6 -7 3 -16z m524 -14 c0 -5 -4 -10 -10 -10 -5 0 -10 5 -10 10 0 6 5 10 10
10 6 0 10 -4 10 -10z m-5 -50 c-14 -16 -20 -17 -26 -8 -7 12 2 18 40 27 2 1
-4 -8 -14 -19z m-91 -15 c-18 -27 -34 -33 -34 -12 0 11 27 31 48 36 1 1 -5
-10 -14 -24z m45 -26 c-22 -13 -31 -11 -17 5 7 8 17 12 22 9 4 -3 2 -9 -5 -14z
m-582 -42 c-1 -5 -6 -8 -11 -7 -5 1 -12 -4 -16 -10 -5 -8 -9 -7 -13 4 -4 9 -2
16 3 16 5 0 7 7 3 16 -5 14 -3 14 16 3 11 -8 20 -18 18 -22z m713 -5 c0 -10
-159 -106 -166 -99 -4 4 152 107 163 107 2 0 3 -3 3 -8z m-823 -52 c-11 -27
-22 -48 -24 -46 -5 5 31 96 38 96 4 0 -2 -22 -14 -50z m424 -28 c-6 -2 -8 -8
-5 -14 4 -6 0 -14 -7 -19 -22 -14 -29 -11 -29 11 0 11 5 20 10 20 6 0 10 7 10
16 0 14 2 14 16 3 10 -8 12 -15 5 -17z m-145 -69 c-10 -10 -19 5 -10 18 6 11
8 11 12 0 2 -7 1 -15 -2 -18z m-46 -103 c0 -12 -38 -23 -50 -15 -15 10 12 33
32 27 10 -2 18 -8 18 -12z m100 -61 c-34 -29 -110 -72 -116 -67 -4 5 125 88
136 88 3 -1 -6 -10 -20 -21z m-303 -16 c0 -9 -9 -25 -19 -35 -22 -22 -24 -6
-2 27 19 30 21 30 21 8z m-145 -155 c-7 -7 -12 -8 -12 -2 0 14 12 26 19 19 2
-3 -1 -11 -7 -17z m-182 -97 c0 -5 -7 -11 -14 -14 -10 -4 -13 -1 -9 9 6 15 23
19 23 5z m225 0 c-21 -18 -105 -62 -105 -54 0 4 21 20 48 35 46 27 76 37 57
19z m-330 -196 c-52 -32 -70 -32 -25 0 19 13 42 24 50 24 8 0 -3 -11 -25 -24z
m-230 -145 c-16 -11 -34 -20 -40 -20 -5 0 4 9 20 20 17 11 35 20 40 20 6 0 -3
-9 -20 -20z m-56 -93 c-2 -1 -12 -9 -21 -16 -15 -12 -18 -11 -18 3 0 10 8 16
22 16 12 0 19 -1 17 -3z m1076 -7 c3 -5 -1 -10 -9 -10 -8 0 -18 5 -21 10 -3 6
1 10 9 10 8 0 18 -4 21 -10z m-445 -4 c0 -3 -4 -8 -10 -11 -5 -3 -10 -1 -10 4
0 6 5 11 10 11 6 0 10 -2 10 -4z m110 -76 c0 -5 -5 -10 -11 -10 -5 0 -7 5 -4
10 3 6 8 10 11 10 2 0 4 -4 4 -10z m-953 -122 c-3 -8 -6 -5 -6 6 -1 11 2 17 5
13 3 -3 4 -12 1 -19z m868 12 c-11 -5 -27 -9 -35 -9 -13 -1 -13 0 0 9 8 5 24
9 35 9 l20 0 -20 -9z m-844 -47 c13 -16 12 -17 -3 -4 -10 7 -18 15 -18 17 0 8
8 3 21 -13z m939 -73 c0 -5 -7 -10 -16 -10 -8 0 -12 -4 -9 -10 3 -5 -1 -10 -9
-10 -20 0 -20 -14 -1 -30 8 -7 15 -17 15 -22 0 -7 -5 -6 -13 1 -8 6 -17 8 -21
4 -4 -4 -4 0 0 10 4 11 1 17 -7 17 -7 0 0 14 16 30 29 31 45 38 45 20z m70
-40 c0 -6 -6 -10 -14 -8 -8 2 -22 -6 -30 -17 -9 -12 -15 -15 -16 -7 0 7 -4 10
-10 7 -5 -3 -15 -3 -22 1 -17 11 14 29 56 32 21 2 36 -2 36 -8z m654 -25 c11
-8 15 -15 10 -15 -6 0 -19 7 -30 15 -10 8 -14 14 -9 14 6 0 19 -6 29 -14z
m493 -31 c-3 -3 -12 -4 -19 -1 -8 3 -5 6 6 6 11 1 17 -2 13 -5z"/>
</g>
</svg>
