<?xml version="1.0" standalone="no"?>
<!DOCTYPE svg PUBLIC "-//W3C//DTD SVG 1.1//EN" "http://www.w3.org/Graphics/SVG/1.1/DTD/svg11.dtd" >
<svg xmlns="http://www.w3.org/2000/svg" xmlns:xlink="http://www.w3.org/1999/xlink" version="1.1">
<metadata>
Created by FontForge 20200314 at Wed Apr  6 16:31:33 2016
 By Unknown
Copyright (c) 2006 Canada Type. All rights reserved.
</metadata>
<defs>
<font id="EvolverW05-Regular" horiz-adv-x="836" >
  <font-face 
    font-family="EvolverW05-Regular"
    font-weight="400"
    font-stretch="normal"
    units-per-em="1000"
    panose-1="2 0 5 5 0 0 0 2 0 4"
    ascent="800"
    descent="-200"
    x-height="709"
    cap-height="709"
    bbox="-111 -336 1794 1192"
    underline-thickness="50"
    underline-position="-125"
    unicode-range="U+0020-FB02"
  />
<missing-glyph horiz-adv-x="300" 
 />
    <glyph glyph-name=".notdef" horiz-adv-x="300" 
 />
    <glyph glyph-name="glyph1" horiz-adv-x="0" 
 />
    <glyph glyph-name="glyph1" horiz-adv-x="0" 
 />
    <glyph glyph-name="glyph2" horiz-adv-x="300" 
 />
    <glyph glyph-name="space" unicode=" " horiz-adv-x="300" 
 />
    <glyph glyph-name="exclam" unicode="!" horiz-adv-x="265" 
d="M216 267h-166v442h166v-442zM50 1v174h166v-174h-166z" />
    <glyph glyph-name="quotedbl" unicode="&#x22;" horiz-adv-x="521" 
d="M50 534v274h166v-274h-166zM306 534v274h166v-274h-166z" />
    <glyph glyph-name="numbersign" unicode="#" horiz-adv-x="1541" 
d="M671 0q-48 0 -81 15t-57 43.5t-43 69.5t-39 94l-100 257q-13 34 -28.5 44.5t-35.5 10.5h-7q-10 0 -21.5 -2t-21 -7.5t-15.5 -16.5t-6 -29v-479h-166v487q0 56 16.5 98t45.5 69.5t69.5 41t88.5 13.5h37q48 0 81 -15t57 -43.5t43 -70t39 -93.5l100 -257q13 -34 28.5 -44.5
t35.5 -10.5h6q10 0 21.5 2t21 7.5t15.5 16.5t6 29v479h166v-487q0 -56 -16.5 -98t-45.5 -69.5t-69.5 -41t-88.5 -13.5h-36zM1006 507q0 56 13 94.5t38.5 62.5t63 34.5t85.5 10.5h87q48 0 85 -10.5t62.5 -34.5t39 -62.5t13.5 -94.5v-85q0 -56 -13.5 -94.5t-39 -62.5
t-62.5 -34.5t-85 -10.5h-87q-48 0 -85.5 10.5t-63 34.5t-38.5 62.5t-13 94.5v85zM1347 499q0 18 -6 29t-15.5 16.5t-21 7.5t-21.5 2h-67q-10 0 -21.5 -2t-21 -7.5t-15.5 -16.5t-6 -29v-69q0 -18 6 -29t15.5 -16.5t21 -7.5t21.5 -2h67q10 0 21.5 2t21 7.5t15.5 16.5t6 29v69z
M1096 166h305v-166h-305v166z" />
    <glyph glyph-name="dollar" unicode="$" horiz-adv-x="817" 
d="M350 -100v100h-280v175h478q6 0 15.5 1.5t18 6.5t14.5 14t6 23q0 16 -6 25t-14.5 14t-18 6.5t-15.5 1.5h-278q-48 0 -88.5 13.5t-69.5 40.5t-45.5 68.5t-16.5 97.5t16.5 98t45.5 69.5t69.5 41t88.5 13.5h81v89h166v-89h220v-175h-467q-6 0 -15.5 -1.5t-18 -6.5t-14.5 -14
t-6 -23q0 -16 6 -25t14.5 -14t18 -6.5t15.5 -1.5h278q48 0 88.5 -13.5t69.5 -40.5t45.5 -68.5t16.5 -97.5t-16.5 -98t-45.5 -69.5t-69.5 -41t-88.5 -13.5h-32v-100h-166z" />
    <glyph glyph-name="percent" unicode="%" horiz-adv-x="825" 
d="M67 171q0 48 15 81t43.5 57t69.5 43t94 39l257 100q34 13 44.5 28.5t10.5 35.5v154h175v-174q0 -48 -15 -81t-43.5 -57t-70 -43t-93.5 -39l-257 -100q-34 -13 -44.5 -28.5t-10.5 -35.5v-151h-175v171zM177 535v175h166v-175h-166zM517 0v175h166v-175h-166z" />
    <glyph glyph-name="ampersand" unicode="&#x26;" horiz-adv-x="656" 
d="M441 -132v132h-171q-48 0 -88.5 13.5t-69.5 41t-45.5 69.5t-16.5 98q0 41 9 73.5t25 58.5q-16 26 -25 58.5t-9 74.5q0 56 16.5 98t45.5 69.5t69.5 41t88.5 13.5h337v-175h-337q-6 0 -15.5 -1.5t-18 -6.5t-14.5 -14t-6 -23t5 -23.5t12.5 -14.5t16 -7t15.5 -2h342v-175
h-337q-6 0 -15.5 -1.5t-18 -6.5t-14.5 -14t-6 -25q0 -14 6 -23t14.5 -14t18 -6.5t15.5 -1.5h337v-307h-166z" />
    <glyph glyph-name="quotesingle" unicode="'" horiz-adv-x="265" 
d="M50 535v275h166v-275h-166z" />
    <glyph glyph-name="parenleft" unicode="(" horiz-adv-x="321" 
d="M49 720q0 56 16.5 98t45.5 69.5t69.5 41t88.5 13.5h83v-175h-73q-10 0 -21.5 -2t-21 -7.5t-15.5 -16.5t-6 -29v-724q0 -18 6 -29t15.5 -16.5t21 -7.5t21.5 -2h73v-175h-83q-48 0 -88.5 13.5t-69.5 41t-45.5 69.5t-16.5 98v740z" />
    <glyph glyph-name="parenright" unicode=")" horiz-adv-x="321" 
d="M272 -20q0 -56 -16.5 -98t-45.5 -69.5t-69.5 -41t-88.5 -13.5h-83v175h73q10 0 21.5 2t21 7.5t15.5 16.5t6 29v724q0 18 -6 29t-15.5 16.5t-21 7.5t-21.5 2h-73v175h83q48 0 88.5 -13.5t69.5 -41t45.5 -69.5t16.5 -98v-740z" />
    <glyph glyph-name="asterisk" unicode="*" horiz-adv-x="950" 
d="M735 479q0 18 -6 29t-15.5 16.5t-21 7.5t-21.5 2h-591v175h601q48 0 88.5 -13.5t69.5 -41t45.5 -69.5t16.5 -98v-265q0 -56 -16.5 -98t-45.5 -69.5t-69.5 -41t-88.5 -13.5h-411q-48 0 -88.5 13.5t-69.5 41t-45.5 69.5t-16.5 98t16.5 97.5t45.5 68.5t69.5 40.5t88.5 13.5
h373v-175h-373q-6 0 -15.5 -1.5t-18 -6.5t-14.5 -14t-6 -25q0 -14 6 -23t14.5 -14t18 -6.5t15.5 -1.5h401q10 0 21.5 2t21 7.5t15.5 16.5t6 29v249v0z" />
    <glyph glyph-name="plus" unicode="+" horiz-adv-x="598" 
d="M18 442h192v193h166v-193h193v-166h-193v-192h-166v192h-192v166z" />
    <glyph glyph-name="comma" unicode="," horiz-adv-x="265" 
d="M50 -100v275h166v-275h-166z" />
    <glyph glyph-name="hyphen" unicode="-" horiz-adv-x="374" 
d="M35 342h305v-166h-305v166z" />
    <glyph glyph-name="period" unicode="." horiz-adv-x="265" 
d="M50 0v175h166v-175h-166z" />
    <glyph glyph-name="slash" unicode="/" horiz-adv-x="489" 
d="M168 0h-165l320 709h166z" />
    <glyph glyph-name="zero" unicode="0" 
d="M50 487q0 56 16.5 98t45.5 69.5t69.5 41t88.5 13.5h297q48 0 88.5 -13.5t69.5 -41t45.5 -69.5t16.5 -98v-265q0 -56 -16.5 -98t-45.5 -69.5t-69.5 -41t-88.5 -13.5h-297q-48 0 -88.5 13.5t-69.5 41t-45.5 69.5t-16.5 98v265zM621 479q0 18 -6 29t-15.5 16.5t-21 7.5
t-21.5 2h-277q-10 0 -21.5 -2t-21 -7.5t-15.5 -16.5t-6 -29v-249q0 -18 6 -29t15.5 -16.5t21 -7.5t21.5 -2h277q10 0 21.5 2t21 7.5t15.5 16.5t6 29v249z" />
    <glyph glyph-name="one" unicode="1" horiz-adv-x="372" 
d="M155 479q0 18 -6 29t-15.5 16.5t-21 7.5t-21.5 2h-73v175h83q48 0 88.5 -13.5t69.5 -41t45.5 -69.5t16.5 -98v-487h-166v479z" />
    <glyph glyph-name="two" unicode="2" horiz-adv-x="817" 
d="M216 220q0 -14 6 -23t14.5 -14t18 -6.5t15.5 -1.5h478v-175h-478q-48 0 -88.5 13.5t-69.5 41t-45.5 69.5t-16.5 98t16.5 97.5t45.5 68.5t69.5 40.5t88.5 13.5h278q6 0 15.5 1.5t18 6.5t14.5 14t6 25q0 14 -6 23t-14.5 14t-18 6.5t-15.5 1.5h-467v175h467q48 0 88.5 -13.5
t69.5 -41t45.5 -69.5t16.5 -98t-16.5 -97.5t-45.5 -68.5t-69.5 -40.5t-88.5 -13.5h-278q-6 0 -15.5 -1.5t-18 -6.5t-14.5 -14t-6 -25z" />
    <glyph glyph-name="three" unicode="3" horiz-adv-x="911" 
d="M50 534v175h592q48 0 88.5 -13.5t69.5 -41t45.5 -69.5t16.5 -98q0 -42 -10.5 -74.5t-33.5 -58.5q23 -26 33.5 -58.5t10.5 -73.5q0 -56 -16.5 -98t-45.5 -69.5t-69.5 -41t-88.5 -13.5h-592v175h592q6 0 15.5 1.5t18 6.5t14.5 14t6 23q0 16 -6 25t-14.5 14t-18 6.5
t-15.5 1.5h-592v175h597q7 0 15.5 2t16 7t12.5 14.5t5 23.5t-6 23t-14.5 14t-18 6.5t-15.5 1.5h-592z" />
    <glyph glyph-name="four" unicode="4" horiz-adv-x="819" 
d="M511 0v96h-239q-56 0 -98 16.5t-69.5 45.5t-41 69.5t-13.5 88.5v30q0 48 15 81t43.5 57t69.5 43t94 39l257 100q31 12 42 24t13 20h175q0 -48 -15 -81t-43.5 -57t-70 -43t-93.5 -39l-257 -100q-34 -13 -44.5 -28.5t-10.5 -35.5q0 -10 2 -21.5t7.5 -21t16.5 -15.5t29 -6
h231v126h166v-126h93v-166h-93v-96h-166z" />
    <glyph glyph-name="five" unicode="5" horiz-adv-x="817" 
d="M213 534v-92h335q48 0 88.5 -13.5t69.5 -40.5t45.5 -68.5t16.5 -97.5t-16.5 -98t-45.5 -69.5t-69.5 -41t-88.5 -13.5h-478v175h478q6 0 15.5 1.5t18 6.5t14.5 14t6 23q0 16 -6 25t-14.5 14t-18 6.5t-15.5 1.5h-501v442h690v-175h-524z" />
    <glyph glyph-name="six" unicode="6" horiz-adv-x="950" 
d="M216 230q0 -18 6 -29t15.5 -16.5t21 -7.5t21.5 -2h401q6 0 15.5 1.5t18 6.5t14.5 14t6 23q0 16 -6 25t-14.5 14t-18 6.5t-15.5 1.5h-373v175h373q48 0 88.5 -13.5t69.5 -40.5t45.5 -68.5t16.5 -97.5t-16.5 -98t-45.5 -69.5t-69.5 -41t-88.5 -13.5h-411q-48 0 -88.5 13.5
t-69.5 41t-45.5 69.5t-16.5 98v265q0 56 16.5 98t45.5 69.5t69.5 41t88.5 13.5h601v-175h-591q-10 0 -21.5 -2t-21 -7.5t-15.5 -16.5t-6 -29v-249z" />
    <glyph glyph-name="seven" unicode="7" horiz-adv-x="825" 
d="M67 95q0 48 15 81t43.5 57t69.5 43t94 39l257 100q34 13 44.5 28.5t10.5 35.5q0 10 -2 21.5t-7.5 21t-16.5 15.5t-29 6h-496v166h504q56 0 98 -16.5t69.5 -45.5t41 -69.5t13.5 -88.5v-30q0 -48 -15 -81t-43.5 -57t-70 -43t-93.5 -39l-257 -100q-34 -13 -44.5 -28.5
t-10.5 -35.5v-75h-175v95v0z" />
    <glyph glyph-name="eight" unicode="8" horiz-adv-x="1076" 
d="M279 0q-48 0 -88.5 13.5t-69.5 41t-45.5 69.5t-16.5 98q0 41 10.5 73.5t33.5 58.5q-23 26 -33.5 58.5t-10.5 74.5q0 56 16.5 98t45.5 69.5t69.5 41t88.5 13.5h373q48 0 88.5 -13.5t69.5 -41t45.5 -69.5t16.5 -98q0 -42 -10.5 -74.5t-33.5 -58.5q23 -26 33.5 -58.5
t10.5 -73.5q0 -56 -16.5 -98t-45.5 -69.5t-69.5 -41t-88.5 -13.5h-373zM279 534q-6 0 -15.5 -1.5t-18 -6.5t-14.5 -14t-6 -23t5 -23.5t12.5 -14.5t16 -7t15.5 -2h383q7 0 15.5 2t16 7t12.5 14.5t5 23.5t-6 23t-14.5 14t-18 6.5t-15.5 1.5h-373zM279 267q-6 0 -15.5 -1.5
t-18 -6.5t-14.5 -14t-6 -25q0 -14 6 -23t14.5 -14t18 -6.5t15.5 -1.5h373q6 0 15.5 1.5t18 6.5t14.5 14t6 23q0 16 -6 25t-14.5 14t-18 6.5t-15.5 1.5h-373z" />
    <glyph glyph-name="nine" unicode="9" horiz-adv-x="950" 
d="M736 479q0 18 -6 29t-15.5 16.5t-21 7.5t-21.5 2h-401q-6 0 -15.5 -1.5t-18 -6.5t-14.5 -14t-6 -23q0 -16 6 -25t14.5 -14t18 -6.5t15.5 -1.5h373v-175h-373q-48 0 -88.5 13.5t-69.5 40.5t-45.5 68.5t-16.5 97.5t16.5 98t45.5 69.5t69.5 41t88.5 13.5h411
q48 0 88.5 -13.5t69.5 -41t45.5 -69.5t16.5 -98v-265q0 -56 -16.5 -98t-45.5 -69.5t-69.5 -41t-88.5 -13.5h-601v175h591q10 0 21.5 2t21 7.5t15.5 16.5t6 29v249z" />
    <glyph glyph-name="colon" unicode=":" horiz-adv-x="265" 
d="M50 0v175h166v-175h-166zM50 442v175h166v-175h-166z" />
    <glyph glyph-name="semicolon" unicode=";" horiz-adv-x="265" 
d="M50 -100v275h166v-275h-166zM50 442v175h166v-175h-166z" />
    <glyph glyph-name="less" unicode="&#x3c;" horiz-adv-x="620" 
d="M51 360q0 48 14.5 82.5t42.5 60t69.5 44t95.5 33.5l299 86v-167l-291 -85q-32 -9 -43.5 -24.5t-11.5 -34.5q0 -20 10 -37t45 -27l291 -85v-167l-299 86q-54 15 -95.5 33.5t-69.5 44t-42.5 60t-14.5 82.5v15z" />
    <glyph glyph-name="equal" unicode="=" horiz-adv-x="567" 
d="M50 117v175h468v-175h-468zM50 409v175h468v-175h-468z" />
    <glyph glyph-name="greater" unicode="&#x3e;" horiz-adv-x="620" 
d="M571 345q0 -48 -14.5 -82.5t-42.5 -60t-69.5 -44t-95.5 -33.5l-299 -86v167l291 85q35 10 45 27t10 37q0 19 -11.5 34.5t-43.5 24.5l-291 85v167l299 -86q54 -15 95.5 -33.5t69.5 -44t42.5 -60t14.5 -82.5v-15v0z" />
    <glyph glyph-name="question" unicode="?" horiz-adv-x="788" 
d="M51 267v175h468q6 0 15.5 1.5t18 6.5t14.5 14t6 25q0 14 -6 23t-14.5 14t-18 6.5t-15.5 1.5h-467v175h467q48 0 88.5 -13.5t69.5 -41t45.5 -69.5t16.5 -98t-16.5 -97.5t-45.5 -68.5t-69.5 -40.5t-88.5 -13.5h-468zM50 0v175h166v-175h-166z" />
    <glyph glyph-name="at" unicode="@" horiz-adv-x="1212" 
d="M474 230q0 -18 6 -29t15.5 -16.5t21 -7.5t21.5 -2h117v-175h-127q-48 0 -88.5 13.5t-69.5 41t-45.5 69.5t-16.5 98v129q0 56 16.5 98t45.5 69.5t69.5 41t88.5 13.5h156q48 0 88.5 -13.5t69.5 -41t45.5 -69.5t16.5 -98v-141q0 -6 1.5 -15.5t6.5 -18t14 -14.5t23 -6
q16 0 25 6t14 14.5t6.5 18t1.5 15.5v400q0 18 -6 29t-15.5 16.5t-21 7.5t-21.5 2h-652q-10 0 -21.5 -2t-21 -7.5t-15.5 -16.5t-6 -29v-610h-166v618q0 56 16.5 98t45.5 69.5t69.5 41t88.5 13.5h682q96 0 153.5 -55t57.5 -167v-408q0 -48 -12 -88.5t-37.5 -69.5t-66 -45.5
t-96.5 -16.5t-96.5 16.5t-66.5 45.5t-38 69.5t-12 88.5v133q0 18 -6 29t-15.5 16.5t-21 7.5t-21.5 2h-136q-10 0 -21.5 -2t-21 -7.5t-15.5 -16.5t-6 -29v-113z" />
    <glyph glyph-name="A" unicode="A" horiz-adv-x="939" 
d="M724 0v479q0 18 -6 29t-15.5 16.5t-21 7.5t-21.5 2h-380q-10 0 -21.5 -2t-21 -7.5t-15.5 -16.5t-6 -29v-479h-166v487q0 56 16.5 98t45.5 69.5t69.5 41t88.5 13.5h400q48 0 88.5 -13.5t69.5 -41t45.5 -69.5t16.5 -98v-487h-166zM308 342h325v-166h-325v166z" />
    <glyph glyph-name="B" unicode="B" horiz-adv-x="935" 
d="M280 534q-10 0 -21.5 -2t-21 -7.5t-15.5 -16.5t-6 -29v-479h-166v487q0 56 16.5 98t45.5 69.5t69.5 41t88.5 13.5h396q48 0 88.5 -13.5t69.5 -41t45.5 -69.5t16.5 -98q0 -42 -10.5 -74.5t-33.5 -58.5q23 -26 33.5 -58.5t10.5 -73.5q0 -56 -16.5 -98t-45.5 -69.5
t-69.5 -41t-88.5 -13.5h-355v175h355q6 0 15.5 1.5t18 6.5t14.5 14t6 23q0 16 -6 25t-14.5 14t-18 6.5t-15.5 1.5h-355v175h360q7 0 15.5 2t16 7t12.5 14.5t5 23.5t-6 23t-14.5 14t-18 6.5t-15.5 1.5h-386v0z" />
    <glyph glyph-name="C" unicode="C" horiz-adv-x="772" 
d="M216 230q0 -18 6 -29t15.5 -16.5t21 -7.5t21.5 -2h443v-175h-453q-48 0 -88.5 13.5t-69.5 41t-45.5 69.5t-16.5 98v265q0 56 16.5 98t45.5 69.5t69.5 41t88.5 13.5h453v-175h-443q-10 0 -21.5 -2t-21 -7.5t-15.5 -16.5t-6 -29v-249v0z" />
    <glyph glyph-name="D" unicode="D" horiz-adv-x="856" 
d="M641 479q0 18 -6 29t-15.5 16.5t-21 7.5t-21.5 2h-297q-10 0 -21.5 -2t-21 -7.5t-15.5 -16.5t-6 -29v-479h-166v487q0 56 16.5 98t45.5 69.5t69.5 41t88.5 13.5h317q48 0 88.5 -13.5t69.5 -41t45.5 -69.5t16.5 -98v-265q0 -56 -16.5 -98t-45.5 -69.5t-69.5 -41
t-88.5 -13.5h-278v175h268q10 0 21.5 2t21 7.5t15.5 16.5t6 29v249z" />
    <glyph glyph-name="E" unicode="E" horiz-adv-x="768" 
d="M216 230q0 -18 6 -29t15.5 -16.5t21 -7.5t21.5 -2h439v-175h-449q-48 0 -88.5 13.5t-69.5 41t-45.5 69.5t-16.5 98v265q0 56 16.5 98t45.5 69.5t69.5 41t88.5 13.5h449v-175h-439q-10 0 -21.5 -2t-21 -7.5t-15.5 -16.5t-6 -29v-249zM308 442h401v-175h-401v175z" />
    <glyph glyph-name="F" unicode="F" horiz-adv-x="777" 
d="M216 0h-166v487q0 56 16.5 98t45.5 69.5t69.5 41t88.5 13.5h458v-175h-448q-10 0 -21.5 -2t-21 -7.5t-15.5 -16.5t-6 -29v-479zM308 442h410v-175h-410v175z" />
    <glyph glyph-name="G" unicode="G" horiz-adv-x="857" 
d="M216 230q0 -18 6 -29t15.5 -16.5t21 -7.5t21.5 -2h308q6 0 15.5 1.5t18 6.5t14.5 14t6 23q0 16 -6 25t-14.5 14t-18 6.5t-15.5 1.5h-280v175h280q48 0 88.5 -13.5t69.5 -40.5t45.5 -68.5t16.5 -97.5t-16.5 -98t-45.5 -69.5t-69.5 -41t-88.5 -13.5h-318q-48 0 -88.5 13.5
t-69.5 41t-45.5 69.5t-16.5 98v265q0 56 16.5 98t45.5 69.5t69.5 41t88.5 13.5h508v-175h-498q-10 0 -21.5 -2t-21 -7.5t-15.5 -16.5t-6 -29v-249z" />
    <glyph glyph-name="H" unicode="H" horiz-adv-x="840" 
d="M50 0v709h166v-267h409v267h166v-709h-166v267h-409v-267h-166z" />
    <glyph glyph-name="I" unicode="I" horiz-adv-x="466" 
d="M50 0v175h100v359h-100v175h367v-175h-101v-359h101v-175h-367z" />
    <glyph glyph-name="J" unicode="J" horiz-adv-x="427" 
d="M211 709h166v-487q0 -56 -16.5 -98t-45.5 -69.5t-69.5 -41t-88.5 -13.5h-132v175h122q10 0 21.5 2t21 7.5t15.5 16.5t6 29v479z" />
    <glyph glyph-name="K" unicode="K" horiz-adv-x="761" 
d="M50 0v709h166v-267h201q22 0 41.5 9t27.5 38q3 12 11 39.5t17 60t17.5 65.5t13.5 55h167l-60 -222q-5 -20 -11.5 -37t-16.5 -33t-23.5 -31.5t-32.5 -31.5q38 -24 55.5 -58.5t28.5 -73.5l60 -222h-167q0 1 -4 17.5t-10.5 40.5t-14 52t-14.5 52t-11.5 40.5t-4.5 17.5
q-5 16 -13.5 25t-18.5 14t-21 6.5t-21 1.5h-196v-267h-166z" />
    <glyph glyph-name="L" unicode="L" horiz-adv-x="753" 
d="M216 230q0 -18 6 -29t15.5 -16.5t21 -7.5t21.5 -2h448v-175h-458q-48 0 -88.5 13.5t-69.5 41t-45.5 69.5t-16.5 98v487h166v-479z" />
    <glyph glyph-name="M" unicode="M" horiz-adv-x="1076" 
d="M861 0v479q0 18 -6 29t-15.5 16.5t-21 7.5t-21.5 2h-517q-10 0 -21.5 -2t-21 -7.5t-15.5 -16.5t-6 -29v-479h-166v487q0 56 16.5 98t45.5 69.5t69.5 41t88.5 13.5h537q48 0 88.5 -13.5t69.5 -41t45.5 -69.5t16.5 -98v-487h-166zM456 0v442h166v-442h-166z" />
    <glyph glyph-name="N" unicode="N" horiz-adv-x="976" 
d="M671 0q-48 0 -81 15t-57 43.5t-43 69.5t-39 94l-100 257q-13 34 -28.5 44.5t-35.5 10.5h-7q-10 0 -21.5 -2t-21 -7.5t-15.5 -16.5t-6 -29v-479h-166v487q0 56 16.5 98t45.5 69.5t69.5 41t88.5 13.5h37q48 0 81 -15t57 -43.5t43 -70t39 -93.5l100 -257q13 -34 28.5 -44.5
t35.5 -10.5h6q10 0 21.5 2t21 7.5t15.5 16.5t6 29v479h166v-487q0 -56 -16.5 -98t-45.5 -69.5t-69.5 -41t-88.5 -13.5h-36v0z" />
    <glyph glyph-name="O" unicode="O" 
d="M50 487q0 56 16.5 98t45.5 69.5t69.5 41t88.5 13.5h297q48 0 88.5 -13.5t69.5 -41t45.5 -69.5t16.5 -98v-265q0 -56 -16.5 -98t-45.5 -69.5t-69.5 -41t-88.5 -13.5h-297q-48 0 -88.5 13.5t-69.5 41t-45.5 69.5t-16.5 98v265zM621 479q0 18 -6 29t-15.5 16.5t-21 7.5
t-21.5 2h-277q-10 0 -21.5 -2t-21 -7.5t-15.5 -16.5t-6 -29v-249q0 -18 6 -29t15.5 -16.5t21 -7.5t21.5 -2h277q10 0 21.5 2t21 7.5t15.5 16.5t6 29v249z" />
    <glyph glyph-name="P" unicode="P" horiz-adv-x="849" 
d="M216 0h-166v487q0 56 16.5 98t45.5 69.5t69.5 41t88.5 13.5h310q48 0 88.5 -16t69.5 -49t45.5 -84.5t16.5 -122.5q0 -75 -16.5 -126.5t-45.5 -83.5t-69.5 -46t-88.5 -14h-272v175h272q6 0 15.5 2t18 12t14.5 29t6 54q0 33 -6 52t-14.5 28.5t-18 12t-15.5 2.5h-300
q-10 0 -21.5 -2t-21 -7.5t-15.5 -16.5t-6 -29v-479z" />
    <glyph glyph-name="Q" unicode="Q" 
d="M567 0q-48 0 -81 15t-57 43.5t-43 69.5t-39 94l-73 189h179l70 -181q11 -29 23.5 -40.5t27.5 -13.5q18 2 32.5 13.5t14.5 40.5v249q0 18 -6 29t-15.5 16.5t-21 7.5t-21.5 2h-277q-10 0 -21.5 -2t-21 -7.5t-15.5 -16.5t-6 -29v-249q0 -18 6 -29t15.5 -16.5t21 -7.5
t21.5 -2l70 -175h-80q-48 0 -88.5 13.5t-69.5 41t-45.5 69.5t-16.5 98v265q0 56 16.5 98t45.5 69.5t69.5 41t88.5 13.5h297q48 0 88.5 -13.5t69.5 -41t45.5 -69.5t16.5 -98v-265q0 -56 -16.5 -98t-45.5 -69.5t-69.5 -41t-88.5 -13.5z" />
    <glyph glyph-name="R" unicode="R" horiz-adv-x="837" 
d="M528 0q-48 0 -88.5 13.5t-69.5 41t-45.5 69.5t-16.5 98q0 55 16.5 96.5t45.5 69t69.5 41t88.5 13.5h40q6 0 15.5 1.5t18 6.5t14.5 14t6 25q0 14 -6 23t-14.5 14t-18 6.5t-15.5 1.5h-288q-10 0 -21.5 -2t-21 -7.5t-15.5 -16.5t-6 -29v-479h-166v487q0 56 16.5 98
t45.5 69.5t69.5 41t88.5 13.5h298q48 0 88.5 -13.5t69.5 -41t45.5 -69.5t16.5 -98t-16.5 -97.5t-45.5 -68.5t-69.5 -40.5t-88.5 -13.5h-30q-19 0 -39.5 -8t-24.5 -38q4 -30 24.5 -38t39.5 -8h241v-175h-251z" />
    <glyph glyph-name="S" unicode="S" horiz-adv-x="817" 
d="M602 220q0 16 -6 25t-14.5 14t-18 6.5t-15.5 1.5h-278q-48 0 -88.5 13.5t-69.5 40.5t-45.5 68.5t-16.5 97.5t16.5 98t45.5 69.5t69.5 41t88.5 13.5h467v-175h-467q-6 0 -15.5 -1.5t-18 -6.5t-14.5 -14t-6 -23q0 -16 6 -25t14.5 -14t18 -6.5t15.5 -1.5h278
q48 0 88.5 -13.5t69.5 -40.5t45.5 -68.5t16.5 -97.5t-16.5 -98t-45.5 -69.5t-69.5 -41t-88.5 -13.5h-478v175h478q6 0 15.5 1.5t18 6.5t14.5 14t6 23z" />
    <glyph glyph-name="T" unicode="T" horiz-adv-x="717" 
d="M276 0v534h-251v175h667v-175h-250v-534h-166z" />
    <glyph glyph-name="U" unicode="U" 
d="M270 0q-48 0 -88.5 13.5t-69.5 41t-45.5 69.5t-16.5 98v487h166v-479q0 -18 6 -29t15.5 -16.5t21 -7.5t21.5 -2h277q10 0 21.5 2t21 7.5t15.5 16.5t6 29v479h166v-487q0 -56 -16.5 -98t-45.5 -69.5t-69.5 -41t-88.5 -13.5h-297v0z" />
    <glyph glyph-name="V" unicode="V" horiz-adv-x="877" 
d="M370 0q-48 0 -82.5 14.5t-60 42.5t-44 69.5t-33.5 95.5l-140 487h166l140 -479q10 -35 27 -45t37 -10h117q20 0 37 10t27 45l140 479h166l-140 -487q-15 -54 -33.5 -95.5t-44 -69.5t-60 -42.5t-82.5 -14.5h-137v0z" />
    <glyph glyph-name="W" unicode="W" horiz-adv-x="1334" 
d="M944 0q-96 0 -146 56t-74 166l-57 263l-57 -263q-24 -110 -74 -166t-146 -56h-20q-48 0 -82.5 14.5t-60 42.5t-44 69.5t-33.5 95.5l-140 487h166l140 -479q11 -35 28.5 -45t35.5 -10q20 0 37 10t27 45l140 479h166l140 -479q11 -35 28.5 -45t35.5 -10q20 0 37 10t27 45
l140 479h166l-140 -487q-15 -54 -33.5 -95.5t-44 -69.5t-60 -42.5t-82.5 -14.5h-20v0z" />
    <glyph glyph-name="X" unicode="X" horiz-adv-x="864" 
d="M10 0l316 355l-315 354h212l209 -235l209 235h212l-315 -354l316 -355h-212l-210 236l-210 -236h-212z" />
    <glyph glyph-name="Y" unicode="Y" horiz-adv-x="826" 
d="M270 215q-48 0 -88.5 13.5t-69.5 41t-45.5 69.5t-16.5 98v272h166v-264q0 -18 6 -29t15.5 -16.5t21 -7.5t21.5 -2h267q10 0 21.5 2t21 7.5t15.5 16.5t6 29v264h166v-272q0 -56 -16.5 -98t-45.5 -69.5t-69.5 -41t-88.5 -13.5h-54v-215h-166v215h-67v0z" />
    <glyph glyph-name="Z" unicode="Z" horiz-adv-x="784" 
d="M50 0v69l383 465h-373v175h675v-72l-391 -462h381v-175h-675z" />
    <glyph glyph-name="bracketleft" unicode="[" horiz-adv-x="321" 
d="M352 767h-137v-834h137v-175h-303v1183h303v-174z" />
    <glyph glyph-name="backslash" unicode="\" horiz-adv-x="489" 
d="M3 709h166l320 -709h-165z" />
    <glyph glyph-name="bracketright" unicode="]" horiz-adv-x="321" 
d="M-31 941h303v-1183h-303v175h137v834h-137v174z" />
    <glyph glyph-name="asciicircum" unicode="^" horiz-adv-x="877" 
d="M508 709q48 0 82.5 -14.5t60 -42.5t44 -69.5t33.5 -95.5l140 -487h-166l-140 479q-10 35 -27 45t-37 10h-117q-20 0 -37 -10t-27 -45l-140 -479h-166l140 487q15 54 33.5 95.5t44 69.5t60 42.5t82.5 14.5h137zM353 341h165l40 -166h-245z" />
    <glyph glyph-name="underscore" unicode="_" horiz-adv-x="567" 
d="M0 -87v175h567v-175h-567z" />
    <glyph glyph-name="grave" unicode="`" horiz-adv-x="265" 
d="M226 620h-116l-80 191h136z" />
    <glyph glyph-name="a" unicode="a" horiz-adv-x="842" 
d="M216 230q0 -18 6 -29t15.5 -16.5t21 -7.5t21.5 -2h254v-175h-264q-48 0 -88.5 13.5t-69.5 41t-45.5 69.5t-16.5 98v265q0 56 16.5 98t45.5 69.5t69.5 41t88.5 13.5h303q48 0 88.5 -13.5t69.5 -41t45.5 -69.5t16.5 -98v-487h-166v479q0 18 -6 29t-15.5 16.5t-21 7.5
t-21.5 2h-283q-10 0 -21.5 -2t-21 -7.5t-15.5 -16.5t-6 -29v-249z" />
    <glyph glyph-name="b" unicode="b" horiz-adv-x="842" 
d="M627 479q0 18 -6 29t-15.5 16.5t-21 7.5t-21.5 2h-254v175h264q48 0 88.5 -13.5t69.5 -41t45.5 -69.5t16.5 -98v-265q0 -56 -16.5 -98t-45.5 -69.5t-69.5 -41t-88.5 -13.5h-303q-48 0 -88.5 13.5t-69.5 41t-45.5 69.5t-16.5 98v719h166v-711q0 -18 6 -29t15.5 -16.5
t21 -7.5t21.5 -2h283q10 0 21.5 2t21 7.5t15.5 16.5t6 29v249z" />
    <glyph glyph-name="c" unicode="c" horiz-adv-x="772" 
d="M216 230q0 -18 6 -29t15.5 -16.5t21 -7.5t21.5 -2h443v-175h-453q-48 0 -88.5 13.5t-69.5 41t-45.5 69.5t-16.5 98v265q0 56 16.5 98t45.5 69.5t69.5 41t88.5 13.5h453v-175h-443q-10 0 -21.5 -2t-21 -7.5t-15.5 -16.5t-6 -29v-249v0z" />
    <glyph glyph-name="d" unicode="d" horiz-adv-x="842" 
d="M216 230q0 -18 6 -29t15.5 -16.5t21 -7.5t21.5 -2h283q10 0 21.5 2t21 7.5t15.5 16.5t6 29v711h166v-719q0 -56 -16.5 -98t-45.5 -69.5t-69.5 -41t-88.5 -13.5h-303q-48 0 -88.5 13.5t-69.5 41t-45.5 69.5t-16.5 98v265q0 56 16.5 98t45.5 69.5t69.5 41t88.5 13.5h264
v-175h-254q-10 0 -21.5 -2t-21 -7.5t-15.5 -16.5t-6 -29v-249z" />
    <glyph glyph-name="e" unicode="e" horiz-adv-x="950" 
d="M216 230q0 -18 6 -29t15.5 -16.5t21 -7.5t21.5 -2h591v-175h-601q-48 0 -88.5 13.5t-69.5 41t-45.5 69.5t-16.5 98v265q0 56 16.5 98t45.5 69.5t69.5 41t88.5 13.5h411q48 0 88.5 -13.5t69.5 -41t45.5 -69.5t16.5 -98t-16.5 -97.5t-45.5 -68.5t-69.5 -40.5t-88.5 -13.5
h-373v175h373q6 0 15.5 1.5t18 6.5t14.5 14t6 25q0 14 -6 23t-14.5 14t-18 6.5t-15.5 1.5h-401q-10 0 -21.5 -2t-21 -7.5t-15.5 -16.5t-6 -29v-249v0z" />
    <glyph glyph-name="f" unicode="f" horiz-adv-x="758" 
d="M216 -242h-166v729q0 56 16.5 98t45.5 69.5t69.5 41t88.5 13.5h439v-175h-429q-10 0 -21.5 -2t-21 -7.5t-15.5 -16.5t-6 -29v-721zM308 175h381v-175h-381v175z" />
    <glyph glyph-name="g" unicode="g" horiz-adv-x="843" 
d="M794 -20q0 -56 -16.5 -98t-45.5 -69.5t-69.5 -41t-88.5 -13.5h-475v175h465q10 0 21.5 2t21 7.5t15.5 16.5t6 29v491q0 18 -6 29t-15.5 16.5t-21 7.5t-21.5 2h-284q-10 0 -21.5 -2t-21 -7.5t-15.5 -16.5t-6 -29v-249q0 -18 6 -29t15.5 -16.5t21 -7.5t21.5 -2h255v-175
h-265q-48 0 -88.5 13.5t-69.5 41t-45.5 69.5t-16.5 98v265q0 56 16.5 98t45.5 69.5t69.5 41t88.5 13.5h304q48 0 88.5 -13.5t69.5 -41t45.5 -69.5t16.5 -98v-507z" />
    <glyph glyph-name="h" unicode="h" horiz-adv-x="842" 
d="M216 709h357q48 0 88.5 -13.5t69.5 -41t45.5 -69.5t16.5 -98v-487h-166v479q0 18 -6 29t-15.5 16.5t-21 7.5t-21.5 2h-347v-534h-166v941h166v-232z" />
    <glyph glyph-name="i" unicode="i" horiz-adv-x="265" 
d="M50 1v708h166v-708h-166zM50 797v144h166v-144h-166z" />
    <glyph glyph-name="j" unicode="j" horiz-adv-x="265" 
d="M50 709h166v-729q0 -56 -16.5 -98t-45.5 -69.5t-69.5 -41t-88.5 -13.5h-107v175h97q10 0 21.5 2t21 7.5t15.5 16.5t6 29v721zM50 797v144h166v-144h-166z" />
    <glyph glyph-name="k" unicode="k" horiz-adv-x="761" 
d="M50 0v941h166v-499h201q22 0 41.5 9t27.5 38q3 12 11 39.5t17 60t17.5 65.5t13.5 55h167l-60 -222q-5 -20 -11.5 -37t-16.5 -33t-23.5 -31.5t-32.5 -31.5q38 -24 55.5 -58.5t28.5 -73.5l60 -222h-167q0 1 -4 17.5t-10.5 40.5t-14 52t-14.5 52t-11.5 40.5t-4.5 17.5
q-5 16 -13.5 25t-18.5 14t-21 6.5t-21 1.5h-196v-267h-166z" />
    <glyph glyph-name="l" unicode="l" horiz-adv-x="265" 
d="M216 0h-166v941h166v-941z" />
    <glyph glyph-name="m" unicode="m" horiz-adv-x="1075" 
d="M275 553q-14 0 -23.5 -6t-15.5 -14.5t-8.5 -18t-2.5 -15.5v-499h-175v499q0 48 13.5 88.5t41 69.5t69.5 45.5t98 16.5t97.5 -16.5t68.5 -45.5t40.5 -69.5t13.5 -88.5v-289q0 -6 1.5 -15.5t6.5 -18t14 -14.5t25 -6q14 0 23 6t14 14.5t6.5 18t1.5 15.5v289q0 48 13.5 88.5
t41 69.5t69.5 45.5t98 16.5t97.5 -16.5t68.5 -45.5t40.5 -69.5t13.5 -88.5v-499h-175v499q0 6 -2 15.5t-8 18t-16 14.5t-26 6q-14 0 -23.5 -6t-15.5 -14.5t-8.5 -18t-2.5 -15.5v-289q0 -48 -12 -88.5t-37.5 -69.5t-66 -45.5t-96.5 -16.5t-96 16.5t-65.5 45.5t-37 69.5
t-11.5 88.5v289q0 6 -2 15.5t-8 18t-16 14.5t-26 6z" />
    <glyph glyph-name="n" unicode="n" 
d="M567 709q48 0 88.5 -13.5t69.5 -41t45.5 -69.5t16.5 -98v-487h-166v479q0 18 -6 29t-15.5 16.5t-21 7.5t-21.5 2h-277q-10 0 -21.5 -2t-21 -7.5t-15.5 -16.5t-6 -29v-479h-166v487q0 56 16.5 98t45.5 69.5t69.5 41t88.5 13.5h297v0z" />
    <glyph glyph-name="o" unicode="o" 
d="M50 487q0 56 16.5 98t45.5 69.5t69.5 41t88.5 13.5h297q48 0 88.5 -13.5t69.5 -41t45.5 -69.5t16.5 -98v-265q0 -56 -16.5 -98t-45.5 -69.5t-69.5 -41t-88.5 -13.5h-297q-48 0 -88.5 13.5t-69.5 41t-45.5 69.5t-16.5 98v265zM621 479q0 18 -6 29t-15.5 16.5t-21 7.5
t-21.5 2h-277q-10 0 -21.5 -2t-21 -7.5t-15.5 -16.5t-6 -29v-249q0 -18 6 -29t15.5 -16.5t21 -7.5t21.5 -2h277q10 0 21.5 2t21 7.5t15.5 16.5t6 29v249z" />
    <glyph glyph-name="p" unicode="p" horiz-adv-x="842" 
d="M627 479q0 18 -6 29t-15.5 16.5t-21 7.5t-21.5 2h-283q-10 0 -21.5 -2t-21 -7.5t-15.5 -16.5t-6 -29v-721h-166v729q0 56 16.5 98t45.5 69.5t69.5 41t88.5 13.5h303q48 0 88.5 -13.5t69.5 -41t45.5 -69.5t16.5 -98v-265q0 -56 -16.5 -98t-45.5 -69.5t-69.5 -41
t-88.5 -13.5h-264v175h254q10 0 21.5 2t21 7.5t15.5 16.5t6 29v249z" />
    <glyph glyph-name="q" unicode="q" horiz-adv-x="842" 
d="M216 230q0 -18 6 -29t15.5 -16.5t21 -7.5t21.5 -2h254v-175h-264q-48 0 -88.5 13.5t-69.5 41t-45.5 69.5t-16.5 98v265q0 56 16.5 98t45.5 69.5t69.5 41t88.5 13.5h303q48 0 88.5 -13.5t69.5 -41t45.5 -69.5t16.5 -98v-729h-166v721q0 18 -6 29t-15.5 16.5t-21 7.5
t-21.5 2h-283q-10 0 -21.5 -2t-21 -7.5t-15.5 -16.5t-6 -29v-249z" />
    <glyph glyph-name="r" unicode="r" horiz-adv-x="734" 
d="M216 0h-166v487q0 56 16.5 98t45.5 69.5t69.5 41t88.5 13.5h439v-175h-429q-10 0 -21.5 -2t-21 -7.5t-15.5 -16.5t-6 -29v-479z" />
    <glyph glyph-name="s" unicode="s" horiz-adv-x="817" 
d="M602 220q0 16 -6 25t-14.5 14t-18 6.5t-15.5 1.5h-278q-48 0 -88.5 13.5t-69.5 40.5t-45.5 68.5t-16.5 97.5t16.5 98t45.5 69.5t69.5 41t88.5 13.5h467v-175h-467q-6 0 -15.5 -1.5t-18 -6.5t-14.5 -14t-6 -23q0 -16 6 -25t14.5 -14t18 -6.5t15.5 -1.5h278
q48 0 88.5 -13.5t69.5 -40.5t45.5 -68.5t16.5 -97.5t-16.5 -98t-45.5 -69.5t-69.5 -41t-88.5 -13.5h-478v175h478q6 0 15.5 1.5t18 6.5t14.5 14t6 23z" />
    <glyph glyph-name="t" unicode="t" horiz-adv-x="758" 
d="M216 230q0 -18 6 -29t15.5 -16.5t21 -7.5t21.5 -2h429v-175h-439q-48 0 -88.5 13.5t-69.5 41t-45.5 69.5t-16.5 98v628h166v-620zM308 709h381v-175h-381v175z" />
    <glyph glyph-name="u" unicode="u" 
d="M270 0q-48 0 -88.5 13.5t-69.5 41t-45.5 69.5t-16.5 98v487h166v-479q0 -18 6 -29t15.5 -16.5t21 -7.5t21.5 -2h277q10 0 21.5 2t21 7.5t15.5 16.5t6 29v479h166v-487q0 -56 -16.5 -98t-45.5 -69.5t-69.5 -41t-88.5 -13.5h-297v0z" />
    <glyph glyph-name="v" unicode="v" horiz-adv-x="877" 
d="M370 0q-48 0 -82.5 14.5t-60 42.5t-44 69.5t-33.5 95.5l-140 487h166l140 -479q10 -35 27 -45t37 -10h117q20 0 37 10t27 45l140 479h166l-140 -487q-15 -54 -33.5 -95.5t-44 -69.5t-60 -42.5t-82.5 -14.5h-137v0z" />
    <glyph glyph-name="w" unicode="w" horiz-adv-x="1075" 
d="M275 157q16 0 26 6t16 14.5t8 18t2 15.5v289q0 48 11.5 88.5t37 69.5t65.5 45.5t96 16.5t96.5 -16.5t66 -45.5t37.5 -69.5t12 -88.5v-289q0 -6 2.5 -15.5t8.5 -18t15.5 -14.5t23.5 -6q16 0 26 6t16 14.5t8 18t2 15.5v499h175v-499q0 -48 -13.5 -88.5t-40.5 -69.5
t-68.5 -45.5t-97.5 -16.5t-98 16.5t-69.5 45.5t-41 69.5t-13.5 88.5v289q0 6 -1.5 15.5t-6.5 18t-14 14.5t-23 6q-16 0 -25 -6t-14 -14.5t-6.5 -18t-1.5 -15.5v-289q0 -48 -13.5 -88.5t-40.5 -69.5t-68.5 -45.5t-97.5 -16.5t-98 16.5t-69.5 45.5t-41 69.5t-13.5 88.5v499
h175v-499q0 -6 2.5 -15.5t8.5 -18t15.5 -14.5t23.5 -6z" />
    <glyph glyph-name="x" unicode="x" horiz-adv-x="854" 
d="M350 267q-10 0 -21 -1.5t-21 -6.5t-18.5 -14t-13.5 -25q0 -1 -4.5 -17.5t-11.5 -40.5t-14.5 -52t-14 -52t-10.5 -40.5t-4 -17.5h-167l60 222q11 39 28.5 73.5t55.5 58.5q-38 30 -55.5 61.5t-28.5 71.5l-60 222h167q5 -22 13.5 -55t17.5 -65.5t17 -60t11 -39.5
q8 -29 27.5 -38t41.5 -9h165q22 0 41.5 9t27.5 38q3 12 11 39.5t17 60t17.5 65.5t13.5 55h167l-60 -222q-5 -20 -11.5 -37t-16.5 -33t-23.5 -31.5t-32.5 -31.5q38 -24 55.5 -58.5t28.5 -73.5l60 -222h-167q0 1 -4 17.5t-10.5 40.5t-14 52t-14.5 52t-11.5 40.5t-4.5 17.5
q-5 16 -13.5 25t-18.5 14t-21 6.5t-21 1.5h-155z" />
    <glyph glyph-name="y" unicode="y" horiz-adv-x="842" 
d="M563 -67q10 0 21.5 2t21 7.5t15.5 16.5t6 29v721h166v-729q0 -56 -16.5 -98t-45.5 -69.5t-69.5 -41t-88.5 -13.5h-474v175h464zM270 0q-48 0 -88.5 13.5t-69.5 41t-45.5 69.5t-16.5 98v487h166v-479q0 -18 6 -29t15.5 -16.5t21 -7.5t21.5 -2h254v-175h-264z" />
    <glyph glyph-name="z" unicode="z" horiz-adv-x="784" 
d="M50 0v69l383 465h-373v175h675v-72l-391 -462h381v-175h-675z" />
    <glyph glyph-name="braceleft" unicode="{" horiz-adv-x="356" 
d="M250 -12q0 -18 6 -29t15.5 -16.5t21 -7.5t21.5 -2h73v-175h-83q-48 0 -88.5 13.5t-69.5 41t-45.5 69.5t-16.5 98v227q0 32 -18 43.5t-37 11.5h-13v175h13q19 0 37 11.5t18 43.5v228q0 56 16.5 98t45.5 69.5t69.5 41t88.5 13.5h83v-175h-73q-10 0 -21.5 -2t-21 -7.5
t-15.5 -16.5t-6 -29v-228q0 -82 -35 -135q35 -52 35 -134v-227z" />
    <glyph glyph-name="bar" unicode="|" horiz-adv-x="265" 
d="M216 -242h-166v1183h166v-1183z" />
    <glyph glyph-name="braceright" unicode="}" horiz-adv-x="356" 
d="M106 215q0 82 35 134q-35 53 -35 135v228q0 18 -6 29t-15.5 16.5t-21 7.5t-21.5 2h-73v175h83q48 0 88.5 -13.5t69.5 -41t45.5 -69.5t16.5 -98v-228q0 -32 18 -43.5t37 -11.5h13v-175h-13q-19 0 -37 -11.5t-18 -43.5v-227q0 -56 -16.5 -98t-45.5 -69.5t-69.5 -41
t-88.5 -13.5h-83v175h73q10 0 21.5 2t21 7.5t15.5 16.5t6 29v227z" />
    <glyph glyph-name="asciitilde" unicode="~" horiz-adv-x="646" 
d="M407 230q0 -18 6 -29t15.5 -16.5t21 -7.5t21.5 -2h90v-175h-100q-48 0 -88.5 13.5t-69.5 41t-45.5 69.5t-16.5 98v312h-191v175h547v-175h-190v-304v0z" />
    <glyph glyph-name="uni00A0" unicode="&#xa0;" horiz-adv-x="200" 
 />
    <glyph glyph-name="exclamdown" unicode="&#xa1;" horiz-adv-x="265" 
d="M50 443h166v-442h-166v442zM216 709v-174h-166v174h166z" />
    <glyph glyph-name="cent" unicode="&#xa2;" horiz-adv-x="772" 
d="M363 -100v100h-93q-48 0 -88.5 13.5t-69.5 41t-45.5 69.5t-16.5 98v265q0 56 16.5 98t45.5 69.5t69.5 41t88.5 13.5h94v89h166v-89h193v-175h-443q-10 0 -21.5 -2t-21 -7.5t-15.5 -16.5t-6 -29v-249q0 -18 6 -29t15.5 -16.5t21 -7.5t21.5 -2h443v-175h-194v-100h-166z
" />
    <glyph glyph-name="sterling" unicode="&#xa3;" horiz-adv-x="729" 
d="M50 438h81v49q0 56 16.5 98t45.5 69.5t69.5 41t88.5 13.5h281v-175h-271q-10 0 -21.5 -2t-21 -7.5t-15.5 -16.5t-6 -29v-41h240v-166h-240v-97h383v-175h-628v175h79v97h-81v166z" />
    <glyph glyph-name="currency" unicode="&#xa4;" horiz-adv-x="772" 
d="M4 441h46v46q0 56 16.5 98t45.5 69.5t69.5 41t88.5 13.5h453v-175h-443q-10 0 -21.5 -2t-21 -7.5t-15.5 -16.5t-6 -29v-38h450v-55h-450v-65h432v-55h-432v-36q0 -18 6 -29t15.5 -16.5t21 -7.5t21.5 -2h443v-175h-453q-48 0 -88.5 13.5t-69.5 41t-45.5 69.5t-16.5 98v44
h-64v55h64v65h-46v55z" />
    <glyph glyph-name="yen" unicode="&#xa5;" horiz-adv-x="826" 
d="M87 247h250v92h-67q-48 0 -88.5 13.5t-69.5 41t-45.5 69.5t-16.5 98v148h166v-140q0 -18 6 -29t15.5 -16.5t21 -7.5t21.5 -2h267q10 0 21.5 2t21 7.5t15.5 16.5t6 29v140h166v-148q0 -56 -16.5 -98t-45.5 -69.5t-69.5 -41t-88.5 -13.5h-54v-92h225v-166h-225v-81h-166v81
h-250v166z" />
    <glyph glyph-name="brokenbar" unicode="&#xa6;" horiz-adv-x="265" 
d="M50 -242v467h166v-467h-166zM216 534h-166v407h166v-407z" />
    <glyph glyph-name="section" unicode="&#xa7;" horiz-adv-x="1076" 
d="M216 709v-479q0 -18 6 -29t15.5 -16.5t21 -7.5t21.5 -2h517q10 0 21.5 2t21 7.5t15.5 16.5t6 29v479h166v-487q0 -56 -16.5 -98t-45.5 -69.5t-69.5 -41t-88.5 -13.5h-537q-48 0 -88.5 13.5t-69.5 41t-45.5 69.5t-16.5 98v487h166zM621 709v-442h-166v442h166z" />
    <glyph glyph-name="dieresis" unicode="&#xa8;" horiz-adv-x="418" 
d="M50 750v132h125v-132h-125zM243 750v132h125v-132h-125z" />
    <glyph glyph-name="copyright" unicode="&#xa9;" horiz-adv-x="504" 
d="M217 673q0 -11 6 -17.5t15.5 -10.5t21 -5.5t21.5 -1.5h173v-175h-183q-48 0 -88.5 10.5t-69.5 34.5t-45.5 62.5t-16.5 94.5v75q0 56 16.5 94.5t45.5 62.5t69.5 34.5t88.5 10.5h183v-175h-173q-10 0 -21.5 -1.5t-21 -5.5t-15.5 -11t-6 -17v-59v0z" />
    <glyph glyph-name="ordfeminine" unicode="&#xaa;" horiz-adv-x="877" 
d="M508 709q48 0 82.5 -14.5t60 -42.5t44 -69.5t33.5 -95.5l140 -487h-166l-140 479q-10 35 -27 45t-37 10h-117q-20 0 -37 -10t-27 -45l-140 -479h-166l140 487q15 54 33.5 95.5t44 69.5t60 42.5t82.5 14.5h137v0z" />
    <glyph glyph-name="guillemotleft" unicode="&#xab;" horiz-adv-x="601" 
d="M324 369q0 40 12.5 68.5t36 50t58 37t79.5 30.5l45 14v-141l-63 -13q-29 -8 -37.5 -22t-8.5 -31v-6q0 -17 8.5 -31.5t37.5 -22.5l63 -16v-137l-48 15q-45 13 -79 28.5t-57.5 36t-35 49t-11.5 68.5v23zM46 369q0 40 12.5 68.5t36 50t58 37t79.5 30.5l45 14v-141l-63 -13
q-29 -8 -37.5 -22t-8.5 -31v-6q0 -17 8.5 -31.5t37.5 -22.5l63 -16v-137l-48 15q-45 13 -79 28.5t-57.5 36t-35 49t-11.5 68.5v23z" />
    <glyph glyph-name="logicalnot" unicode="&#xac;" horiz-adv-x="856" 
d="M50 487q0 56 16.5 98t45.5 69.5t69.5 41t88.5 13.5h317q48 0 88.5 -13.5t69.5 -41t45.5 -69.5t16.5 -98v-265q0 -56 -16.5 -98t-45.5 -69.5t-69.5 -41t-88.5 -13.5h-317q-48 0 -88.5 13.5t-69.5 41t-45.5 69.5t-16.5 98v265zM641 479q0 18 -6 29t-15.5 16.5t-21 7.5
t-21.5 2h-297q-10 0 -21.5 -2t-21 -7.5t-15.5 -16.5t-6 -29v-249q0 -18 6 -29t15.5 -16.5t21 -7.5t21.5 -2h297q10 0 21.5 2t21 7.5t15.5 16.5t6 29v249zM442 -67h306v-175h-306v175z" />
    <glyph glyph-name="registered" unicode="&#xae;" horiz-adv-x="504" 
d="M217 465h-166v255q0 56 16.5 98t45.5 69.5t69.5 41t88.5 13.5h183v-175h-173q-10 0 -21.5 -2t-21 -7.5t-15.5 -16.5t-6 -29v-247z" />
    <glyph glyph-name="macron" unicode="&#xaf;" horiz-adv-x="374" 
d="M34 912h305v-136h-305v136z" />
    <glyph glyph-name="degree" unicode="&#xb0;" horiz-adv-x="362" 
d="M42 583q0 64 35 95t89 31h28q55 0 90 -31t35 -95v-19q0 -64 -35 -95t-90 -31h-28q-54 0 -89 31t-35 95v19zM225 579q0 20 -12.5 25.5t-23.5 5.5h-17q-11 0 -23.5 -5.5t-12.5 -25.5v-11q0 -20 12.5 -25.5t23.5 -5.5h17q11 0 23.5 5.5t12.5 25.5v11z" />
    <glyph glyph-name="plusminus" unicode="&#xb1;" horiz-adv-x="426" 
d="M216 230q0 -18 6 -29t15.5 -16.5t21 -7.5t21.5 -2h97v-175h-107q-48 0 -88.5 13.5t-69.5 41t-45.5 69.5t-16.5 98v720h166v-712z" />
    <glyph glyph-name="acute" unicode="&#xb4;" horiz-adv-x="265" 
d="M119 941h136l-80 -191h-116z" />
    <glyph glyph-name="uni00B5" unicode="&#xb5;" horiz-adv-x="842" 
d="M216 0v-242h-166v951h166v-534h347q10 0 21.5 2t21 7.5t15.5 16.5t6 29v479h166v-487q0 -56 -16.5 -98t-45.5 -69.5t-69.5 -41t-88.5 -13.5h-357z" />
    <glyph glyph-name="paragraph" unicode="&#xb6;" horiz-adv-x="650" 
d="M435 -152v202h-165q-48 0 -88.5 13.5t-69.5 41t-45.5 69.5t-16.5 98v215q0 56 16.5 98t45.5 69.5t69.5 41t88.5 13.5h331v-861h-166z" />
    <glyph glyph-name="periodcentered" unicode="&#xb7;" horiz-adv-x="265" 
d="M50 359v175h166v-175h-166z" />
    <glyph glyph-name="cedilla" unicode="&#xb8;" horiz-adv-x="265" 
d="M50 -100v275h166v-275h-166z" />
    <glyph glyph-name="uni00B9" unicode="&#xb9;" horiz-adv-x="1814" 
d="M1769 530q-3 -12 -7.5 -23.5t-11 -21.5t-16.5 -16t-23 -6q-20 0 -37 14.5t-23 46.5q-21 -40 -35 -51t-30 -11q-19 0 -32.5 13.5t-22.5 33.5t-13 42t-4 39q0 22 14 50.5t34 54t43.5 43t42.5 17.5q22 0 32 -29l7 26q8 -4 15.5 -7t17.5 -3q14 0 23.5 7t18.5 13
q-3 -18 -11 -57t-16 -81.5t-14.5 -79.5t-6.5 -50q0 -17 8 -17q12 0 20.5 16.5t16.5 36.5h10zM1496 572l-7 -24.5t-14.5 -36t-23 -33t-32.5 -14.5q-20 0 -38.5 14.5t-25.5 46.5q-11 -20 -19.5 -32.5t-16 -19.5t-14.5 -9t-15 -2q-19 0 -32.5 13.5t-22.5 33.5t-13 42t-4 39
q0 22 14 50.5t34 54t43.5 43t42.5 17.5t30 -24q5 25 10 49t9 43t6.5 31t3.5 15q8 -4 16 -7t17 -3q14 0 23.5 7t19.5 13q-2 -12 -8 -42.5t-13.5 -70t-16 -84t-15.5 -83t-11.5 -67.5t-4.5 -38q0 -7 2 -12t7 -5q9 0 18.5 10.5t17 25.5t13.5 31.5t9 27.5h11zM1494 485
q-7 -44 -36 -65t-60 -26q-1 -26 -27 -47t-62 -21q-13 0 -27 3t-26 10t-19.5 19t-7.5 30q0 19 16 37t37 19v-4q-16 -3 -29.5 -15.5t-13.5 -29.5q0 -16 6 -26t16.5 -15.5t23 -7.5t26.5 -2q13 0 26.5 2t25 7.5t19.5 15.5t9 25q-3 -1 -7 -1q-23 0 -39 9t-16 25q0 8 8 14t15 6
q16 0 28.5 -12.5t16.5 -28.5q31 4 59 26t36 53h2zM1205 530q-3 -12 -7.5 -23.5t-11 -21.5t-16.5 -16t-23 -6q-20 0 -37 14.5t-23 46.5q-21 -40 -35 -51t-30 -11q-19 0 -32.5 13.5t-22.5 33.5t-13 42t-4 39q0 22 14 50.5t34 54t43.5 43t42.5 17.5q22 0 32 -29l7 26
q8 -4 15.5 -7t17.5 -3q14 0 23.5 7t18.5 13q-3 -18 -11 -57t-16 -81.5t-14.5 -79.5t-6.5 -50q0 -17 8 -17q12 0 20.5 16.5t16.5 36.5h10zM1719 138l40 -32l-143 -27l9 -51l-88 71q-15 -35 -35.5 -66.5t-46.5 -57.5q25 -9 53 -9q38 0 59 13.5t33 38.5h4q-3 -15 -12.5 -27
t-22 -20.5t-27.5 -12.5t-29 -4q-36 0 -67 12q-34 -34 -71.5 -54.5t-71.5 -20.5q-32 0 -53 27.5t-21 93.5q-2 -1 -7 -1q-18 0 -35.5 8.5t-31 25.5t-22 43t-8.5 61q0 20 14 46.5t36.5 50.5t51.5 41t59 17q20 0 35 -15.5t15 -51.5q0 -23 -12.5 -42.5t-31 -34t-41 -23.5
t-43.5 -11q-6 -34 -9 -58t-3 -25q0 -11 7.5 -16.5t18.5 -5.5q4 0 7 1v1q0 17 6 38t17.5 40t27 31.5t34.5 12.5q9 0 13 -8t4 -17q0 -16 -8.5 -34t-22 -33.5t-30 -26.5t-33.5 -13q0 -59 20.5 -84.5t51.5 -25.5q28 0 61 18.5t64 49.5q-35 17 -57.5 47.5t-22.5 74.5q0 15 4.5 30
t13 28t21 23t28.5 13v-4q-31 -9 -45.5 -36.5t-14.5 -57.5q0 -37 23 -65.5t58 -43.5q24 26 44.5 59t31.5 70l-114 35l50 20l-67 136l54 -16l-12 80l52 -59l31 45l31 -98l42 135l21 -35l79 46v-89h49l-104 -103l103 29l-17 -53l78 -8zM1189 439q-3 -17 -14 -32t-27 -26.5
t-36 -18.5t-41 -7h-11q-8 -8 -21 -12t-27 -4q-29 0 -57 13t-42 41l1 1q17 -20 40 -35t55 -15q12 0 23.5 3t19.5 10q-15 3 -37 9.5t-42.5 19t-34.5 31t-14 44.5q0 8 1.5 17.5t8.5 16.5l4 -4q-5 -15 -5 -27q0 -24 13.5 -40.5t33 -28t42 -17.5t41.5 -7q3 7 3 17q0 23 -18.5 39
t-43.5 16q-10 0 -20.5 -2.5t-19.5 -7.5l-4 1q8 8 19.5 11.5t22.5 3.5q13 0 25.5 -4.5t22.5 -12t16.5 -19t6.5 -24.5q0 -11 -3 -18h4q16 0 33 4t32 13t25.5 22.5t14.5 33.5zM1101 42q0 -20 -6.5 -40.5t-18.5 -37.5t-29.5 -28t-39.5 -11q-17 0 -28.5 9t-11.5 26q0 11 8.5 19.5
t19.5 8.5q6 0 9 -1v-4q-9 0 -19 -6t-10 -17q0 -13 9 -20t20 -7q19 0 35.5 11.5t28.5 28.5t18.5 36.5t6.5 36.5q0 13 -4 24t-10 21q-14 -31 -36 -55.5t-52 -24.5q-23 0 -31 16.5t-8 36.5q0 19 6 33t15 23.5t18.5 14.5t16.5 7q3 18 5.5 39t4.5 40.5t3.5 35t1.5 24.5q0 2 -3 6
t-9 4q-5 0 -12 -4.5t-14 -14t-12 -24.5t-5 -36q0 -10 -4.5 -38.5t-11 -65t-14.5 -76.5t-15 -74.5t-12.5 -58t-6.5 -27.5q-8 4 -15.5 7t-17.5 3q-14 0 -23.5 -7t-18.5 -13q2 12 8 44.5t14.5 75t17 90.5t16 89.5t12.5 72.5t5 40q0 22 -7.5 34.5t-18.5 22t-24 19.5t-24 27.5
t-18.5 45.5t-7.5 75q0 27 7 54.5t16 56t16 57t7 55.5q0 22 -9 22q-11 0 -29 -21t-32 -56q-2 -14 -7.5 -46t-11.5 -65.5t-12 -61t-7 -32.5q-8 4 -15.5 7.5t-17.5 3.5q-14 0 -22 -3t-17 -9q3 18 10 56.5t14 80t12.5 77.5t5.5 50q0 7 -2 12t-7 5q-12 0 -20.5 -16.5t-16.5 -36.5
h-10q4 12 8.5 23.5t12 21t18 15.5t25.5 6q28 0 41.5 -17t17.5 -40q6 8 13 18t15 19t18 15t23 6q16 0 27.5 -10t19.5 -26.5t12 -37t4 -41.5q0 -36 -8 -67t-17 -59t-17 -55t-8 -55q0 -27 7 -42t17.5 -23.5t23 -14t24 -13t20.5 -20.5t13 -36q18 31 31 40t28 9q19 0 33 -14
t23.5 -34.5t14 -42t4.5 -36.5q0 -17 -4 -37t-12 -40q8 -12 13.5 -26.5t5.5 -31.5zM635 530q-3 -12 -7 -23.5t-11 -21.5t-17 -16t-23 -6q-20 0 -37 14.5t-23 46.5q-20 -40 -34.5 -51t-30.5 -11q-19 0 -32.5 13.5t-22 33.5t-12.5 42t-4 39q0 22 14 50.5t34 54t43.5 43
t42.5 17.5q21 0 31 -29l7 26q8 -4 16 -7t17 -3q14 0 23.5 7t19.5 13q-3 -18 -11 -57t-16.5 -81.5t-15 -79.5t-6.5 -50q0 -17 9 -17q12 0 20.5 16.5t16.5 36.5h9zM786 317v3q-5 29 -20.5 39t-26.5 10q-9 0 -18.5 -4.5t-21 -10t-26 -10t-34.5 -4.5q-18 0 -26 8t-8 17
q0 18 16 25t28 7l58 -6q11 0 21.5 4.5t10.5 18.5q0 15 -11.5 22.5t-25.5 7.5q-10 0 -19.5 -4.5t-9.5 -13.5q0 -13 16 -13q12 0 21 6l2 -7q-5 -2 -10.5 -4t-11.5 -2q-10 0 -17.5 5t-7.5 14q0 12 13.5 18.5t24.5 6.5q17 0 30 -9t13 -26t-13.5 -23.5t-24.5 -6.5l-59 7
q-11 0 -24.5 -6t-13.5 -21q0 -10 9 -14t17 -4q12 0 25 5t25.5 11.5t24 11.5t20.5 5q26 0 43 -18t17 -46zM359 591q0 -32 -16.5 -61t-44.5 -49q16 -16 16 -43q0 -26 -16 -43t-39 -27q1 -2 1 -5q0 -20 -17 -32.5t-34 -12.5h-5l3 5q5 0 12.5 2.5t14 7t11.5 11t5 15.5q0 4 -1 6
q-12 -5 -24.5 -6.5t-24.5 -1.5q-9 0 -24 2t-28.5 7t-23.5 13t-10 21q0 9 5.5 14.5t14 9t17.5 5t15 1.5q10 0 23.5 -3.5t26 -10t23 -15.5t16.5 -19q19 8 32.5 22.5t13.5 35.5q0 22 -11 36q-16 -10 -33.5 -15.5t-37.5 -5.5q-29 0 -54 10.5t-43.5 31t-29 49.5t-10.5 65
q0 20 13 54q-17 12 -25 31t-8 42q0 22 7.5 45.5t21 42t32.5 30.5t41 12q6 0 16 -2v-6q-4 1 -12 1q-21 0 -38.5 -11t-31 -28.5t-21 -39t-7.5 -42.5q0 -20 7 -36.5t23 -27.5q16 36 42 76.5t55.5 74.5t59 56.5t52.5 22.5q13 0 21 -6.5t12 -17t5.5 -22.5t1.5 -22
q0 -28 -13 -55.5t-34.5 -50.5t-48 -41.5t-53.5 -28.5q0 -1 -0.5 -1.5t-0.5 -2.5q-5 -17 -9.5 -37t-9 -39.5t-7 -37.5t-2.5 -33q0 -16 6.5 -25.5t15 -14t15.5 -6t9 -1.5q33 0 63 22q-10 7 -21.5 9.5t-22.5 2.5q-9 0 -21 -2.5t-14 -4.5v4q5 5 16 8t17 3q30 0 52 -14
q24 20 38.5 51t14.5 63q0 19 -6.5 38t-28.5 19q-18 0 -32.5 -9t-24.5 -22.5t-15.5 -30.5t-5.5 -33q0 -9 4.5 -23t18.5 -14q10 0 17.5 7t12.5 17t7.5 21t2.5 20q0 3 -1 7t-2 9h8q2 -5 2 -9.5v-6.5q0 -11 -3.5 -23.5t-10 -23.5t-15 -18.5t-18.5 -7.5q-19 0 -24.5 16.5
t-5.5 31.5q0 16 6 33.5t16.5 32.5t25.5 24.5t34 9.5q27 0 42.5 -24t15.5 -56zM820 -25q0 -20 -9 -35t-21 -25h-9q14 11 23 24.5t9 31.5q0 14 -6 30.5t-31 22.5q2 -12 4 -27.5t2 -39.5q0 -26 -12.5 -45t-31.5 -31t-42.5 -17.5t-45.5 -5.5q-15 0 -30 4.5t-27.5 13.5t-20 21.5
t-7.5 28.5q0 17 7 27.5t16.5 16.5t19.5 8t16 2q11 0 16 -1q8 15 22 28.5t35 22.5v3q-2 8 -2.5 16t-0.5 14q-11 -22 -28 -37t-42 -15t-41 26t-16 64q0 19 7 40.5t15.5 43.5t15.5 41.5t7 33.5q0 17 -3 23t-8 6q-8 0 -15 -5t-13 -11.5t-9.5 -12.5t-4.5 -9q0 -25 -12.5 -41.5
t-31.5 -25.5q0 -92 -37 -136t-109 -44q-19 0 -37.5 4t-32.5 14t-23 25.5t-9 38.5q0 26 15 48t40 22q17 0 24.5 -12t7.5 -25q0 -25 -13.5 -46.5t-38.5 -21.5q-5 0 -10.5 2t-10.5 4q4 -15 17 -25.5t26 -10.5q21 0 36.5 15t27 38.5t19.5 52.5t14 57q-31 13 -45 40
q-12 -5 -18 -5q-71 0 -71 75q0 27 10.5 53.5t29 47.5t44 33.5t54.5 12.5q30 0 49 -5t32.5 -11t23.5 -11t22 -5q5 0 10 0.5t10 1.5v-5q-34 -8 -65.5 -30t-51.5 -50q-3 24 -20 38.5t-43 14.5q-19 0 -36 -8.5t-30 -22.5t-21 -32t-8 -37q0 -53 58 -53q10 0 18 4q-7 14 -7 35
q0 28 14.5 44.5t26.5 16.5q11 0 16.5 -7.5t5.5 -17.5q0 -21 -14.5 -41.5t-31.5 -31.5q6 -13 16.5 -21.5t23.5 -13.5q8 34 20.5 68t38.5 65q4 5 14 14.5t22 19t25.5 17t26.5 9.5v-7q-18 -9 -29.5 -24.5t-18 -34t-9 -39.5t-2.5 -40q0 -22 3 -47q17 8 28.5 23t11.5 35
q0 14 -4 27t-11 20v2q8 -5 12.5 -16t6.5 -22q6 12 21.5 26.5t40.5 14.5q15 0 26.5 -8t19 -21t11 -30.5t3.5 -35.5q0 -12 -7 -31.5t-15.5 -41t-15.5 -44t-7 -40.5q0 -21 12 -21q13 0 23.5 14t19.5 37t16 52.5t13 59.5t11.5 58t10.5 49q8 -4 16 -7t17 -3q14 0 23.5 7t19.5 13
q-5 -26 -13 -60t-15.5 -69.5t-12.5 -69t-3 -57.5l1 -17q20 -5 33 -21t13 -42zM517 -4q0 -38 -25.5 -63.5t-60.5 -31.5q-10 -18 -31.5 -26.5t-40.5 -8.5q-14 0 -31 3.5t-31.5 11t-24.5 19t-10 28.5q0 14 8.5 25t24.5 11h6.5t8.5 -2q-43 38 -84 55t-98 17q-23 0 -48 -2.5
t-60 -7.5q31 11 52.5 17t40.5 13q22 8 43 22.5t37 32.5t25.5 37.5t9.5 37.5q0 45 -29 67.5t-71 22.5q-13 0 -29 -1.5t-29.5 -7t-22.5 -15.5t-9 -27t17.5 -26t36.5 -9t35 11t31 24v-9q-10 -14 -28 -27t-38 -13q-25 0 -44.5 13t-19.5 36q0 19 9.5 31t23.5 18.5t30.5 9
t31.5 2.5q56 0 86 -28.5t30 -76.5q0 -21 -11.5 -41t-26.5 -36.5t-30 -29t-22 -17.5l18 -4q24 -5 45 -12t40 -18.5t36.5 -27.5t35.5 -39h-2v-2q-6 2 -11 3t-10 1q-18 0 -25 -8.5t-7 -19.5q0 -15 10 -25.5t24 -17t29.5 -9.5t26.5 -3q17 0 33.5 7.5t25.5 18.5h-4
q-8 0 -20.5 2.5t-24 8t-19.5 14.5t-8 22q0 15 9.5 21.5t23.5 6.5q23 0 42.5 -15.5t19.5 -36.5q0 -4 -2 -10q13 3 27 9.5t25 17t18 24.5t7 33q0 11 -1 18.5t-5 19.5h4q2 -4 4.5 -15.5t2.5 -22.5zM1671 689q0 33 -5 44.5t-13 11.5q-9 0 -15 -7.5t-9.5 -18t-5.5 -21.5t-3 -18
q-2 -11 -7 -37.5t-10.5 -57.5t-9.5 -59t-4 -40q0 -3 1 -7t7 -4q14 0 27.5 21t24.5 69q2 23 8.5 57.5t13.5 66.5zM1375 699q-1 27 -6.5 36.5t-11.5 9.5q-9 0 -15 -7.5t-9.5 -18t-5.5 -21.5t-3 -18q-2 -11 -7 -37.5t-10.5 -57.5t-9.5 -59t-4 -40q0 -3 1 -7t7 -4q13 0 22 11
t17 36.5t16 68.5t19 108zM1390 406q-3 14 -12 23.5t-23 9.5q-6 0 -10.5 -2.5t-4.5 -10.5q0 -12 14.5 -16t31.5 -4h4zM1107 689q0 33 -5 44.5t-13 11.5q-9 0 -15 -7.5t-9.5 -18t-5.5 -21.5t-3 -18q-2 -11 -7 -37.5t-10.5 -57.5t-9.5 -59t-4 -40q0 -3 1 -7t7 -4q14 0 27.5 21
t24.5 69q2 23 8.5 57.5t13.5 66.5zM1291 272q0 22 -10 22q-12 0 -23 -14.5t-20 -37.5t-16 -51t-12 -55q19 3 34.5 19t25.5 37t15.5 43t5.5 37zM1320 123q0 5 -1.5 9.5t-7.5 4.5q-15 0 -28.5 -11.5t-24 -28.5t-16.5 -36.5t-6 -35.5v-2q12 0 26.5 10t27.5 25t21.5 32.5
t8.5 32.5zM538 689q0 33 -5.5 44.5t-12.5 11.5t-12.5 -8t-10 -18.5t-7 -21.5t-3.5 -17q-2 -11 -7.5 -37.5t-10.5 -57.5t-9 -59t-4 -40q0 -3 1 -7t7 -4q13 0 26.5 21t24.5 69q2 23 8.5 57.5t14.5 66.5zM1007 131q-11 -1 -20 -8t-15.5 -17.5t-10 -23t-3.5 -24.5q0 -9 5 -21.5
t19 -12.5q6 0 10.5 12t7 29t4 35.5t3.5 30.5zM326 868q0 10 -3 17.5t-14 7.5t-21 -12t-27 -48q0 -2 -7 -19.5t-16.5 -42.5t-19 -51.5t-15.5 -45.5q25 11 47.5 31.5t39 46.5t26.5 56t10 60zM422 299q0 8 -3 14t-12 6q-10 0 -16 -6t-9.5 -14.5t-5 -18t-1.5 -16.5q0 -19 5 -29
q16 11 29 29t13 35zM673 -72q0 11 -9 18.5t-20 12.5q-1 -3 -1 -6.5v-6.5q0 -10 3.5 -20t11.5 -10q9 0 12 4t3 8zM724 -72q0 21 -10 46.5t-15 44.5q-17 -5 -30 -15.5t-21 -27.5q20 -7 28.5 -21.5t8.5 -23.5q0 -7 -5.5 -16t-19.5 -9q-12 0 -20 12.5t-8 25.5v9t2 9q-5 1 -8.5 1
h-7.5q-19 0 -30.5 -10.5t-11.5 -29.5q0 -14 6.5 -24.5t16.5 -18t23 -11t26 -3.5q12 0 25 4t24.5 12t19 19.5t7.5 26.5zM245 378q-11 20 -35 32.5t-44 12.5q-5 0 -11.5 -1t-13 -3t-11 -7t-4.5 -12q0 -10 7 -16t17.5 -9.5t22.5 -4.5t21 -1q25 0 51 9zM428 -76q0 18 -16.5 30
t-32.5 12q-11 0 -19 -6t-8 -19q0 -9 6 -15.5t15 -10.5t18.5 -5.5t17.5 -1.5q10 0 14.5 2.5t4.5 13.5z" />
    <glyph glyph-name="ordmasculine" unicode="&#xba;" horiz-adv-x="584" 
d="M50 507q0 56 13 94.5t38.5 62.5t63 34.5t85.5 10.5h87q48 0 85 -10.5t62.5 -34.5t39 -62.5t13.5 -94.5v-85q0 -56 -13.5 -94.5t-39 -62.5t-62.5 -34.5t-85 -10.5h-87q-48 0 -85.5 10.5t-63 34.5t-38.5 62.5t-13 94.5v85zM391 499q0 18 -6 29t-15.5 16.5t-21 7.5t-21.5 2
h-67q-10 0 -21.5 -2t-21 -7.5t-15.5 -16.5t-6 -29v-69q0 -18 6 -29t15.5 -16.5t21 -7.5t21.5 -2h67q10 0 21.5 2t21 7.5t15.5 16.5t6 29v69zM140 166h305v-166h-305v166z" />
    <glyph glyph-name="guillemotright" unicode="&#xbb;" horiz-adv-x="601" 
d="M276 346q0 -40 -11.5 -68.5t-35 -49t-57.5 -36t-79 -28.5l-48 -15v137l63 16q29 8 37.5 22.5t8.5 31.5v6q0 17 -8.5 31t-37.5 22l-63 13v141l45 -14q45 -15 79.5 -30.5t58 -37t36 -50t12.5 -68.5v-23zM554 346q0 -40 -11.5 -68.5t-35 -49t-57.5 -36t-79 -28.5l-48 -15
v137l63 16q29 8 37.5 22.5t8.5 31.5v6q0 17 -8.5 31t-37.5 22l-63 13v141l45 -14q45 -15 79.5 -30.5t58 -37t36 -50t12.5 -68.5v-23z" />
    <glyph glyph-name="questiondown" unicode="&#xbf;" horiz-adv-x="788" 
d="M739 443v-175h-468q-6 0 -15.5 -1.5t-18 -6.5t-14.5 -14t-6 -25q0 -14 6 -23t14.5 -14t18 -6.5t15.5 -1.5h467v-175h-467q-48 0 -88.5 13.5t-69.5 41t-45.5 69.5t-16.5 98t16.5 97.5t45.5 68.5t69.5 40.5t88.5 13.5h468zM740 710v-175h-166v175h166z" />
    <glyph glyph-name="Agrave" unicode="&#xc0;" horiz-adv-x="939" 
d="M724 0v479q0 18 -6 29t-15.5 16.5t-21 7.5t-21.5 2h-380q-10 0 -21.5 -2t-21 -7.5t-15.5 -16.5t-6 -29v-479h-166v487q0 56 16.5 98t45.5 69.5t69.5 41t88.5 13.5h400q48 0 88.5 -13.5t69.5 -41t45.5 -69.5t16.5 -98v-487h-166zM308 342h325v-166h-325v166zM537 750h-116
l-80 191h136z" />
    <glyph glyph-name="Aacute" unicode="&#xc1;" horiz-adv-x="939" 
d="M724 0v479q0 18 -6 29t-15.5 16.5t-21 7.5t-21.5 2h-380q-10 0 -21.5 -2t-21 -7.5t-15.5 -16.5t-6 -29v-479h-166v487q0 56 16.5 98t45.5 69.5t69.5 41t88.5 13.5h400q48 0 88.5 -13.5t69.5 -41t45.5 -69.5t16.5 -98v-487h-166zM308 342h325v-166h-325v166zM481 941h136
l-80 -191h-116z" />
    <glyph glyph-name="Acircumflex" unicode="&#xc2;" horiz-adv-x="939" 
d="M724 0v479q0 18 -6 29t-15.5 16.5t-21 7.5t-21.5 2h-380q-10 0 -21.5 -2t-21 -7.5t-15.5 -16.5t-6 -29v-479h-166v487q0 56 16.5 98t45.5 69.5t69.5 41t88.5 13.5h400q48 0 88.5 -13.5t69.5 -41t45.5 -69.5t16.5 -98v-487h-166zM308 342h325v-166h-325v166zM478 941
q33 0 57 -10.5t41.5 -30t30.5 -48.5t25 -66l12 -37h-117l-11 52q-7 25 -18.5 32t-25.5 7h-5q-14 0 -26.5 -7t-18.5 -32l-13 -52h-114l12 40q11 37 24 65.5t30 48t41 29t57 9.5h19z" />
    <glyph glyph-name="Atilde" unicode="&#xc3;" horiz-adv-x="939" 
d="M724 0v479q0 18 -6 29t-15.5 16.5t-21 7.5t-21.5 2h-380q-10 0 -21.5 -2t-21 -7.5t-15.5 -16.5t-6 -29v-479h-166v487q0 56 16.5 98t45.5 69.5t69.5 41t88.5 13.5h400q48 0 88.5 -13.5t69.5 -41t45.5 -69.5t16.5 -98v-487h-166zM308 342h325v-166h-325v166zM259 765v21
q0 34 9.5 62.5t29 49t49 32t69.5 11.5l101 -56q13 0 20.5 4.5t11.5 11t5.5 14.5t1.5 15v11h124v-18q0 -68 -39 -111.5t-118 -43.5q-13 7 -29 16.5t-31 18.5t-26.5 15t-14.5 6q-13 0 -20.5 -4.5t-11.5 -11t-5.5 -14.5t-1.5 -15v-14h-124z" />
    <glyph glyph-name="Adieresis" unicode="&#xc4;" horiz-adv-x="939" 
d="M724 0v479q0 18 -6 29t-15.5 16.5t-21 7.5t-21.5 2h-380q-10 0 -21.5 -2t-21 -7.5t-15.5 -16.5t-6 -29v-479h-166v487q0 56 16.5 98t45.5 69.5t69.5 41t88.5 13.5h400q48 0 88.5 -13.5t69.5 -41t45.5 -69.5t16.5 -98v-487h-166zM308 342h325v-166h-325v166zM310 750v132
h125v-132h-125zM503 750v132h125v-132h-125z" />
    <glyph glyph-name="Aring" unicode="&#xc5;" horiz-adv-x="939" 
d="M724 0v479q0 18 -6 29t-15.5 16.5t-21 7.5t-21.5 2h-380q-10 0 -21.5 -2t-21 -7.5t-15.5 -16.5t-6 -29v-479h-166v487q0 56 16.5 98t45.5 69.5t69.5 41t88.5 13.5h400q48 0 88.5 -13.5t69.5 -41t45.5 -69.5t16.5 -98v-487h-166zM308 342h325v-166h-325v166zM331 893
q0 64 35 95t89 31h28q55 0 90 -31t35 -95v-19q0 -64 -35 -95t-90 -31h-28q-54 0 -89 31t-35 95v19zM514 889q0 20 -12.5 25.5t-23.5 5.5h-17q-11 0 -23.5 -5.5t-12.5 -25.5v-11q0 -20 12.5 -25.5t23.5 -5.5h17q11 0 23.5 5.5t12.5 25.5v11z" />
    <glyph glyph-name="AE" unicode="&#xc6;" horiz-adv-x="1442" 
d="M890 230q0 -18 6 -29t15.5 -16.5t21 -7.5t21.5 -2h439v-175h-449q-48 0 -88.5 13.5t-69.5 41t-45.5 69.5t-16.5 98v260q0 17 -6.5 27t-16 15.5t-20.5 7.5t-21 2h-380q-10 0 -21.5 -2t-21 -7.5t-15.5 -16.5t-6 -29v-479h-166v487q0 56 16.5 98t45.5 69.5t69.5 41
t88.5 13.5h400q81 0 137 -38q56 38 137 38h449v-175h-439q-10 0 -21.5 -2t-21 -7.5t-15.5 -16.5t-6 -29v-249zM981 442h401v-175h-401v175zM308 342h325v-166h-325v166z" />
    <glyph glyph-name="Ccedilla" unicode="&#xc7;" horiz-adv-x="772" 
d="M363 -100v100h-93q-48 0 -88.5 13.5t-69.5 41t-45.5 69.5t-16.5 98v265q0 56 16.5 98t45.5 69.5t69.5 41t88.5 13.5h453v-175h-443q-10 0 -21.5 -2t-21 -7.5t-15.5 -16.5t-6 -29v-249q0 -18 6 -29t15.5 -16.5t21 -7.5t21.5 -2h443v-175h-194v-100h-166z" />
    <glyph glyph-name="Egrave" unicode="&#xc8;" horiz-adv-x="768" 
d="M216 230q0 -18 6 -29t15.5 -16.5t21 -7.5t21.5 -2h439v-175h-449q-48 0 -88.5 13.5t-69.5 41t-45.5 69.5t-16.5 98v265q0 56 16.5 98t45.5 69.5t69.5 41t88.5 13.5h449v-175h-439q-10 0 -21.5 -2t-21 -7.5t-15.5 -16.5t-6 -29v-249zM308 442h401v-175h-401v175zM482 750
h-116l-80 191h136z" />
    <glyph glyph-name="Eacute" unicode="&#xc9;" horiz-adv-x="768" 
d="M216 230q0 -18 6 -29t15.5 -16.5t21 -7.5t21.5 -2h439v-175h-449q-48 0 -88.5 13.5t-69.5 41t-45.5 69.5t-16.5 98v265q0 56 16.5 98t45.5 69.5t69.5 41t88.5 13.5h449v-175h-439q-10 0 -21.5 -2t-21 -7.5t-15.5 -16.5t-6 -29v-249zM308 442h401v-175h-401v175zM426 941
h136l-80 -191h-116z" />
    <glyph glyph-name="Ecircumflex" unicode="&#xca;" horiz-adv-x="768" 
d="M216 230q0 -18 6 -29t15.5 -16.5t21 -7.5t21.5 -2h439v-175h-449q-48 0 -88.5 13.5t-69.5 41t-45.5 69.5t-16.5 98v265q0 56 16.5 98t45.5 69.5t69.5 41t88.5 13.5h449v-175h-439q-10 0 -21.5 -2t-21 -7.5t-15.5 -16.5t-6 -29v-249zM308 442h401v-175h-401v175zM452 941
q33 0 57 -10.5t41.5 -30t30.5 -48.5t25 -66l12 -37h-117l-11 52q-7 25 -18.5 32t-25.5 7h-5q-14 0 -26.5 -7t-18.5 -32l-13 -52h-114l12 40q11 37 24 65.5t30 48t41 29t57 9.5h19z" />
    <glyph glyph-name="Edieresis" unicode="&#xcb;" horiz-adv-x="768" 
d="M216 230q0 -18 6 -29t15.5 -16.5t21 -7.5t21.5 -2h439v-175h-449q-48 0 -88.5 13.5t-69.5 41t-45.5 69.5t-16.5 98v265q0 56 16.5 98t45.5 69.5t69.5 41t88.5 13.5h449v-175h-439q-10 0 -21.5 -2t-21 -7.5t-15.5 -16.5t-6 -29v-249zM308 442h401v-175h-401v175zM295 750
v132h125v-132h-125zM488 750v132h125v-132h-125z" />
    <glyph glyph-name="Igrave" unicode="&#xcc;" horiz-adv-x="466" 
d="M50 0v175h100v359h-100v175h367v-175h-101v-359h101v-175h-367zM311 750h-116l-80 191h136z" />
    <glyph glyph-name="Iacute" unicode="&#xcd;" horiz-adv-x="466" 
d="M50 0v175h100v359h-100v175h367v-175h-101v-359h101v-175h-367zM245 941h136l-80 -191h-116z" />
    <glyph glyph-name="Icircumflex" unicode="&#xce;" horiz-adv-x="466" 
d="M50 0v175h100v359h-100v175h367v-175h-101v-359h101v-175h-367zM241 941q33 0 57 -10.5t41.5 -30t30.5 -48.5t25 -66l12 -37h-117l-11 52q-7 25 -18.5 32t-25.5 7h-5q-14 0 -26.5 -7t-18.5 -32l-13 -52h-114l12 40q11 37 24 65.5t30 48t41 29t57 9.5h19z" />
    <glyph glyph-name="Idieresis" unicode="&#xcf;" horiz-adv-x="466" 
d="M50 0v175h100v359h-100v175h367v-175h-101v-359h101v-175h-367zM74 750v132h125v-132h-125zM267 750v132h125v-132h-125z" />
    <glyph glyph-name="Eth" unicode="&#xd0;" horiz-adv-x="856" 
d="M-50 412h100v75q0 56 16.5 98t45.5 69.5t69.5 41t88.5 13.5h317q48 0 88.5 -13.5t69.5 -41t45.5 -69.5t16.5 -98v-265q0 -56 -16.5 -98t-45.5 -69.5t-69.5 -41t-88.5 -13.5h-278v175h268q10 0 21.5 2t21 7.5t15.5 16.5t6 29v249q0 18 -6 29t-15.5 16.5t-21 7.5t-21.5 2
h-297q-10 0 -21.5 -2t-21 -7.5t-15.5 -16.5t-6 -29v-67h183v-166h-183v-246h-166v246h-100v166z" />
    <glyph glyph-name="Ntilde" unicode="&#xd1;" horiz-adv-x="976" 
d="M671 0q-48 0 -81 15t-57 43.5t-43 69.5t-39 94l-100 257q-13 34 -29 44.5t-42 10.5q-10 0 -21.5 -2t-21 -7.5t-15.5 -16.5t-6 -29v-479h-166v487q0 56 16.5 98t45.5 69.5t69.5 41t88.5 13.5h37q48 0 81 -15t57 -43.5t43 -70t39 -93.5l100 -257q13 -34 29 -44.5t41 -10.5
q10 0 21.5 2t21 7.5t15.5 16.5t6 29v479h166v-487q0 -56 -16.5 -98t-45.5 -69.5t-69.5 -41t-88.5 -13.5h-36zM329 765v21q0 34 9.5 62.5t29 49t49 32t69.5 11.5l101 -56q13 0 20.5 4.5t11.5 11t5.5 14.5t1.5 15v11h124v-18q0 -68 -39 -111.5t-118 -43.5q-13 7 -29 16.5
t-31 18.5t-26.5 15t-14.5 6q-13 0 -20.5 -4.5t-11.5 -11t-5.5 -14.5t-1.5 -15v-14h-124z" />
    <glyph glyph-name="Ograve" unicode="&#xd2;" 
d="M50 487q0 56 16.5 98t45.5 69.5t69.5 41t88.5 13.5h297q48 0 88.5 -13.5t69.5 -41t45.5 -69.5t16.5 -98v-265q0 -56 -16.5 -98t-45.5 -69.5t-69.5 -41t-88.5 -13.5h-297q-48 0 -88.5 13.5t-69.5 41t-45.5 69.5t-16.5 98v265zM621 479q0 18 -6 29t-15.5 16.5t-21 7.5
t-21.5 2h-277q-10 0 -21.5 -2t-21 -7.5t-15.5 -16.5t-6 -29v-249q0 -18 6 -29t15.5 -16.5t21 -7.5t21.5 -2h277q10 0 21.5 2t21 7.5t15.5 16.5t6 29v249zM486 750h-116l-80 191h136z" />
    <glyph glyph-name="Oacute" unicode="&#xd3;" 
d="M50 487q0 56 16.5 98t45.5 69.5t69.5 41t88.5 13.5h297q48 0 88.5 -13.5t69.5 -41t45.5 -69.5t16.5 -98v-265q0 -56 -16.5 -98t-45.5 -69.5t-69.5 -41t-88.5 -13.5h-297q-48 0 -88.5 13.5t-69.5 41t-45.5 69.5t-16.5 98v265zM621 479q0 18 -6 29t-15.5 16.5t-21 7.5
t-21.5 2h-277q-10 0 -21.5 -2t-21 -7.5t-15.5 -16.5t-6 -29v-249q0 -18 6 -29t15.5 -16.5t21 -7.5t21.5 -2h277q10 0 21.5 2t21 7.5t15.5 16.5t6 29v249zM420 941h136l-80 -191h-116z" />
    <glyph glyph-name="Ocircumflex" unicode="&#xd4;" 
d="M50 487q0 56 16.5 98t45.5 69.5t69.5 41t88.5 13.5h297q48 0 88.5 -13.5t69.5 -41t45.5 -69.5t16.5 -98v-265q0 -56 -16.5 -98t-45.5 -69.5t-69.5 -41t-88.5 -13.5h-297q-48 0 -88.5 13.5t-69.5 41t-45.5 69.5t-16.5 98v265zM621 479q0 18 -6 29t-15.5 16.5t-21 7.5
t-21.5 2h-277q-10 0 -21.5 -2t-21 -7.5t-15.5 -16.5t-6 -29v-249q0 -18 6 -29t15.5 -16.5t21 -7.5t21.5 -2h277q10 0 21.5 2t21 7.5t15.5 16.5t6 29v249zM426 941q33 0 57 -10.5t41.5 -30t30.5 -48.5t25 -66l12 -37h-117l-11 52q-7 25 -18.5 32t-25.5 7h-5q-14 0 -26.5 -7
t-18.5 -32l-13 -52h-114l12 40q11 37 24 65.5t30 48t41 29t57 9.5h19z" />
    <glyph glyph-name="Otilde" unicode="&#xd5;" 
d="M50 487q0 56 16.5 98t45.5 69.5t69.5 41t88.5 13.5h297q48 0 88.5 -13.5t69.5 -41t45.5 -69.5t16.5 -98v-265q0 -56 -16.5 -98t-45.5 -69.5t-69.5 -41t-88.5 -13.5h-297q-48 0 -88.5 13.5t-69.5 41t-45.5 69.5t-16.5 98v265zM621 479q0 18 -6 29t-15.5 16.5t-21 7.5
t-21.5 2h-277q-10 0 -21.5 -2t-21 -7.5t-15.5 -16.5t-6 -29v-249q0 -18 6 -29t15.5 -16.5t21 -7.5t21.5 -2h277q10 0 21.5 2t21 7.5t15.5 16.5t6 29v249zM207 765v21q0 34 9.5 62.5t29 49t49 32t69.5 11.5l101 -56q13 0 20.5 4.5t11.5 11t5.5 14.5t1.5 15v11h124v-18
q0 -68 -39 -111.5t-118 -43.5q-13 7 -29 16.5t-31 18.5t-26.5 15t-14.5 6q-13 0 -20.5 -4.5t-11.5 -11t-5.5 -14.5t-1.5 -15v-14h-124z" />
    <glyph glyph-name="Odieresis" unicode="&#xd6;" 
d="M50 487q0 56 16.5 98t45.5 69.5t69.5 41t88.5 13.5h297q48 0 88.5 -13.5t69.5 -41t45.5 -69.5t16.5 -98v-265q0 -56 -16.5 -98t-45.5 -69.5t-69.5 -41t-88.5 -13.5h-297q-48 0 -88.5 13.5t-69.5 41t-45.5 69.5t-16.5 98v265zM621 479q0 18 -6 29t-15.5 16.5t-21 7.5
t-21.5 2h-277q-10 0 -21.5 -2t-21 -7.5t-15.5 -16.5t-6 -29v-249q0 -18 6 -29t15.5 -16.5t21 -7.5t21.5 -2h277q10 0 21.5 2t21 7.5t15.5 16.5t6 29v249zM259 750v132h125v-132h-125zM452 750v132h125v-132h-125z" />
    <glyph glyph-name="multiply" unicode="&#xd7;" horiz-adv-x="598" 
d="M157 612l136 -136l136 137l118 -118l-137 -136l137 -136l-118 -118l-136 136l-136 -135l-117 117l135 136l-135 136z" />
    <glyph glyph-name="Oslash" unicode="&#xd8;" 
d="M502 709h65q48 0 88.5 -13.5t69.5 -41t45.5 -69.5t16.5 -98v-265q0 -56 -16.5 -98t-45.5 -69.5t-69.5 -41t-88.5 -13.5h-65v-110h-166v110h-66q-48 0 -88.5 13.5t-69.5 41t-45.5 69.5t-16.5 98v265q0 56 16.5 98t45.5 69.5t69.5 41t88.5 13.5h66v122h166v-122zM216 230
q0 -18 6 -29t15.5 -16.5t21 -7.5t21.5 -2h56v359h-56q-10 0 -21.5 -2t-21 -7.5t-15.5 -16.5t-6 -29v-249zM621 479q0 18 -6 29t-15.5 16.5t-21 7.5t-21.5 2h-55v-359h55q10 0 21.5 2t21 7.5t15.5 16.5t6 29v249z" />
    <glyph glyph-name="Ugrave" unicode="&#xd9;" 
d="M270 0q-48 0 -88.5 13.5t-69.5 41t-45.5 69.5t-16.5 98v487h166v-479q0 -18 6 -29t15.5 -16.5t21 -7.5t21.5 -2h277q10 0 21.5 2t21 7.5t15.5 16.5t6 29v479h166v-487q0 -56 -16.5 -98t-45.5 -69.5t-69.5 -41t-88.5 -13.5h-297zM506 750h-116l-80 191h136z" />
    <glyph glyph-name="Uacute" unicode="&#xda;" 
d="M270 0q-48 0 -88.5 13.5t-69.5 41t-45.5 69.5t-16.5 98v487h166v-479q0 -18 6 -29t15.5 -16.5t21 -7.5t21.5 -2h277q10 0 21.5 2t21 7.5t15.5 16.5t6 29v479h166v-487q0 -56 -16.5 -98t-45.5 -69.5t-69.5 -41t-88.5 -13.5h-297zM380 941h136l-80 -191h-116z" />
    <glyph glyph-name="Ucircumflex" unicode="&#xdb;" 
d="M270 0q-48 0 -88.5 13.5t-69.5 41t-45.5 69.5t-16.5 98v487h166v-479q0 -18 6 -29t15.5 -16.5t21 -7.5t21.5 -2h277q10 0 21.5 2t21 7.5t15.5 16.5t6 29v479h166v-487q0 -56 -16.5 -98t-45.5 -69.5t-69.5 -41t-88.5 -13.5h-297zM426 941q33 0 57 -10.5t41.5 -30
t30.5 -48.5t25 -66l12 -37h-117l-11 52q-7 25 -18.5 32t-25.5 7h-5q-14 0 -26.5 -7t-18.5 -32l-13 -52h-114l12 40q11 37 24 65.5t30 48t41 29t57 9.5h19z" />
    <glyph glyph-name="Udieresis" unicode="&#xdc;" 
d="M270 0q-48 0 -88.5 13.5t-69.5 41t-45.5 69.5t-16.5 98v487h166v-479q0 -18 6 -29t15.5 -16.5t21 -7.5t21.5 -2h277q10 0 21.5 2t21 7.5t15.5 16.5t6 29v479h166v-487q0 -56 -16.5 -98t-45.5 -69.5t-69.5 -41t-88.5 -13.5h-297zM259 750v132h125v-132h-125zM452 750v132
h125v-132h-125z" />
    <glyph glyph-name="Yacute" unicode="&#xdd;" horiz-adv-x="826" 
d="M270 215q-48 0 -88.5 13.5t-69.5 41t-45.5 69.5t-16.5 98v272h166v-264q0 -18 6 -29t15.5 -16.5t21 -7.5t21.5 -2h267q10 0 21.5 2t21 7.5t15.5 16.5t6 29v264h166v-272q0 -56 -16.5 -98t-45.5 -69.5t-69.5 -41t-88.5 -13.5h-54v-215h-166v215h-67zM395 941h136l-80 -191
h-116z" />
    <glyph glyph-name="Thorn" unicode="&#xde;" horiz-adv-x="849" 
d="M216 626h364q48 0 88.5 -16t69.5 -49t45.5 -84.5t16.5 -122.5q0 -75 -16.5 -126.5t-45.5 -83.5t-69.5 -46t-88.5 -14h-272v175h272q6 0 15.5 2t18 12t14.5 29t6 54q0 33 -6 52t-14.5 28.5t-18 12t-15.5 2.5h-364v-451h-166v709h166v-83z" />
    <glyph glyph-name="germandbls" unicode="&#xdf;" horiz-adv-x="856" 
d="M280 534q-10 0 -21.5 -2t-21 -7.5t-15.5 -16.5t-6 -29v-721h-166v729q0 56 16.5 98t45.5 69.5t69.5 41t88.5 13.5h317q48 0 88.5 -13.5t69.5 -41t45.5 -69.5t16.5 -98q0 -42 -10.5 -74.5t-33.5 -58.5q23 -26 33.5 -58.5t10.5 -73.5q0 -56 -16.5 -98t-45.5 -69.5
t-69.5 -41t-88.5 -13.5h-306v175h306q6 0 15.5 1.5t18 6.5t14.5 14t6 23q0 16 -6 25t-14.5 14t-18 6.5t-15.5 1.5h-306v175h311q7 0 15.5 2t16 7t12.5 14.5t5 23.5t-6 23t-14.5 14t-18 6.5t-15.5 1.5h-307v0z" />
    <glyph glyph-name="agrave" unicode="&#xe0;" horiz-adv-x="842" 
d="M216 230q0 -18 6 -29t15.5 -16.5t21 -7.5t21.5 -2h254v-175h-264q-48 0 -88.5 13.5t-69.5 41t-45.5 69.5t-16.5 98v265q0 56 16.5 98t45.5 69.5t69.5 41t88.5 13.5h303q48 0 88.5 -13.5t69.5 -41t45.5 -69.5t16.5 -98v-487h-166v479q0 18 -6 29t-15.5 16.5t-21 7.5
t-21.5 2h-283q-10 0 -21.5 -2t-21 -7.5t-15.5 -16.5t-6 -29v-249zM519 750h-116l-80 191h136z" />
    <glyph glyph-name="aacute" unicode="&#xe1;" horiz-adv-x="842" 
d="M216 230q0 -18 6 -29t15.5 -16.5t21 -7.5t21.5 -2h254v-175h-264q-48 0 -88.5 13.5t-69.5 41t-45.5 69.5t-16.5 98v265q0 56 16.5 98t45.5 69.5t69.5 41t88.5 13.5h303q48 0 88.5 -13.5t69.5 -41t45.5 -69.5t16.5 -98v-487h-166v479q0 18 -6 29t-15.5 16.5t-21 7.5
t-21.5 2h-283q-10 0 -21.5 -2t-21 -7.5t-15.5 -16.5t-6 -29v-249zM383 941h136l-80 -191h-116z" />
    <glyph glyph-name="acircumflex" unicode="&#xe2;" horiz-adv-x="842" 
d="M216 230q0 -18 6 -29t15.5 -16.5t21 -7.5t21.5 -2h254v-175h-264q-48 0 -88.5 13.5t-69.5 41t-45.5 69.5t-16.5 98v265q0 56 16.5 98t45.5 69.5t69.5 41t88.5 13.5h303q48 0 88.5 -13.5t69.5 -41t45.5 -69.5t16.5 -98v-487h-166v479q0 18 -6 29t-15.5 16.5t-21 7.5
t-21.5 2h-283q-10 0 -21.5 -2t-21 -7.5t-15.5 -16.5t-6 -29v-249zM429 941q33 0 57 -10.5t41.5 -30t30.5 -48.5t25 -66l12 -37h-117l-11 52q-7 25 -18.5 32t-25.5 7h-5q-14 0 -26.5 -7t-18.5 -32l-13 -52h-114l12 40q11 37 24 65.5t30 48t41 29t57 9.5h19z" />
    <glyph glyph-name="atilde" unicode="&#xe3;" horiz-adv-x="842" 
d="M216 230q0 -18 6 -29t15.5 -16.5t21 -7.5t21.5 -2h254v-175h-264q-48 0 -88.5 13.5t-69.5 41t-45.5 69.5t-16.5 98v265q0 56 16.5 98t45.5 69.5t69.5 41t88.5 13.5h303q48 0 88.5 -13.5t69.5 -41t45.5 -69.5t16.5 -98v-487h-166v479q0 18 -6 29t-15.5 16.5t-21 7.5
t-21.5 2h-283q-10 0 -21.5 -2t-21 -7.5t-15.5 -16.5t-6 -29v-249zM210 765v21q0 34 9.5 62.5t29 49t49 32t69.5 11.5l101 -56q13 0 20.5 4.5t11.5 11t5.5 14.5t1.5 15v11h124v-18q0 -68 -39 -111.5t-118 -43.5q-13 7 -29 16.5t-31 18.5t-26.5 15t-14.5 6q-13 0 -20.5 -4.5
t-11.5 -11t-5.5 -14.5t-1.5 -15v-14h-124z" />
    <glyph glyph-name="adieresis" unicode="&#xe4;" horiz-adv-x="842" 
d="M216 230q0 -18 6 -29t15.5 -16.5t21 -7.5t21.5 -2h254v-175h-264q-48 0 -88.5 13.5t-69.5 41t-45.5 69.5t-16.5 98v265q0 56 16.5 98t45.5 69.5t69.5 41t88.5 13.5h303q48 0 88.5 -13.5t69.5 -41t45.5 -69.5t16.5 -98v-487h-166v479q0 18 -6 29t-15.5 16.5t-21 7.5
t-21.5 2h-283q-10 0 -21.5 -2t-21 -7.5t-15.5 -16.5t-6 -29v-249zM262 750v132h125v-132h-125zM455 750v132h125v-132h-125z" />
    <glyph glyph-name="aring" unicode="&#xe5;" horiz-adv-x="842" 
d="M216 230q0 -18 6 -29t15.5 -16.5t21 -7.5t21.5 -2h263v-175h-273q-48 0 -88.5 13.5t-69.5 41t-45.5 69.5t-16.5 98v265q0 56 16.5 98t45.5 69.5t69.5 41t88.5 13.5h303q48 0 88.5 -13.5t69.5 -41t45.5 -69.5t16.5 -98v-487h-166v479q0 18 -6 29t-15.5 16.5t-21 7.5
t-21.5 2h-283q-10 0 -21.5 -2t-21 -7.5t-15.5 -16.5t-6 -29v-249zM282 893q0 64 35 95t89 31h28q55 0 90 -31t35 -95v-19q0 -64 -35 -95t-90 -31h-28q-54 0 -89 31t-35 95v19zM465 889q0 20 -12.5 25.5t-23.5 5.5h-17q-11 0 -23.5 -5.5t-12.5 -25.5v-11q0 -20 12.5 -25.5
t23.5 -5.5h17q11 0 23.5 5.5t12.5 25.5v11z" />
    <glyph glyph-name="ae" unicode="&#xe6;" horiz-adv-x="1527" 
d="M793 230q0 -18 6 -29t15.5 -16.5t21 -7.5t21.5 -2h591v-175h-601q-48 0 -88.5 13.5t-69.5 41t-45.5 69.5t-16.5 98v260q0 17 -6.5 27t-16 15.5t-20.5 7.5t-21 2h-283q-10 0 -21.5 -2t-21 -7.5t-15.5 -16.5t-6 -29v-249q0 -18 6 -29t15.5 -16.5t21 -7.5t21.5 -2h263v-175
h-273q-48 0 -88.5 13.5t-69.5 41t-45.5 69.5t-16.5 98v265q0 56 16.5 98t45.5 69.5t69.5 41t88.5 13.5h303q81 0 137 -38q56 38 137 38h411q48 0 88.5 -13.5t69.5 -41t45.5 -69.5t16.5 -98t-16.5 -97.5t-45.5 -68.5t-69.5 -40.5t-88.5 -13.5h-373v175h373q6 0 15.5 1.5
t18 6.5t14.5 14t6 25q0 14 -6 23t-14.5 14t-18 6.5t-15.5 1.5h-401q-10 0 -21.5 -2t-21 -7.5t-15.5 -15.5t-6 -27v-252v0z" />
    <glyph glyph-name="ccedilla" unicode="&#xe7;" horiz-adv-x="772" 
d="M363 -100v100h-93q-48 0 -88.5 13.5t-69.5 41t-45.5 69.5t-16.5 98v265q0 56 16.5 98t45.5 69.5t69.5 41t88.5 13.5h453v-175h-443q-10 0 -21.5 -2t-21 -7.5t-15.5 -16.5t-6 -29v-249q0 -18 6 -29t15.5 -16.5t21 -7.5t21.5 -2h443v-175h-194v-100h-166z" />
    <glyph glyph-name="egrave" unicode="&#xe8;" horiz-adv-x="950" 
d="M216 230q0 -18 6 -29t15.5 -16.5t21 -7.5t21.5 -2h591v-175h-601q-48 0 -88.5 13.5t-69.5 41t-45.5 69.5t-16.5 98v265q0 56 16.5 98t45.5 69.5t69.5 41t88.5 13.5h411q48 0 88.5 -13.5t69.5 -41t45.5 -69.5t16.5 -98t-16.5 -97.5t-45.5 -68.5t-69.5 -40.5t-88.5 -13.5
h-373v175h373q6 0 15.5 1.5t18 6.5t14.5 14t6 25q0 14 -6 23t-14.5 14t-18 6.5t-15.5 1.5h-401q-10 0 -21.5 -2t-21 -7.5t-15.5 -16.5t-6 -29v-249zM573 750h-116l-80 191h136z" />
    <glyph glyph-name="eacute" unicode="&#xe9;" horiz-adv-x="950" 
d="M216 230q0 -18 6 -29t15.5 -16.5t21 -7.5t21.5 -2h591v-175h-601q-48 0 -88.5 13.5t-69.5 41t-45.5 69.5t-16.5 98v265q0 56 16.5 98t45.5 69.5t69.5 41t88.5 13.5h411q48 0 88.5 -13.5t69.5 -41t45.5 -69.5t16.5 -98t-16.5 -97.5t-45.5 -68.5t-69.5 -40.5t-88.5 -13.5
h-373v175h373q6 0 15.5 1.5t18 6.5t14.5 14t6 25q0 14 -6 23t-14.5 14t-18 6.5t-15.5 1.5h-401q-10 0 -21.5 -2t-21 -7.5t-15.5 -16.5t-6 -29v-249zM437 941h136l-80 -191h-116z" />
    <glyph glyph-name="ecircumflex" unicode="&#xea;" horiz-adv-x="950" 
d="M216 230q0 -18 6 -29t15.5 -16.5t21 -7.5t21.5 -2h591v-175h-601q-48 0 -88.5 13.5t-69.5 41t-45.5 69.5t-16.5 98v265q0 56 16.5 98t45.5 69.5t69.5 41t88.5 13.5h411q48 0 88.5 -13.5t69.5 -41t45.5 -69.5t16.5 -98t-16.5 -97.5t-45.5 -68.5t-69.5 -40.5t-88.5 -13.5
h-373v175h373q6 0 15.5 1.5t18 6.5t14.5 14t6 25q0 14 -6 23t-14.5 14t-18 6.5t-15.5 1.5h-401q-10 0 -21.5 -2t-21 -7.5t-15.5 -16.5t-6 -29v-249zM483 941q33 0 57 -10.5t41.5 -30t30.5 -48.5t25 -66l12 -37h-117l-11 52q-7 25 -18.5 32t-25.5 7h-5q-14 0 -26.5 -7
t-18.5 -32l-13 -52h-114l12 40q11 37 24 65.5t30 48t41 29t57 9.5h19z" />
    <glyph glyph-name="edieresis" unicode="&#xeb;" horiz-adv-x="950" 
d="M216 230q0 -18 6 -29t15.5 -16.5t21 -7.5t21.5 -2h591v-175h-601q-48 0 -88.5 13.5t-69.5 41t-45.5 69.5t-16.5 98v265q0 56 16.5 98t45.5 69.5t69.5 41t88.5 13.5h411q48 0 88.5 -13.5t69.5 -41t45.5 -69.5t16.5 -98t-16.5 -97.5t-45.5 -68.5t-69.5 -40.5t-88.5 -13.5
h-373v175h373q6 0 15.5 1.5t18 6.5t14.5 14t6 25q0 14 -6 23t-14.5 14t-18 6.5t-15.5 1.5h-401q-10 0 -21.5 -2t-21 -7.5t-15.5 -16.5t-6 -29v-249zM316 750v132h125v-132h-125zM509 750v132h125v-132h-125z" />
    <glyph glyph-name="igrave" unicode="&#xec;" horiz-adv-x="265" 
d="M50 1v708h166v-708h-166zM210 750h-116l-80 191h136z" />
    <glyph glyph-name="iacute" unicode="&#xed;" horiz-adv-x="265" 
d="M50 1v708h166v-708h-166zM135 941h136l-80 -191h-116z" />
    <glyph glyph-name="icircumflex" unicode="&#xee;" horiz-adv-x="265" 
d="M50 1v708h166v-708h-166zM141 941q33 0 57 -10.5t41.5 -30t30.5 -48.5t25 -66l12 -37h-117l-11 52q-7 25 -18.5 32t-25.5 7h-5q-14 0 -26.5 -7t-18.5 -32l-13 -52h-114l12 40q11 37 24 65.5t30 48t41 29t57 9.5h19z" />
    <glyph glyph-name="idieresis" unicode="&#xef;" horiz-adv-x="265" 
d="M50 1v708h166v-708h-166zM-26 750v132h125v-132h-125zM167 750v132h125v-132h-125z" />
    <glyph glyph-name="eth" unicode="&#xf0;" horiz-adv-x="843" 
d="M794 222q0 -56 -16.5 -98t-45.5 -69.5t-69.5 -41t-88.5 -13.5h-304q-48 0 -88.5 13.5t-69.5 41t-45.5 69.5t-16.5 98v265q0 56 16.5 98t45.5 69.5t69.5 41t88.5 13.5h265v-175h-255q-10 0 -21.5 -2t-21 -7.5t-15.5 -16.5t-6 -29v-249q0 -18 6 -29t15.5 -16.5t21 -7.5
t21.5 -2h284q10 0 21.5 2t21 7.5t15.5 16.5t6 29v482q0 18 -6 29t-15.5 16.5t-21 7.5t-21.5 2h-214v175h224q48 0 88.5 -13.5t69.5 -41t45.5 -69.5t16.5 -98v-498z" />
    <glyph glyph-name="ntilde" unicode="&#xf1;" 
d="M567 710q48 0 88.5 -13.5t69.5 -41t45.5 -69.5t16.5 -98v-487h-166v479q0 18 -6 29t-15.5 16.5t-21 7.5t-21.5 2h-277q-10 0 -21.5 -2t-21 -7.5t-15.5 -16.5t-6 -29v-479h-166v487q0 56 16.5 98t45.5 69.5t69.5 41t88.5 13.5h297zM207 765v21q0 34 9.5 62.5t29 49t49 32
t69.5 11.5l101 -56q13 0 20.5 4.5t11.5 11t5.5 14.5t1.5 15v11h124v-18q0 -68 -39 -111.5t-118 -43.5q-13 7 -29 16.5t-31 18.5t-26.5 15t-14.5 6q-13 0 -20.5 -4.5t-11.5 -11t-5.5 -14.5t-1.5 -15v-14h-124z" />
    <glyph glyph-name="ograve" unicode="&#xf2;" 
d="M50 487q0 56 16.5 98t45.5 69.5t69.5 41t88.5 13.5h297q48 0 88.5 -13.5t69.5 -41t45.5 -69.5t16.5 -98v-265q0 -56 -16.5 -98t-45.5 -69.5t-69.5 -41t-88.5 -13.5h-297q-48 0 -88.5 13.5t-69.5 41t-45.5 69.5t-16.5 98v265zM621 479q0 18 -6 29t-15.5 16.5t-21 7.5
t-21.5 2h-277q-10 0 -21.5 -2t-21 -7.5t-15.5 -16.5t-6 -29v-249q0 -18 6 -29t15.5 -16.5t21 -7.5t21.5 -2h277q10 0 21.5 2t21 7.5t15.5 16.5t6 29v249zM496 750h-116l-80 191h136z" />
    <glyph glyph-name="oacute" unicode="&#xf3;" 
d="M50 487q0 56 16.5 98t45.5 69.5t69.5 41t88.5 13.5h297q48 0 88.5 -13.5t69.5 -41t45.5 -69.5t16.5 -98v-265q0 -56 -16.5 -98t-45.5 -69.5t-69.5 -41t-88.5 -13.5h-297q-48 0 -88.5 13.5t-69.5 41t-45.5 69.5t-16.5 98v265zM621 479q0 18 -6 29t-15.5 16.5t-21 7.5
t-21.5 2h-277q-10 0 -21.5 -2t-21 -7.5t-15.5 -16.5t-6 -29v-249q0 -18 6 -29t15.5 -16.5t21 -7.5t21.5 -2h277q10 0 21.5 2t21 7.5t15.5 16.5t6 29v249zM430 941h136l-80 -191h-116z" />
    <glyph glyph-name="ocircumflex" unicode="&#xf4;" 
d="M50 487q0 56 16.5 98t45.5 69.5t69.5 41t88.5 13.5h297q48 0 88.5 -13.5t69.5 -41t45.5 -69.5t16.5 -98v-265q0 -56 -16.5 -98t-45.5 -69.5t-69.5 -41t-88.5 -13.5h-297q-48 0 -88.5 13.5t-69.5 41t-45.5 69.5t-16.5 98v265zM621 479q0 18 -6 29t-15.5 16.5t-21 7.5
t-21.5 2h-277q-10 0 -21.5 -2t-21 -7.5t-15.5 -16.5t-6 -29v-249q0 -18 6 -29t15.5 -16.5t21 -7.5t21.5 -2h277q10 0 21.5 2t21 7.5t15.5 16.5t6 29v249zM426 941q33 0 57 -10.5t41.5 -30t30.5 -48.5t25 -66l12 -37h-117l-11 52q-7 25 -18.5 32t-25.5 7h-5q-14 0 -26.5 -7
t-18.5 -32l-13 -52h-114l12 40q11 37 24 65.5t30 48t41 29t57 9.5h19z" />
    <glyph glyph-name="otilde" unicode="&#xf5;" 
d="M50 487q0 56 16.5 98t45.5 69.5t69.5 41t88.5 13.5h297q48 0 88.5 -13.5t69.5 -41t45.5 -69.5t16.5 -98v-265q0 -56 -16.5 -98t-45.5 -69.5t-69.5 -41t-88.5 -13.5h-297q-48 0 -88.5 13.5t-69.5 41t-45.5 69.5t-16.5 98v265zM621 479q0 18 -6 29t-15.5 16.5t-21 7.5
t-21.5 2h-277q-10 0 -21.5 -2t-21 -7.5t-15.5 -16.5t-6 -29v-249q0 -18 6 -29t15.5 -16.5t21 -7.5t21.5 -2h277q10 0 21.5 2t21 7.5t15.5 16.5t6 29v249zM207 765v21q0 34 9.5 62.5t29 49t49 32t69.5 11.5l101 -56q13 0 20.5 4.5t11.5 11t5.5 14.5t1.5 15v11h124v-18
q0 -68 -39 -111.5t-118 -43.5q-13 7 -29 16.5t-31 18.5t-26.5 15t-14.5 6q-13 0 -20.5 -4.5t-11.5 -11t-5.5 -14.5t-1.5 -15v-14h-124z" />
    <glyph glyph-name="odieresis" unicode="&#xf6;" 
d="M50 487q0 56 16.5 98t45.5 69.5t69.5 41t88.5 13.5h297q48 0 88.5 -13.5t69.5 -41t45.5 -69.5t16.5 -98v-265q0 -56 -16.5 -98t-45.5 -69.5t-69.5 -41t-88.5 -13.5h-297q-48 0 -88.5 13.5t-69.5 41t-45.5 69.5t-16.5 98v265zM621 479q0 18 -6 29t-15.5 16.5t-21 7.5
t-21.5 2h-277q-10 0 -21.5 -2t-21 -7.5t-15.5 -16.5t-6 -29v-249q0 -18 6 -29t15.5 -16.5t21 -7.5t21.5 -2h277q10 0 21.5 2t21 7.5t15.5 16.5t6 29v249zM259 750v132h125v-132h-125zM452 750v132h125v-132h-125z" />
    <glyph glyph-name="divide" unicode="&#xf7;" horiz-adv-x="884" 
d="M216 0h-166v497q0 56 16.5 98t45.5 69.5t69.5 41t88.5 13.5h33q48 0 88.5 -13.5t69.5 -41t45.5 -69.5t16.5 -98v-277q0 -18 6 -29t15.5 -16.5t21 -7.5t21.5 -2h18q10 0 21.5 2t21 7.5t15.5 16.5t6 29v489h166v-497q0 -56 -16.5 -98t-45.5 -69.5t-69.5 -41t-88.5 -13.5
h-38q-48 0 -88.5 13.5t-69.5 41t-45.5 69.5t-16.5 98v277q0 18 -6 29t-15.5 16.5t-21 7.5t-21.5 2h-13q-10 0 -21.5 -2t-21 -7.5t-15.5 -16.5t-6 -29v-489z" />
    <glyph glyph-name="oslash" unicode="&#xf8;" 
d="M502 709h65q48 0 88.5 -13.5t69.5 -41t45.5 -69.5t16.5 -98v-265q0 -56 -16.5 -98t-45.5 -69.5t-69.5 -41t-88.5 -13.5h-65v-110h-166v110h-66q-48 0 -88.5 13.5t-69.5 41t-45.5 69.5t-16.5 98v265q0 56 16.5 98t45.5 69.5t69.5 41t88.5 13.5h66v122h166v-122zM216 230
q0 -18 6 -29t15.5 -16.5t21 -7.5t21.5 -2h56v359h-56q-10 0 -21.5 -2t-21 -7.5t-15.5 -16.5t-6 -29v-249zM621 479q0 18 -6 29t-15.5 16.5t-21 7.5t-21.5 2h-55v-359h55q10 0 21.5 2t21 7.5t15.5 16.5t6 29v249z" />
    <glyph glyph-name="ugrave" unicode="&#xf9;" 
d="M270 0q-48 0 -88.5 13.5t-69.5 41t-45.5 69.5t-16.5 98v487h166v-479q0 -18 6 -29t15.5 -16.5t21 -7.5t21.5 -2h277q10 0 21.5 2t21 7.5t15.5 16.5t6 29v479h166v-487q0 -56 -16.5 -98t-45.5 -69.5t-69.5 -41t-88.5 -13.5h-297zM486 750h-116l-80 191h136z" />
    <glyph glyph-name="uacute" unicode="&#xfa;" 
d="M270 0q-48 0 -88.5 13.5t-69.5 41t-45.5 69.5t-16.5 98v487h166v-479q0 -18 6 -29t15.5 -16.5t21 -7.5t21.5 -2h277q10 0 21.5 2t21 7.5t15.5 16.5t6 29v479h166v-487q0 -56 -16.5 -98t-45.5 -69.5t-69.5 -41t-88.5 -13.5h-297zM420 941h136l-80 -191h-116z" />
    <glyph glyph-name="ucircumflex" unicode="&#xfb;" 
d="M270 0q-48 0 -88.5 13.5t-69.5 41t-45.5 69.5t-16.5 98v487h166v-479q0 -18 6 -29t15.5 -16.5t21 -7.5t21.5 -2h277q10 0 21.5 2t21 7.5t15.5 16.5t6 29v479h166v-487q0 -56 -16.5 -98t-45.5 -69.5t-69.5 -41t-88.5 -13.5h-297zM426 941q33 0 57 -10.5t41.5 -30
t30.5 -48.5t25 -66l12 -37h-117l-11 52q-7 25 -18.5 32t-25.5 7h-5q-14 0 -26.5 -7t-18.5 -32l-13 -52h-114l12 40q11 37 24 65.5t30 48t41 29t57 9.5h19z" />
    <glyph glyph-name="udieresis" unicode="&#xfc;" 
d="M270 0q-48 0 -88.5 13.5t-69.5 41t-45.5 69.5t-16.5 98v487h166v-479q0 -18 6 -29t15.5 -16.5t21 -7.5t21.5 -2h277q10 0 21.5 2t21 7.5t15.5 16.5t6 29v479h166v-487q0 -56 -16.5 -98t-45.5 -69.5t-69.5 -41t-88.5 -13.5h-297zM259 750v132h125v-132h-125zM452 750v132
h125v-132h-125z" />
    <glyph glyph-name="yacute" unicode="&#xfd;" horiz-adv-x="842" 
d="M563 -67q10 0 21.5 2t21 7.5t15.5 16.5t6 29v721h166v-729q0 -56 -16.5 -98t-45.5 -69.5t-69.5 -41t-88.5 -13.5h-474v175h464zM270 0q-48 0 -88.5 13.5t-69.5 41t-45.5 69.5t-16.5 98v487h166v-479q0 -18 6 -29t15.5 -16.5t21 -7.5t21.5 -2h254v-175h-264zM403 941h136
l-80 -191h-116z" />
    <glyph glyph-name="thorn" unicode="&#xfe;" horiz-adv-x="842" 
d="M50 -242v1183h166v-232h357q48 0 88.5 -13.5t69.5 -41t45.5 -69.5t16.5 -98v-265q0 -56 -16.5 -98t-45.5 -69.5t-69.5 -41t-88.5 -13.5h-274v175h264q10 0 21.5 2t21 7.5t15.5 16.5t6 29v249q0 18 -6 29t-15.5 16.5t-21 7.5t-21.5 2h-347v-776h-166z" />
    <glyph glyph-name="ydieresis" unicode="&#xff;" horiz-adv-x="842" 
d="M563 -67q10 0 21.5 2t21 7.5t15.5 16.5t6 29v721h166v-729q0 -56 -16.5 -98t-45.5 -69.5t-69.5 -41t-88.5 -13.5h-474v175h464zM270 0q-48 0 -88.5 13.5t-69.5 41t-45.5 69.5t-16.5 98v487h166v-479q0 -18 6 -29t15.5 -16.5t21 -7.5t21.5 -2h254v-175h-264zM262 750v132
h125v-132h-125zM455 750v132h125v-132h-125z" />
    <glyph glyph-name="Amacron" unicode="&#x100;" horiz-adv-x="939" 
d="M724 0v479q0 18 -6 29t-15.5 16.5t-21 7.5t-21.5 2h-380q-10 0 -21.5 -2t-21 -7.5t-15.5 -16.5t-6 -29v-479h-166v487q0 56 16.5 98t45.5 69.5t69.5 41t88.5 13.5h400q48 0 88.5 -13.5t69.5 -41t45.5 -69.5t16.5 -98v-487h-166zM308 342h324v-166h-324v166zM317 912h305
v-136h-305v136z" />
    <glyph glyph-name="amacron" unicode="&#x101;" horiz-adv-x="842" 
d="M216 230q0 -18 6 -29t15.5 -16.5t21 -7.5t21.5 -2h254v-175h-264q-48 0 -88.5 13.5t-69.5 41t-45.5 69.5t-16.5 98v265q0 56 16.5 98t45.5 69.5t69.5 41t88.5 13.5h303q48 0 88.5 -13.5t69.5 -41t45.5 -69.5t16.5 -98v-487h-166v479q0 18 -6 29t-15.5 16.5t-21 7.5
t-21.5 2h-283q-10 0 -21.5 -2t-21 -7.5t-15.5 -16.5t-6 -29v-249zM268 912h305v-136h-305v136z" />
    <glyph glyph-name="Abreve" unicode="&#x102;" horiz-adv-x="939" 
d="M724 0v479q0 18 -6 29t-15.5 16.5t-21 7.5t-21.5 2h-380q-10 0 -21.5 -2t-21 -7.5t-15.5 -16.5t-6 -29v-479h-166v487q0 56 16.5 98t45.5 69.5t69.5 41t88.5 13.5h400q48 0 88.5 -13.5t69.5 -41t45.5 -69.5t16.5 -98v-487h-166zM308 342h324v-166h-324v166zM524 885h94
v-11q0 -64 -35 -95t-90 -31h-48q-54 0 -89 31t-35 95v11h94v-7q0 -20 12.5 -25.5t23.5 -5.5h37q11 0 23.5 5.5t12.5 25.5v7z" />
    <glyph glyph-name="abreve" unicode="&#x103;" horiz-adv-x="842" 
d="M216 230q0 -18 6 -29t15.5 -16.5t21 -7.5t21.5 -2h254v-175h-264q-48 0 -88.5 13.5t-69.5 41t-45.5 69.5t-16.5 98v265q0 56 16.5 98t45.5 69.5t69.5 41t88.5 13.5h303q48 0 88.5 -13.5t69.5 -41t45.5 -69.5t16.5 -98v-487h-166v479q0 18 -6 29t-15.5 16.5t-21 7.5
t-21.5 2h-283q-10 0 -21.5 -2t-21 -7.5t-15.5 -16.5t-6 -29v-249zM475 885h94v-11q0 -64 -35 -95t-90 -31h-48q-54 0 -89 31t-35 95v11h94v-7q0 -20 12.5 -25.5t23.5 -5.5h37q11 0 23.5 5.5t12.5 25.5v7z" />
    <glyph glyph-name="Aogonek" unicode="&#x104;" horiz-adv-x="939" 
d="M550 -64q0 33 9.5 62.5t30.5 51t54 34t80 12.5v383q0 18 -6 29t-15.5 16.5t-21 7.5t-21.5 2h-380q-10 0 -21.5 -2t-21 -7.5t-15.5 -16.5t-6 -29v-479h-166v487q0 56 16.5 98t45.5 69.5t69.5 41t88.5 13.5h400q48 0 88.5 -13.5t69.5 -41t45.5 -69.5t16.5 -98v-487h-170
q-13 0 -20.5 -5.5t-11.5 -13.5t-5.5 -16.5t-1.5 -15.5v-5q0 -14 7.5 -25t31.5 -20l77 -28v-114l-95 27q-38 11 -66.5 23.5t-47.5 30t-28.5 41.5t-9.5 57zM308 342h325v-166h-325v166z" />
    <glyph glyph-name="aogonek" unicode="&#x105;" horiz-adv-x="842" 
d="M581 -67q0 36 11.5 60.5t34.5 42.5v443q0 18 -6 29t-15.5 16.5t-21 7.5t-21.5 2h-283q-10 0 -21.5 -2t-21 -7.5t-15.5 -16.5t-6 -29v-249q0 -18 6 -29t15.5 -16.5t21 -7.5t21.5 -2h264v-175h-274q-48 0 -88.5 13.5t-69.5 41t-45.5 69.5t-16.5 98v265q0 56 16.5 98
t45.5 69.5t69.5 41t88.5 13.5h303q48 0 88.5 -13.5t69.5 -41t45.5 -69.5t16.5 -98v-487h-52q-25 -7 -32 -18.5t-7 -25.5v-5q0 -14 8 -24t31 -21l87 -38v-114l-95 27q-38 11 -66.5 23.5t-47.5 30t-28.5 41.5t-9.5 57z" />
    <glyph glyph-name="Cacute" unicode="&#x106;" horiz-adv-x="772" 
d="M216 230q0 -18 6 -29t15.5 -16.5t21 -7.5t21.5 -2h443v-175h-453q-48 0 -88.5 13.5t-69.5 41t-45.5 69.5t-16.5 98v265q0 56 16.5 98t45.5 69.5t69.5 41t88.5 13.5h453v-175h-443q-10 0 -21.5 -2t-21 -7.5t-15.5 -16.5t-6 -29v-249zM442 941h136l-80 -191h-116z" />
    <glyph glyph-name="cacute" unicode="&#x107;" horiz-adv-x="772" 
d="M216 230q0 -18 6 -29t15.5 -16.5t21 -7.5t21.5 -2h443v-175h-453q-48 0 -88.5 13.5t-69.5 41t-45.5 69.5t-16.5 98v265q0 56 16.5 98t45.5 69.5t69.5 41t88.5 13.5h453v-175h-443q-10 0 -21.5 -2t-21 -7.5t-15.5 -16.5t-6 -29v-249zM442 941h136l-80 -191h-116z" />
    <glyph glyph-name="Ccircumflex" unicode="&#x108;" horiz-adv-x="772" 
d="M216 230q0 -18 6 -29t15.5 -16.5t21 -7.5t21.5 -2h443v-175h-453q-48 0 -88.5 13.5t-69.5 41t-45.5 69.5t-16.5 98v265q0 56 16.5 98t45.5 69.5t69.5 41t88.5 13.5h453v-175h-443q-10 0 -21.5 -2t-21 -7.5t-15.5 -16.5t-6 -29v-249zM436 941q33 0 57 -10.5t41.5 -30
t30.5 -48.5t25 -66l12 -37h-117l-11 52q-7 25 -18.5 32t-25.5 7h-5q-14 0 -26.5 -7t-18.5 -32l-13 -52h-114l12 40q11 37 24 65.5t30 48t41 29t57 9.5h19z" />
    <glyph glyph-name="ccircumflex" unicode="&#x109;" horiz-adv-x="772" 
d="M216 230q0 -18 6 -29t15.5 -16.5t21 -7.5t21.5 -2h443v-175h-453q-48 0 -88.5 13.5t-69.5 41t-45.5 69.5t-16.5 98v265q0 56 16.5 98t45.5 69.5t69.5 41t88.5 13.5h453v-175h-443q-10 0 -21.5 -2t-21 -7.5t-15.5 -16.5t-6 -29v-249zM436 941q33 0 57 -10.5t41.5 -30
t30.5 -48.5t25 -66l12 -37h-117l-11 52q-7 25 -18.5 32t-25.5 7h-5q-14 0 -26.5 -7t-18.5 -32l-13 -52h-114l12 40q11 37 24 65.5t30 48t41 29t57 9.5h19z" />
    <glyph glyph-name="Cdotaccent" unicode="&#x10a;" horiz-adv-x="772" 
d="M216 230q0 -18 6 -29t15.5 -16.5t21 -7.5t21.5 -2h443v-175h-453q-48 0 -88.5 13.5t-69.5 41t-45.5 69.5t-16.5 98v265q0 56 16.5 98t45.5 69.5t69.5 41t88.5 13.5h453v-175h-443q-10 0 -21.5 -2t-21 -7.5t-15.5 -16.5t-6 -29v-249zM367 750v132h125v-132h-125z" />
    <glyph glyph-name="cdotaccent" unicode="&#x10b;" horiz-adv-x="772" 
d="M216 230q0 -18 6 -29t15.5 -16.5t21 -7.5t21.5 -2h443v-175h-453q-48 0 -88.5 13.5t-69.5 41t-45.5 69.5t-16.5 98v265q0 56 16.5 98t45.5 69.5t69.5 41t88.5 13.5h453v-175h-443q-10 0 -21.5 -2t-21 -7.5t-15.5 -16.5t-6 -29v-249zM368 750v132h125v-132h-125z" />
    <glyph glyph-name="Ccaron" unicode="&#x10c;" horiz-adv-x="772" 
d="M216 230q0 -18 6 -29t15.5 -16.5t21 -7.5t21.5 -2h443v-175h-453q-48 0 -88.5 13.5t-69.5 41t-45.5 69.5t-16.5 98v265q0 56 16.5 98t45.5 69.5t69.5 41t88.5 13.5h453v-175h-443q-10 0 -21.5 -2t-21 -7.5t-15.5 -16.5t-6 -29v-249zM444 749q-33 0 -57 10.5t-41.5 30
t-30.5 48.5t-25 66l-12 37h117l11 -52q7 -25 18.5 -32t25.5 -7h5q14 0 26.5 7t18.5 32l13 52h114l-12 -40q-11 -38 -24 -66t-30 -47.5t-41 -29t-57 -9.5h-19z" />
    <glyph glyph-name="ccaron" unicode="&#x10d;" horiz-adv-x="772" 
d="M216 230q0 -18 6 -29t15.5 -16.5t21 -7.5t21.5 -2h443v-175h-453q-48 0 -88.5 13.5t-69.5 41t-45.5 69.5t-16.5 98v265q0 56 16.5 98t45.5 69.5t69.5 41t88.5 13.5h453v-175h-443q-10 0 -21.5 -2t-21 -7.5t-15.5 -16.5t-6 -29v-249zM444 749q-33 0 -57 10.5t-41.5 30
t-30.5 48.5t-25 66l-12 37h117l11 -52q7 -25 18.5 -32t25.5 -7h5q14 0 26.5 7t18.5 32l13 52h114l-12 -40q-11 -38 -24 -66t-30 -47.5t-41 -29t-57 -9.5h-19z" />
    <glyph glyph-name="Dcaron" unicode="&#x10e;" horiz-adv-x="856" 
d="M641 479q0 18 -6 29t-15.5 16.5t-21 7.5t-21.5 2h-297q-10 0 -21.5 -2t-21 -7.5t-15.5 -16.5t-6 -29v-479h-166v487q0 56 16.5 98t45.5 69.5t69.5 41t88.5 13.5h317q48 0 88.5 -13.5t69.5 -41t45.5 -69.5t16.5 -98v-265q0 -56 -16.5 -98t-45.5 -69.5t-69.5 -41
t-88.5 -13.5h-278v175h268q10 0 21.5 2t21 7.5t15.5 16.5t6 29v249zM419 749q-33 0 -57 10.5t-41.5 30t-30.5 48.5t-25 66l-12 37h117l11 -52q7 -25 18.5 -32t25.5 -7h5q14 0 26.5 7t18.5 32l13 52h114l-12 -40q-11 -38 -24 -66t-30 -47.5t-41 -29t-57 -9.5h-19z" />
    <glyph glyph-name="dcaron" unicode="&#x10f;" horiz-adv-x="842" 
d="M216 230q0 -18 6 -29t15.5 -16.5t21 -7.5t21.5 -2h283q10 0 21.5 2t21 7.5t15.5 16.5t6 29v711h166v-719q0 -56 -16.5 -98t-45.5 -69.5t-69.5 -41t-88.5 -13.5h-303q-48 0 -88.5 13.5t-69.5 41t-45.5 69.5t-16.5 98v265q0 56 16.5 98t45.5 69.5t69.5 41t88.5 13.5h264
v-175h-254q-10 0 -21.5 -2t-21 -7.5t-15.5 -16.5t-6 -29v-249zM869 751v236h166v-236h-166z" />
    <glyph glyph-name="Dcroat" unicode="&#x110;" horiz-adv-x="856" 
d="M-50 412h100v75q0 56 16.5 98t45.5 69.5t69.5 41t88.5 13.5h317q48 0 88.5 -13.5t69.5 -41t45.5 -69.5t16.5 -98v-265q0 -56 -16.5 -98t-45.5 -69.5t-69.5 -41t-88.5 -13.5h-278v175h268q10 0 21.5 2t21 7.5t15.5 16.5t6 29v249q0 18 -6 29t-15.5 16.5t-21 7.5t-21.5 2
h-297q-10 0 -21.5 -2t-21 -7.5t-15.5 -16.5t-6 -29v-67h183v-166h-183v-246h-166v246h-100v166z" />
    <glyph glyph-name="dcroat" unicode="&#x111;" horiz-adv-x="842" 
d="M508 859h119v82h166v-82h106v-66h-106v-571q0 -56 -16.5 -98t-45.5 -69.5t-69.5 -41t-88.5 -13.5h-303q-48 0 -88.5 13.5t-69.5 41t-45.5 69.5t-16.5 98v265q0 56 16.5 98t45.5 69.5t69.5 41t88.5 13.5h264v-175h-254q-10 0 -21.5 -2t-21 -7.5t-15.5 -16.5t-6 -29v-249
q0 -18 6 -29t15.5 -16.5t21 -7.5t21.5 -2h283q10 0 21.5 2t21 7.5t15.5 16.5t6 29v563h-119v66z" />
    <glyph glyph-name="Emacron" unicode="&#x112;" horiz-adv-x="768" 
d="M216 230q0 -18 6 -29t15.5 -16.5t21 -7.5t21.5 -2h439v-175h-449q-48 0 -88.5 13.5t-69.5 41t-45.5 69.5t-16.5 98v265q0 56 16.5 98t45.5 69.5t69.5 41t88.5 13.5h449v-175h-439q-10 0 -21.5 -2t-21 -7.5t-15.5 -16.5t-6 -29v-249zM308 442h401v-175h-401v175zM322 912
h305v-136h-305v136z" />
    <glyph glyph-name="emacron" unicode="&#x113;" horiz-adv-x="950" 
d="M216 230q0 -18 6 -29t15.5 -16.5t21 -7.5t21.5 -2h591v-175h-601q-48 0 -88.5 13.5t-69.5 41t-45.5 69.5t-16.5 98v265q0 56 16.5 98t45.5 69.5t69.5 41t88.5 13.5h411q48 0 88.5 -13.5t69.5 -41t45.5 -69.5t16.5 -98t-16.5 -97.5t-45.5 -68.5t-69.5 -40.5t-88.5 -13.5
h-373v175h373q6 0 15.5 1.5t18 6.5t14.5 14t6 25q0 14 -6 23t-14.5 14t-18 6.5t-15.5 1.5h-401q-10 0 -21.5 -2t-21 -7.5t-15.5 -16.5t-6 -29v-249zM322 912h305v-136h-305v136z" />
    <glyph glyph-name="Edotaccent" unicode="&#x116;" horiz-adv-x="768" 
d="M216 230q0 -18 6 -29t15.5 -16.5t21 -7.5t21.5 -2h439v-175h-449q-48 0 -88.5 13.5t-69.5 41t-45.5 69.5t-16.5 98v265q0 56 16.5 98t45.5 69.5t69.5 41t88.5 13.5h449v-175h-439q-10 0 -21.5 -2t-21 -7.5t-15.5 -16.5t-6 -29v-249zM308 442h401v-175h-401v175zM397 750
v132h125v-132h-125z" />
    <glyph glyph-name="edotaccent" unicode="&#x117;" horiz-adv-x="950" 
d="M216 230q0 -18 6 -29t15.5 -16.5t21 -7.5t21.5 -2h591v-175h-601q-48 0 -88.5 13.5t-69.5 41t-45.5 69.5t-16.5 98v265q0 56 16.5 98t45.5 69.5t69.5 41t88.5 13.5h411q48 0 88.5 -13.5t69.5 -41t45.5 -69.5t16.5 -98t-16.5 -97.5t-45.5 -68.5t-69.5 -40.5t-88.5 -13.5
h-373v175h373q6 0 15.5 1.5t18 6.5t14.5 14t6 25q0 14 -6 23t-14.5 14t-18 6.5t-15.5 1.5h-401q-10 0 -21.5 -2t-21 -7.5t-15.5 -16.5t-6 -29v-249zM412 750v132h125v-132h-125z" />
    <glyph glyph-name="Eogonek" unicode="&#x118;" horiz-adv-x="768" 
d="M524 -64q0 39 13 64h-267q-48 0 -88.5 13.5t-69.5 41t-45.5 69.5t-16.5 98v265q0 56 16.5 98t45.5 69.5t69.5 41t88.5 13.5h449v-175h-439q-10 0 -21.5 -2t-21 -7.5t-15.5 -16.5t-6 -29v-249q0 -18 6 -29t15.5 -16.5t21 -7.5t21.5 -2h439v-175l-55 -7q-25 -7 -32 -18.5
t-7 -25.5v-5q0 -14 7 -26t32 -19l107 -28v-114l-95 27q-38 11 -66.5 23.5t-47.5 30t-28.5 41.5t-9.5 57zM308 442h401v-175h-401v175z" />
    <glyph glyph-name="eogonek" unicode="&#x119;" horiz-adv-x="950" 
d="M650 -64q0 39 13 64h-393q-48 0 -88.5 13.5t-69.5 41t-45.5 69.5t-16.5 98v265q0 56 16.5 98t45.5 69.5t69.5 41t88.5 13.5h411q48 0 88.5 -13.5t69.5 -41t45.5 -69.5t16.5 -98t-16.5 -97.5t-45.5 -68.5t-69.5 -40.5t-88.5 -13.5h-373v175h373q6 0 15.5 1.5t18 6.5
t14.5 14t6 25q0 14 -6 23t-14.5 14t-18 6.5t-15.5 1.5h-401q-10 0 -21.5 -2t-21 -7.5t-15.5 -16.5t-6 -29v-249q0 -18 6 -29t15.5 -16.5t21 -7.5t21.5 -2h591v-175l-61 -7q-25 -7 -32 -18.5t-7 -25.5v-5q0 -14 7 -26t32 -19l107 -28v-114l-115 27q-77 18 -114.5 51.5
t-37.5 100.5z" />
    <glyph glyph-name="Ecaron" unicode="&#x11a;" horiz-adv-x="768" 
d="M216 230q0 -18 6 -29t15.5 -16.5t21 -7.5t21.5 -2h439v-175h-449q-48 0 -88.5 13.5t-69.5 41t-45.5 69.5t-16.5 98v265q0 56 16.5 98t45.5 69.5t69.5 41t88.5 13.5h449v-175h-439q-10 0 -21.5 -2t-21 -7.5t-15.5 -16.5t-6 -29v-249zM308 442h401v-175h-401v175zM447 749
q-33 0 -57 10.5t-41.5 30t-30.5 48.5t-25 66l-12 37h117l11 -52q7 -25 18.5 -32t25.5 -7h5q14 0 26.5 7t18.5 32l13 52h114l-12 -40q-11 -38 -24 -66t-30 -47.5t-41 -29t-57 -9.5h-19z" />
    <glyph glyph-name="ecaron" unicode="&#x11b;" horiz-adv-x="950" 
d="M216 230q0 -18 6 -29t15.5 -16.5t21 -7.5t21.5 -2h591v-175h-601q-48 0 -88.5 13.5t-69.5 41t-45.5 69.5t-16.5 98v265q0 56 16.5 98t45.5 69.5t69.5 41t88.5 13.5h411q48 0 88.5 -13.5t69.5 -41t45.5 -69.5t16.5 -98t-16.5 -97.5t-45.5 -68.5t-69.5 -40.5t-88.5 -13.5
h-373v175h373q6 0 15.5 1.5t18 6.5t14.5 14t6 25q0 14 -6 23t-14.5 14t-18 6.5t-15.5 1.5h-401q-10 0 -21.5 -2t-21 -7.5t-15.5 -16.5t-6 -29v-249zM466 749q-33 0 -57 10.5t-41.5 30t-30.5 48.5t-25 66l-12 37h117l11 -52q7 -25 18.5 -32t25.5 -7h5q14 0 26.5 7t18.5 32
l13 52h114l-12 -40q-11 -38 -24 -66t-30 -47.5t-41 -29t-57 -9.5h-19z" />
    <glyph glyph-name="Gcircumflex" unicode="&#x11c;" horiz-adv-x="857" 
d="M216 230q0 -18 6 -29t15.5 -16.5t21 -7.5t21.5 -2h308q6 0 15.5 1.5t18 6.5t14.5 14t6 23q0 16 -6 25t-14.5 14t-18 6.5t-15.5 1.5h-280v175h280q48 0 88.5 -13.5t69.5 -40.5t45.5 -68.5t16.5 -97.5t-16.5 -98t-45.5 -69.5t-69.5 -41t-88.5 -13.5h-318q-48 0 -88.5 13.5
t-69.5 41t-45.5 69.5t-16.5 98v265q0 56 16.5 98t45.5 69.5t69.5 41t88.5 13.5h508v-175h-498q-10 0 -21.5 -2t-21 -7.5t-15.5 -16.5t-6 -29v-249zM461 941q33 0 57 -10.5t41.5 -30t30.5 -48.5t25 -66l12 -37h-117l-11 52q-7 25 -18.5 32t-25.5 7h-5q-14 0 -26.5 -7
t-18.5 -32l-13 -52h-114l12 40q11 37 24 65.5t30 48t41 29t57 9.5h19z" />
    <glyph glyph-name="gcircumflex" unicode="&#x11d;" horiz-adv-x="843" 
d="M794 -20q0 -56 -16.5 -98t-45.5 -69.5t-69.5 -41t-88.5 -13.5h-475v175h465q10 0 21.5 2t21 7.5t15.5 16.5t6 29v491q0 18 -6 29t-15.5 16.5t-21 7.5t-21.5 2h-284q-10 0 -21.5 -2t-21 -7.5t-15.5 -16.5t-6 -29v-249q0 -18 6 -29t15.5 -16.5t21 -7.5t21.5 -2h255v-175
h-265q-48 0 -88.5 13.5t-69.5 41t-45.5 69.5t-16.5 98v265q0 56 16.5 98t45.5 69.5t69.5 41t88.5 13.5h304q48 0 88.5 -13.5t69.5 -41t45.5 -69.5t16.5 -98v-507zM430 941q33 0 57 -10.5t41.5 -30t30.5 -48.5t25 -66l12 -37h-117l-11 52q-7 25 -18.5 32t-25.5 7h-5
q-14 0 -26.5 -7t-18.5 -32l-13 -52h-114l12 40q11 37 24 65.5t30 48t41 29t57 9.5h19z" />
    <glyph glyph-name="Gbreve" unicode="&#x11e;" horiz-adv-x="857" 
d="M216 230q0 -18 6 -29t15.5 -16.5t21 -7.5t21.5 -2h308q6 0 15.5 1.5t18 6.5t14.5 14t6 23q0 16 -6 25t-14.5 14t-18 6.5t-15.5 1.5h-280v175h280q48 0 88.5 -13.5t69.5 -40.5t45.5 -68.5t16.5 -97.5t-16.5 -98t-45.5 -69.5t-69.5 -41t-88.5 -13.5h-318q-48 0 -88.5 13.5
t-69.5 41t-45.5 69.5t-16.5 98v265q0 56 16.5 98t45.5 69.5t69.5 41t88.5 13.5h508v-175h-498q-10 0 -21.5 -2t-21 -7.5t-15.5 -16.5t-6 -29v-249zM483 885h94v-11q0 -64 -35 -95t-90 -31h-48q-54 0 -89 31t-35 95v11h94v-7q0 -20 12.5 -25.5t23.5 -5.5h37q11 0 23.5 5.5
t12.5 25.5v7z" />
    <glyph glyph-name="gbreve" unicode="&#x11f;" horiz-adv-x="843" 
d="M794 -20q0 -56 -16.5 -98t-45.5 -69.5t-69.5 -41t-88.5 -13.5h-475v175h465q10 0 21.5 2t21 7.5t15.5 16.5t6 29v491q0 18 -6 29t-15.5 16.5t-21 7.5t-21.5 2h-284q-10 0 -21.5 -2t-21 -7.5t-15.5 -16.5t-6 -29v-249q0 -18 6 -29t15.5 -16.5t21 -7.5t21.5 -2h255v-175
h-265q-48 0 -88.5 13.5t-69.5 41t-45.5 69.5t-16.5 98v265q0 56 16.5 98t45.5 69.5t69.5 41t88.5 13.5h304q48 0 88.5 -13.5t69.5 -41t45.5 -69.5t16.5 -98v-507zM476 885h94v-11q0 -64 -35 -95t-90 -31h-48q-54 0 -89 31t-35 95v11h94v-7q0 -20 12.5 -25.5t23.5 -5.5h37
q11 0 23.5 5.5t12.5 25.5v7z" />
    <glyph glyph-name="Gdotaccent" unicode="&#x120;" horiz-adv-x="857" 
d="M216 230q0 -18 6 -29t15.5 -16.5t21 -7.5t21.5 -2h308q6 0 15.5 1.5t18 6.5t14.5 14t6 23q0 16 -6 25t-14.5 14t-18 6.5t-15.5 1.5h-280v175h280q48 0 88.5 -13.5t69.5 -40.5t45.5 -68.5t16.5 -97.5t-16.5 -98t-45.5 -69.5t-69.5 -41t-88.5 -13.5h-318q-48 0 -88.5 13.5
t-69.5 41t-45.5 69.5t-16.5 98v265q0 56 16.5 98t45.5 69.5t69.5 41t88.5 13.5h508v-175h-498q-10 0 -21.5 -2t-21 -7.5t-15.5 -16.5t-6 -29v-249zM366 750v132h125v-132h-125z" />
    <glyph glyph-name="gdotaccent" unicode="&#x121;" horiz-adv-x="843" 
d="M794 -20q0 -56 -16.5 -98t-45.5 -69.5t-69.5 -41t-88.5 -13.5h-475v175h465q10 0 21.5 2t21 7.5t15.5 16.5t6 29v491q0 18 -6 29t-15.5 16.5t-21 7.5t-21.5 2h-284q-10 0 -21.5 -2t-21 -7.5t-15.5 -16.5t-6 -29v-249q0 -18 6 -29t15.5 -16.5t21 -7.5t21.5 -2h255v-175
h-265q-48 0 -88.5 13.5t-69.5 41t-45.5 69.5t-16.5 98v265q0 56 16.5 98t45.5 69.5t69.5 41t88.5 13.5h304q48 0 88.5 -13.5t69.5 -41t45.5 -69.5t16.5 -98v-507zM359 750v132h125v-132h-125z" />
    <glyph glyph-name="Gcommaaccent" unicode="&#x122;" horiz-adv-x="857" 
d="M216 230q0 -18 6 -29t15.5 -16.5t21 -7.5t21.5 -2h308q6 0 15.5 1.5t18 6.5t14.5 14t6 23q0 16 -6 25t-14.5 14t-18 6.5t-15.5 1.5h-280v175h280q48 0 88.5 -13.5t69.5 -40.5t45.5 -68.5t16.5 -97.5t-16.5 -98t-45.5 -69.5t-69.5 -41t-88.5 -13.5h-318q-48 0 -88.5 13.5
t-69.5 41t-45.5 69.5t-16.5 98v265q0 56 16.5 98t45.5 69.5t69.5 41t88.5 13.5h508v-175h-498q-10 0 -21.5 -2t-21 -7.5t-15.5 -16.5t-6 -29v-249zM345 -327v275h166v-275h-166z" />
    <glyph glyph-name="gcommaaccent" unicode="&#x123;" horiz-adv-x="843" 
d="M794 -20q0 -56 -16.5 -98t-45.5 -69.5t-69.5 -41t-88.5 -13.5h-475v175h465q10 0 21.5 2t21 7.5t15.5 16.5t6 29v491q0 18 -6 29t-15.5 16.5t-21 7.5t-21.5 2h-284q-10 0 -21.5 -2t-21 -7.5t-15.5 -16.5t-6 -29v-249q0 -18 6 -29t15.5 -16.5t21 -7.5t21.5 -2h255v-175
h-265q-48 0 -88.5 13.5t-69.5 41t-45.5 69.5t-16.5 98v265q0 56 16.5 98t45.5 69.5t69.5 41t88.5 13.5h304q48 0 88.5 -13.5t69.5 -41t45.5 -69.5t16.5 -98v-507zM338 749v275h166v-275h-166z" />
    <glyph glyph-name="Hcircumflex" unicode="&#x124;" horiz-adv-x="840" 
d="M50 0v709h166v-267h409v267h166v-709h-166v267h-409v-267h-166zM428 941q33 0 57 -10.5t41.5 -30t30.5 -48.5t25 -66l12 -37h-117l-11 52q-7 25 -18.5 32t-25.5 7h-5q-14 0 -26.5 -7t-18.5 -32l-13 -52h-114l12 40q11 37 24 65.5t30 48t41 29t57 9.5h19z" />
    <glyph glyph-name="hcircumflex" unicode="&#x125;" horiz-adv-x="842" 
d="M216 709h357q48 0 88.5 -13.5t69.5 -41t45.5 -69.5t16.5 -98v-487h-166v479q0 18 -6 29t-15.5 16.5t-21 7.5t-21.5 2h-347v-534h-166v941h166v-232zM141 1192q33 0 57 -10.5t41.5 -30t30.5 -48.5t25 -66l12 -37h-117l-11 52q-7 25 -18.5 32t-25.5 7h-5q-14 0 -26.5 -7
t-18.5 -32l-13 -52h-114l12 40q11 37 24 65.5t30 48t41 29t57 9.5h19z" />
    <glyph glyph-name="Hbar" unicode="&#x126;" horiz-adv-x="840" 
d="M0 609h50v100h166v-100h409v100h166v-100h49v-76h-49v-533h-166v267h-409v-267h-166v533h-50v76zM625 442v91h-409v-91h409z" />
    <glyph glyph-name="hbar" unicode="&#x127;" horiz-adv-x="842" 
d="M0 872h50v69h166v-69h357v-76h-357v-87h357q48 0 88.5 -13.5t69.5 -41t45.5 -69.5t16.5 -98v-487h-166v479q0 18 -6 29t-15.5 16.5t-21 7.5t-21.5 2h-347v-534h-166v796h-50v76z" />
    <glyph glyph-name="Itilde" unicode="&#x128;" horiz-adv-x="466" 
d="M50 0v175h100v359h-100v175h367v-175h-101v-359h101v-175h-367zM22 765v21q0 34 9.5 62.5t29 49t49 32t69.5 11.5l101 -56q13 0 20.5 4.5t11.5 11t5.5 14.5t1.5 15v11h124v-18q0 -68 -39 -111.5t-118 -43.5q-13 7 -29 16.5t-31 18.5t-26.5 15t-14.5 6q-13 0 -20.5 -4.5
t-11.5 -11t-5.5 -14.5t-1.5 -15v-14h-124z" />
    <glyph glyph-name="itilde" unicode="&#x129;" horiz-adv-x="265" 
d="M50 1v708h166v-708h-166zM-78 765v21q0 34 9.5 62.5t29 49t49 32t69.5 11.5l101 -56q13 0 20.5 4.5t11.5 11t5.5 14.5t1.5 15v11h124v-18q0 -68 -39 -111.5t-118 -43.5q-13 7 -29 16.5t-31 18.5t-26.5 15t-14.5 6q-13 0 -20.5 -4.5t-11.5 -11t-5.5 -14.5t-1.5 -15v-14
h-124z" />
    <glyph glyph-name="Imacron" unicode="&#x12a;" horiz-adv-x="466" 
d="M50 0v175h100v359h-100v175h367v-175h-101v-359h101v-175h-367zM80 912h305v-136h-305v136z" />
    <glyph glyph-name="imacron" unicode="&#x12b;" horiz-adv-x="265" 
d="M50 1v708h166v-708h-166zM-20 912h305v-136h-305v136z" />
    <glyph glyph-name="Iogonek" unicode="&#x12e;" horiz-adv-x="466" 
d="M217 -64q0 39 13 64h-180v175h100v359h-100v175h367v-175h-101v-359h101v-175l-40 -7q-25 -7 -32 -18.5t-7 -25.5v-5q0 -14 7 -25.5t32 -19.5l87 -28v-114l-95 27q-38 11 -66.5 23.5t-47.5 30t-28.5 41.5t-9.5 57z" />
    <glyph glyph-name="iogonek" unicode="&#x12f;" horiz-adv-x="265" 
d="M216 709v-708l-47 -8q-25 -7 -32 -18.5t-7 -25.5v-5q0 -14 7 -25.5t32 -19.5l87 -28v-114l-95 27q-38 11 -66.5 23.5t-47.5 30t-28.5 41.5t-9.5 57q0 34 10.5 57.5t30.5 41.5v674h166z" />
    <glyph glyph-name="Idotaccent" unicode="&#x130;" horiz-adv-x="466" 
d="M50 0v175h100v359h-100v175h367v-175h-101v-359h101v-175h-367zM170 750v132h125v-132h-125z" />
    <glyph glyph-name="dotlessi" unicode="&#x131;" horiz-adv-x="265" 
d="M50 1v708h166v-708h-166z" />
    <glyph glyph-name="Jcircumflex" unicode="&#x134;" horiz-adv-x="451" 
d="M236 709h166v-487q0 -56 -16.5 -98t-45.5 -69.5t-69.5 -41t-88.5 -13.5h-132v175h122q10 0 21.5 2t21 7.5t15.5 16.5t6 29v479zM332 941q33 0 57 -10.5t41.5 -30t30.5 -48.5t25 -66l12 -37h-117l-11 52q-7 25 -18.5 32t-25.5 7h-5q-14 0 -26.5 -7t-18.5 -32l-13 -52h-114
l12 40q11 37 24 65.5t30 48t41 29t57 9.5h19z" />
    <glyph glyph-name="jcircumflex" unicode="&#x135;" horiz-adv-x="265" 
d="M50 709h166v-729q0 -56 -16.5 -98t-45.5 -69.5t-69.5 -41t-88.5 -13.5h-107v175h97q10 0 21.5 2t21 7.5t15.5 16.5t6 29v721zM50 797v144h166v-144h-166zM141 941q33 0 57 -10.5t41.5 -30t30.5 -48.5t25 -66l12 -37h-117l-11 52q-7 25 -18.5 32t-25.5 7h-5
q-14 0 -26.5 -7t-18.5 -32l-13 -52h-114l12 40q11 37 24 65.5t30 48t41 29t57 9.5h19z" />
    <glyph glyph-name="Kcommaaccent" unicode="&#x136;" horiz-adv-x="761" 
d="M50 0v709h166v-267h201q22 0 41.5 9t27.5 38q3 12 11 39.5t17 60t17.5 65.5t13.5 55h167l-60 -222q-5 -20 -11.5 -37t-16.5 -33t-23.5 -31.5t-32.5 -31.5q38 -24 55.5 -58.5t28.5 -73.5l60 -222h-167q0 1 -4 17.5t-10.5 40.5t-14 52t-14.5 52t-11.5 40.5t-4.5 17.5
q-5 16 -13.5 25t-18.5 14t-21 6.5t-21 1.5h-196v-267h-166zM285 -275v275h166v-275h-166z" />
    <glyph glyph-name="kcommaaccent" unicode="&#x137;" horiz-adv-x="761" 
d="M50 0v941h166v-499h201q22 0 41.5 9t27.5 38q3 12 11 39.5t17 60t17.5 65.5t13.5 55h167l-60 -222q-5 -20 -11.5 -37t-16.5 -33t-23.5 -31.5t-32.5 -31.5q38 -24 55.5 -58.5t28.5 -73.5l60 -222h-167q0 1 -4 17.5t-10.5 40.5t-14 52t-14.5 52t-11.5 40.5t-4.5 17.5
q-5 16 -13.5 25t-18.5 14t-21 6.5t-21 1.5h-196v-267h-166zM286 -275v275h166v-275h-166z" />
    <glyph glyph-name="kgreenlandic" unicode="&#x138;" horiz-adv-x="761" 
d="M50 0v709h166v-267h201q22 0 41.5 9t27.5 38q3 12 11 39.5t17 60t17.5 65.5t13.5 55h167l-60 -222q-5 -20 -11.5 -37t-16.5 -33t-23.5 -31.5t-32.5 -31.5q38 -24 55.5 -58.5t28.5 -73.5l60 -222h-167q0 1 -4 17.5t-10.5 40.5t-14 52t-14.5 52t-11.5 40.5t-4.5 17.5
q-5 16 -13.5 25t-18.5 14t-21 6.5t-21 1.5h-196v-267h-166z" />
    <glyph glyph-name="Lacute" unicode="&#x139;" horiz-adv-x="753" 
d="M216 230q0 -18 6 -29t15.5 -16.5t21 -7.5t21.5 -2h448v-175h-458q-48 0 -88.5 13.5t-69.5 41t-45.5 69.5t-16.5 98v487h166v-479zM138 941h136l-80 -191h-116z" />
    <glyph glyph-name="lacute" unicode="&#x13a;" horiz-adv-x="265" 
d="M216 0h-166v941h166v-941zM134 1169h136l-80 -191h-116z" />
    <glyph glyph-name="Lcommaaccent" unicode="&#x13b;" horiz-adv-x="753" 
d="M216 230q0 -18 6 -29t15.5 -16.5t21 -7.5t21.5 -2h448v-175h-458q-48 0 -88.5 13.5t-69.5 41t-45.5 69.5t-16.5 98v487h166v-479zM366 -325v275h166v-275h-166z" />
    <glyph glyph-name="lcommaaccent" unicode="&#x13c;" horiz-adv-x="265" 
d="M216 0h-166v941h166v-941zM50 -286v236h166v-236h-166z" />
    <glyph glyph-name="Lcaron" unicode="&#x13d;" horiz-adv-x="801" 
d="M216 230q0 -18 6 -29t15.5 -16.5t21 -7.5t21.5 -2h448v-175h-458q-48 0 -88.5 13.5t-69.5 41t-45.5 69.5t-16.5 98v487h166v-479zM610 434v275h166v-275h-166z" />
    <glyph glyph-name="lcaron" unicode="&#x13e;" horiz-adv-x="265" 
d="M216 0h-166v941h166v-941zM292 751v236h166v-236h-166z" />
    <glyph glyph-name="Lslash" unicode="&#x141;" horiz-adv-x="753" 
d="M-23 413l73 24v272h166v-217l61 21v-133l-61 -21v-129q0 -18 6 -29t15.5 -16.5t21 -7.5t21.5 -2h448v-175h-458q-48 0 -88.5 13.5t-69.5 41t-45.5 69.5t-16.5 98v82l-73 -24v133z" />
    <glyph glyph-name="lslash" unicode="&#x142;" horiz-adv-x="267" 
d="M216 492l70 26v-133l-70 -26v-359h-166v304l-73 -24v133l73 24v504h166v-449z" />
    <glyph glyph-name="Nacute" unicode="&#x143;" horiz-adv-x="976" 
d="M671 0q-48 0 -81 15t-57 43.5t-43 69.5t-39 94l-100 257q-13 34 -28.5 44.5t-35.5 10.5h-7q-10 0 -21.5 -2t-21 -7.5t-15.5 -16.5t-6 -29v-479h-166v487q0 56 16.5 98t45.5 69.5t69.5 41t88.5 13.5h37q48 0 81 -15t57 -43.5t43 -70t39 -93.5l100 -257q13 -34 28.5 -44.5
t35.5 -10.5h6q10 0 21.5 2t21 7.5t15.5 16.5t6 29v479h166v-487q0 -56 -16.5 -98t-45.5 -69.5t-69.5 -41t-88.5 -13.5h-36zM567 941h136l-80 -191h-116z" />
    <glyph glyph-name="nacute" unicode="&#x144;" 
d="M567 710q48 0 88.5 -13.5t69.5 -41t45.5 -69.5t16.5 -98v-487h-166v479q0 18 -6 29t-15.5 16.5t-21 7.5t-21.5 2h-277q-10 0 -21.5 -2t-21 -7.5t-15.5 -16.5t-6 -29v-479h-166v487q0 56 16.5 98t45.5 69.5t69.5 41t88.5 13.5h297zM380 941h136l-80 -191h-116z" />
    <glyph glyph-name="Ncommaaccent" unicode="&#x145;" horiz-adv-x="976" 
d="M671 0q-48 0 -81 15t-57 43.5t-43 69.5t-39 94l-100 257q-13 34 -28.5 44.5t-35.5 10.5h-7q-10 0 -21.5 -2t-21 -7.5t-15.5 -16.5t-6 -29v-479h-166v487q0 56 16.5 98t45.5 69.5t69.5 41t88.5 13.5h37q48 0 81 -15t57 -43.5t43 -70t39 -93.5l100 -257q13 -34 28.5 -44.5
t35.5 -10.5h6q10 0 21.5 2t21 7.5t15.5 16.5t6 29v479h166v-487q0 -56 -16.5 -98t-45.5 -69.5t-69.5 -41t-88.5 -13.5h-36zM288 -275v275h166v-275h-166z" />
    <glyph glyph-name="ncommaaccent" unicode="&#x146;" 
d="M567 710q48 0 88.5 -13.5t69.5 -41t45.5 -69.5t16.5 -98v-487h-166v479q0 18 -6 29t-15.5 16.5t-21 7.5t-21.5 2h-277q-10 0 -21.5 -2t-21 -7.5t-15.5 -16.5t-6 -29v-479h-166v487q0 56 16.5 98t45.5 69.5t69.5 41t88.5 13.5h297zM335 -275v275h166v-275h-166z" />
    <glyph glyph-name="Ncaron" unicode="&#x147;" horiz-adv-x="976" 
d="M671 0q-48 0 -81 15t-57 43.5t-43 69.5t-39 94l-100 257q-13 34 -28.5 44.5t-35.5 10.5h-7q-10 0 -21.5 -2t-21 -7.5t-15.5 -16.5t-6 -29v-479h-166v487q0 56 16.5 98t45.5 69.5t69.5 41t88.5 13.5h37q48 0 81 -15t57 -43.5t43 -70t39 -93.5l100 -257q13 -34 28.5 -44.5
t35.5 -10.5h6q10 0 21.5 2t21 7.5t15.5 16.5t6 29v479h166v-487q0 -56 -16.5 -98t-45.5 -69.5t-69.5 -41t-88.5 -13.5h-36zM551 749q-33 0 -57 10.5t-41.5 30t-30.5 48.5t-25 66l-12 37h117l11 -52q7 -25 18.5 -32t25.5 -7h5q14 0 26.5 7t18.5 32l13 52h114l-12 -40
q-11 -38 -24 -66t-30 -47.5t-41 -29t-57 -9.5h-19z" />
    <glyph glyph-name="ncaron" unicode="&#x148;" 
d="M567 710q48 0 88.5 -13.5t69.5 -41t45.5 -69.5t16.5 -98v-487h-166v479q0 18 -6 29t-15.5 16.5t-21 7.5t-21.5 2h-277q-10 0 -21.5 -2t-21 -7.5t-15.5 -16.5t-6 -29v-479h-166v487q0 56 16.5 98t45.5 69.5t69.5 41t88.5 13.5h297zM409 749q-33 0 -57 10.5t-41.5 30
t-30.5 48.5t-25 66l-12 37h117l11 -52q7 -25 18.5 -32t25.5 -7h5q14 0 26.5 7t18.5 32l13 52h114l-12 -40q-11 -38 -24 -66t-30 -47.5t-41 -29t-57 -9.5h-19z" />
    <glyph glyph-name="Eng" unicode="&#x14a;" horiz-adv-x="976" 
d="M761 5q-28 -5 -54 -5h-36q-48 0 -81 15t-57 43.5t-43 69.5t-39 94l-100 257q-13 34 -28.5 44.5t-35.5 10.5h-7q-10 0 -21.5 -2t-21 -7.5t-15.5 -16.5t-6 -29v-479h-166v487q0 56 16.5 98t45.5 69.5t69.5 41t88.5 13.5h37q48 0 81 -15t57 -43.5t43 -70t39 -93.5l100 -257
q13 -34 28.5 -44.5t35.5 -10.5h6q10 0 21.5 2t21 7.5t15.5 16.5t6 29v479h166v-737q0 -56 -16.5 -98t-45.5 -69.5t-69.5 -41t-88.5 -13.5h-132v175h122q10 0 21.5 2t21 7.5t15.5 16.5t6 29v25z" />
    <glyph glyph-name="eng" unicode="&#x14b;" 
d="M621 479q0 18 -6 29t-15.5 16.5t-21 7.5t-21.5 2h-277q-10 0 -21.5 -2t-21 -7.5t-15.5 -16.5t-6 -29v-479h-166v487q0 56 16.5 98t45.5 69.5t69.5 41t88.5 13.5h297q48 0 88.5 -13.5t69.5 -41t45.5 -69.5t16.5 -98v-515q0 -56 -16.5 -98t-45.5 -69.5t-69.5 -41
t-88.5 -13.5h-107v175h97q10 0 21.5 2t21 7.5t15.5 16.5t6 29v499z" />
    <glyph glyph-name="Omacron" unicode="&#x14c;" 
d="M50 487q0 56 16.5 98t45.5 69.5t69.5 41t88.5 13.5h297q48 0 88.5 -13.5t69.5 -41t45.5 -69.5t16.5 -98v-265q0 -56 -16.5 -98t-45.5 -69.5t-69.5 -41t-88.5 -13.5h-297q-48 0 -88.5 13.5t-69.5 41t-45.5 69.5t-16.5 98v265zM621 479q0 18 -6 29t-15.5 16.5t-21 7.5
t-21.5 2h-277q-10 0 -21.5 -2t-21 -7.5t-15.5 -16.5t-6 -29v-249q0 -18 6 -29t15.5 -16.5t21 -7.5t21.5 -2h277q10 0 21.5 2t21 7.5t15.5 16.5t6 29v249zM265 912h305v-136h-305v136z" />
    <glyph glyph-name="omacron" unicode="&#x14d;" 
d="M50 487q0 56 16.5 98t45.5 69.5t69.5 41t88.5 13.5h297q48 0 88.5 -13.5t69.5 -41t45.5 -69.5t16.5 -98v-265q0 -56 -16.5 -98t-45.5 -69.5t-69.5 -41t-88.5 -13.5h-297q-48 0 -88.5 13.5t-69.5 41t-45.5 69.5t-16.5 98v265zM621 479q0 18 -6 29t-15.5 16.5t-21 7.5
t-21.5 2h-277q-10 0 -21.5 -2t-21 -7.5t-15.5 -16.5t-6 -29v-249q0 -18 6 -29t15.5 -16.5t21 -7.5t21.5 -2h277q10 0 21.5 2t21 7.5t15.5 16.5t6 29v249zM265 912h305v-136h-305v136z" />
    <glyph glyph-name="Ohungarumlaut" unicode="&#x150;" 
d="M50 487q0 56 16.5 98t45.5 69.5t69.5 41t88.5 13.5h297q48 0 88.5 -13.5t69.5 -41t45.5 -69.5t16.5 -98v-265q0 -56 -16.5 -98t-45.5 -69.5t-69.5 -41t-88.5 -13.5h-297q-48 0 -88.5 13.5t-69.5 41t-45.5 69.5t-16.5 98v265zM621 479q0 18 -6 29t-15.5 16.5t-21 7.5
t-21.5 2h-277q-10 0 -21.5 -2t-21 -7.5t-15.5 -16.5t-6 -29v-249q0 -18 6 -29t15.5 -16.5t21 -7.5t21.5 -2h277q10 0 21.5 2t21 7.5t15.5 16.5t6 29v249zM335 941h136l-90 -191h-106zM525 941h136l-90 -191h-106z" />
    <glyph glyph-name="ohungarumlaut" unicode="&#x151;" 
d="M50 487q0 56 16.5 98t45.5 69.5t69.5 41t88.5 13.5h297q48 0 88.5 -13.5t69.5 -41t45.5 -69.5t16.5 -98v-265q0 -56 -16.5 -98t-45.5 -69.5t-69.5 -41t-88.5 -13.5h-297q-48 0 -88.5 13.5t-69.5 41t-45.5 69.5t-16.5 98v265zM621 479q0 18 -6 29t-15.5 16.5t-21 7.5
t-21.5 2h-277q-10 0 -21.5 -2t-21 -7.5t-15.5 -16.5t-6 -29v-249q0 -18 6 -29t15.5 -16.5t21 -7.5t21.5 -2h277q10 0 21.5 2t21 7.5t15.5 16.5t6 29v249zM335 941h136l-90 -191h-106zM525 941h136l-90 -191h-106z" />
    <glyph glyph-name="OE" unicode="&#x152;" horiz-adv-x="1339" 
d="M787 230q0 -18 6 -29t15.5 -16.5t21 -7.5t21.5 -2h439v-175h-449q-83 0 -137 38q-28 -20 -62.5 -29t-74.5 -9h-297q-48 0 -88.5 13.5t-69.5 41t-45.5 69.5t-16.5 98v265q0 56 16.5 98t45.5 69.5t69.5 41t88.5 13.5h297q81 0 137 -38q56 38 137 38h449v-175h-439
q-10 0 -21.5 -2t-21 -7.5t-15.5 -15.5t-6 -27v-252zM621 479q0 18 -6 29t-15.5 16.5t-21 7.5t-21.5 2h-277q-10 0 -21.5 -2t-21 -7.5t-15.5 -16.5t-6 -29v-249q0 -18 6 -29t15.5 -16.5t21 -7.5t21.5 -2h277q10 0 21.5 2t21 7.5t15.5 16.5t6 29v249zM879 442h401v-175h-401
v175z" />
    <glyph glyph-name="oe" unicode="&#x153;" horiz-adv-x="1521" 
d="M50 487q0 56 16.5 98t45.5 69.5t69.5 41t88.5 13.5h297q81 0 137 -38q56 38 137 38h411q48 0 88.5 -13.5t69.5 -41t45.5 -69.5t16.5 -98t-16.5 -97.5t-45.5 -68.5t-69.5 -40.5t-88.5 -13.5h-373v175h373q6 0 15.5 1.5t18 6.5t14.5 14t6 25q0 14 -6 23t-14.5 14t-18 6.5
t-15.5 1.5h-401q-10 0 -21.5 -2t-21 -7.5t-15.5 -16.5t-6 -29v-253q0 -17 6 -27t15.5 -15.5t21 -7t21.5 -1.5h591v-175h-601q-83 0 -137 38q-28 -20 -62.5 -29t-74.5 -9h-297q-48 0 -88.5 13.5t-69.5 41t-45.5 69.5t-16.5 98v265zM621 479q0 18 -6 29t-15.5 16.5t-21 7.5
t-21.5 2h-277q-10 0 -21.5 -2t-21 -7.5t-15.5 -16.5t-6 -29v-249q0 -18 6 -29t15.5 -16.5t21 -7.5t21.5 -2h277q10 0 21 1.5t20 7t15.5 15.5t7.5 27v253z" />
    <glyph glyph-name="Racute" unicode="&#x154;" horiz-adv-x="837" 
d="M528 0q-48 0 -88.5 13.5t-69.5 41t-45.5 69.5t-16.5 98q0 55 16.5 96.5t45.5 69t69.5 41t88.5 13.5h40q6 0 15.5 1.5t18 6.5t14.5 14t6 25q0 14 -6 23t-14.5 14t-18 6.5t-15.5 1.5h-288q-10 0 -21.5 -2t-21 -7.5t-15.5 -16.5t-6 -29v-479h-166v487q0 56 16.5 98
t45.5 69.5t69.5 41t88.5 13.5h298q48 0 88.5 -13.5t69.5 -41t45.5 -69.5t16.5 -98t-16.5 -97.5t-45.5 -68.5t-69.5 -40.5t-88.5 -13.5h-30q-19 0 -39.5 -8t-24.5 -38q4 -30 24.5 -38t39.5 -8h241v-175h-251zM380 941h136l-80 -191h-116z" />
    <glyph glyph-name="racute" unicode="&#x155;" horiz-adv-x="734" 
d="M216 0h-166v487q0 56 16.5 98t45.5 69.5t69.5 41t88.5 13.5h439v-175h-429q-10 0 -21.5 -2t-21 -7.5t-15.5 -16.5t-6 -29v-479zM425 941h136l-80 -191h-116z" />
    <glyph glyph-name="Rcommaaccent" unicode="&#x156;" horiz-adv-x="837" 
d="M528 0q-48 0 -88.5 13.5t-69.5 41t-45.5 69.5t-16.5 98q0 55 16.5 96.5t45.5 69t69.5 41t88.5 13.5h40q6 0 15.5 1.5t18 6.5t14.5 14t6 25q0 14 -6 23t-14.5 14t-18 6.5t-15.5 1.5h-288q-10 0 -21.5 -2t-21 -7.5t-15.5 -16.5t-6 -29v-479h-166v487q0 56 16.5 98
t45.5 69.5t69.5 41t88.5 13.5h298q48 0 88.5 -13.5t69.5 -41t45.5 -69.5t16.5 -98t-16.5 -97.5t-45.5 -68.5t-69.5 -40.5t-88.5 -13.5h-30q-19 0 -39.5 -8t-24.5 -38q4 -30 24.5 -38t39.5 -8h241v-175h-251zM229 -326v275h166v-275h-166z" />
    <glyph glyph-name="rcommaaccent" unicode="&#x157;" horiz-adv-x="737" 
d="M219 0h-166v487q0 56 16.5 98t45.5 69.5t69.5 41t88.5 13.5h439v-175h-429q-10 0 -21.5 -2t-21 -7.5t-15.5 -16.5t-6 -29v-479zM50 -323v275h166v-275h-166z" />
    <glyph glyph-name="Rcaron" unicode="&#x158;" horiz-adv-x="837" 
d="M528 0q-48 0 -88.5 13.5t-69.5 41t-45.5 69.5t-16.5 98q0 55 16.5 96.5t45.5 69t69.5 41t88.5 13.5h40q6 0 15.5 1.5t18 6.5t14.5 14t6 25q0 14 -6 23t-14.5 14t-18 6.5t-15.5 1.5h-288q-10 0 -21.5 -2t-21 -7.5t-15.5 -16.5t-6 -29v-479h-166v487q0 56 16.5 98
t45.5 69.5t69.5 41t88.5 13.5h298q48 0 88.5 -13.5t69.5 -41t45.5 -69.5t16.5 -98t-16.5 -97.5t-45.5 -68.5t-69.5 -40.5t-88.5 -13.5h-30q-19 0 -39.5 -8t-24.5 -38q4 -30 24.5 -38t39.5 -8h241v-175h-251zM410 749q-33 0 -57 10.5t-41.5 30t-30.5 48.5t-25 66l-12 37h117
l11 -52q7 -25 18.5 -32t25.5 -7h5q14 0 26.5 7t18.5 32l13 52h114l-12 -40q-11 -38 -24 -66t-30 -47.5t-41 -29t-57 -9.5h-19z" />
    <glyph glyph-name="rcaron" unicode="&#x159;" horiz-adv-x="734" 
d="M216 0h-166v487q0 56 16.5 98t45.5 69.5t69.5 41t88.5 13.5h439v-175h-429q-10 0 -21.5 -2t-21 -7.5t-15.5 -16.5t-6 -29v-479zM434 749q-33 0 -57 10.5t-41.5 30t-30.5 48.5t-25 66l-12 37h117l11 -52q7 -25 18.5 -32t25.5 -7h5q14 0 26.5 7t18.5 32l13 52h114l-12 -40
q-11 -38 -24 -66t-30 -47.5t-41 -29t-57 -9.5h-19z" />
    <glyph glyph-name="Sacute" unicode="&#x15a;" horiz-adv-x="817" 
d="M602 220q0 16 -6 25t-14.5 14t-18 6.5t-15.5 1.5h-278q-48 0 -88.5 13.5t-69.5 40.5t-45.5 68.5t-16.5 97.5t16.5 98t45.5 69.5t69.5 41t88.5 13.5h467v-175h-467q-6 0 -15.5 -1.5t-18 -6.5t-14.5 -14t-6 -23q0 -16 6 -25t14.5 -14t18 -6.5t15.5 -1.5h278
q48 0 88.5 -13.5t69.5 -40.5t45.5 -68.5t16.5 -97.5t-16.5 -98t-45.5 -69.5t-69.5 -41t-88.5 -13.5h-478v175h478q6 0 15.5 1.5t18 6.5t14.5 14t6 23zM370 941h136l-80 -191h-116z" />
    <glyph glyph-name="sacute" unicode="&#x15b;" horiz-adv-x="817" 
d="M602 220q0 16 -6 25t-14.5 14t-18 6.5t-15.5 1.5h-278q-48 0 -88.5 13.5t-69.5 40.5t-45.5 68.5t-16.5 97.5t16.5 98t45.5 69.5t69.5 41t88.5 13.5h467v-175h-467q-6 0 -15.5 -1.5t-18 -6.5t-14.5 -14t-6 -23q0 -16 6 -25t14.5 -14t18 -6.5t15.5 -1.5h278
q48 0 88.5 -13.5t69.5 -40.5t45.5 -68.5t16.5 -97.5t-16.5 -98t-45.5 -69.5t-69.5 -41t-88.5 -13.5h-478v175h478q6 0 15.5 1.5t18 6.5t14.5 14t6 23zM370 941h136l-80 -191h-116z" />
    <glyph glyph-name="Scircumflex" unicode="&#x15c;" horiz-adv-x="817" 
d="M602 220q0 16 -6 25t-14.5 14t-18 6.5t-15.5 1.5h-278q-48 0 -88.5 13.5t-69.5 40.5t-45.5 68.5t-16.5 97.5t16.5 98t45.5 69.5t69.5 41t88.5 13.5h467v-175h-467q-6 0 -15.5 -1.5t-18 -6.5t-14.5 -14t-6 -23q0 -16 6 -25t14.5 -14t18 -6.5t15.5 -1.5h278
q48 0 88.5 -13.5t69.5 -40.5t45.5 -68.5t16.5 -97.5t-16.5 -98t-45.5 -69.5t-69.5 -41t-88.5 -13.5h-478v175h478q6 0 15.5 1.5t18 6.5t14.5 14t6 23zM430 941q33 0 57 -10.5t41.5 -30t30.5 -48.5t25 -66l12 -37h-117l-11 52q-7 25 -18.5 32t-25.5 7h-5q-14 0 -26.5 -7
t-18.5 -32l-13 -52h-114l12 40q11 37 24 65.5t30 48t41 29t57 9.5h19z" />
    <glyph glyph-name="scircumflex" unicode="&#x15d;" horiz-adv-x="817" 
d="M602 220q0 16 -6 25t-14.5 14t-18 6.5t-15.5 1.5h-278q-48 0 -88.5 13.5t-69.5 40.5t-45.5 68.5t-16.5 97.5t16.5 98t45.5 69.5t69.5 41t88.5 13.5h467v-175h-467q-6 0 -15.5 -1.5t-18 -6.5t-14.5 -14t-6 -23q0 -16 6 -25t14.5 -14t18 -6.5t15.5 -1.5h278
q48 0 88.5 -13.5t69.5 -40.5t45.5 -68.5t16.5 -97.5t-16.5 -98t-45.5 -69.5t-69.5 -41t-88.5 -13.5h-478v175h478q6 0 15.5 1.5t18 6.5t14.5 14t6 23zM417 941q33 0 57 -10.5t41.5 -30t30.5 -48.5t25 -66l12 -37h-117l-11 52q-7 25 -18.5 32t-25.5 7h-5q-14 0 -26.5 -7
t-18.5 -32l-13 -52h-114l12 40q11 37 24 65.5t30 48t41 29t57 9.5h19z" />
    <glyph glyph-name="Scedilla" unicode="&#x15e;" horiz-adv-x="817" 
d="M325 -100v100h-255v175h478q6 0 15.5 1.5t18 6.5t14.5 14t6 23q0 16 -6 25t-14.5 14t-18 6.5t-15.5 1.5h-278q-48 0 -88.5 13.5t-69.5 40.5t-45.5 68.5t-16.5 97.5t16.5 98t45.5 69.5t69.5 41t88.5 13.5h467v-175h-467q-6 0 -15.5 -1.5t-18 -6.5t-14.5 -14t-6 -23
q0 -16 6 -25t14.5 -14t18 -6.5t15.5 -1.5h278q48 0 88.5 -13.5t69.5 -40.5t45.5 -68.5t16.5 -97.5t-16.5 -98t-45.5 -69.5t-69.5 -41t-88.5 -13.5h-57v-100h-166z" />
    <glyph glyph-name="scedilla" unicode="&#x15f;" horiz-adv-x="817" 
d="M325 -100v100h-255v175h478q6 0 15.5 1.5t18 6.5t14.5 14t6 23q0 16 -6 25t-14.5 14t-18 6.5t-15.5 1.5h-278q-48 0 -88.5 13.5t-69.5 40.5t-45.5 68.5t-16.5 97.5t16.5 98t45.5 69.5t69.5 41t88.5 13.5h467v-175h-467q-6 0 -15.5 -1.5t-18 -6.5t-14.5 -14t-6 -23
q0 -16 6 -25t14.5 -14t18 -6.5t15.5 -1.5h278q48 0 88.5 -13.5t69.5 -40.5t45.5 -68.5t16.5 -97.5t-16.5 -98t-45.5 -69.5t-69.5 -41t-88.5 -13.5h-57v-100h-166z" />
    <glyph glyph-name="Scaron" unicode="&#x160;" horiz-adv-x="817" 
d="M602 220q0 16 -6 25t-14.5 14t-18 6.5t-15.5 1.5h-278q-48 0 -88.5 13.5t-69.5 40.5t-45.5 68.5t-16.5 97.5t16.5 98t45.5 69.5t69.5 41t88.5 13.5h467v-175h-467q-6 0 -15.5 -1.5t-18 -6.5t-14.5 -14t-6 -23q0 -16 6 -25t14.5 -14t18 -6.5t15.5 -1.5h278
q48 0 88.5 -13.5t69.5 -40.5t45.5 -68.5t16.5 -97.5t-16.5 -98t-45.5 -69.5t-69.5 -41t-88.5 -13.5h-478v175h478q6 0 15.5 1.5t18 6.5t14.5 14t6 23zM400 749q-33 0 -57 10.5t-41.5 30t-30.5 48.5t-25 66l-12 37h117l11 -52q7 -25 18.5 -32t25.5 -7h5q14 0 26.5 7t18.5 32
l13 52h114l-12 -40q-11 -38 -24 -66t-30 -47.5t-41 -29t-57 -9.5h-19z" />
    <glyph glyph-name="scaron" unicode="&#x161;" horiz-adv-x="817" 
d="M602 220q0 16 -6 25t-14.5 14t-18 6.5t-15.5 1.5h-278q-48 0 -88.5 13.5t-69.5 40.5t-45.5 68.5t-16.5 97.5t16.5 98t45.5 69.5t69.5 41t88.5 13.5h467v-175h-467q-6 0 -15.5 -1.5t-18 -6.5t-14.5 -14t-6 -23q0 -16 6 -25t14.5 -14t18 -6.5t15.5 -1.5h278
q48 0 88.5 -13.5t69.5 -40.5t45.5 -68.5t16.5 -97.5t-16.5 -98t-45.5 -69.5t-69.5 -41t-88.5 -13.5h-478v175h478q6 0 15.5 1.5t18 6.5t14.5 14t6 23zM400 749q-33 0 -57 10.5t-41.5 30t-30.5 48.5t-25 66l-12 37h117l11 -52q7 -25 18.5 -32t25.5 -7h5q14 0 26.5 7t18.5 32
l13 52h114l-12 -40q-11 -38 -24 -66t-30 -47.5t-41 -29t-57 -9.5h-19z" />
    <glyph glyph-name="Tcommaaccent" unicode="&#x162;" horiz-adv-x="766" 
d="M301 0v534h-251v175h667v-175h-250v-534h-166zM300 -336v275h166v-275h-166z" />
    <glyph glyph-name="tcommaaccent" unicode="&#x163;" horiz-adv-x="758" 
d="M216 230q0 -18 6 -29t15.5 -16.5t21 -7.5t21.5 -2h429v-175h-439q-48 0 -88.5 13.5t-69.5 41t-45.5 69.5t-16.5 98v628h166v-620zM308 709h381v-175h-381v175zM358 -321v275h166v-275h-166z" />
    <glyph glyph-name="Tcaron" unicode="&#x164;" horiz-adv-x="766" 
d="M301 0v534h-251v175h667v-175h-250v-534h-166zM374 749q-33 0 -57 10.5t-41.5 30t-30.5 48.5t-25 66l-12 37h117l11 -52q7 -25 18.5 -32t25.5 -7h5q14 0 26.5 7t18.5 32l13 52h114l-12 -40q-11 -38 -24 -66t-30 -47.5t-41 -29t-57 -9.5h-19z" />
    <glyph glyph-name="tcaron" unicode="&#x165;" horiz-adv-x="758" 
d="M216 230q0 -18 6 -29t15.5 -16.5t21 -7.5t21.5 -2h429v-175h-439q-48 0 -88.5 13.5t-69.5 41t-45.5 69.5t-16.5 98v628h166v-620zM308 709h381v-175h-381v175zM727 748v275h166v-275h-166z" />
    <glyph glyph-name="Tbar" unicode="&#x166;" horiz-adv-x="766" 
d="M170 419h131v115h-251v175h667v-175h-250v-115h128v-76h-128v-343h-166v343h-131v76z" />
    <glyph glyph-name="tbar" unicode="&#x167;" horiz-adv-x="758" 
d="M216 442h315v-76h-315v-136q0 -18 6 -29t15.5 -16.5t21 -7.5t21.5 -2h429v-175h-439q-48 0 -88.5 13.5t-69.5 41t-45.5 69.5t-16.5 98v144h-50v76h50v408h166v-408zM308 709h381v-175h-381v175z" />
    <glyph glyph-name="Utilde" unicode="&#x168;" 
d="M270 0q-48 0 -88.5 13.5t-69.5 41t-45.5 69.5t-16.5 98v487h166v-479q0 -18 6 -29t15.5 -16.5t21 -7.5t21.5 -2h277q10 0 21.5 2t21 7.5t15.5 16.5t6 29v479h166v-487q0 -56 -16.5 -98t-45.5 -69.5t-69.5 -41t-88.5 -13.5h-297zM207 765v21q0 34 9.5 62.5t29 49t49 32
t69.5 11.5l101 -56q13 0 20.5 4.5t11.5 11t5.5 14.5t1.5 15v11h124v-18q0 -68 -39 -111.5t-118 -43.5q-13 7 -29 16.5t-31 18.5t-26.5 15t-14.5 6q-13 0 -20.5 -4.5t-11.5 -11t-5.5 -14.5t-1.5 -15v-14h-124z" />
    <glyph glyph-name="utilde" unicode="&#x169;" 
d="M270 0q-48 0 -88.5 13.5t-69.5 41t-45.5 69.5t-16.5 98v487h166v-479q0 -18 6 -29t15.5 -16.5t21 -7.5t21.5 -2h277q10 0 21.5 2t21 7.5t15.5 16.5t6 29v479h166v-487q0 -56 -16.5 -98t-45.5 -69.5t-69.5 -41t-88.5 -13.5h-297zM207 765v21q0 34 9.5 62.5t29 49t49 32
t69.5 11.5l101 -56q13 0 20.5 4.5t11.5 11t5.5 14.5t1.5 15v11h124v-18q0 -68 -39 -111.5t-118 -43.5q-13 7 -29 16.5t-31 18.5t-26.5 15t-14.5 6q-13 0 -20.5 -4.5t-11.5 -11t-5.5 -14.5t-1.5 -15v-14h-124z" />
    <glyph glyph-name="Umacron" unicode="&#x16a;" 
d="M270 0q-48 0 -88.5 13.5t-69.5 41t-45.5 69.5t-16.5 98v487h166v-479q0 -18 6 -29t15.5 -16.5t21 -7.5t21.5 -2h277q10 0 21.5 2t21 7.5t15.5 16.5t6 29v479h166v-487q0 -56 -16.5 -98t-45.5 -69.5t-69.5 -41t-88.5 -13.5h-297zM265 912h305v-136h-305v136z" />
    <glyph glyph-name="umacron" unicode="&#x16b;" 
d="M270 0q-48 0 -88.5 13.5t-69.5 41t-45.5 69.5t-16.5 98v487h166v-479q0 -18 6 -29t15.5 -16.5t21 -7.5t21.5 -2h277q10 0 21.5 2t21 7.5t15.5 16.5t6 29v479h166v-487q0 -56 -16.5 -98t-45.5 -69.5t-69.5 -41t-88.5 -13.5h-297zM265 912h305v-136h-305v136z" />
    <glyph glyph-name="Ubreve" unicode="&#x16c;" 
d="M270 0q-48 0 -88.5 13.5t-69.5 41t-45.5 69.5t-16.5 98v487h166v-479q0 -18 6 -29t15.5 -16.5t21 -7.5t21.5 -2h277q10 0 21.5 2t21 7.5t15.5 16.5t6 29v479h166v-487q0 -56 -16.5 -98t-45.5 -69.5t-69.5 -41t-88.5 -13.5h-297zM472 885h94v-11q0 -64 -35 -95t-90 -31
h-48q-54 0 -89 31t-35 95v11h94v-7q0 -20 12.5 -25.5t23.5 -5.5h37q11 0 23.5 5.5t12.5 25.5v7z" />
    <glyph glyph-name="ubreve" unicode="&#x16d;" 
d="M270 0q-48 0 -88.5 13.5t-69.5 41t-45.5 69.5t-16.5 98v487h166v-479q0 -18 6 -29t15.5 -16.5t21 -7.5t21.5 -2h277q10 0 21.5 2t21 7.5t15.5 16.5t6 29v479h166v-487q0 -56 -16.5 -98t-45.5 -69.5t-69.5 -41t-88.5 -13.5h-297zM472 885h94v-11q0 -64 -35 -95t-90 -31
h-48q-54 0 -89 31t-35 95v11h94v-7q0 -20 12.5 -25.5t23.5 -5.5h37q11 0 23.5 5.5t12.5 25.5v7z" />
    <glyph glyph-name="Uring" unicode="&#x16e;" 
d="M270 0q-48 0 -88.5 13.5t-69.5 41t-45.5 69.5t-16.5 98v487h166v-479q0 -18 6 -29t15.5 -16.5t21 -7.5t21.5 -2h277q10 0 21.5 2t21 7.5t15.5 16.5t6 29v479h166v-487q0 -56 -16.5 -98t-45.5 -69.5t-69.5 -41t-88.5 -13.5h-297zM279 893q0 64 35 95t89 31h28q55 0 90 -31
t35 -95v-19q0 -64 -35 -95t-90 -31h-28q-54 0 -89 31t-35 95v19zM462 889q0 20 -12.5 25.5t-23.5 5.5h-17q-11 0 -23.5 -5.5t-12.5 -25.5v-11q0 -20 12.5 -25.5t23.5 -5.5h17q11 0 23.5 5.5t12.5 25.5v11z" />
    <glyph glyph-name="uring" unicode="&#x16f;" 
d="M270 0q-48 0 -88.5 13.5t-69.5 41t-45.5 69.5t-16.5 98v487h166v-479q0 -18 6 -29t15.5 -16.5t21 -7.5t21.5 -2h277q10 0 21.5 2t21 7.5t15.5 16.5t6 29v479h166v-487q0 -56 -16.5 -98t-45.5 -69.5t-69.5 -41t-88.5 -13.5h-297zM279 893q0 64 35 95t89 31h28q55 0 90 -31
t35 -95v-19q0 -64 -35 -95t-90 -31h-28q-54 0 -89 31t-35 95v19zM462 889q0 20 -12.5 25.5t-23.5 5.5h-17q-11 0 -23.5 -5.5t-12.5 -25.5v-11q0 -20 12.5 -25.5t23.5 -5.5h17q11 0 23.5 5.5t12.5 25.5v11z" />
    <glyph glyph-name="Uhungarumlaut" unicode="&#x170;" 
d="M270 0q-48 0 -88.5 13.5t-69.5 41t-45.5 69.5t-16.5 98v487h166v-479q0 -18 6 -29t15.5 -16.5t21 -7.5t21.5 -2h277q10 0 21.5 2t21 7.5t15.5 16.5t6 29v479h166v-487q0 -56 -16.5 -98t-45.5 -69.5t-69.5 -41t-88.5 -13.5h-297zM325 941h136l-90 -191h-106zM515 941h136
l-90 -191h-106z" />
    <glyph glyph-name="uhungarumlaut" unicode="&#x171;" 
d="M270 0q-48 0 -88.5 13.5t-69.5 41t-45.5 69.5t-16.5 98v487h166v-479q0 -18 6 -29t15.5 -16.5t21 -7.5t21.5 -2h277q10 0 21.5 2t21 7.5t15.5 16.5t6 29v479h166v-487q0 -56 -16.5 -98t-45.5 -69.5t-69.5 -41t-88.5 -13.5h-297zM325 941h136l-90 -191h-106zM515 941h136
l-90 -191h-106z" />
    <glyph glyph-name="Uogonek" unicode="&#x172;" 
d="M270 0q-48 0 -88.5 13.5t-69.5 41t-45.5 69.5t-16.5 98v487h166v-479q0 -18 6 -29t15.5 -16.5t21 -7.5t21.5 -2h277q10 0 21.5 2t21 7.5t15.5 16.5t6 29v479h166v-487q0 -104 -57.5 -159.5t-171.5 -69.5q-25 -7 -32 -18.5t-7 -25.5v-5q0 -14 7 -26t32 -19l107 -28v-114
l-115 27q-77 18 -114.5 51.5t-37.5 100.5q0 39 13 64h-141v0z" />
    <glyph glyph-name="uogonek" unicode="&#x173;" 
d="M270 0q-48 0 -88.5 13.5t-69.5 41t-45.5 69.5t-16.5 98v487h166v-479q0 -18 6 -29t15.5 -16.5t21 -7.5t21.5 -2h277q10 0 21.5 2t21 7.5t15.5 16.5t6 29v479h166v-487q0 -104 -57.5 -159.5t-171.5 -69.5q-25 -7 -32 -18.5t-7 -25.5v-5q0 -14 7 -26t32 -19l107 -28v-114
l-115 27q-77 18 -114.5 51.5t-37.5 100.5q0 39 13 64h-141v0z" />
    <glyph glyph-name="Ydieresis" unicode="&#x178;" horiz-adv-x="826" 
d="M270 215q-48 0 -88.5 13.5t-69.5 41t-45.5 69.5t-16.5 98v272h166v-264q0 -18 6 -29t15.5 -16.5t21 -7.5t21.5 -2h267q10 0 21.5 2t21 7.5t15.5 16.5t6 29v264h166v-272q0 -56 -16.5 -98t-45.5 -69.5t-69.5 -41t-88.5 -13.5h-54v-215h-166v215h-67zM254 750v132h125v-132
h-125zM447 750v132h125v-132h-125z" />
    <glyph glyph-name="Zacute" unicode="&#x179;" horiz-adv-x="784" 
d="M50 0v69l383 465h-373v175h675v-72l-391 -462h381v-175h-675zM354 941h136l-80 -191h-116z" />
    <glyph glyph-name="zacute" unicode="&#x17a;" horiz-adv-x="784" 
d="M50 0v69l383 465h-373v175h675v-72l-391 -462h381v-175h-675zM354 941h136l-80 -191h-116z" />
    <glyph glyph-name="Zdotaccent" unicode="&#x17b;" horiz-adv-x="784" 
d="M50 0v69l383 465h-373v175h675v-72l-391 -462h381v-175h-675zM329 750v132h125v-132h-125z" />
    <glyph glyph-name="zdotaccent" unicode="&#x17c;" horiz-adv-x="784" 
d="M50 0v69l383 465h-373v175h675v-72l-391 -462h381v-175h-675zM329 750v132h125v-132h-125z" />
    <glyph glyph-name="Zcaron" unicode="&#x17d;" horiz-adv-x="784" 
d="M50 0v69l383 465h-373v175h675v-72l-391 -462h381v-175h-675zM383 749q-33 0 -57 10.5t-41.5 30t-30.5 48.5t-25 66l-12 37h117l11 -52q7 -25 18.5 -32t25.5 -7h5q14 0 26.5 7t18.5 32l13 52h114l-12 -40q-11 -38 -24 -66t-30 -47.5t-41 -29t-57 -9.5h-19z" />
    <glyph glyph-name="zcaron" unicode="&#x17e;" horiz-adv-x="784" 
d="M50 0v69l383 465h-373v175h675v-72l-391 -462h381v-175h-675zM383 749q-33 0 -57 10.5t-41.5 30t-30.5 48.5t-25 66l-12 37h117l11 -52q7 -25 18.5 -32t25.5 -7h5q14 0 26.5 7t18.5 32l13 52h114l-12 -40q-11 -38 -24 -66t-30 -47.5t-41 -29t-57 -9.5h-19z" />
    <glyph glyph-name="florin" unicode="&#x192;" horiz-adv-x="758" 
d="M50 487q0 56 16.5 98t45.5 69.5t69.5 41t88.5 13.5h439v-175h-429q-10 0 -21.5 -2t-21 -7.5t-15.5 -16.5t-6 -29v-499q0 -56 -16.5 -98t-45.5 -69.5t-69.5 -41t-88.5 -13.5h-107v175h97q10 0 21.5 2t21 7.5t15.5 16.5t6 29v499zM308 175h381v-175h-381v175z" />
    <glyph glyph-name="Ohorn" unicode="&#x1a0;" 
d="M919 716q0 -62 -28 -98.5t-89 -36.5q-17 0 -36 3q14 -30 17.5 -55t3.5 -42v-265q0 -56 -16.5 -98t-45.5 -69.5t-69.5 -41t-88.5 -13.5h-297q-48 0 -88.5 13.5t-69.5 41t-45.5 69.5t-16.5 98v265q0 56 16.5 98t45.5 69.5t69.5 41t88.5 13.5h297q44 0 81.5 -11.5
t66.5 -34.5l36 9q29 8 37.5 22.5t8.5 31.5v6q0 17 -8.5 31t-37.5 22l-63 13v141l45 -14q45 -15 79.5 -30.5t58 -37t36 -50t12.5 -68.5v-23zM621 479q0 18 -6 29t-15.5 16.5t-21 7.5t-21.5 2h-277q-10 0 -21.5 -2t-21 -7.5t-15.5 -16.5t-6 -29v-249q0 -18 6 -29t15.5 -16.5
t21 -7.5t21.5 -2h277q10 0 21.5 2t21 7.5t15.5 16.5t6 29v249z" />
    <glyph glyph-name="ohorn" unicode="&#x1a1;" 
d="M919 716q0 -62 -28 -98.5t-89 -36.5q-17 0 -36 3q14 -30 17.5 -55t3.5 -42v-265q0 -56 -16.5 -98t-45.5 -69.5t-69.5 -41t-88.5 -13.5h-297q-48 0 -88.5 13.5t-69.5 41t-45.5 69.5t-16.5 98v265q0 56 16.5 98t45.5 69.5t69.5 41t88.5 13.5h297q44 0 81.5 -11.5
t66.5 -34.5l36 9q29 8 37.5 22.5t8.5 31.5v6q0 17 -8.5 31t-37.5 22l-63 13v141l45 -14q45 -15 79.5 -30.5t58 -37t36 -50t12.5 -68.5v-23zM621 479q0 18 -6 29t-15.5 16.5t-21 7.5t-21.5 2h-277q-10 0 -21.5 -2t-21 -7.5t-15.5 -16.5t-6 -29v-249q0 -18 6 -29t15.5 -16.5
t21 -7.5t21.5 -2h277q10 0 21.5 2t21 7.5t15.5 16.5t6 29v249z" />
    <glyph glyph-name="Uhorn" unicode="&#x1af;" 
d="M270 0q-48 0 -88.5 13.5t-69.5 41t-45.5 69.5t-16.5 98v487h166v-479q0 -18 6 -29t15.5 -16.5t21 -7.5t21.5 -2h277q10 0 21.5 2t21 7.5t15.5 16.5t6 29v479h166q20 8 25.5 21t5.5 28v6q0 17 -8.5 31t-37.5 22l-63 13v141l45 -14q45 -15 79.5 -30.5t58 -37t36 -50
t12.5 -68.5v-23q0 -121 -99 -121q-22 0 -54 8v-413q0 -56 -16.5 -98t-45.5 -69.5t-69.5 -41t-88.5 -13.5h-297v0z" />
    <glyph glyph-name="uhorn" unicode="&#x1b0;" 
d="M270 0q-48 0 -88.5 13.5t-69.5 41t-45.5 69.5t-16.5 98v487h166v-479q0 -18 6 -29t15.5 -16.5t21 -7.5t21.5 -2h277q10 0 21.5 2t21 7.5t15.5 16.5t6 29v479h166q20 8 25.5 21t5.5 28v6q0 17 -8.5 31t-37.5 22l-63 13v141l45 -14q45 -15 79.5 -30.5t58 -37t36 -50
t12.5 -68.5v-23q0 -121 -99 -121q-22 0 -54 8v-413q0 -56 -16.5 -98t-45.5 -69.5t-69.5 -41t-88.5 -13.5h-297v0z" />
    <glyph glyph-name="Scommaaccent" unicode="&#x218;" horiz-adv-x="817" 
d="M602 220q0 16 -6 25t-14.5 14t-18 6.5t-15.5 1.5h-278q-48 0 -88.5 13.5t-69.5 40.5t-45.5 68.5t-16.5 97.5t16.5 98t45.5 69.5t69.5 41t88.5 13.5h467v-175h-467q-6 0 -15.5 -1.5t-18 -6.5t-14.5 -14t-6 -23q0 -16 6 -25t14.5 -14t18 -6.5t15.5 -1.5h278
q48 0 88.5 -13.5t69.5 -40.5t45.5 -68.5t16.5 -97.5t-16.5 -98t-45.5 -69.5t-69.5 -41t-88.5 -13.5h-478v175h478q6 0 15.5 1.5t18 6.5t14.5 14t6 23zM325 -326v275h166v-275h-166z" />
    <glyph glyph-name="scommaaccent" unicode="&#x219;" horiz-adv-x="817" 
d="M602 220q0 16 -6 25t-14.5 14t-18 6.5t-15.5 1.5h-278q-48 0 -88.5 13.5t-69.5 40.5t-45.5 68.5t-16.5 97.5t16.5 98t45.5 69.5t69.5 41t88.5 13.5h467v-175h-467q-6 0 -15.5 -1.5t-18 -6.5t-14.5 -14t-6 -23q0 -16 6 -25t14.5 -14t18 -6.5t15.5 -1.5h278
q48 0 88.5 -13.5t69.5 -40.5t45.5 -68.5t16.5 -97.5t-16.5 -98t-45.5 -69.5t-69.5 -41t-88.5 -13.5h-478v175h478q6 0 15.5 1.5t18 6.5t14.5 14t6 23zM325 -326v275h166v-275h-166z" />
    <glyph glyph-name="circumflex" unicode="&#x2c6;" horiz-adv-x="440" 
d="M229 941q33 0 57 -10.5t41.5 -30t30.5 -48.5t25 -66l12 -37h-117l-11 52q-7 25 -18.5 32t-25.5 7h-5q-14 0 -26.5 -7t-18.5 -32l-13 -52h-114l12 40q11 37 24 65.5t30 48t41 29t57 9.5h19v0z" />
    <glyph glyph-name="caron" unicode="&#x2c7;" horiz-adv-x="440" 
d="M211 749q-33 0 -57 10.5t-41.5 30t-30.5 48.5t-25 66l-12 37h117l11 -52q7 -25 18.5 -32t25.5 -7h5q14 0 26.5 7t18.5 32l13 52h114l-12 -40q-11 -38 -24 -66t-30 -47.5t-41 -29t-57 -9.5h-19v0z" />
    <glyph glyph-name="breve" unicode="&#x2d8;" horiz-adv-x="362" 
d="M235 885h94v-11q0 -64 -35 -95t-90 -31h-48q-54 0 -89 31t-35 95v11h94v-7q0 -20 12.5 -25.5t23.5 -5.5h37q11 0 23.5 5.5t12.5 25.5v7z" />
    <glyph glyph-name="dotaccent" unicode="&#x2d9;" horiz-adv-x="418" 
d="M146 750v132h125v-132h-125z" />
    <glyph glyph-name="ring" unicode="&#x2da;" horiz-adv-x="362" 
d="M42 893q0 64 35 95t89 31h28q55 0 90 -31t35 -95v-19q0 -64 -35 -95t-90 -31h-28q-54 0 -89 31t-35 95v19zM225 889q0 20 -12.5 25.5t-23.5 5.5h-17q-11 0 -23.5 -5.5t-12.5 -25.5v-11q0 -20 12.5 -25.5t23.5 -5.5h17q11 0 23.5 5.5t12.5 25.5v11z" />
    <glyph glyph-name="ogonek" unicode="&#x2db;" horiz-adv-x="527" 
d="M329 -64q0 33 10.5 57t30 41.5t48.5 30.5t66 25l37 12v-98l-52 -11q-25 -7 -32 -18.5t-7 -25.5v-5q0 -14 7 -26t32 -19l107 -28v-114l-95 27q-38 11 -66.5 23.5t-47.5 30t-28.5 41.5t-9.5 57z" />
    <glyph glyph-name="tilde" unicode="&#x2dc;" horiz-adv-x="359" 
d="M-111 765v21q0 34 9.5 62.5t29 49t49 32t69.5 11.5l101 -56q13 0 20.5 4.5t11.5 11t5.5 14.5t1.5 15v11h124v-18q0 -68 -39 -111.5t-118 -43.5q-13 7 -29 16.5t-31 18.5t-26.5 15t-14.5 6q-13 0 -20.5 -4.5t-11.5 -11t-5.5 -14.5t-1.5 -15v-14h-124z" />
    <glyph glyph-name="hungarumlaut" unicode="&#x2dd;" horiz-adv-x="455" 
d="M119 941h136l-90 -191h-106zM309 941h136l-90 -191h-106z" />
    <glyph glyph-name="gravecomb" unicode="&#x300;" horiz-adv-x="265" 
d="M226 620h-116l-80 191h136z" />
    <glyph glyph-name="acutecomb" unicode="&#x301;" horiz-adv-x="265" 
d="M119 941h136l-80 -191h-116z" />
    <glyph glyph-name="dotbelowcomb" unicode="&#x323;" horiz-adv-x="265" 
d="M50 -226v175h166v-175h-166z" />
    <glyph glyph-name="tonos" unicode="&#x384;" horiz-adv-x="265" 
d="M119 941h136l-80 -191h-116z" />
    <glyph glyph-name="dieresistonos" unicode="&#x385;" horiz-adv-x="598" 
d="M279 941h136l-80 -191h-116zM50 750v132h125v-132h-125zM423 750v132h125v-132h-125z" />
    <glyph glyph-name="Alphatonos" unicode="&#x386;" horiz-adv-x="877" 
d="M508 709q48 0 82.5 -14.5t60 -42.5t44 -69.5t33.5 -95.5l140 -487h-166l-140 479q-10 35 -27 45t-37 10h-117q-20 0 -37 -10t-27 -45l-140 -479h-166l140 487q15 54 33.5 95.5t44 69.5t60 42.5t82.5 14.5h137zM353 341h165l40 -166h-245zM49 804h136l-80 -191h-116z" />
    <glyph glyph-name="Epsilontonos" unicode="&#x388;" horiz-adv-x="768" 
d="M216 230q0 -18 6 -29t15.5 -16.5t21 -7.5t21.5 -2h439v-175h-449q-48 0 -88.5 13.5t-69.5 41t-45.5 69.5t-16.5 98v265q0 56 16.5 98t45.5 69.5t69.5 41t88.5 13.5h449v-175h-439q-10 0 -21.5 -2t-21 -7.5t-15.5 -16.5t-6 -29v-249zM308 442h401v-175h-401v175zM-36 804
h136l-80 -191h-116z" />
    <glyph glyph-name="Etatonos" unicode="&#x389;" horiz-adv-x="925" 
d="M135 0v709h166v-267h409v267h166v-709h-166v267h-409v-267h-166zM-30 806h136l-80 -191h-116z" />
    <glyph glyph-name="Iotatonos" unicode="&#x38a;" horiz-adv-x="535" 
d="M119 0v175h100v359h-100v175h367v-175h-101v-359h101v-175h-367zM-33 804h136l-80 -191h-116z" />
    <glyph glyph-name="Omicrontonos" unicode="&#x38c;" 
d="M50 487q0 56 16.5 98t45.5 69.5t69.5 41t88.5 13.5h297q48 0 88.5 -13.5t69.5 -41t45.5 -69.5t16.5 -98v-265q0 -56 -16.5 -98t-45.5 -69.5t-69.5 -41t-88.5 -13.5h-297q-48 0 -88.5 13.5t-69.5 41t-45.5 69.5t-16.5 98v265zM621 479q0 18 -6 29t-15.5 16.5t-21 7.5
t-21.5 2h-277q-10 0 -21.5 -2t-21 -7.5t-15.5 -16.5t-6 -29v-249q0 -18 6 -29t15.5 -16.5t21 -7.5t21.5 -2h277q10 0 21.5 2t21 7.5t15.5 16.5t6 29v249zM-36 803h136l-80 -191h-116z" />
    <glyph glyph-name="Upsilontonos" unicode="&#x38e;" horiz-adv-x="858" 
d="M771 442q-15 -52 -32.5 -92.5t-41.5 -68.5t-56 -43.5t-76 -17.5v-220h-166v220q-44 2 -76 17.5t-56 44t-41 68.5t-32 92l-77 267h167l76 -259q10 -35 27 -45t37 -10h117q20 0 37 10t27 45l75 259h168zM-34 803h136l-80 -191h-116z" />
    <glyph glyph-name="Omegatonos" unicode="&#x38f;" horiz-adv-x="1067" 
d="M729 220q0 -14 6 -23t14.5 -14t18 -6.5t15.5 -1.5h198v-175h-198q-48 0 -88.5 13.5t-69.5 41t-45.5 69.5t-16.5 98t16.5 97.5t45.5 68.5t69.5 40.5t88.5 13.5h15q14 0 24 1t17 6t10 15.5t3 29.5q0 28 -13 34t-41 6h-528q-28 0 -41 -6t-13 -34q0 -19 3 -29.5t10 -15.5
t17 -6t24 -1h15q48 0 88.5 -13.5t69.5 -40.5t45.5 -68.5t16.5 -97.5t-16.5 -98t-45.5 -69.5t-69.5 -41t-88.5 -13.5h-198v175h198q6 0 15.5 1.5t18 6.5t14.5 14t6 23q0 16 -6 25t-14.5 14t-18 6.5t-15.5 1.5h-15q-112 0 -166 52.5t-54 172.5q0 119 54.5 168t165.5 49h528
q111 0 165.5 -49t54.5 -168q0 -120 -54 -172.5t-166 -52.5h-15q-6 0 -15.5 -1.5t-18 -6.5t-14.5 -14t-6 -25zM-38 804h136l-80 -191h-116z" />
    <glyph glyph-name="iotadieresistonos" unicode="&#x390;" horiz-adv-x="400" 
d="M216 230q0 -18 6 -29t15.5 -16.5t21 -7.5t21.5 -2h97v-175h-107q-48 0 -88.5 13.5t-69.5 41t-45.5 69.5t-16.5 98v487h166v-479zM139 941h136l-80 -191h-116zM-90 750v132h125v-132h-125zM283 750v132h125v-132h-125z" />
    <glyph glyph-name="Alpha" unicode="&#x391;" horiz-adv-x="877" 
d="M508 709q48 0 82.5 -14.5t60 -42.5t44 -69.5t33.5 -95.5l140 -487h-166l-140 479q-10 35 -27 45t-37 10h-117q-20 0 -37 -10t-27 -45l-140 -479h-166l140 487q15 54 33.5 95.5t44 69.5t60 42.5t82.5 14.5h137zM353 341h165l40 -166h-245z" />
    <glyph glyph-name="Beta" unicode="&#x392;" horiz-adv-x="935" 
d="M280 534q-10 0 -21.5 -2t-21 -7.5t-15.5 -16.5t-6 -29v-479h-166v487q0 56 16.5 98t45.5 69.5t69.5 41t88.5 13.5h396q48 0 88.5 -13.5t69.5 -41t45.5 -69.5t16.5 -98q0 -42 -10.5 -74.5t-33.5 -58.5q23 -26 33.5 -58.5t10.5 -73.5q0 -56 -16.5 -98t-45.5 -69.5
t-69.5 -41t-88.5 -13.5h-355v175h355q6 0 15.5 1.5t18 6.5t14.5 14t6 23q0 16 -6 25t-14.5 14t-18 6.5t-15.5 1.5h-355v175h360q7 0 15.5 2t16 7t12.5 14.5t5 23.5t-6 23t-14.5 14t-18 6.5t-15.5 1.5h-386v0z" />
    <glyph glyph-name="Gamma" unicode="&#x393;" horiz-adv-x="734" 
d="M216 0h-166v487q0 56 16.5 98t45.5 69.5t69.5 41t88.5 13.5h439v-175h-429q-10 0 -21.5 -2t-21 -7.5t-15.5 -16.5t-6 -29v-479z" />
    <glyph glyph-name="Delta" unicode="&#x394;" horiz-adv-x="877" 
d="M151 487q15 54 33.5 95.5t44 69.5t60 42.5t82.5 14.5h137q48 0 82.5 -14.5t60 -42.5t44 -69.5t33.5 -95.5l140 -487h-857zM225 166h428l-91 313q-10 35 -27 45t-37 10h-117q-20 0 -37 -10t-27 -45z" />
    <glyph glyph-name="Epsilon" unicode="&#x395;" horiz-adv-x="768" 
d="M216 230q0 -18 6 -29t15.5 -16.5t21 -7.5t21.5 -2h439v-175h-449q-48 0 -88.5 13.5t-69.5 41t-45.5 69.5t-16.5 98v265q0 56 16.5 98t45.5 69.5t69.5 41t88.5 13.5h449v-175h-439q-10 0 -21.5 -2t-21 -7.5t-15.5 -16.5t-6 -29v-249zM308 442h401v-175h-401v175z" />
    <glyph glyph-name="Zeta" unicode="&#x396;" horiz-adv-x="784" 
d="M50 0v69l383 465h-373v175h675v-72l-391 -462h381v-175h-675z" />
    <glyph glyph-name="Eta" unicode="&#x397;" horiz-adv-x="840" 
d="M50 0v709h166v-267h409v267h166v-709h-166v267h-409v-267h-166z" />
    <glyph glyph-name="Theta" unicode="&#x398;" 
d="M50 487q0 56 16.5 98t45.5 69.5t69.5 41t88.5 13.5h297q48 0 88.5 -13.5t69.5 -41t45.5 -69.5t16.5 -98v-265q0 -56 -16.5 -98t-45.5 -69.5t-69.5 -41t-88.5 -13.5h-297q-48 0 -88.5 13.5t-69.5 41t-45.5 69.5t-16.5 98v265zM621 479q0 18 -6 29t-15.5 16.5t-21 7.5
t-21.5 2h-277q-10 0 -21.5 -2t-21 -7.5t-15.5 -16.5t-6 -29v-249q0 -18 6 -29t15.5 -16.5t21 -7.5t21.5 -2h277q10 0 21.5 2t21 7.5t15.5 16.5t6 29v249zM336 267v175h166v-175h-166z" />
    <glyph glyph-name="Iota" unicode="&#x399;" horiz-adv-x="466" 
d="M50 0v175h100v359h-100v175h367v-175h-101v-359h101v-175h-367z" />
    <glyph glyph-name="Kappa" unicode="&#x39a;" horiz-adv-x="761" 
d="M50 0v709h166v-267h201q22 0 41.5 9t27.5 38q3 12 11 39.5t17 60t17.5 65.5t13.5 55h167l-60 -222q-5 -20 -11.5 -37t-16.5 -33t-23.5 -31.5t-32.5 -31.5q38 -24 55.5 -58.5t28.5 -73.5l60 -222h-167q0 1 -4 17.5t-10.5 40.5t-14 52t-14.5 52t-11.5 40.5t-4.5 17.5
q-5 16 -13.5 25t-18.5 14t-21 6.5t-21 1.5h-196v-267h-166z" />
    <glyph glyph-name="Lambda" unicode="&#x39b;" horiz-adv-x="877" 
d="M508 709q48 0 82.5 -14.5t60 -42.5t44 -69.5t33.5 -95.5l140 -487h-166l-140 479q-10 35 -27 45t-37 10h-117q-20 0 -37 -10t-27 -45l-140 -479h-166l140 487q15 54 33.5 95.5t44 69.5t60 42.5t82.5 14.5h137v0z" />
    <glyph glyph-name="Mu" unicode="&#x39c;" horiz-adv-x="1075" 
d="M275 553q-14 0 -23.5 -6t-15.5 -14.5t-8.5 -18t-2.5 -15.5v-499h-175v499q0 48 13.5 88.5t41 69.5t69.5 45.5t98 16.5t97.5 -16.5t68.5 -45.5t40.5 -69.5t13.5 -88.5v-289q0 -6 1.5 -15.5t6.5 -18t14 -14.5t25 -6q14 0 23 6t14 14.5t6.5 18t1.5 15.5v289q0 48 13.5 88.5
t41 69.5t69.5 45.5t98 16.5t97.5 -16.5t68.5 -45.5t40.5 -69.5t13.5 -88.5v-499h-175v499q0 6 -2 15.5t-8 18t-16 14.5t-26 6q-14 0 -23.5 -6t-15.5 -14.5t-8.5 -18t-2.5 -15.5v-289q0 -48 -12 -88.5t-37.5 -69.5t-66 -45.5t-96.5 -16.5t-96 16.5t-65.5 45.5t-37 69.5
t-11.5 88.5v289q0 6 -2 15.5t-8 18t-16 14.5t-26 6z" />
    <glyph glyph-name="Nu" unicode="&#x39d;" horiz-adv-x="976" 
d="M671 0q-48 0 -81 15t-57 43.5t-43 69.5t-39 94l-100 257q-13 34 -28.5 44.5t-35.5 10.5h-7q-10 0 -21.5 -2t-21 -7.5t-15.5 -16.5t-6 -29v-479h-166v487q0 56 16.5 98t45.5 69.5t69.5 41t88.5 13.5h37q48 0 81 -15t57 -43.5t43 -70t39 -93.5l100 -257q13 -34 28.5 -44.5
t35.5 -10.5h6q10 0 21.5 2t21 7.5t15.5 16.5t6 29v479h166v-487q0 -56 -16.5 -98t-45.5 -69.5t-69.5 -41t-88.5 -13.5h-36v0z" />
    <glyph glyph-name="Xi" unicode="&#x39e;" horiz-adv-x="725" 
d="M25 708h675v-136h-675v136zM25 136h675v-136h-675v136zM146 421h435v-136h-435v136z" />
    <glyph glyph-name="Omicron" unicode="&#x39f;" 
d="M50 487q0 56 16.5 98t45.5 69.5t69.5 41t88.5 13.5h297q48 0 88.5 -13.5t69.5 -41t45.5 -69.5t16.5 -98v-265q0 -56 -16.5 -98t-45.5 -69.5t-69.5 -41t-88.5 -13.5h-297q-48 0 -88.5 13.5t-69.5 41t-45.5 69.5t-16.5 98v265zM621 479q0 18 -6 29t-15.5 16.5t-21 7.5
t-21.5 2h-277q-10 0 -21.5 -2t-21 -7.5t-15.5 -16.5t-6 -29v-249q0 -18 6 -29t15.5 -16.5t21 -7.5t21.5 -2h277q10 0 21.5 2t21 7.5t15.5 16.5t6 29v249z" />
    <glyph glyph-name="Pi" unicode="&#x3a0;" horiz-adv-x="840" 
d="M50 0v709h741v-709h-166v534h-409v-534h-166z" />
    <glyph glyph-name="Rho" unicode="&#x3a1;" horiz-adv-x="849" 
d="M216 0h-166v487q0 56 16.5 98t45.5 69.5t69.5 41t88.5 13.5h310q48 0 88.5 -16t69.5 -49t45.5 -84.5t16.5 -122.5q0 -75 -16.5 -126.5t-45.5 -83.5t-69.5 -46t-88.5 -14h-272v175h272q6 0 15.5 2t18 12t14.5 29t6 54q0 33 -6 52t-14.5 28.5t-18 12t-15.5 2.5h-300
q-10 0 -21.5 -2t-21 -7.5t-15.5 -16.5t-6 -29v-479z" />
    <glyph glyph-name="Sigma" unicode="&#x3a3;" horiz-adv-x="714" 
d="M50 69l266 287l-266 281v72h615v-175h-313l205 -177l-213 -182h321v-175h-615v69z" />
    <glyph glyph-name="Tau" unicode="&#x3a4;" horiz-adv-x="717" 
d="M276 0v534h-251v175h667v-175h-250v-534h-166z" />
    <glyph glyph-name="Upsilon" unicode="&#x3a5;" horiz-adv-x="751" 
d="M664 442q-15 -52 -32.5 -92.5t-41.5 -68.5t-56 -43.5t-76 -17.5v-220h-166v220q-44 2 -76 17.5t-56 44t-41 68.5t-32 92l-77 267h167l76 -259q10 -35 27 -45t37 -10h117q20 0 37 10t27 45l75 259h168l-77 -267v0z" />
    <glyph glyph-name="Phi" unicode="&#x3a6;" horiz-adv-x="877" 
d="M521 709h86q48 0 88.5 -13.5t69.5 -41t45.5 -69.5t16.5 -98v-265q0 -56 -16.5 -98t-45.5 -69.5t-69.5 -41t-88.5 -13.5h-86v-242h-166v242h-85q-48 0 -88.5 13.5t-69.5 41t-45.5 69.5t-16.5 98v265q0 56 16.5 98t45.5 69.5t69.5 41t88.5 13.5h85v232h166v-232zM661 479
q0 18 -6 29t-15.5 16.5t-21 7.5t-21.5 2h-76v-359h76q10 0 21.5 2t21 7.5t15.5 16.5t6 29v249zM216 230q0 -18 6 -29t15.5 -16.5t21 -7.5t21.5 -2h75v359h-75q-10 0 -21.5 -2t-21 -7.5t-15.5 -16.5t-6 -29v-249z" />
    <glyph glyph-name="Chi" unicode="&#x3a7;" horiz-adv-x="864" 
d="M10 0l316 355l-315 354h212l209 -235l209 235h212l-315 -354l316 -355h-212l-210 236l-210 -236h-212z" />
    <glyph glyph-name="Psi" unicode="&#x3a8;" horiz-adv-x="1076" 
d="M621 709v-314h176q10 0 21.5 2t21 7.5t15.5 16.5t6 29v259h166v-267q0 -56 -16.5 -98t-45.5 -69.5t-69.5 -41t-88.5 -13.5h-186v-220h-166v220h-185q-48 0 -88.5 13.5t-69.5 41t-45.5 69.5t-16.5 98v267h166v-259q0 -18 6 -29t15.5 -16.5t21 -7.5t21.5 -2h175v314h166z
" />
    <glyph glyph-name="Omega" unicode="&#x3a9;" horiz-adv-x="1067" 
d="M729 220q0 -14 6 -23t14.5 -14t18 -6.5t15.5 -1.5h198v-175h-198q-48 0 -88.5 13.5t-69.5 41t-45.5 69.5t-16.5 98t16.5 97.5t45.5 68.5t69.5 40.5t88.5 13.5h15q14 0 24 1t17 6t10 15.5t3 29.5q0 28 -13 34t-41 6h-528q-28 0 -41 -6t-13 -34q0 -19 3 -29.5t10 -15.5
t17 -6t24 -1h15q48 0 88.5 -13.5t69.5 -40.5t45.5 -68.5t16.5 -97.5t-16.5 -98t-45.5 -69.5t-69.5 -41t-88.5 -13.5h-198v175h198q6 0 15.5 1.5t18 6.5t14.5 14t6 23q0 16 -6 25t-14.5 14t-18 6.5t-15.5 1.5h-15q-112 0 -166 52.5t-54 172.5q0 119 54.5 168t165.5 49h528
q111 0 165.5 -49t54.5 -168q0 -120 -54 -172.5t-166 -52.5h-15q-6 0 -15.5 -1.5t-18 -6.5t-14.5 -14t-6 -25z" />
    <glyph glyph-name="Iotadieresis" unicode="&#x3aa;" horiz-adv-x="466" 
d="M50 0v175h100v359h-100v175h367v-175h-101v-359h101v-175h-367zM74 750v132h125v-132h-125zM267 750v132h125v-132h-125z" />
    <glyph glyph-name="Upsilondieresis" unicode="&#x3ab;" horiz-adv-x="751" 
d="M664 442q-15 -52 -32.5 -92.5t-41.5 -68.5t-56 -43.5t-76 -17.5v-220h-166v220q-44 2 -76 17.5t-56 44t-41 68.5t-32 92l-77 267h167l76 -259q10 -35 27 -45t37 -10h117q20 0 37 10t27 45l75 259h168zM216 750v132h125v-132h-125zM409 750v132h125v-132h-125z" />
    <glyph glyph-name="alphatonos" unicode="&#x3ac;" horiz-adv-x="877" 
d="M508 709q48 0 82.5 -14.5t60 -42.5t44 -69.5t33.5 -95.5l140 -487h-166l-140 479q-10 35 -27 45t-37 10h-117q-20 0 -37 -10t-27 -45l-140 -479h-166l140 487q15 54 33.5 95.5t44 69.5t60 42.5t82.5 14.5h137zM353 341h165l40 -166h-245zM447 941h136l-80 -191h-116z" />
    <glyph glyph-name="epsilontonos" unicode="&#x3ad;" horiz-adv-x="768" 
d="M216 230q0 -18 6 -29t15.5 -16.5t21 -7.5t21.5 -2h439v-175h-449q-48 0 -88.5 13.5t-69.5 41t-45.5 69.5t-16.5 98v265q0 56 16.5 98t45.5 69.5t69.5 41t88.5 13.5h449v-175h-439q-10 0 -21.5 -2t-21 -7.5t-15.5 -16.5t-6 -29v-249zM308 442h401v-175h-401v175zM426 941
h136l-80 -191h-116z" />
    <glyph glyph-name="etatonos" unicode="&#x3ae;" 
d="M567 710q48 0 88.5 -13.5t69.5 -41t45.5 -69.5t16.5 -98v-739h-166v731q0 18 -6 29t-15.5 16.5t-21 7.5t-21.5 2h-277q-10 0 -21.5 -2t-21 -7.5t-15.5 -16.5t-6 -29v-479h-166v487q0 56 16.5 98t45.5 69.5t69.5 41t88.5 13.5h297zM418 941h136l-80 -191h-116z" />
    <glyph glyph-name="iotatonos" unicode="&#x3af;" horiz-adv-x="402" 
d="M216 230q0 -18 6 -29t15.5 -16.5t21 -7.5t21.5 -2h97v-175h-107q-48 0 -88.5 13.5t-69.5 41t-45.5 69.5t-16.5 98v487h166v-479zM140 941h136l-80 -191h-116z" />
    <glyph glyph-name="upsilondieresistonos" unicode="&#x3b0;" horiz-adv-x="751" 
d="M664 442q-15 -52 -32.5 -92.5t-41.5 -68.5t-56 -43.5t-76 -17.5v-220h-166v220q-44 2 -76 17.5t-56 44t-41 68.5t-32 92l-77 267h167l76 -259q10 -35 27 -45t37 -10h117q20 0 37 10t27 45l75 259h168zM353 941h136l-80 -191h-116zM124 750v132h125v-132h-125zM497 750
v132h125v-132h-125z" />
    <glyph glyph-name="alpha" unicode="&#x3b1;" horiz-adv-x="877" 
d="M508 709q48 0 82.5 -14.5t60 -42.5t44 -69.5t33.5 -95.5l140 -487h-166l-140 479q-10 35 -27 45t-37 10h-117q-20 0 -37 -10t-27 -45l-140 -479h-166l140 487q15 54 33.5 95.5t44 69.5t60 42.5t82.5 14.5h137zM353 341h165l40 -166h-245z" />
    <glyph glyph-name="beta" unicode="&#x3b2;" horiz-adv-x="935" 
d="M280 534q-10 0 -21.5 -2t-21 -7.5t-15.5 -16.5t-6 -29v-721h-166v729q0 56 16.5 98t45.5 69.5t69.5 41t88.5 13.5h396q48 0 88.5 -13.5t69.5 -41t45.5 -69.5t16.5 -98q0 -42 -10.5 -74.5t-33.5 -58.5q23 -26 33.5 -58.5t10.5 -73.5q0 -56 -16.5 -98t-45.5 -69.5
t-69.5 -41t-88.5 -13.5h-355v175h355q6 0 15.5 1.5t18 6.5t14.5 14t6 23q0 16 -6 25t-14.5 14t-18 6.5t-15.5 1.5h-355v175h360q7 0 15.5 2t16 7t12.5 14.5t5 23.5t-6 23t-14.5 14t-18 6.5t-15.5 1.5h-386v0z" />
    <glyph glyph-name="gamma" unicode="&#x3b3;" horiz-adv-x="877" 
d="M727 222q-15 -52 -32.5 -92.5t-41.5 -68.5t-56 -43.5t-76 -17.5v-242h-166v242q-44 2 -76 17.5t-56 44t-41 68.5t-32 92l-140 487h166l140 -479q10 -35 27 -45t37 -10h117q20 0 37 10t27 45l140 479h166l-140 -487v0z" />
    <glyph glyph-name="delta" unicode="&#x3b4;" horiz-adv-x="877" 
d="M151 487q15 54 33.5 95.5t44 69.5t60 42.5t82.5 14.5h137q48 0 82.5 -14.5t60 -42.5t44 -69.5t33.5 -95.5l140 -487h-857zM225 166h428l-91 313q-10 35 -27 45t-37 10h-117q-20 0 -37 -10t-27 -45z" />
    <glyph glyph-name="epsilon" unicode="&#x3b5;" horiz-adv-x="768" 
d="M216 230q0 -18 6 -29t15.5 -16.5t21 -7.5t21.5 -2h439v-175h-449q-48 0 -88.5 13.5t-69.5 41t-45.5 69.5t-16.5 98v265q0 56 16.5 98t45.5 69.5t69.5 41t88.5 13.5h449v-175h-439q-10 0 -21.5 -2t-21 -7.5t-15.5 -16.5t-6 -29v-249zM308 442h401v-175h-401v175z" />
    <glyph glyph-name="zeta" unicode="&#x3b6;" horiz-adv-x="784" 
d="M50 0v69l383 465h-373v175h675v-72l-391 -462h381v-175h-675z" />
    <glyph glyph-name="eta" unicode="&#x3b7;" 
d="M567 710q48 0 88.5 -13.5t69.5 -41t45.5 -69.5t16.5 -98v-739h-166v731q0 18 -6 29t-15.5 16.5t-21 7.5t-21.5 2h-277q-10 0 -21.5 -2t-21 -7.5t-15.5 -16.5t-6 -29v-479h-166v487q0 56 16.5 98t45.5 69.5t69.5 41t88.5 13.5h297v0z" />
    <glyph glyph-name="theta" unicode="&#x3b8;" 
d="M50 719q0 56 16.5 98t45.5 69.5t69.5 41t88.5 13.5h173q48 0 88.5 -13.5t69.5 -41t45.5 -69.5t16.5 -98v-497q0 -56 -16.5 -98t-45.5 -69.5t-69.5 -41t-88.5 -13.5h-173q-48 0 -88.5 13.5t-69.5 41t-45.5 69.5t-16.5 98v497zM497 392h-281v-162q0 -18 6 -29t15.5 -16.5
t21 -7.5t21.5 -2h153q10 0 21.5 2t21 7.5t15.5 16.5t6 29v162zM216 567h281v144q0 18 -6 29t-15.5 16.5t-21 7.5t-21.5 2h-153q-10 0 -21.5 -2t-21 -7.5t-15.5 -16.5t-6 -29v-144z" />
    <glyph glyph-name="iota" unicode="&#x3b9;" horiz-adv-x="402" 
d="M216 230q0 -18 6 -29t15.5 -16.5t21 -7.5t21.5 -2h97v-175h-107q-48 0 -88.5 13.5t-69.5 41t-45.5 69.5t-16.5 98v487h166v-479z" />
    <glyph glyph-name="kappa" unicode="&#x3ba;" horiz-adv-x="761" 
d="M50 0v709h166v-267h201q22 0 41.5 9t27.5 38q3 12 11 39.5t17 60t17.5 65.5t13.5 55h167l-60 -222q-5 -20 -11.5 -37t-16.5 -33t-23.5 -31.5t-32.5 -31.5q38 -24 55.5 -58.5t28.5 -73.5l60 -222h-167q0 1 -4 17.5t-10.5 40.5t-14 52t-14.5 52t-11.5 40.5t-4.5 17.5
q-5 16 -13.5 25t-18.5 14t-21 6.5t-21 1.5h-196v-267h-166z" />
    <glyph glyph-name="lambda" unicode="&#x3bb;" horiz-adv-x="877" 
d="M508 709q48 0 82.5 -14.5t60 -42.5t44 -69.5t33.5 -95.5l140 -487h-166l-140 479q-10 35 -27 45t-37 10h-117q-20 0 -37 -10t-27 -45l-140 -479h-166l140 487q15 54 33.5 95.5t44 69.5t60 42.5t82.5 14.5h137v0z" />
    <glyph glyph-name="mu" unicode="&#x3bc;" horiz-adv-x="842" 
d="M216 0v-242h-166v951h166v-534h347q10 0 21.5 2t21 7.5t15.5 16.5t6 29v479h166v-487q0 -56 -16.5 -98t-45.5 -69.5t-69.5 -41t-88.5 -13.5h-357z" />
    <glyph glyph-name="nu" unicode="&#x3bd;" horiz-adv-x="877" 
d="M370 0q-48 0 -82.5 14.5t-60 42.5t-44 69.5t-33.5 95.5l-140 487h166l140 -479q10 -35 27 -45t37 -10h117q20 0 37 10t27 45l140 479h166l-140 -487q-15 -54 -33.5 -95.5t-44 -69.5t-60 -42.5t-82.5 -14.5h-137v0z" />
    <glyph glyph-name="xi" unicode="&#x3be;" horiz-adv-x="725" 
d="M25 708h675v-136h-675v136zM25 136h675v-136h-675v136zM146 421h435v-136h-435v136z" />
    <glyph glyph-name="omicron" unicode="&#x3bf;" 
d="M50 487q0 56 16.5 98t45.5 69.5t69.5 41t88.5 13.5h297q48 0 88.5 -13.5t69.5 -41t45.5 -69.5t16.5 -98v-265q0 -56 -16.5 -98t-45.5 -69.5t-69.5 -41t-88.5 -13.5h-297q-48 0 -88.5 13.5t-69.5 41t-45.5 69.5t-16.5 98v265zM621 479q0 18 -6 29t-15.5 16.5t-21 7.5
t-21.5 2h-277q-10 0 -21.5 -2t-21 -7.5t-15.5 -16.5t-6 -29v-249q0 -18 6 -29t15.5 -16.5t21 -7.5t21.5 -2h277q10 0 21.5 2t21 7.5t15.5 16.5t6 29v249z" />
    <glyph glyph-name="pi" unicode="&#x3c0;" horiz-adv-x="840" 
d="M605 0v534h-369v-534h-166v534h-60v175h821v-175h-60v-534h-166z" />
    <glyph glyph-name="rho" unicode="&#x3c1;" horiz-adv-x="842" 
d="M627 479q0 18 -6 29t-15.5 16.5t-21 7.5t-21.5 2h-283q-10 0 -21.5 -2t-21 -7.5t-15.5 -16.5t-6 -29v-721h-166v729q0 56 16.5 98t45.5 69.5t69.5 41t88.5 13.5h303q48 0 88.5 -13.5t69.5 -41t45.5 -69.5t16.5 -98v-265q0 -56 -16.5 -98t-45.5 -69.5t-69.5 -41
t-88.5 -13.5h-264v175h254q10 0 21.5 2t21 7.5t15.5 16.5t6 29v249z" />
    <glyph glyph-name="sigma1" unicode="&#x3c2;" horiz-adv-x="817" 
d="M602 -47q0 16 -6 25t-14.5 14t-18 6.5t-15.5 1.5h-198q-56 0 -109.5 15.5t-96 55t-68.5 108t-26 174.5t26 175t68.5 109t96 56t109.5 16h387v-175h-387q-14 0 -36.5 -3.5t-44.5 -21t-37.5 -53.5t-15.5 -101q0 -66 15.5 -102t37.5 -53.5t44.5 -21t36.5 -3.5h198
q48 0 88.5 -13.5t69.5 -40.5t45.5 -68.5t16.5 -97.5t-16.5 -98t-45.5 -69.5t-69.5 -41t-88.5 -13.5h-478v175h478q6 0 15.5 1.5t18 6.5t14.5 14t6 23z" />
    <glyph glyph-name="sigma" unicode="&#x3c3;" 
d="M787 534v-312q0 -56 -16.5 -98t-45.5 -69.5t-69.5 -41t-88.5 -13.5h-297q-48 0 -88.5 13.5t-69.5 41t-45.5 69.5t-16.5 98v265q0 56 16.5 98t45.5 69.5t69.5 41t88.5 13.5h556v-175h-39zM621 534h-341q-10 0 -21.5 -2t-21 -7.5t-15.5 -16.5t-6 -29v-249q0 -18 6 -29
t15.5 -16.5t21 -7.5t21.5 -2h277q10 0 21.5 2t21 7.5t15.5 16.5t6 29v304z" />
    <glyph glyph-name="tau" unicode="&#x3c4;" horiz-adv-x="717" 
d="M276 0v534h-251v175h667v-175h-250v-534h-166z" />
    <glyph glyph-name="upsilon" unicode="&#x3c5;" horiz-adv-x="751" 
d="M664 442q-15 -52 -32.5 -92.5t-41.5 -68.5t-56 -43.5t-76 -17.5v-220h-166v220q-44 2 -76 17.5t-56 44t-41 68.5t-32 92l-77 267h167l76 -259q10 -35 27 -45t37 -10h117q20 0 37 10t27 45l75 259h168l-77 -267v0z" />
    <glyph glyph-name="phi" unicode="&#x3c6;" horiz-adv-x="877" 
d="M521 709h86q48 0 88.5 -13.5t69.5 -41t45.5 -69.5t16.5 -98v-265q0 -56 -16.5 -98t-45.5 -69.5t-69.5 -41t-88.5 -13.5h-86v-242h-166v242h-85q-48 0 -88.5 13.5t-69.5 41t-45.5 69.5t-16.5 98v265q0 56 16.5 98t45.5 69.5t69.5 41t88.5 13.5h85v232h166v-232zM661 479
q0 18 -6 29t-15.5 16.5t-21 7.5t-21.5 2h-76v-359h76q10 0 21.5 2t21 7.5t15.5 16.5t6 29v249zM216 230q0 -18 6 -29t15.5 -16.5t21 -7.5t21.5 -2h75v359h-75q-10 0 -21.5 -2t-21 -7.5t-15.5 -16.5t-6 -29v-249z" />
    <glyph glyph-name="chi" unicode="&#x3c7;" horiz-adv-x="864" 
d="M10 0l316 355l-315 354h212l209 -235l209 235h212l-315 -354l316 -355h-212l-210 236l-210 -236h-212z" />
    <glyph glyph-name="psi" unicode="&#x3c8;" horiz-adv-x="1076" 
d="M621 943v-768h176q10 0 21.5 2t21 7.5t15.5 16.5t6 29v479h166v-487q0 -56 -16.5 -98t-45.5 -69.5t-69.5 -41t-88.5 -13.5h-186v-241h-166v241h-185q-48 0 -88.5 13.5t-69.5 41t-45.5 69.5t-16.5 98v487h166v-479q0 -18 6 -29t15.5 -16.5t21 -7.5t21.5 -2h175v768h166z
" />
    <glyph glyph-name="omega" unicode="&#x3c9;" horiz-adv-x="1076" 
d="M621 532v-357h176q10 0 21.5 2t21 7.5t15.5 16.5t6 29v249q0 18 -6 29t-15.5 16.5t-21 7.5t-21.5 2h-53v175h63q48 0 88.5 -13.5t69.5 -41t45.5 -69.5t16.5 -98v-265q0 -56 -16.5 -98t-45.5 -69.5t-69.5 -41t-88.5 -13.5h-537q-48 0 -88.5 13.5t-69.5 41t-45.5 69.5
t-16.5 98v265q0 56 16.5 98t45.5 69.5t69.5 41t88.5 13.5h63v-175h-53q-10 0 -21.5 -2t-21 -7.5t-15.5 -16.5t-6 -29v-249q0 -18 6 -29t15.5 -16.5t21 -7.5t21.5 -2h175v357h166z" />
    <glyph glyph-name="iotadieresis" unicode="&#x3ca;" horiz-adv-x="426" 
d="M216 230q0 -18 6 -29t15.5 -16.5t21 -7.5t21.5 -2h97v-175h-107q-48 0 -88.5 13.5t-69.5 41t-45.5 69.5t-16.5 98v487h166v-479zM-10 750v132h125v-132h-125zM183 750v132h125v-132h-125z" />
    <glyph glyph-name="upsilondieresis" unicode="&#x3cb;" horiz-adv-x="751" 
d="M664 442q-15 -52 -32.5 -92.5t-41.5 -68.5t-56 -43.5t-76 -17.5v-220h-166v220q-44 2 -76 17.5t-56 44t-41 68.5t-32 92l-77 267h167l76 -259q10 -35 27 -45t37 -10h117q20 0 37 10t27 45l75 259h168zM216 750v132h125v-132h-125zM409 750v132h125v-132h-125z" />
    <glyph glyph-name="omicrontonos" unicode="&#x3cc;" 
d="M50 487q0 56 16.5 98t45.5 69.5t69.5 41t88.5 13.5h297q48 0 88.5 -13.5t69.5 -41t45.5 -69.5t16.5 -98v-265q0 -56 -16.5 -98t-45.5 -69.5t-69.5 -41t-88.5 -13.5h-297q-48 0 -88.5 13.5t-69.5 41t-45.5 69.5t-16.5 98v265zM621 479q0 18 -6 29t-15.5 16.5t-21 7.5
t-21.5 2h-277q-10 0 -21.5 -2t-21 -7.5t-15.5 -16.5t-6 -29v-249q0 -18 6 -29t15.5 -16.5t21 -7.5t21.5 -2h277q10 0 21.5 2t21 7.5t15.5 16.5t6 29v249zM380 941h136l-80 -191h-116z" />
    <glyph glyph-name="upsilontonos" unicode="&#x3cd;" horiz-adv-x="751" 
d="M664 442q-15 -52 -32.5 -92.5t-41.5 -68.5t-56 -43.5t-76 -17.5v-220h-166v220q-44 2 -76 17.5t-56 44t-41 68.5t-32 92l-77 267h167l76 -259q10 -35 27 -45t37 -10h117q20 0 37 10t27 45l75 259h168zM337 941h136l-80 -191h-116z" />
    <glyph glyph-name="omegatonos" unicode="&#x3ce;" horiz-adv-x="1076" 
d="M621 532v-357h176q10 0 21.5 2t21 7.5t15.5 16.5t6 29v249q0 18 -6 29t-15.5 16.5t-21 7.5t-21.5 2h-53v175h63q48 0 88.5 -13.5t69.5 -41t45.5 -69.5t16.5 -98v-265q0 -56 -16.5 -98t-45.5 -69.5t-69.5 -41t-88.5 -13.5h-537q-48 0 -88.5 13.5t-69.5 41t-45.5 69.5
t-16.5 98v265q0 56 16.5 98t45.5 69.5t69.5 41t88.5 13.5h63v-175h-53q-10 0 -21.5 -2t-21 -7.5t-15.5 -16.5t-6 -29v-249q0 -18 6 -29t15.5 -16.5t21 -7.5t21.5 -2h175v357h166zM529 941h136l-80 -191h-116z" />
    <glyph glyph-name="afii10023" unicode="&#x401;" horiz-adv-x="768" 
d="M216 230q0 -18 6 -29t15.5 -16.5t21 -7.5t21.5 -2h439v-175h-449q-48 0 -88.5 13.5t-69.5 41t-45.5 69.5t-16.5 98v265q0 56 16.5 98t45.5 69.5t69.5 41t88.5 13.5h449v-175h-439q-10 0 -21.5 -2t-21 -7.5t-15.5 -16.5t-6 -29v-249zM308 442h401v-175h-401v175zM295 750
v132h125v-132h-125zM488 750v132h125v-132h-125z" />
    <glyph glyph-name="afii10051" unicode="&#x402;" horiz-adv-x="895" 
d="M694 170q0 18 -6 29t-15.5 16.5t-21 7.5t-21.5 2h-188v-225h-166v534h-251v175h667v-175h-250v-134h198q48 0 88.5 -13.5t69.5 -41t45.5 -69.5t16.5 -98v-198q0 -56 -16.5 -98t-45.5 -69.5t-69.5 -41t-88.5 -13.5h-67v175h57q10 0 21.5 2t21 7.5t15.5 16.5t6 29v182z" />
    <glyph glyph-name="afii10052" unicode="&#x403;" horiz-adv-x="758" 
d="M216 0h-166v487q0 56 16.5 98t45.5 69.5t69.5 41t88.5 13.5h439v-175h-429q-10 0 -21.5 -2t-21 -7.5t-15.5 -16.5t-6 -29v-479zM431 941h136l-80 -191h-116z" />
    <glyph glyph-name="afii10053" unicode="&#x404;" horiz-adv-x="768" 
d="M216 230q0 -18 6 -29t15.5 -16.5t21 -7.5t21.5 -2h439v-175h-449q-48 0 -88.5 13.5t-69.5 41t-45.5 69.5t-16.5 98v265q0 56 16.5 98t45.5 69.5t69.5 41t88.5 13.5h449v-175h-439q-10 0 -21.5 -2t-21 -7.5t-15.5 -16.5t-6 -29v-249zM308 442h401v-175h-401v175z" />
    <glyph glyph-name="afii10054" unicode="&#x405;" horiz-adv-x="817" 
d="M602 220q0 16 -6 25t-14.5 14t-18 6.5t-15.5 1.5h-278q-48 0 -88.5 13.5t-69.5 40.5t-45.5 68.5t-16.5 97.5t16.5 98t45.5 69.5t69.5 41t88.5 13.5h467v-175h-467q-6 0 -15.5 -1.5t-18 -6.5t-14.5 -14t-6 -23q0 -16 6 -25t14.5 -14t18 -6.5t15.5 -1.5h278
q48 0 88.5 -13.5t69.5 -40.5t45.5 -68.5t16.5 -97.5t-16.5 -98t-45.5 -69.5t-69.5 -41t-88.5 -13.5h-478v175h478q6 0 15.5 1.5t18 6.5t14.5 14t6 23z" />
    <glyph glyph-name="afii10055" unicode="&#x406;" horiz-adv-x="466" 
d="M50 0v175h100v359h-100v175h367v-175h-101v-359h101v-175h-367z" />
    <glyph glyph-name="afii10056" unicode="&#x407;" horiz-adv-x="466" 
d="M50 0v175h100v359h-100v175h367v-175h-101v-359h101v-175h-367zM74 750v132h125v-132h-125zM267 750v132h125v-132h-125z" />
    <glyph glyph-name="afii10057" unicode="&#x408;" horiz-adv-x="427" 
d="M211 709h166v-487q0 -56 -16.5 -98t-45.5 -69.5t-69.5 -41t-88.5 -13.5h-132v175h122q10 0 21.5 2t21 7.5t15.5 16.5t6 29v479z" />
    <glyph glyph-name="afii10058" unicode="&#x409;" horiz-adv-x="1191" 
d="M101 709h557v-479q0 -18 6 -29t15.5 -16.5t21 -7.5t21.5 -2h200q6 0 15.5 2.5t18 12t14.5 28.5t6 52q0 34 -6 53.5t-14.5 29.5t-18 12t-15.5 2h-172v175h172q48 0 88.5 -14t69.5 -46t45.5 -83.5t16.5 -126.5q0 -71 -16.5 -122.5t-45.5 -84.5t-69.5 -49t-88.5 -16h-210
q-48 0 -88.5 13.5t-69.5 41t-45.5 69.5t-16.5 98v312h-225v-312q0 -64 -16.5 -106.5t-45.5 -68t-69.5 -36.5t-88.5 -11h-22v175h12q10 0 21.5 2t21 7.5t15.5 16.5t6 29v479z" />
    <glyph glyph-name="afii10059" unicode="&#x40a;" horiz-adv-x="1184" 
d="M50 0v709h166v-267h269v267h166v-479q0 -18 6 -29t15.5 -16.5t21 -7.5t21.5 -2h200q6 0 15.5 2.5t18 12t14.5 28.5t6 52q0 34 -6 53.5t-14.5 29.5t-18 12t-15.5 2h-172v175h172q48 0 88.5 -14t69.5 -46t45.5 -83.5t16.5 -126.5q0 -71 -16.5 -122.5t-45.5 -84.5t-69.5 -49
t-88.5 -16h-210q-48 0 -88.5 13.5t-69.5 41t-45.5 69.5t-16.5 98v45h-269v-267h-166z" />
    <glyph glyph-name="afii10060" unicode="&#x40b;" horiz-adv-x="895" 
d="M640 400q48 0 88.5 -13.5t69.5 -41t45.5 -69.5t16.5 -98v-178h-166v170q0 18 -6 29t-15.5 16.5t-21 7.5t-21.5 2h-188v-225h-166v534h-251v175h667v-175h-250v-134h198v0z" />
    <glyph glyph-name="afii10061" unicode="&#x40c;" horiz-adv-x="761" 
d="M50 0v709h166v-267h201q22 0 41.5 9t27.5 38q3 12 11 39.5t17 60t17.5 65.5t13.5 55h167l-60 -222q-5 -20 -11.5 -37t-16.5 -33t-23.5 -31.5t-32.5 -31.5q38 -24 55.5 -58.5t28.5 -73.5l60 -222h-167q0 1 -4 17.5t-10.5 40.5t-14 52t-14.5 52t-11.5 40.5t-4.5 17.5
q-5 16 -13.5 25t-18.5 14t-21 6.5t-21 1.5h-196v-267h-166zM342 941h136l-80 -191h-116z" />
    <glyph glyph-name="afii10062" unicode="&#x40e;" horiz-adv-x="707" 
d="M181 0v175h146q20 0 37 10t27 45l23 80h-133q-48 0 -82.5 14.5t-60 42.5t-44 69.5t-33.5 95.5l-51 177h167l50 -169q10 -35 27 -45t37 -10h174l66 224h166l-140 -487q-15 -54 -33.5 -95.5t-44 -69.5t-60 -42.5t-82.5 -14.5h-156zM408 865h94v-11q0 -64 -35 -95t-90 -31
h-48q-54 0 -89 31t-35 95v11h94v-7q0 -20 12.5 -25.5t23.5 -5.5h37q11 0 23.5 5.5t12.5 25.5v7z" />
    <glyph glyph-name="afii10145" unicode="&#x40f;" 
d="M336 -178v178h-286v709h166v-534h405v534h166v-709h-285v-178h-166z" />
    <glyph glyph-name="afii10017" unicode="&#x410;" horiz-adv-x="877" 
d="M508 709q48 0 82.5 -14.5t60 -42.5t44 -69.5t33.5 -95.5l140 -487h-166l-140 479q-10 35 -27 45t-37 10h-117q-20 0 -37 -10t-27 -45l-140 -479h-166l140 487q15 54 33.5 95.5t44 69.5t60 42.5t82.5 14.5h137zM353 341h165l40 -166h-245z" />
    <glyph glyph-name="afii10018" unicode="&#x411;" horiz-adv-x="849" 
d="M749 534h-533v-304q0 -18 6 -29t15.5 -16.5t21 -7.5t21.5 -2h300q6 0 15.5 2t18 7.5t14.5 16.5t6 29q0 19 -6 30.5t-14.5 17.5t-18 7.5t-15.5 1.5h-251v175h251q48 0 88.5 -13.5t69.5 -41.5t45.5 -71.5t16.5 -103.5q0 -56 -16.5 -99.5t-45.5 -73t-69.5 -44.5t-88.5 -15
h-310q-48 0 -88.5 13.5t-69.5 41t-45.5 69.5t-16.5 98v487h699v-175z" />
    <glyph glyph-name="afii10019" unicode="&#x412;" horiz-adv-x="935" 
d="M280 534q-10 0 -21.5 -2t-21 -7.5t-15.5 -16.5t-6 -29v-479h-166v487q0 56 16.5 98t45.5 69.5t69.5 41t88.5 13.5h396q48 0 88.5 -13.5t69.5 -41t45.5 -69.5t16.5 -98q0 -42 -10.5 -74.5t-33.5 -58.5q23 -26 33.5 -58.5t10.5 -73.5q0 -56 -16.5 -98t-45.5 -69.5
t-69.5 -41t-88.5 -13.5h-355v175h355q6 0 15.5 1.5t18 6.5t14.5 14t6 23q0 16 -6 25t-14.5 14t-18 6.5t-15.5 1.5h-355v175h360q7 0 15.5 2t16 7t12.5 14.5t5 23.5t-6 23t-14.5 14t-18 6.5t-15.5 1.5h-386v0z" />
    <glyph glyph-name="afii10020" unicode="&#x413;" horiz-adv-x="734" 
d="M216 0h-166v487q0 56 16.5 98t45.5 69.5t69.5 41t88.5 13.5h439v-175h-429q-10 0 -21.5 -2t-21 -7.5t-15.5 -16.5t-6 -29v-479z" />
    <glyph glyph-name="afii10021" unicode="&#x414;" horiz-adv-x="907" 
d="M767 709v-534h115v-355h-166v180h-525v-180h-166v355h116l90 312q15 54 33.5 95.5t44 69.5t60 42.5t82.5 14.5h316zM308 175h293v359h-140q-20 0 -37 -10t-27 -45z" />
    <glyph glyph-name="afii10022" unicode="&#x415;" horiz-adv-x="768" 
d="M216 230q0 -18 6 -29t15.5 -16.5t21 -7.5t21.5 -2h439v-175h-449q-48 0 -88.5 13.5t-69.5 41t-45.5 69.5t-16.5 98v265q0 56 16.5 98t45.5 69.5t69.5 41t88.5 13.5h449v-175h-439q-10 0 -21.5 -2t-21 -7.5t-15.5 -16.5t-6 -29v-249zM308 442h401v-175h-401v175z" />
    <glyph glyph-name="afii10024" unicode="&#x416;" horiz-adv-x="1058" 
d="M446 0v267h-96q-10 0 -21 -1.5t-21 -6.5t-18.5 -14t-13.5 -25q0 -1 -4.5 -17.5t-11.5 -40.5t-14.5 -52t-14 -52t-10.5 -40.5t-4 -17.5h-167l60 222q11 39 28.5 73.5t55.5 58.5q-38 32 -56 62.5t-28 70.5l-60 222h167q5 -22 13.5 -55t17.5 -65.5t17 -60t11 -39.5
q8 -29 27.5 -38t41.5 -9h101v267h166v-267h101q22 0 41.5 9t27.5 38q3 12 11 39.5t17 60t17.5 65.5t13.5 55h167l-60 -222q-5 -20 -11.5 -37t-16.5 -33t-23.5 -31.5t-32.5 -31.5q38 -24 55.5 -58.5t28.5 -73.5l60 -222h-167q0 1 -4 17.5t-10.5 40.5t-14 52t-14.5 52
t-11.5 40.5t-4.5 17.5q-5 16 -13.5 25t-18.5 14t-21 6.5t-21 1.5h-96v-267h-166z" />
    <glyph glyph-name="afii10025" unicode="&#x417;" horiz-adv-x="911" 
d="M50 534v175h592q48 0 88.5 -13.5t69.5 -41t45.5 -69.5t16.5 -98q0 -42 -10.5 -74.5t-33.5 -58.5q23 -26 33.5 -58.5t10.5 -73.5q0 -56 -16.5 -98t-45.5 -69.5t-69.5 -41t-88.5 -13.5h-592v175h592q6 0 15.5 1.5t18 6.5t14.5 14t6 23q0 16 -6 25t-14.5 14t-18 6.5
t-15.5 1.5h-592v175h597q7 0 15.5 2t16 7t12.5 14.5t5 23.5t-6 23t-14.5 14t-18 6.5t-15.5 1.5h-592z" />
    <glyph glyph-name="afii10026" unicode="&#x418;" horiz-adv-x="976" 
d="M270 0q-48 0 -88.5 13.5t-69.5 41t-45.5 69.5t-16.5 98v487h166v-479q0 -18 6 -29t15.5 -16.5t21 -7.5t21.5 -2h6q20 0 35.5 10.5t28.5 44.5l100 257q20 52 39 93.5t43 70t57 43.5t81 15h37q48 0 88.5 -13.5t69.5 -41t45.5 -69.5t16.5 -98v-487h-166v479q0 18 -6 29
t-15.5 16.5t-21 7.5t-21.5 2h-7q-20 0 -35.5 -10.5t-28.5 -44.5l-100 -257q-20 -53 -39 -94t-43 -69.5t-57 -43.5t-81 -15h-36z" />
    <glyph glyph-name="afii10027" unicode="&#x419;" horiz-adv-x="976" 
d="M270 0q-48 0 -88.5 13.5t-69.5 41t-45.5 69.5t-16.5 98v487h166v-479q0 -18 6 -29t15.5 -16.5t21 -7.5t21.5 -2h6q20 0 35.5 10.5t28.5 44.5l100 257q20 52 39 93.5t43 70t57 43.5t81 15h37q48 0 88.5 -13.5t69.5 -41t45.5 -69.5t16.5 -98v-487h-166v479q0 18 -6 29
t-15.5 16.5t-21 7.5t-21.5 2h-7q-20 0 -35.5 -10.5t-28.5 -44.5l-100 -257q-20 -53 -39 -94t-43 -69.5t-57 -43.5t-81 -15h-36zM545 885h94v-11q0 -64 -35 -95t-90 -31h-48q-54 0 -89 31t-35 95v11h94v-7q0 -20 12.5 -25.5t23.5 -5.5h37q11 0 23.5 5.5t12.5 25.5v7z" />
    <glyph glyph-name="afii10028" unicode="&#x41a;" horiz-adv-x="761" 
d="M50 0v709h166v-267h201q22 0 41.5 9t27.5 38q3 12 11 39.5t17 60t17.5 65.5t13.5 55h167l-60 -222q-5 -20 -11.5 -37t-16.5 -33t-23.5 -31.5t-32.5 -31.5q38 -24 55.5 -58.5t28.5 -73.5l60 -222h-167q0 1 -4 17.5t-10.5 40.5t-14 52t-14.5 52t-11.5 40.5t-4.5 17.5
q-5 16 -13.5 25t-18.5 14t-21 6.5t-21 1.5h-196v-267h-166z" />
    <glyph glyph-name="afii10029" unicode="&#x41b;" horiz-adv-x="888" 
d="M101 709h737v-709h-166v534h-405v-312q0 -64 -16.5 -106.5t-45.5 -68t-69.5 -36.5t-88.5 -11h-22v175h12q10 0 21.5 2t21 7.5t15.5 16.5t6 29v479z" />
    <glyph glyph-name="afii10030" unicode="&#x41c;" horiz-adv-x="1075" 
d="M275 553q-14 0 -23.5 -6t-15.5 -14.5t-8.5 -18t-2.5 -15.5v-499h-175v499q0 48 13.5 88.5t41 69.5t69.5 45.5t98 16.5t97.5 -16.5t68.5 -45.5t40.5 -69.5t13.5 -88.5v-289q0 -6 1.5 -15.5t6.5 -18t14 -14.5t25 -6q14 0 23 6t14 14.5t6.5 18t1.5 15.5v289q0 48 13.5 88.5
t41 69.5t69.5 45.5t98 16.5t97.5 -16.5t68.5 -45.5t40.5 -69.5t13.5 -88.5v-499h-175v499q0 6 -2 15.5t-8 18t-16 14.5t-26 6q-14 0 -23.5 -6t-15.5 -14.5t-8.5 -18t-2.5 -15.5v-289q0 -48 -12 -88.5t-37.5 -69.5t-66 -45.5t-96.5 -16.5t-96 16.5t-65.5 45.5t-37 69.5
t-11.5 88.5v289q0 6 -2 15.5t-8 18t-16 14.5t-26 6z" />
    <glyph glyph-name="afii10031" unicode="&#x41d;" horiz-adv-x="840" 
d="M50 0v709h166v-267h409v267h166v-709h-166v267h-409v-267h-166z" />
    <glyph glyph-name="afii10032" unicode="&#x41e;" 
d="M50 487q0 56 16.5 98t45.5 69.5t69.5 41t88.5 13.5h297q48 0 88.5 -13.5t69.5 -41t45.5 -69.5t16.5 -98v-265q0 -56 -16.5 -98t-45.5 -69.5t-69.5 -41t-88.5 -13.5h-297q-48 0 -88.5 13.5t-69.5 41t-45.5 69.5t-16.5 98v265zM621 479q0 18 -6 29t-15.5 16.5t-21 7.5
t-21.5 2h-277q-10 0 -21.5 -2t-21 -7.5t-15.5 -16.5t-6 -29v-249q0 -18 6 -29t15.5 -16.5t21 -7.5t21.5 -2h277q10 0 21.5 2t21 7.5t15.5 16.5t6 29v249z" />
    <glyph glyph-name="afii10033" unicode="&#x41f;" 
d="M50 0v709h737v-709h-166v534h-405v-534h-166z" />
    <glyph glyph-name="afii10034" unicode="&#x420;" horiz-adv-x="849" 
d="M216 0h-166v487q0 56 16.5 98t45.5 69.5t69.5 41t88.5 13.5h310q48 0 88.5 -16t69.5 -49t45.5 -84.5t16.5 -122.5q0 -75 -16.5 -126.5t-45.5 -83.5t-69.5 -46t-88.5 -14h-272v175h272q6 0 15.5 2t18 12t14.5 29t6 54q0 33 -6 52t-14.5 28.5t-18 12t-15.5 2.5h-300
q-10 0 -21.5 -2t-21 -7.5t-15.5 -16.5t-6 -29v-479z" />
    <glyph glyph-name="afii10035" unicode="&#x421;" horiz-adv-x="772" 
d="M216 230q0 -18 6 -29t15.5 -16.5t21 -7.5t21.5 -2h443v-175h-453q-48 0 -88.5 13.5t-69.5 41t-45.5 69.5t-16.5 98v265q0 56 16.5 98t45.5 69.5t69.5 41t88.5 13.5h453v-175h-443q-10 0 -21.5 -2t-21 -7.5t-15.5 -16.5t-6 -29v-249v0z" />
    <glyph glyph-name="afii10036" unicode="&#x422;" horiz-adv-x="717" 
d="M276 0v534h-251v175h667v-175h-250v-534h-166z" />
    <glyph glyph-name="afii10037" unicode="&#x423;" horiz-adv-x="707" 
d="M181 0v175h146q20 0 37 10t27 45l23 80h-133q-48 0 -82.5 14.5t-60 42.5t-44 69.5t-33.5 95.5l-51 177h167l50 -169q10 -35 27 -45t37 -10h174l66 224h166l-140 -487q-15 -54 -33.5 -95.5t-44 -69.5t-60 -42.5t-82.5 -14.5h-156z" />
    <glyph glyph-name="afii10038" unicode="&#x424;" horiz-adv-x="877" 
d="M521 629h86q48 0 88.5 -13.5t69.5 -41t45.5 -69.5t16.5 -98v-105q0 -56 -16.5 -98t-45.5 -69.5t-69.5 -41t-88.5 -13.5h-86v-80h-166v80h-85q-48 0 -88.5 13.5t-69.5 41t-45.5 69.5t-16.5 98v105q0 56 16.5 98t45.5 69.5t69.5 41t88.5 13.5h85v80h166v-80zM661 399
q0 18 -6 29t-15.5 16.5t-21 7.5t-21.5 2h-76v-199h76q10 0 21.5 2t21 7.5t15.5 16.5t6 29v89zM216 310q0 -18 6 -29t15.5 -16.5t21 -7.5t21.5 -2h75v199h-75q-10 0 -21.5 -2t-21 -7.5t-15.5 -16.5t-6 -29v-89z" />
    <glyph glyph-name="afii10039" unicode="&#x425;" horiz-adv-x="864" 
d="M10 0l316 355l-315 354h212l209 -235l209 235h212l-315 -354l316 -355h-212l-210 236l-210 -236h-212z" />
    <glyph glyph-name="afii10040" unicode="&#x426;" horiz-adv-x="937" 
d="M50 709h166v-534h405v534h166v-534h115v-355h-166v180h-686v709z" />
    <glyph glyph-name="afii10041" unicode="&#x427;" horiz-adv-x="752" 
d="M265 238q-48 0 -88.5 13.5t-69.5 41t-45.5 69.5t-16.5 98v249h166v-241q0 -18 6 -29t15.5 -16.5t21 -7.5t21.5 -2h261v296h166v-709h-166v238h-271v0z" />
    <glyph glyph-name="afii10042" unicode="&#x428;" horiz-adv-x="1076" 
d="M1027 0h-977v709h166v-534h645v534h166v-709zM621 709v-442h-166v442h166z" />
    <glyph glyph-name="afii10043" unicode="&#x429;" horiz-adv-x="1177" 
d="M1027 175h115v-355h-166v180h-926v709h166v-534h645v534h166v-534zM621 709v-442h-166v442h166z" />
    <glyph glyph-name="afii10044" unicode="&#x42a;" horiz-adv-x="1144" 
d="M345 534h-320v175h486v-479q0 -18 6 -29t15.5 -16.5t21 -7.5t21.5 -2h300q6 0 15.5 2t18 7.5t14.5 16.5t6 29q0 19 -6 30.5t-14.5 17.5t-18 7.5t-15.5 1.5h-251v175h251q48 0 88.5 -13.5t69.5 -41.5t45.5 -71.5t16.5 -103.5q0 -56 -16.5 -99.5t-45.5 -73t-69.5 -44.5
t-88.5 -15h-310q-48 0 -88.5 13.5t-69.5 41t-45.5 69.5t-16.5 98v312z" />
    <glyph glyph-name="afii10045" unicode="&#x42b;" horiz-adv-x="1114" 
d="M216 230q0 -18 6 -29t15.5 -16.5t21 -7.5t21.5 -2h300q6 0 15.5 2.5t18 12t14.5 28.5t6 52q0 34 -6 53.5t-14.5 29.5t-18 12t-15.5 2h-272v175h272q48 0 88.5 -14t69.5 -46t45.5 -83.5t16.5 -126.5q0 -71 -16.5 -122.5t-45.5 -84.5t-69.5 -49t-88.5 -16h-310
q-48 0 -88.5 13.5t-69.5 41t-45.5 69.5t-16.5 98v487h166v-479zM899 1v708h166v-708h-166z" />
    <glyph glyph-name="afii10046" unicode="&#x42c;" horiz-adv-x="849" 
d="M216 230q0 -18 6 -29t15.5 -16.5t21 -7.5t21.5 -2h300q6 0 15.5 2.5t18 12t14.5 28.5t6 52q0 34 -6 53.5t-14.5 29.5t-18 12t-15.5 2h-272v175h272q48 0 88.5 -14t69.5 -46t45.5 -83.5t16.5 -126.5q0 -71 -16.5 -122.5t-45.5 -84.5t-69.5 -49t-88.5 -16h-310
q-48 0 -88.5 13.5t-69.5 41t-45.5 69.5t-16.5 98v487h166v-479z" />
    <glyph glyph-name="afii10047" unicode="&#x42d;" horiz-adv-x="768" 
d="M553 479q0 18 -6 29t-15.5 16.5t-21 7.5t-21.5 2h-439v175h449q48 0 88.5 -13.5t69.5 -41t45.5 -69.5t16.5 -98v-265q0 -56 -16.5 -98t-45.5 -69.5t-69.5 -41t-88.5 -13.5h-449v175h439q10 0 21.5 2t21 7.5t15.5 16.5t6 29v249zM461 267h-401v175h401v-175z" />
    <glyph glyph-name="afii10048" unicode="&#x42e;" horiz-adv-x="1152" 
d="M50 1v708h166v-272h150v50q0 56 16.5 98t45.5 69.5t69.5 41t88.5 13.5h297q48 0 88.5 -13.5t69.5 -41t45.5 -69.5t16.5 -98v-265q0 -56 -16.5 -98t-45.5 -69.5t-69.5 -41t-88.5 -13.5h-297q-48 0 -88.5 13.5t-69.5 41t-45.5 69.5t-16.5 98v49h-150v-270h-166zM937 479
q0 18 -6 29t-15.5 16.5t-21 7.5t-21.5 2h-277q-10 0 -21.5 -2t-21 -7.5t-15.5 -16.5t-6 -29v-249q0 -18 6 -29t15.5 -16.5t21 -7.5t21.5 -2h277q10 0 21.5 2t21 7.5t15.5 16.5t6 29v249z" />
    <glyph glyph-name="afii10049" unicode="&#x42f;" horiz-adv-x="837" 
d="M59 0v175h241q19 0 39.5 8t24.5 38q-4 30 -24.5 38t-39.5 8h-30q-48 0 -88.5 13.5t-69.5 40.5t-45.5 68.5t-16.5 97.5t16.5 98t45.5 69.5t69.5 41t88.5 13.5h298q48 0 88.5 -13.5t69.5 -41t45.5 -69.5t16.5 -98v-487h-166v479q0 18 -6 29t-15.5 16.5t-21 7.5t-21.5 2
h-288q-6 0 -15.5 -1.5t-18 -6.5t-14.5 -14t-6 -23q0 -16 6 -25t14.5 -14t18 -6.5t15.5 -1.5h40q48 0 88.5 -13.5t69.5 -41t45.5 -69t16.5 -96.5q0 -56 -16.5 -98t-45.5 -69.5t-69.5 -41t-88.5 -13.5h-251z" />
    <glyph glyph-name="afii10065" unicode="&#x430;" horiz-adv-x="950" 
d="M735 479q0 18 -6 29t-15.5 16.5t-21 7.5t-21.5 2h-591v175h601q48 0 88.5 -13.5t69.5 -41t45.5 -69.5t16.5 -98v-265q0 -56 -16.5 -98t-45.5 -69.5t-69.5 -41t-88.5 -13.5h-411q-48 0 -88.5 13.5t-69.5 41t-45.5 69.5t-16.5 98t16.5 97.5t45.5 68.5t69.5 40.5t88.5 13.5
h373v-175h-373q-6 0 -15.5 -1.5t-18 -6.5t-14.5 -14t-6 -25q0 -14 6 -23t14.5 -14t18 -6.5t15.5 -1.5h401q10 0 21.5 2t21 7.5t15.5 16.5t6 29v249v0z" />
    <glyph glyph-name="afii10066" unicode="&#x431;" horiz-adv-x="843" 
d="M50 720q0 56 16.5 98t45.5 69.5t69.5 41t88.5 13.5h328v-175h-318q-10 0 -21.5 -2t-21 -7.5t-15.5 -16.5t-6 -29v-482q0 -18 6 -29t15.5 -16.5t21 -7.5t21.5 -2h284q10 0 21.5 2t21 7.5t15.5 16.5t6 29v249q0 18 -6 29t-15.5 16.5t-21 7.5t-21.5 2h-255v175h265
q48 0 88.5 -13.5t69.5 -41t45.5 -69.5t16.5 -98v-265q0 -56 -16.5 -98t-45.5 -69.5t-69.5 -41t-88.5 -13.5h-304q-48 0 -88.5 13.5t-69.5 41t-45.5 69.5t-16.5 98v498z" />
    <glyph glyph-name="afii10067" unicode="&#x432;" horiz-adv-x="935" 
d="M280 534q-10 0 -21.5 -2t-21 -7.5t-15.5 -16.5t-6 -29v-479h-166v487q0 56 16.5 98t45.5 69.5t69.5 41t88.5 13.5h396q48 0 88.5 -13.5t69.5 -41t45.5 -69.5t16.5 -98q0 -42 -10.5 -74.5t-33.5 -58.5q23 -26 33.5 -58.5t10.5 -73.5q0 -56 -16.5 -98t-45.5 -69.5
t-69.5 -41t-88.5 -13.5h-355v175h355q6 0 15.5 1.5t18 6.5t14.5 14t6 23q0 16 -6 25t-14.5 14t-18 6.5t-15.5 1.5h-355v175h360q7 0 15.5 2t16 7t12.5 14.5t5 23.5t-6 23t-14.5 14t-18 6.5t-15.5 1.5h-386v0z" />
    <glyph glyph-name="afii10068" unicode="&#x433;" horiz-adv-x="734" 
d="M216 0h-166v487q0 56 16.5 98t45.5 69.5t69.5 41t88.5 13.5h439v-175h-429q-10 0 -21.5 -2t-21 -7.5t-15.5 -16.5t-6 -29v-479z" />
    <glyph glyph-name="afii10069" unicode="&#x434;" horiz-adv-x="907" 
d="M767 709v-534h115v-355h-166v180h-525v-180h-166v355h116l90 312q15 54 33.5 95.5t44 69.5t60 42.5t82.5 14.5h316zM308 175h293v359h-140q-20 0 -37 -10t-27 -45z" />
    <glyph glyph-name="afii10070" unicode="&#x435;" horiz-adv-x="950" 
d="M216 230q0 -18 6 -29t15.5 -16.5t21 -7.5t21.5 -2h591v-175h-601q-48 0 -88.5 13.5t-69.5 41t-45.5 69.5t-16.5 98v265q0 56 16.5 98t45.5 69.5t69.5 41t88.5 13.5h411q48 0 88.5 -13.5t69.5 -41t45.5 -69.5t16.5 -98t-16.5 -97.5t-45.5 -68.5t-69.5 -40.5t-88.5 -13.5
h-373v175h373q6 0 15.5 1.5t18 6.5t14.5 14t6 25q0 14 -6 23t-14.5 14t-18 6.5t-15.5 1.5h-401q-10 0 -21.5 -2t-21 -7.5t-15.5 -16.5t-6 -29v-249v0z" />
    <glyph glyph-name="afii10072" unicode="&#x436;" horiz-adv-x="1058" 
d="M446 0v267h-96q-10 0 -21 -1.5t-21 -6.5t-18.5 -14t-13.5 -25q0 -1 -4.5 -17.5t-11.5 -40.5t-14.5 -52t-14 -52t-10.5 -40.5t-4 -17.5h-167l60 222q11 39 28.5 73.5t55.5 58.5q-38 32 -56 62.5t-28 70.5l-60 222h167q5 -22 13.5 -55t17.5 -65.5t17 -60t11 -39.5
q8 -29 27.5 -38t41.5 -9h101v267h166v-267h101q22 0 41.5 9t27.5 38q3 12 11 39.5t17 60t17.5 65.5t13.5 55h167l-60 -222q-5 -20 -11.5 -37t-16.5 -33t-23.5 -31.5t-32.5 -31.5q38 -24 55.5 -58.5t28.5 -73.5l60 -222h-167q0 1 -4 17.5t-10.5 40.5t-14 52t-14.5 52
t-11.5 40.5t-4.5 17.5q-5 16 -13.5 25t-18.5 14t-21 6.5t-21 1.5h-96v-267h-166z" />
    <glyph glyph-name="afii10073" unicode="&#x437;" horiz-adv-x="911" 
d="M50 534v175h592q48 0 88.5 -13.5t69.5 -41t45.5 -69.5t16.5 -98q0 -42 -10.5 -74.5t-33.5 -58.5q23 -26 33.5 -58.5t10.5 -73.5q0 -56 -16.5 -98t-45.5 -69.5t-69.5 -41t-88.5 -13.5h-592v175h592q6 0 15.5 1.5t18 6.5t14.5 14t6 23q0 16 -6 25t-14.5 14t-18 6.5
t-15.5 1.5h-592v175h597q7 0 15.5 2t16 7t12.5 14.5t5 23.5t-6 23t-14.5 14t-18 6.5t-15.5 1.5h-592z" />
    <glyph glyph-name="afii10074" unicode="&#x438;" horiz-adv-x="976" 
d="M270 0q-48 0 -88.5 13.5t-69.5 41t-45.5 69.5t-16.5 98v487h166v-479q0 -18 6 -29t15.5 -16.5t21 -7.5t21.5 -2h6q20 0 35.5 10.5t28.5 44.5l100 257q20 52 39 93.5t43 70t57 43.5t81 15h37q48 0 88.5 -13.5t69.5 -41t45.5 -69.5t16.5 -98v-487h-166v479q0 18 -6 29
t-15.5 16.5t-21 7.5t-21.5 2h-7q-20 0 -35.5 -10.5t-28.5 -44.5l-100 -257q-20 -53 -39 -94t-43 -69.5t-57 -43.5t-81 -15h-36z" />
    <glyph glyph-name="afii10075" unicode="&#x439;" horiz-adv-x="976" 
d="M270 0q-48 0 -88.5 13.5t-69.5 41t-45.5 69.5t-16.5 98v487h166v-479q0 -18 6 -29t15.5 -16.5t21 -7.5t21.5 -2h6q20 0 35.5 10.5t28.5 44.5l100 257q20 52 39 93.5t43 70t57 43.5t81 15h37q48 0 88.5 -13.5t69.5 -41t45.5 -69.5t16.5 -98v-487h-166v479q0 18 -6 29
t-15.5 16.5t-21 7.5t-21.5 2h-7q-20 0 -35.5 -10.5t-28.5 -44.5l-100 -257q-20 -53 -39 -94t-43 -69.5t-57 -43.5t-81 -15h-36zM542 885h94v-11q0 -64 -35 -95t-90 -31h-48q-54 0 -89 31t-35 95v11h94v-7q0 -20 12.5 -25.5t23.5 -5.5h37q11 0 23.5 5.5t12.5 25.5v7z" />
    <glyph glyph-name="afii10076" unicode="&#x43a;" horiz-adv-x="761" 
d="M50 0v709h166v-267h201q22 0 41.5 9t27.5 38q3 12 11 39.5t17 60t17.5 65.5t13.5 55h167l-60 -222q-5 -20 -11.5 -37t-16.5 -33t-23.5 -31.5t-32.5 -31.5q38 -24 55.5 -58.5t28.5 -73.5l60 -222h-167q0 1 -4 17.5t-10.5 40.5t-14 52t-14.5 52t-11.5 40.5t-4.5 17.5
q-5 16 -13.5 25t-18.5 14t-21 6.5t-21 1.5h-196v-267h-166z" />
    <glyph glyph-name="afii10077" unicode="&#x43b;" horiz-adv-x="888" 
d="M101 709h737v-709h-166v534h-405v-312q0 -64 -16.5 -106.5t-45.5 -68t-69.5 -36.5t-88.5 -11h-22v175h12q10 0 21.5 2t21 7.5t15.5 16.5t6 29v479z" />
    <glyph glyph-name="afii10078" unicode="&#x43c;" horiz-adv-x="1075" 
d="M275 553q-14 0 -23.5 -6t-15.5 -14.5t-8.5 -18t-2.5 -15.5v-499h-175v499q0 48 13.5 88.5t41 69.5t69.5 45.5t98 16.5t97.5 -16.5t68.5 -45.5t40.5 -69.5t13.5 -88.5v-289q0 -6 1.5 -15.5t6.5 -18t14 -14.5t25 -6q14 0 23 6t14 14.5t6.5 18t1.5 15.5v289q0 48 13.5 88.5
t41 69.5t69.5 45.5t98 16.5t97.5 -16.5t68.5 -45.5t40.5 -69.5t13.5 -88.5v-499h-175v499q0 6 -2 15.5t-8 18t-16 14.5t-26 6q-14 0 -23.5 -6t-15.5 -14.5t-8.5 -18t-2.5 -15.5v-289q0 -48 -12 -88.5t-37.5 -69.5t-66 -45.5t-96.5 -16.5t-96 16.5t-65.5 45.5t-37 69.5
t-11.5 88.5v289q0 6 -2 15.5t-8 18t-16 14.5t-26 6z" />
    <glyph glyph-name="afii10079" unicode="&#x43d;" horiz-adv-x="840" 
d="M50 0v709h166v-267h409v267h166v-709h-166v267h-409v-267h-166z" />
    <glyph glyph-name="afii10080" unicode="&#x43e;" 
d="M50 487q0 56 16.5 98t45.5 69.5t69.5 41t88.5 13.5h297q48 0 88.5 -13.5t69.5 -41t45.5 -69.5t16.5 -98v-265q0 -56 -16.5 -98t-45.5 -69.5t-69.5 -41t-88.5 -13.5h-297q-48 0 -88.5 13.5t-69.5 41t-45.5 69.5t-16.5 98v265zM621 479q0 18 -6 29t-15.5 16.5t-21 7.5
t-21.5 2h-277q-10 0 -21.5 -2t-21 -7.5t-15.5 -16.5t-6 -29v-249q0 -18 6 -29t15.5 -16.5t21 -7.5t21.5 -2h277q10 0 21.5 2t21 7.5t15.5 16.5t6 29v249z" />
    <glyph glyph-name="afii10081" unicode="&#x43f;" 
d="M50 0v709h737v-709h-166v534h-405v-534h-166z" />
    <glyph glyph-name="afii10082" unicode="&#x440;" horiz-adv-x="842" 
d="M627 479q0 18 -6 29t-15.5 16.5t-21 7.5t-21.5 2h-283q-10 0 -21.5 -2t-21 -7.5t-15.5 -16.5t-6 -29v-721h-166v729q0 56 16.5 98t45.5 69.5t69.5 41t88.5 13.5h303q48 0 88.5 -13.5t69.5 -41t45.5 -69.5t16.5 -98v-265q0 -56 -16.5 -98t-45.5 -69.5t-69.5 -41
t-88.5 -13.5h-264v175h254q10 0 21.5 2t21 7.5t15.5 16.5t6 29v249z" />
    <glyph glyph-name="afii10083" unicode="&#x441;" horiz-adv-x="772" 
d="M216 230q0 -18 6 -29t15.5 -16.5t21 -7.5t21.5 -2h443v-175h-453q-48 0 -88.5 13.5t-69.5 41t-45.5 69.5t-16.5 98v265q0 56 16.5 98t45.5 69.5t69.5 41t88.5 13.5h453v-175h-443q-10 0 -21.5 -2t-21 -7.5t-15.5 -16.5t-6 -29v-249v0z" />
    <glyph glyph-name="afii10084" unicode="&#x442;" horiz-adv-x="717" 
d="M276 0v534h-251v175h667v-175h-250v-534h-166z" />
    <glyph glyph-name="afii10085" unicode="&#x443;" horiz-adv-x="746" 
d="M151 -242v175h146q20 0 37 10t27 45l23 80h-33q-48 0 -82.5 14.5t-60 42.5t-44 69.5t-33.5 95.5l-121 419h167l120 -411q10 -35 27 -45t37 -10h74l135 466h166l-209 -729q-15 -54 -33.5 -95.5t-44 -69.5t-60 -42.5t-82.5 -14.5h-156z" />
    <glyph glyph-name="afii10086" unicode="&#x444;" horiz-adv-x="877" 
d="M607 709q48 0 88.5 -13.5t69.5 -41t45.5 -69.5t16.5 -98v-265q0 -56 -16.5 -98t-45.5 -69.5t-69.5 -41t-88.5 -13.5h-86v-240h-166v240h-85q-48 0 -88.5 13.5t-69.5 41t-45.5 69.5t-16.5 98v265q0 56 16.5 98t45.5 69.5t69.5 41t88.5 13.5h251h86zM661 479q0 18 -6 29
t-15.5 16.5t-21 7.5t-21.5 2h-76v-359h76q10 0 21.5 2t21 7.5t15.5 16.5t6 29v249zM216 230q0 -18 6 -29t15.5 -16.5t21 -7.5t21.5 -2h75v359h-75q-10 0 -21.5 -2t-21 -7.5t-15.5 -16.5t-6 -29v-249z" />
    <glyph glyph-name="afii10087" unicode="&#x445;" horiz-adv-x="864" 
d="M10 0l316 355l-315 354h212l209 -235l209 235h212l-315 -354l316 -355h-212l-210 236l-210 -236h-212z" />
    <glyph glyph-name="afii10088" unicode="&#x446;" horiz-adv-x="937" 
d="M50 709h166v-534h405v534h166v-534h115v-355h-166v180h-686v709z" />
    <glyph glyph-name="afii10089" unicode="&#x447;" horiz-adv-x="752" 
d="M265 238q-48 0 -88.5 13.5t-69.5 41t-45.5 69.5t-16.5 98v249h166v-241q0 -18 6 -29t15.5 -16.5t21 -7.5t21.5 -2h261v296h166v-709h-166v238h-271v0z" />
    <glyph glyph-name="afii10090" unicode="&#x448;" horiz-adv-x="1076" 
d="M1027 0h-977v709h166v-534h645v534h166v-709zM621 709v-442h-166v442h166z" />
    <glyph glyph-name="afii10091" unicode="&#x449;" horiz-adv-x="1177" 
d="M1027 175h115v-355h-166v180h-926v709h166v-534h645v534h166v-534zM621 709v-442h-166v442h166z" />
    <glyph glyph-name="afii10092" unicode="&#x44a;" horiz-adv-x="1144" 
d="M345 534h-320v175h486v-479q0 -18 6 -29t15.5 -16.5t21 -7.5t21.5 -2h300q6 0 15.5 2t18 7.5t14.5 16.5t6 29q0 19 -6 30.5t-14.5 17.5t-18 7.5t-15.5 1.5h-251v175h251q48 0 88.5 -13.5t69.5 -41.5t45.5 -71.5t16.5 -103.5q0 -56 -16.5 -99.5t-45.5 -73t-69.5 -44.5
t-88.5 -15h-310q-48 0 -88.5 13.5t-69.5 41t-45.5 69.5t-16.5 98v312z" />
    <glyph glyph-name="afii10093" unicode="&#x44b;" horiz-adv-x="1114" 
d="M216 230q0 -18 6 -29t15.5 -16.5t21 -7.5t21.5 -2h300q6 0 15.5 2.5t18 12t14.5 28.5t6 52q0 34 -6 53.5t-14.5 29.5t-18 12t-15.5 2h-272v175h272q48 0 88.5 -14t69.5 -46t45.5 -83.5t16.5 -126.5q0 -71 -16.5 -122.5t-45.5 -84.5t-69.5 -49t-88.5 -16h-310
q-48 0 -88.5 13.5t-69.5 41t-45.5 69.5t-16.5 98v487h166v-479zM899 1v708h166v-708h-166z" />
    <glyph glyph-name="afii10094" unicode="&#x44c;" horiz-adv-x="849" 
d="M216 230q0 -18 6 -29t15.5 -16.5t21 -7.5t21.5 -2h300q6 0 15.5 2.5t18 12t14.5 28.5t6 52q0 34 -6 53.5t-14.5 29.5t-18 12t-15.5 2h-272v175h272q48 0 88.5 -14t69.5 -46t45.5 -83.5t16.5 -126.5q0 -71 -16.5 -122.5t-45.5 -84.5t-69.5 -49t-88.5 -16h-310
q-48 0 -88.5 13.5t-69.5 41t-45.5 69.5t-16.5 98v487h166v-479z" />
    <glyph glyph-name="afii10095" unicode="&#x44d;" horiz-adv-x="768" 
d="M553 479q0 18 -6 29t-15.5 16.5t-21 7.5t-21.5 2h-439v175h449q48 0 88.5 -13.5t69.5 -41t45.5 -69.5t16.5 -98v-265q0 -56 -16.5 -98t-45.5 -69.5t-69.5 -41t-88.5 -13.5h-449v175h439q10 0 21.5 2t21 7.5t15.5 16.5t6 29v249zM461 267h-401v175h401v-175z" />
    <glyph glyph-name="afii10096" unicode="&#x44e;" horiz-adv-x="1152" 
d="M50 1v708h166v-272h150v50q0 56 16.5 98t45.5 69.5t69.5 41t88.5 13.5h297q48 0 88.5 -13.5t69.5 -41t45.5 -69.5t16.5 -98v-265q0 -56 -16.5 -98t-45.5 -69.5t-69.5 -41t-88.5 -13.5h-297q-48 0 -88.5 13.5t-69.5 41t-45.5 69.5t-16.5 98v49h-150v-270h-166zM937 479
q0 18 -6 29t-15.5 16.5t-21 7.5t-21.5 2h-277q-10 0 -21.5 -2t-21 -7.5t-15.5 -16.5t-6 -29v-249q0 -18 6 -29t15.5 -16.5t21 -7.5t21.5 -2h277q10 0 21.5 2t21 7.5t15.5 16.5t6 29v249z" />
    <glyph glyph-name="afii10097" unicode="&#x44f;" horiz-adv-x="837" 
d="M59 0v175h241q19 0 39.5 8t24.5 38q-4 30 -24.5 38t-39.5 8h-30q-48 0 -88.5 13.5t-69.5 40.5t-45.5 68.5t-16.5 97.5t16.5 98t45.5 69.5t69.5 41t88.5 13.5h298q48 0 88.5 -13.5t69.5 -41t45.5 -69.5t16.5 -98v-487h-166v479q0 18 -6 29t-15.5 16.5t-21 7.5t-21.5 2
h-288q-6 0 -15.5 -1.5t-18 -6.5t-14.5 -14t-6 -23q0 -16 6 -25t14.5 -14t18 -6.5t15.5 -1.5h40q48 0 88.5 -13.5t69.5 -41t45.5 -69t16.5 -96.5q0 -56 -16.5 -98t-45.5 -69.5t-69.5 -41t-88.5 -13.5h-251z" />
    <glyph glyph-name="afii10071" unicode="&#x451;" horiz-adv-x="950" 
d="M216 230q0 -18 6 -29t15.5 -16.5t21 -7.5t21.5 -2h591v-175h-601q-48 0 -88.5 13.5t-69.5 41t-45.5 69.5t-16.5 98v265q0 56 16.5 98t45.5 69.5t69.5 41t88.5 13.5h411q48 0 88.5 -13.5t69.5 -41t45.5 -69.5t16.5 -98t-16.5 -97.5t-45.5 -68.5t-69.5 -40.5t-88.5 -13.5
h-373v175h373q6 0 15.5 1.5t18 6.5t14.5 14t6 25q0 14 -6 23t-14.5 14t-18 6.5t-15.5 1.5h-401q-10 0 -21.5 -2t-21 -7.5t-15.5 -16.5t-6 -29v-249zM316 750v132h125v-132h-125zM509 750v132h125v-132h-125z" />
    <glyph glyph-name="afii10099" unicode="&#x452;" horiz-adv-x="895" 
d="M694 170q0 18 -6 29t-15.5 16.5t-21 7.5t-21.5 2h-188v-225h-166v534h-251v175h667v-175h-250v-134h198q48 0 88.5 -13.5t69.5 -41t45.5 -69.5t16.5 -98v-198q0 -56 -16.5 -98t-45.5 -69.5t-69.5 -41t-88.5 -13.5h-67v175h57q10 0 21.5 2t21 7.5t15.5 16.5t6 29v182z" />
    <glyph glyph-name="afii10100" unicode="&#x453;" horiz-adv-x="758" 
d="M216 0h-166v487q0 56 16.5 98t45.5 69.5t69.5 41t88.5 13.5h439v-175h-429q-10 0 -21.5 -2t-21 -7.5t-15.5 -16.5t-6 -29v-479zM431 941h136l-80 -191h-116z" />
    <glyph glyph-name="afii10101" unicode="&#x454;" horiz-adv-x="768" 
d="M216 230q0 -18 6 -29t15.5 -16.5t21 -7.5t21.5 -2h439v-175h-449q-48 0 -88.5 13.5t-69.5 41t-45.5 69.5t-16.5 98v265q0 56 16.5 98t45.5 69.5t69.5 41t88.5 13.5h449v-175h-439q-10 0 -21.5 -2t-21 -7.5t-15.5 -16.5t-6 -29v-249zM308 442h401v-175h-401v175z" />
    <glyph glyph-name="afii10102" unicode="&#x455;" horiz-adv-x="817" 
d="M602 220q0 16 -6 25t-14.5 14t-18 6.5t-15.5 1.5h-278q-48 0 -88.5 13.5t-69.5 40.5t-45.5 68.5t-16.5 97.5t16.5 98t45.5 69.5t69.5 41t88.5 13.5h467v-175h-467q-6 0 -15.5 -1.5t-18 -6.5t-14.5 -14t-6 -23q0 -16 6 -25t14.5 -14t18 -6.5t15.5 -1.5h278
q48 0 88.5 -13.5t69.5 -40.5t45.5 -68.5t16.5 -97.5t-16.5 -98t-45.5 -69.5t-69.5 -41t-88.5 -13.5h-478v175h478q6 0 15.5 1.5t18 6.5t14.5 14t6 23z" />
    <glyph glyph-name="afii10103" unicode="&#x456;" horiz-adv-x="265" 
d="M50 1v708h166v-708h-166zM50 797v144h166v-144h-166z" />
    <glyph glyph-name="afii10104" unicode="&#x457;" horiz-adv-x="265" 
d="M50 1v708h166v-708h-166zM-26 750v132h125v-132h-125zM167 750v132h125v-132h-125z" />
    <glyph glyph-name="afii10105" unicode="&#x458;" horiz-adv-x="265" 
d="M50 709h166v-729q0 -56 -16.5 -98t-45.5 -69.5t-69.5 -41t-88.5 -13.5h-107v175h97q10 0 21.5 2t21 7.5t15.5 16.5t6 29v721zM50 797v144h166v-144h-166z" />
    <glyph glyph-name="afii10106" unicode="&#x459;" horiz-adv-x="1191" 
d="M101 709h557v-479q0 -18 6 -29t15.5 -16.5t21 -7.5t21.5 -2h200q6 0 15.5 2.5t18 12t14.5 28.5t6 52q0 34 -6 53.5t-14.5 29.5t-18 12t-15.5 2h-172v175h172q48 0 88.5 -14t69.5 -46t45.5 -83.5t16.5 -126.5q0 -71 -16.5 -122.5t-45.5 -84.5t-69.5 -49t-88.5 -16h-210
q-48 0 -88.5 13.5t-69.5 41t-45.5 69.5t-16.5 98v312h-225v-312q0 -64 -16.5 -106.5t-45.5 -68t-69.5 -36.5t-88.5 -11h-22v175h12q10 0 21.5 2t21 7.5t15.5 16.5t6 29v479z" />
    <glyph glyph-name="afii10107" unicode="&#x45a;" horiz-adv-x="1184" 
d="M50 0v709h166v-267h269v267h166v-479q0 -18 6 -29t15.5 -16.5t21 -7.5t21.5 -2h200q6 0 15.5 2.5t18 12t14.5 28.5t6 52q0 34 -6 53.5t-14.5 29.5t-18 12t-15.5 2h-172v175h172q48 0 88.5 -14t69.5 -46t45.5 -83.5t16.5 -126.5q0 -71 -16.5 -122.5t-45.5 -84.5t-69.5 -49
t-88.5 -16h-210q-48 0 -88.5 13.5t-69.5 41t-45.5 69.5t-16.5 98v45h-269v-267h-166z" />
    <glyph glyph-name="afii10108" unicode="&#x45b;" horiz-adv-x="895" 
d="M640 400q48 0 88.5 -13.5t69.5 -41t45.5 -69.5t16.5 -98v-178h-166v170q0 18 -6 29t-15.5 16.5t-21 7.5t-21.5 2h-188v-225h-166v534h-251v175h667v-175h-250v-134h198v0z" />
    <glyph glyph-name="afii10109" unicode="&#x45c;" horiz-adv-x="761" 
d="M50 0v709h166v-267h201q22 0 41.5 9t27.5 38q3 12 11 39.5t17 60t17.5 65.5t13.5 55h167l-60 -222q-5 -20 -11.5 -37t-16.5 -33t-23.5 -31.5t-32.5 -31.5q38 -24 55.5 -58.5t28.5 -73.5l60 -222h-167q0 1 -4 17.5t-10.5 40.5t-14 52t-14.5 52t-11.5 40.5t-4.5 17.5
q-5 16 -13.5 25t-18.5 14t-21 6.5t-21 1.5h-196v-267h-166zM342 941h136l-80 -191h-116z" />
    <glyph glyph-name="afii10110" unicode="&#x45e;" horiz-adv-x="746" 
d="M151 -242v175h146q20 0 37 10t27 45l23 80h-33q-48 0 -82.5 14.5t-60 42.5t-44 69.5t-33.5 95.5l-121 419h167l120 -411q10 -35 27 -45t37 -10h74l135 466h166l-209 -729q-15 -54 -33.5 -95.5t-44 -69.5t-60 -42.5t-82.5 -14.5h-156zM427 865h94v-11q0 -64 -35 -95
t-90 -31h-48q-54 0 -89 31t-35 95v11h94v-7q0 -20 12.5 -25.5t23.5 -5.5h37q11 0 23.5 5.5t12.5 25.5v7z" />
    <glyph glyph-name="afii10193" unicode="&#x45f;" 
d="M336 -178v178h-286v709h166v-534h405v534h166v-709h-285v-178h-166z" />
    <glyph glyph-name="afii10050" unicode="&#x490;" horiz-adv-x="734" 
d="M280 534q-10 0 -21.5 -2t-21 -7.5t-15.5 -16.5t-6 -29v-479h-166v487q0 56 16.5 98t45.5 69.5t69.5 41t88.5 13.5h273v188h166v-363h-429z" />
    <glyph glyph-name="afii10098" unicode="&#x491;" horiz-adv-x="734" 
d="M280 534q-10 0 -21.5 -2t-21 -7.5t-15.5 -16.5t-6 -29v-479h-166v487q0 56 16.5 98t45.5 69.5t69.5 41t88.5 13.5h273v188h166v-363h-429z" />
    <glyph glyph-name="endash" unicode="&#x2013;" horiz-adv-x="619" 
d="M18 342h550v-166h-550v166z" />
    <glyph glyph-name="emdash" unicode="&#x2014;" horiz-adv-x="936" 
d="M18 342h867v-166h-867v166z" />
    <glyph glyph-name="quoteleft" unicode="&#x2018;" horiz-adv-x="265" 
d="M50 535v275h166v-275h-166z" />
    <glyph glyph-name="quoteright" unicode="&#x2019;" horiz-adv-x="265" 
d="M50 535v275h166v-275h-166z" />
    <glyph glyph-name="quotesinglbase" unicode="&#x201a;" horiz-adv-x="265" 
d="M50 -100v275h166v-275h-166z" />
    <glyph glyph-name="quotedblleft" unicode="&#x201c;" horiz-adv-x="521" 
d="M50 534v274h166v-274h-166zM306 534v274h166v-274h-166z" />
    <glyph glyph-name="quotedblright" unicode="&#x201d;" horiz-adv-x="521" 
d="M50 534v274h166v-274h-166zM306 534v274h166v-274h-166z" />
    <glyph glyph-name="quotedblbase" unicode="&#x201e;" horiz-adv-x="521" 
d="M50 -99v274h166v-274h-166zM306 -99v274h166v-274h-166z" />
    <glyph glyph-name="dagger" unicode="&#x2020;" horiz-adv-x="555" 
d="M10 531h184v178h166v-178h185v-166h-185v-607h-166v607h-184v166z" />
    <glyph glyph-name="daggerdbl" unicode="&#x2021;" horiz-adv-x="555" 
d="M10 531h184v178h166v-178h185v-166h-185v-99h185v-166h-185v-342h-166v342h-184v166h184v99h-184v166z" />
    <glyph glyph-name="bullet" unicode="&#x2022;" horiz-adv-x="349" 
d="M50 359v240h250v-240h-250z" />
    <glyph glyph-name="ellipsis" unicode="&#x2026;" horiz-adv-x="777" 
d="M50 0v175h166v-175h-166zM306 0v175h166v-175h-166zM562 0v175h166v-175h-166z" />
    <glyph glyph-name="perthousand" unicode="&#x2030;" horiz-adv-x="825" 
d="M67 171q0 48 15 81t43.5 57t69.5 43t94 39l257 100q34 13 44.5 28.5t10.5 35.5v154h175v-174q0 -48 -15 -81t-43.5 -57t-70 -43t-93.5 -39l-257 -100q-34 -13 -44.5 -28.5t-10.5 -35.5v-151h-175v171zM177 535v175h166v-175h-166zM368 0v175h166v-175h-166zM607 0v175
h166v-175h-166z" />
    <glyph glyph-name="guilsinglleft" unicode="&#x2039;" horiz-adv-x="323" 
d="M44 369q0 40 12.5 68.5t36 50t58 37t79.5 30.5l45 14v-141l-63 -13q-29 -8 -37.5 -22t-8.5 -31v-6q0 -17 8.5 -31.5t37.5 -22.5l63 -16v-137l-48 15q-45 13 -79 28.5t-57.5 36t-35 49t-11.5 68.5v23v0z" />
    <glyph glyph-name="guilsinglright" unicode="&#x203a;" horiz-adv-x="323" 
d="M276 346q0 -40 -11.5 -68.5t-35 -49t-57.5 -36t-79 -28.5l-48 -15v137l63 16q29 8 37.5 22.5t8.5 31.5v6q0 17 -8.5 31t-37.5 22l-63 13v141l45 -14q45 -15 79.5 -30.5t58 -37t36 -50t12.5 -68.5v-23z" />
    <glyph glyph-name="fraction" unicode="&#x2044;" horiz-adv-x="825" 
d="M67 171q0 48 15 81t43.5 57t69.5 43t94 39l257 100q34 13 44.5 28.5t10.5 35.5v154h175v-174q0 -48 -15 -81t-43.5 -57t-70 -43t-93.5 -39l-257 -100q-34 -13 -44.5 -28.5t-10.5 -35.5v-151h-175v171v0z" />
    <glyph glyph-name="dong" unicode="&#x20ab;" horiz-adv-x="842" 
d="M508 859h119v82h166v-82h106v-66h-106v-571q0 -56 -16.5 -98t-45.5 -69.5t-69.5 -41t-88.5 -13.5h-303q-48 0 -88.5 13.5t-69.5 41t-45.5 69.5t-16.5 98v265q0 56 16.5 98t45.5 69.5t69.5 41t88.5 13.5h264v-175h-254q-10 0 -21.5 -2t-21 -7.5t-15.5 -16.5t-6 -29v-249
q0 -18 6 -29t15.5 -16.5t21 -7.5t21.5 -2h283q10 0 21.5 2t21 7.5t15.5 16.5t6 29v563h-119v66zM108 -228v135h645v-135h-645z" />
    <glyph glyph-name="Euro" unicode="&#x20ac;" horiz-adv-x="772" 
d="M-16 441h66v46q0 56 16.5 98t45.5 69.5t69.5 41t88.5 13.5h453v-175h-443q-10 0 -21.5 -2t-21 -7.5t-15.5 -16.5t-6 -29v-38h450v-55h-450v-65h452v-55h-452v-36q0 -18 6 -29t15.5 -16.5t21 -7.5t21.5 -2h443v-175h-453q-48 0 -88.5 13.5t-69.5 41t-45.5 69.5t-16.5 98
v44h-64v55h64v65h-66v55z" />
    <glyph glyph-name="afii61352" unicode="&#x2116;" horiz-adv-x="1541" 
d="M671 0q-48 0 -81 15t-57 43.5t-43 69.5t-39 94l-100 257q-13 34 -28.5 44.5t-35.5 10.5h-7q-10 0 -21.5 -2t-21 -7.5t-15.5 -16.5t-6 -29v-479h-166v487q0 56 16.5 98t45.5 69.5t69.5 41t88.5 13.5h37q48 0 81 -15t57 -43.5t43 -70t39 -93.5l100 -257q13 -34 28.5 -44.5
t35.5 -10.5h6q10 0 21.5 2t21 7.5t15.5 16.5t6 29v479h166v-487q0 -56 -16.5 -98t-45.5 -69.5t-69.5 -41t-88.5 -13.5h-36zM1006 507q0 56 13 94.5t38.5 62.5t63 34.5t85.5 10.5h87q48 0 85 -10.5t62.5 -34.5t39 -62.5t13.5 -94.5v-85q0 -56 -13.5 -94.5t-39 -62.5
t-62.5 -34.5t-85 -10.5h-87q-48 0 -85.5 10.5t-63 34.5t-38.5 62.5t-13 94.5v85zM1347 499q0 18 -6 29t-15.5 16.5t-21 7.5t-21.5 2h-67q-10 0 -21.5 -2t-21 -7.5t-15.5 -16.5t-6 -29v-69q0 -18 6 -29t15.5 -16.5t21 -7.5t21.5 -2h67q10 0 21.5 2t21 7.5t15.5 16.5t6 29v69z
M1096 166h305v-166h-305v166z" />
    <glyph glyph-name="trademark" unicode="&#x2122;" horiz-adv-x="1280" 
d="M194 396v312h-144v126h407v-126h-143v-312h-120zM687 722q-10 0 -16.5 -4.5t-10 -10.5t-4.5 -13t-1 -11v-287h-126v287q0 69 39.5 113.5t120.5 44.5t119.5 -44.5t38.5 -113.5v-136q0 -5 1 -11.5t4.5 -12.5t10.5 -10.5t18 -4.5q10 0 16.5 4.5t10 10.5t4.5 12.5t1 11.5v136
q0 69 39.5 113.5t120.5 44.5q80 0 119 -44.5t39 -113.5v-287h-126v287q0 4 -1 11t-4.5 13t-10.5 10.5t-18 4.5q-10 0 -16.5 -4.5t-10 -10.5t-4.5 -13t-1 -11v-136q0 -69 -39.5 -113.5t-120.5 -44.5q-80 0 -119 44.5t-39 113.5v136q0 4 -1 11t-4.5 13t-10 10.5t-18.5 4.5z
" />
    <glyph glyph-name="minus" unicode="&#x2212;" horiz-adv-x="598" 
d="M18 442h551v-166h-551v166z" />
    <glyph glyph-name="uniF6C3" unicode="&#xf6c3;" horiz-adv-x="265" 
d="M50 -100v275h166v-275h-166z" />
    <glyph glyph-name="uniF8FF" unicode="&#xf8ff;" horiz-adv-x="875" 
d="M660 135l71 93l-104 -40l-12 77l-110 -103l63 196l-63 -30l-59 107l-66 -107l-50 30l37 -196l-103 103l-10 -77l-103 40l66 -93l-77 -14l173 -127l-49 -58l165 32v-168h-409l-1 698h835v-698h-395v168l156 -32l-45 58l161 127zM438 563q-2 -18 -10.5 -25.5t-20.5 -7.5
h-40v170h40q12 0 20.5 -9t10.5 -29v-99zM241 530l-27 109l-5 13l3 -14v-108h-23v170h28l28 -117l5 -14l-2 15v116h23v-170h-30zM158 530l-7 35h-24l-3 -35h-23l23 170h34l20 -170h-20zM336 530l-5 35h-24l-4 -35h-23l23 170h33l21 -170h-21zM500 530l-5 35h-24l-3 -35h-22
l22 170h32l23 -170h-23zM781 635q0 -18 -9 -26t-22 -8h-18v-71h-20v170h38q13 0 22 -9t9 -29v-27zM96 562q0 -20 -10 -26.5t-26 -6.5q-15 0 -24.5 6.5t-11.5 26.5v103q2 20 11.5 28t24.5 8q16 0 26 -8t10 -28v-27h-24v24q-3 17 -12 17q-10 0 -13 -17v-99q4 -16 13 -16
q8 0 12 16v22h24v-23zM676 587v-57h-27v57l-25 113h24l14 -75l16 75h25zM793 530v170h54v-25h-32v-49h30v-24h-30v-51h32v-21h-54zM601 675v-145h-23v145h-19v25h64v-25h-22zM414 661q0 9 -3 11.5t-9 2.5h-12v-126h12q6 0 9 5t3 13v94zM757 662q0 16 -12 16h-13v-58h13
q12 0 12 17v25zM142 664q0 9 -2 11v-11l-10 -75h20zM320 664q0 9 -2 11v-11l-7 -75h19zM484 664q0 9 -1 11v-11l-10 -75h20z" />
    <glyph glyph-name="uniFB01" unicode="&#xfb01;" horiz-adv-x="1017" 
d="M216 -242h-166v729q0 56 16.5 98t45.5 69.5t69.5 41t88.5 13.5h439v-175h-429q-10 0 -21.5 -2t-21 -7.5t-15.5 -16.5t-6 -29v-721zM308 175h381v-175h-381v175zM802 1v708h166v-708h-166z" />
    <glyph glyph-name="uniFB02" unicode="&#xfb02;" horiz-adv-x="1017" 
d="M216 -242h-166v729q0 56 16.5 98t45.5 69.5t69.5 41t88.5 13.5h439v-175h-429q-10 0 -21.5 -2t-21 -7.5t-15.5 -16.5t-6 -29v-721zM308 175h381v-175h-381v175zM802 1v941h166v-941h-166z" />
    </font>
</defs>
</svg>
