<svg width="56.985" height="61.629" fill="none" xmlns="http://www.w3.org/2000/svg"><path id="NA MU" d="M23.115 0v25.198h-4.79L5.757 9.896v15.302H0V0h4.825L17.35 15.302V0h5.765Zm22.567 19.802H33.983l-2.232 5.396h-5.977L37.008 0h5.757L54.03 25.198h-6.117l-2.232-5.396Zm-1.837-4.43-3.99-9.65-4 9.65h7.99ZM22.93 61.198l-.036-15.117-7.418 12.454H12.85L5.476 46.406v14.792H0V36h4.825l9.43 15.662L23.546 36h4.79l.071 25.198h-5.475Zm22.646.43q-5.405 0-8.41-2.987-3.007-2.989-3.007-8.535V36h5.836v13.895q0 6.768 5.616 6.768 2.734 0 4.175-1.635 1.442-1.643 1.442-5.133V36h5.757v14.106q0 5.546-3.006 8.535-3.006 2.988-8.403 2.988Z" fill="#0F0E08" fill-opacity="1" fill-rule="evenodd"/></svg>