<?xml version="1.0" encoding="iso-8859-1"?>
<!-- Generator: Adobe Illustrator 16.0.0, SVG Export Plug-In . SVG Version: 6.00 Build 0)  -->
<!DOCTYPE svg PUBLIC "-//W3C//DTD SVG 1.1//EN" "http://www.w3.org/Graphics/SVG/1.1/DTD/svg11.dtd">
<svg version="1.1" id="Capa_1" xmlns="http://www.w3.org/2000/svg" xmlns:xlink="http://www.w3.org/1999/xlink" x="0px" y="0px"
	 width="217.704px" height="217.704px" viewBox="0 0 217.704 217.704" style="enable-background:new 0 0 217.704 217.704;"
	 xml:space="preserve">
<g>
	<path d="M212.328,201.805h-2.823c1.143-0.987,1.911-2.395,1.911-4.032c0-2.972-2.404-5.374-5.376-5.374h-11.182v-0.069
		c2.803-0.183,5.04-2.457,5.04-5.307c0-2.846-2.237-5.123-5.04-5.302V96.917c2.803-0.184,5.04-2.457,5.04-5.307
		c0-2.846-2.237-5.124-5.04-5.303v-0.908h6.048c2.971,0,5.376-2.404,5.376-5.375c0-1.154-0.437-2.152-1.052-3.029h0.81
		c0.042,0,0.084,0,0.104,0c2.977,0,5.376-2.403,5.376-5.375c0-2.199-1.312-4.094-3.213-4.924L111.713,5.976
		c-1.753-1.104-3.968-1.104-5.72,0L8.795,67.068C6.77,68.338,5.827,70.8,6.488,73.11c0.662,2.299,2.775,3.884,5.166,3.884h0.819
		c-0.614,0.873-1.05,1.875-1.05,3.029c0,2.971,2.405,5.375,5.376,5.375h6.048v0.908c-2.801,0.179-5.042,2.457-5.042,5.303
		c0,2.85,2.236,5.123,5.042,5.307v84.804c-2.801,0.179-5.042,2.456-5.042,5.302c0,2.85,2.236,5.124,5.042,5.307v0.069H11.654
		c-2.971,0-5.375,2.402-5.375,5.374c0,1.638,0.769,3.045,1.913,4.032H5.375c-2.971,0-5.375,2.404-5.375,5.376
		c0,2.976,2.404,5.375,5.375,5.375h206.953c2.971,0,5.376-2.399,5.376-5.375C217.704,204.209,215.299,201.805,212.328,201.805z
		 M184.107,96.917v84.804c-2.803,0.179-5.039,2.456-5.039,5.302c0,2.85,2.236,5.124,5.039,5.307v0.069h-43.003v-0.069
		c2.803-0.183,5.039-2.457,5.039-5.307c0-2.846-2.236-5.123-5.039-5.302V96.917c2.803-0.184,5.039-2.457,5.039-5.307
		c0-1.002-0.341-1.885-0.818-2.688h34.572c-0.478,0.803-0.818,1.685-0.818,2.688C179.068,94.459,181.305,96.732,184.107,96.917z
		 M87.351,192.329c2.8-0.183,5.042-2.457,5.042-5.307c0-2.846-2.236-5.123-5.042-5.302V96.917c2.8-0.184,5.042-2.457,5.042-5.307
		c0-1.002-0.344-1.885-0.822-2.688h34.572c-0.478,0.803-0.818,1.685-0.818,2.688c0,2.85,2.236,5.123,5.039,5.307v84.804
		c-2.803,0.179-5.039,2.456-5.039,5.302c0,2.85,2.236,5.124,5.039,5.307v0.069H87.361v-0.069H87.351z M76.6,96.917v84.804
		c-2.8,0.179-5.042,2.456-5.042,5.302c0,2.85,2.236,5.124,5.042,5.307v0.069H33.596v-0.069c2.801-0.183,5.042-2.457,5.042-5.307
		c0-2.846-2.236-5.123-5.042-5.302V96.917c2.801-0.184,5.042-2.457,5.042-5.307c0-1.002-0.343-1.885-0.821-2.688h34.575
		c-0.48,0.803-0.824,1.685-0.824,2.688C71.563,94.459,73.799,96.732,76.6,96.917z"/>
</g>
<g>
</g>
<g>
</g>
<g>
</g>
<g>
</g>
<g>
</g>
<g>
</g>
<g>
</g>
<g>
</g>
<g>
</g>
<g>
</g>
<g>
</g>
<g>
</g>
<g>
</g>
<g>
</g>
<g>
</g>
</svg>
