<svg width="20" height="16" fill="none" xmlns="http://www.w3.org/2000/svg"><path d="M3.79 13.967c-.843.488-2.878.474-3.79.406C.421 14.78 3.579 16 6.526 16c2.948 0 5.053-.407 8.632-3.66 2.863-2.601 3.158-6.369 2.947-7.928L20 2.38h-1.684L19.368.347c-.771.474-2.357 1.3-2.526.813-.21-.61-3.158-2.033-5.684-.407-2.021 1.301-1.684 3.05-1.474 4.473C5.894 4.819 1.053.753 1.053.753c-1.176 2.108.41 4.66 1.046 5.682l.006.01L.632 6.04c0 1.789 1.684 3.05 2.526 3.659H1.895c.673 1.789 2.807 2.778 3.79 3.05-.281.202-1.053.731-1.896 1.219z" fill="#C4C4C4"/></svg>