<svg width="86" height="26" viewBox="0 0 86 26" fill="none" xmlns="http://www.w3.org/2000/svg">
<path d="M9.152 16.508C9.152 17.54 9.344 18.26 9.728 18.668C10.112 19.052 10.784 19.244 11.744 19.244V20C9.152 19.904 7.496 19.856 6.776 19.856C5.984 19.856 4.256 19.892 1.592 19.964L0.584 20V19.244C1.712 19.244 2.552 19.028 3.104 18.596C3.68 18.164 3.968 17.396 3.968 16.292V7.508C3.968 6.356 3.86 5.516 3.644 4.988C3.452 4.436 3.116 4.076 2.636 3.908C2.156 3.716 1.424 3.62 0.44 3.62V2.828C2.528 2.78 4.244 2.624 5.588 2.36C6.932 2.072 8.12 1.616 9.152 0.992V16.508ZM21.3912 0.883999C23.1912 0.883999 24.6672 1.256 25.8192 2C26.9712 2.744 27.5472 3.752 27.5472 5.024C27.5472 6.392 26.8872 7.616 25.5672 8.696C24.2472 9.776 22.4712 10.532 20.2392 10.964C22.7592 10.868 24.8232 11.312 26.4312 12.296C28.0392 13.256 28.8432 14.636 28.8432 16.436C28.8432 18.188 28.0872 19.748 26.5752 21.116C25.0632 22.508 23.1192 23.576 20.7432 24.32C18.3912 25.064 16.0032 25.436 13.5792 25.436V24.716C15.1632 24.668 16.7112 24.308 18.2232 23.636C19.7592 22.988 21.0192 22.052 22.0032 20.828C22.9872 19.604 23.4792 18.152 23.4792 16.472C23.4792 15.056 23.1312 13.892 22.4352 12.98C21.7632 12.068 20.8512 11.564 19.6992 11.468C19.3632 11.636 19.0272 11.78 18.6912 11.9C18.3792 11.996 18.1032 12.044 17.8632 12.044C17.4072 12.044 17.1792 11.876 17.1792 11.54C17.1792 11.276 17.2872 11.084 17.5032 10.964C17.7192 10.82 17.9952 10.748 18.3312 10.748C18.4752 10.748 18.6672 10.772 18.9072 10.82C19.1712 10.844 19.3992 10.868 19.5912 10.892C21.4392 9.596 22.3632 7.988 22.3632 6.068C22.3632 4.988 22.0872 4.196 21.5352 3.692C20.9832 3.164 20.1912 2.9 19.1592 2.9C18.1992 2.9 17.3112 3.14 16.4952 3.62C15.7032 4.1 15.0312 4.796 14.4792 5.708L13.8312 5.384C14.5752 4.016 15.5352 2.924 16.7112 2.108C17.9112 1.292 19.4712 0.883999 21.3912 0.883999ZM35.3333 0.883999C36.2693 0.883999 37.0133 1.136 37.5653 1.64C38.1173 2.12 38.3933 2.792 38.3933 3.656C38.3933 4.52 38.1173 5.204 37.5653 5.708C37.0133 6.188 36.2693 6.428 35.3333 6.428C34.3973 6.428 33.6533 6.188 33.1013 5.708C32.5493 5.204 32.2733 4.52 32.2733 3.656C32.2733 2.792 32.5493 2.12 33.1013 1.64C33.6533 1.136 34.3973 0.883999 35.3333 0.883999ZM35.3333 14.96C36.2693 14.96 37.0133 15.212 37.5653 15.716C38.1173 16.196 38.3933 16.868 38.3933 17.732C38.3933 18.596 38.1173 19.28 37.5653 19.784C37.0133 20.264 36.2693 20.504 35.3333 20.504C34.3973 20.504 33.6533 20.264 33.1013 19.784C32.5493 19.28 32.2733 18.596 32.2733 17.732C32.2733 16.868 32.5493 16.196 33.1013 15.716C33.6533 15.212 34.3973 14.96 35.3333 14.96ZM52.3627 0.883999C54.2587 0.883999 55.9507 1.28 57.4387 2.072C58.9267 2.864 60.0787 3.98 60.8947 5.42C61.7347 6.86 62.1547 8.516 62.1547 10.388C62.1547 12.308 61.7227 14.036 60.8587 15.572C60.0187 17.108 58.8187 18.32 57.2587 19.208C55.7227 20.072 53.9587 20.504 51.9667 20.504C50.0947 20.504 48.4147 20.108 46.9267 19.316C45.4387 18.524 44.2747 17.408 43.4347 15.968C42.5947 14.528 42.1747 12.86 42.1747 10.964C42.1747 9.068 42.5947 7.352 43.4347 5.816C44.2987 4.28 45.4987 3.08 47.0347 2.216C48.5707 1.328 50.3467 0.883999 52.3627 0.883999ZM52.0387 1.532C51.1747 1.532 50.4067 1.904 49.7347 2.648C49.0627 3.392 48.5347 4.472 48.1507 5.888C47.7907 7.28 47.6107 8.936 47.6107 10.856C47.6107 13.904 48.0427 16.172 48.9067 17.66C49.7947 19.124 50.9227 19.856 52.2907 19.856C53.1547 19.856 53.9107 19.484 54.5587 18.74C55.2307 17.972 55.7587 16.892 56.1427 15.5C56.5267 14.084 56.7187 12.416 56.7187 10.496C56.7187 7.448 56.2747 5.192 55.3867 3.728C54.5227 2.264 53.4067 1.532 52.0387 1.532ZM75.5658 0.883999C77.4618 0.883999 79.1538 1.28 80.6418 2.072C82.1298 2.864 83.2818 3.98 84.0978 5.42C84.9378 6.86 85.3578 8.516 85.3578 10.388C85.3578 12.308 84.9258 14.036 84.0618 15.572C83.2218 17.108 82.0218 18.32 80.4618 19.208C78.9258 20.072 77.1618 20.504 75.1698 20.504C73.2978 20.504 71.6178 20.108 70.1298 19.316C68.6418 18.524 67.4778 17.408 66.6378 15.968C65.7978 14.528 65.3778 12.86 65.3778 10.964C65.3778 9.068 65.7978 7.352 66.6378 5.816C67.5018 4.28 68.7018 3.08 70.2378 2.216C71.7738 1.328 73.5498 0.883999 75.5658 0.883999ZM75.2418 1.532C74.3778 1.532 73.6098 1.904 72.9378 2.648C72.2658 3.392 71.7378 4.472 71.3538 5.888C70.9938 7.28 70.8138 8.936 70.8138 10.856C70.8138 13.904 71.2458 16.172 72.1098 17.66C72.9978 19.124 74.1258 19.856 75.4938 19.856C76.3578 19.856 77.1138 19.484 77.7618 18.74C78.4338 17.972 78.9618 16.892 79.3458 15.5C79.7298 14.084 79.9218 12.416 79.9218 10.496C79.9218 7.448 79.4778 5.192 78.5898 3.728C77.7258 2.264 76.6098 1.532 75.2418 1.532Z" fill="#CD4D31"/>
</svg>
