<svg width="88" height="26" viewBox="0 0 88 26" fill="none" xmlns="http://www.w3.org/2000/svg">
<path d="M9.152 16.508C9.152 17.54 9.344 18.26 9.728 18.668C10.112 19.052 10.784 19.244 11.744 19.244V20C9.152 19.904 7.496 19.856 6.776 19.856C5.984 19.856 4.256 19.892 1.592 19.964L0.584 20V19.244C1.712 19.244 2.552 19.028 3.104 18.596C3.68 18.164 3.968 17.396 3.968 16.292V7.508C3.968 6.356 3.86 5.516 3.644 4.988C3.452 4.436 3.116 4.076 2.636 3.908C2.156 3.716 1.424 3.62 0.44 3.62V2.828C2.528 2.78 4.244 2.624 5.588 2.36C6.932 2.072 8.12 1.616 9.152 0.992V16.508ZM30.6733 18.884C30.3853 18.812 29.1853 18.752 27.0733 18.704V25.076H22.8973V18.704H13.0693V17.948L26.4973 0.883999H27.0733V14.996H27.3613C28.0093 14.996 28.4893 14.948 28.8013 14.852C29.1373 14.756 29.3653 14.6 29.4853 14.384C29.6053 14.168 29.7013 13.832 29.7733 13.376H30.5293C30.5293 15.92 30.5773 17.756 30.6733 18.884ZM22.8973 14.996V6.608L16.3813 14.996H22.8973ZM37.0208 0.883999C37.9568 0.883999 38.7008 1.136 39.2528 1.64C39.8048 2.12 40.0808 2.792 40.0808 3.656C40.0808 4.52 39.8048 5.204 39.2528 5.708C38.7008 6.188 37.9568 6.428 37.0208 6.428C36.0848 6.428 35.3408 6.188 34.7888 5.708C34.2368 5.204 33.9608 4.52 33.9608 3.656C33.9608 2.792 34.2368 2.12 34.7888 1.64C35.3408 1.136 36.0848 0.883999 37.0208 0.883999ZM37.0208 14.96C37.9568 14.96 38.7008 15.212 39.2528 15.716C39.8048 16.196 40.0808 16.868 40.0808 17.732C40.0808 18.596 39.8048 19.28 39.2528 19.784C38.7008 20.264 37.9568 20.504 37.0208 20.504C36.0848 20.504 35.3408 20.264 34.7888 19.784C34.2368 19.28 33.9608 18.596 33.9608 17.732C33.9608 16.868 34.2368 16.196 34.7888 15.716C35.3408 15.212 36.0848 14.96 37.0208 14.96ZM54.0502 0.883999C55.9462 0.883999 57.6382 1.28 59.1262 2.072C60.6142 2.864 61.7662 3.98 62.5822 5.42C63.4222 6.86 63.8422 8.516 63.8422 10.388C63.8422 12.308 63.4102 14.036 62.5462 15.572C61.7062 17.108 60.5062 18.32 58.9462 19.208C57.4102 20.072 55.6462 20.504 53.6542 20.504C51.7822 20.504 50.1022 20.108 48.6142 19.316C47.1262 18.524 45.9622 17.408 45.1222 15.968C44.2822 14.528 43.8622 12.86 43.8622 10.964C43.8622 9.068 44.2822 7.352 45.1222 5.816C45.9862 4.28 47.1862 3.08 48.7222 2.216C50.2582 1.328 52.0342 0.883999 54.0502 0.883999ZM53.7262 1.532C52.8622 1.532 52.0942 1.904 51.4222 2.648C50.7502 3.392 50.2222 4.472 49.8382 5.888C49.4782 7.28 49.2982 8.936 49.2982 10.856C49.2982 13.904 49.7302 16.172 50.5942 17.66C51.4822 19.124 52.6102 19.856 53.9782 19.856C54.8422 19.856 55.5982 19.484 56.2462 18.74C56.9182 17.972 57.4462 16.892 57.8302 15.5C58.2142 14.084 58.4062 12.416 58.4062 10.496C58.4062 7.448 57.9622 5.192 57.0742 3.728C56.2102 2.264 55.0942 1.532 53.7262 1.532ZM77.2533 0.883999C79.1493 0.883999 80.8413 1.28 82.3293 2.072C83.8173 2.864 84.9693 3.98 85.7853 5.42C86.6253 6.86 87.0453 8.516 87.0453 10.388C87.0453 12.308 86.6133 14.036 85.7493 15.572C84.9093 17.108 83.7093 18.32 82.1493 19.208C80.6133 20.072 78.8493 20.504 76.8573 20.504C74.9853 20.504 73.3053 20.108 71.8173 19.316C70.3293 18.524 69.1653 17.408 68.3253 15.968C67.4853 14.528 67.0653 12.86 67.0653 10.964C67.0653 9.068 67.4853 7.352 68.3253 5.816C69.1893 4.28 70.3893 3.08 71.9253 2.216C73.4613 1.328 75.2373 0.883999 77.2533 0.883999ZM76.9293 1.532C76.0653 1.532 75.2973 1.904 74.6253 2.648C73.9533 3.392 73.4253 4.472 73.0413 5.888C72.6813 7.28 72.5013 8.936 72.5013 10.856C72.5013 13.904 72.9333 16.172 73.7973 17.66C74.6853 19.124 75.8133 19.856 77.1813 19.856C78.0453 19.856 78.8013 19.484 79.4493 18.74C80.1213 17.972 80.6493 16.892 81.0333 15.5C81.4173 14.084 81.6093 12.416 81.6093 10.496C81.6093 7.448 81.1653 5.192 80.2773 3.728C79.4133 2.264 78.2973 1.532 76.9293 1.532Z" fill="#CD4D31"/>
</svg>
