<svg width="42" height="42" xmlns="http://www.w3.org/2000/svg" fill="none">

 <g>
  <title>Layer 1</title>
  <path id="svg_1" fill="#F1F5F4" d="m23.0606,13.3535c-0.1953,-0.1953 -0.5119,-0.1953 -0.7071,0c-0.1953,0.1952 -0.1953,0.5118 0,0.7071l6.9393,6.9393l-17.7928,0c-0.2761,0 -0.5,0.2239 -0.5,0.5c0,0.2762 0.2239,0.5 0.5,0.5l17.7783,0l-6.9247,6.9247c-0.1953,0.1953 -0.1953,0.5119 0,0.7071c0.1952,0.1953 0.5118,0.1953 0.7071,0l7.7138,-7.7138c0.1358,-0.0894 0.2255,-0.2432 0.2255,-0.418c0,-0.1423 -0.0594,-0.2707 -0.1548,-0.3617c-0.0021,-0.0022 -0.0043,-0.0044 -0.0064,-0.0065l-7.7782,-7.7782z" clip-rule="evenodd" fill-rule="evenodd"/>
 </g>
</svg>