<?xml version="1.0" standalone="no"?>
<!DOCTYPE svg PUBLIC "-//W3C//DTD SVG 20010904//EN"
 "http://www.w3.org/TR/2001/REC-SVG-20010904/DTD/svg10.dtd">
<svg version="1.0" xmlns="http://www.w3.org/2000/svg"
 width="80.000000pt" height="80.000000pt" viewBox="0 0 80.000000 80.000000"
 preserveAspectRatio="xMidYMid meet">

<g transform="translate(0.000000,80.000000) scale(0.100000,-0.100000)"
fill="#000000" stroke="none">
<path d="M407 663 c-21 -20 -1 -55 78 -133 l85 -85 -226 -5 c-202 -4 -228 -7
-238 -23 -8 -12 -8 -22 0 -35 10 -15 35 -17 240 -20 l228 -2 -88 -89 c-69 -69
-87 -93 -84 -112 7 -49 42 -29 172 100 70 68 126 132 126 141 0 21 -249 270
-270 270 -9 0 -20 -3 -23 -7z"/>
</g>
</svg>
