<svg width="42" height="42" viewBox="0 0 42 42" fill="none" xmlns="http://www.w3.org/2000/svg">
<path fill-rule="evenodd" clip-rule="evenodd" d="M23.0606 13.3535C22.8653 13.1582 22.5487 13.1582 22.3535 13.3535C22.1582 13.5487 22.1582 13.8653 22.3535 14.0606L29.2928 20.9999H11.5C11.2239 20.9999 11 21.2238 11 21.4999C11 21.7761 11.2239 21.9999 11.5 21.9999H29.2783L22.3536 28.9246C22.1583 29.1199 22.1583 29.4365 22.3536 29.6317C22.5488 29.827 22.8654 29.827 23.0607 29.6317L30.7745 21.9179C30.9103 21.8285 31 21.6747 31 21.4999C31 21.3576 30.9406 21.2292 30.8452 21.1382C30.8431 21.136 30.8409 21.1338 30.8388 21.1317L23.0606 13.3535Z" fill="#F1F5F4"/>
<circle cx="21" cy="21" r="20.5" stroke="#F1F5F4"/>
</svg>
