<svg width="42" height="42" viewBox="0 0 42 42" fill="none" xmlns="http://www.w3.org/2000/svg">
<path fill-rule="evenodd" clip-rule="evenodd" d="M23.0606 13.3536C22.8653 13.1583 22.5487 13.1583 22.3535 13.3536C22.1582 13.5488 22.1582 13.8654 22.3535 14.0607L29.2928 21H11.5C11.2239 21 11 21.2239 11 21.5C11 21.7761 11.2239 22 11.5 22H29.2783L22.3536 28.9247C22.1583 29.12 22.1583 29.4365 22.3536 29.6318C22.5488 29.8271 22.8654 29.8271 23.0607 29.6318L30.7745 21.918C30.9103 21.8286 31 21.6748 31 21.5C31 21.3577 30.9406 21.2293 30.8452 21.1383C30.8431 21.1361 30.8409 21.1339 30.8388 21.1317L23.0606 13.3536Z" fill="#F1F5F4"/>
<circle cx="21" cy="21" r="20.5" stroke="#F1F5F4"/>
</svg>
