<svg width="570" height="18" viewBox="0 0 570 18" fill="none" xmlns="http://www.w3.org/2000/svg">
<rect opacity="0.3" x="101" y="11" width="469" height="1" fill="#F1F5F4"/>
<path opacity="0.7" d="M3.948 13.642C3.948 14.0433 4.02267 14.3233 4.172 14.482C4.32133 14.6313 4.58267 14.706 4.956 14.706V15C3.948 14.9627 3.304 14.944 3.024 14.944C2.716 14.944 2.044 14.958 1.008 14.986L0.616 15V14.706C1.05467 14.706 1.38133 14.622 1.596 14.454C1.82 14.286 1.932 13.9873 1.932 13.558V10.142C1.932 9.694 1.89 9.36733 1.806 9.162C1.73133 8.94733 1.60067 8.80733 1.414 8.742C1.22733 8.66733 0.942667 8.63 0.56 8.63V8.322C1.372 8.30333 2.03933 8.24267 2.562 8.14C3.08467 8.028 3.54667 7.85067 3.948 7.608V13.642ZM9.95138 7.566C10.6887 7.566 11.3467 7.72 11.9254 8.028C12.504 8.336 12.952 8.77 13.2694 9.33C13.596 9.89 13.7594 10.534 13.7594 11.262C13.7594 12.0087 13.5914 12.6807 13.2554 13.278C12.9287 13.8753 12.462 14.3467 11.8554 14.692C11.258 15.028 10.572 15.196 9.79738 15.196C9.06938 15.196 8.41604 15.042 7.83738 14.734C7.25871 14.426 6.80604 13.992 6.47938 13.432C6.15271 12.872 5.98938 12.2233 5.98938 11.486C5.98938 10.7487 6.15271 10.0813 6.47938 9.484C6.81538 8.88667 7.28204 8.42 7.87938 8.084C8.47671 7.73867 9.16738 7.566 9.95138 7.566ZM9.82538 7.818C9.48938 7.818 9.19071 7.96267 8.92938 8.252C8.66804 8.54133 8.46271 8.96133 8.31338 9.512C8.17338 10.0533 8.10338 10.6973 8.10338 11.444C8.10338 12.6293 8.27138 13.5113 8.60738 14.09C8.95271 14.6593 9.39138 14.944 9.92338 14.944C10.2594 14.944 10.5534 14.7993 10.8054 14.51C11.0667 14.2113 11.272 13.7913 11.4214 13.25C11.5707 12.6993 11.6454 12.0507 11.6454 11.304C11.6454 10.1187 11.4727 9.24133 11.1274 8.672C10.7914 8.10267 10.3574 7.818 9.82538 7.818ZM16.2728 13.04C16.6368 13.04 16.9261 13.138 17.1408 13.334C17.3555 13.5207 17.4628 13.782 17.4628 14.118C17.4628 14.454 17.3555 14.72 17.1408 14.916C16.9261 15.1027 16.6368 15.196 16.2728 15.196C15.9088 15.196 15.6195 15.1027 15.4048 14.916C15.1901 14.72 15.0828 14.454 15.0828 14.118C15.0828 13.782 15.1901 13.5207 15.4048 13.334C15.6195 13.138 15.9088 13.04 16.2728 13.04ZM22.7483 7.566C23.4856 7.566 24.1436 7.72 24.7223 8.028C25.3009 8.336 25.7489 8.77 26.0662 9.33C26.3929 9.89 26.5563 10.534 26.5563 11.262C26.5563 12.0087 26.3883 12.6807 26.0523 13.278C25.7256 13.8753 25.2589 14.3467 24.6523 14.692C24.0549 15.028 23.3689 15.196 22.5943 15.196C21.8663 15.196 21.2129 15.042 20.6343 14.734C20.0556 14.426 19.6029 13.992 19.2763 13.432C18.9496 12.872 18.7863 12.2233 18.7863 11.486C18.7863 10.7487 18.9496 10.0813 19.2763 9.484C19.6123 8.88667 20.0789 8.42 20.6763 8.084C21.2736 7.73867 21.9643 7.566 22.7483 7.566ZM22.6223 7.818C22.2863 7.818 21.9876 7.96267 21.7263 8.252C21.4649 8.54133 21.2596 8.96133 21.1103 9.512C20.9703 10.0533 20.9003 10.6973 20.9003 11.444C20.9003 12.6293 21.0683 13.5113 21.4043 14.09C21.7496 14.6593 22.1883 14.944 22.7203 14.944C23.0563 14.944 23.3503 14.7993 23.6023 14.51C23.8636 14.2113 24.0689 13.7913 24.2183 13.25C24.3676 12.6993 24.4423 12.0507 24.4423 11.304C24.4423 10.1187 24.2696 9.24133 23.9243 8.672C23.5883 8.10267 23.1543 7.818 22.6223 7.818ZM32.0377 9.12C32.6164 9.61467 33.0504 10.0067 33.3397 10.296C33.6384 10.576 33.8997 10.912 34.1237 11.304C34.3477 11.6867 34.4597 12.102 34.4597 12.55C34.4597 13.0633 34.3104 13.5207 34.0117 13.922C33.7224 14.3233 33.3164 14.636 32.7937 14.86C32.271 15.084 31.683 15.196 31.0297 15.196C30.4417 15.196 29.9004 15.1073 29.4057 14.93C28.911 14.7433 28.5144 14.468 28.2157 14.104C27.9264 13.74 27.7817 13.306 27.7817 12.802C27.7817 12.1953 27.987 11.668 28.3977 11.22C28.8084 10.772 29.3637 10.394 30.0637 10.086C29.485 9.59133 29.037 9.12467 28.7197 8.686C28.4024 8.238 28.2437 7.734 28.2437 7.174C28.2437 6.68867 28.379 6.27333 28.6497 5.928C28.9204 5.58267 29.2797 5.326 29.7277 5.158C30.1757 4.98067 30.6704 4.892 31.2117 4.892C32.0144 4.892 32.6724 5.074 33.1857 5.438C33.699 5.79267 33.9557 6.264 33.9557 6.852C33.9557 7.30933 33.7924 7.72 33.4657 8.084C33.1484 8.43867 32.6724 8.784 32.0377 9.12ZM31.0997 5.144C30.7917 5.144 30.5444 5.25133 30.3577 5.466C30.1804 5.67133 30.0917 5.95133 30.0917 6.306C30.0917 6.77267 30.2364 7.20667 30.5257 7.608C30.8244 8.00933 31.2537 8.45267 31.8137 8.938C31.991 8.686 32.1217 8.38267 32.2057 8.028C32.2897 7.664 32.3317 7.30933 32.3317 6.964C32.3317 6.39467 32.2197 5.95133 31.9957 5.634C31.781 5.30733 31.4824 5.144 31.0997 5.144ZM31.0997 14.944C31.5384 14.944 31.8837 14.8087 32.1357 14.538C32.3877 14.258 32.5137 13.8893 32.5137 13.432C32.5137 13.012 32.411 12.6247 32.2057 12.27C32.0004 11.9153 31.7577 11.6027 31.4777 11.332C31.1977 11.0613 30.7964 10.7067 30.2737 10.268C29.7697 10.8 29.5177 11.5607 29.5177 12.55C29.5177 13.2593 29.639 13.838 29.8817 14.286C30.1337 14.7247 30.5397 14.944 31.0997 14.944ZM44.1889 11.794H39.1349V10.632H44.1889V11.794ZM52.2507 13.642C52.2507 14.0433 52.3254 14.3233 52.4747 14.482C52.6241 14.6313 52.8854 14.706 53.2587 14.706V15C52.2507 14.9627 51.6067 14.944 51.3267 14.944C51.0187 14.944 50.3467 14.958 49.3107 14.986L48.9187 15V14.706C49.3574 14.706 49.6841 14.622 49.8987 14.454C50.1227 14.286 50.2347 13.9873 50.2347 13.558V10.142C50.2347 9.694 50.1927 9.36733 50.1087 9.162C50.0341 8.94733 49.9034 8.80733 49.7167 8.742C49.5301 8.66733 49.2454 8.63 48.8627 8.63V8.322C49.6747 8.30333 50.3421 8.24267 50.8647 8.14C51.3874 8.028 51.8494 7.85067 52.2507 7.608V13.642ZM58.2541 7.566C58.9914 7.566 59.6494 7.72 60.2281 8.028C60.8068 8.336 61.2548 8.77 61.5721 9.33C61.8988 9.89 62.0621 10.534 62.0621 11.262C62.0621 12.0087 61.8941 12.6807 61.5581 13.278C61.2314 13.8753 60.7648 14.3467 60.1581 14.692C59.5608 15.028 58.8748 15.196 58.1001 15.196C57.3721 15.196 56.7188 15.042 56.1401 14.734C55.5614 14.426 55.1088 13.992 54.7821 13.432C54.4554 12.872 54.2921 12.2233 54.2921 11.486C54.2921 10.7487 54.4554 10.0813 54.7821 9.484C55.1181 8.88667 55.5848 8.42 56.1821 8.084C56.7794 7.73867 57.4701 7.566 58.2541 7.566ZM58.1281 7.818C57.7921 7.818 57.4934 7.96267 57.2321 8.252C56.9708 8.54133 56.7654 8.96133 56.6161 9.512C56.4761 10.0533 56.4061 10.6973 56.4061 11.444C56.4061 12.6293 56.5741 13.5113 56.9101 14.09C57.2554 14.6593 57.6941 14.944 58.2261 14.944C58.5621 14.944 58.8561 14.7993 59.1081 14.51C59.3694 14.2113 59.5748 13.7913 59.7241 13.25C59.8734 12.6993 59.9481 12.0507 59.9481 11.304C59.9481 10.1187 59.7754 9.24133 59.4301 8.672C59.0941 8.10267 58.6601 7.818 58.1281 7.818ZM64.5755 13.04C64.9395 13.04 65.2289 13.138 65.4435 13.334C65.6582 13.5207 65.7655 13.782 65.7655 14.118C65.7655 14.454 65.6582 14.72 65.4435 14.916C65.2289 15.1027 64.9395 15.196 64.5755 15.196C64.2115 15.196 63.9222 15.1027 63.7075 14.916C63.4929 14.72 63.3855 14.454 63.3855 14.118C63.3855 13.782 63.4929 13.5207 63.7075 13.334C63.9222 13.138 64.2115 13.04 64.5755 13.04ZM70.407 13.642C70.407 14.0433 70.4817 14.3233 70.631 14.482C70.7803 14.6313 71.0417 14.706 71.415 14.706V15C70.407 14.9627 69.763 14.944 69.483 14.944C69.175 14.944 68.503 14.958 67.467 14.986L67.075 15V14.706C67.5137 14.706 67.8403 14.622 68.055 14.454C68.279 14.286 68.391 13.9873 68.391 13.558V10.142C68.391 9.694 68.349 9.36733 68.265 9.162C68.1903 8.94733 68.0597 8.80733 67.873 8.742C67.6863 8.66733 67.4017 8.63 67.019 8.63V8.322C67.831 8.30333 68.4983 8.24267 69.021 8.14C69.5437 8.028 70.0057 7.85067 70.407 7.608V13.642ZM76.4104 7.566C77.1477 7.566 77.8057 7.72 78.3844 8.028C78.963 8.336 79.411 8.77 79.7284 9.33C80.055 9.89 80.2184 10.534 80.2184 11.262C80.2184 12.0087 80.0504 12.6807 79.7144 13.278C79.3877 13.8753 78.921 14.3467 78.3144 14.692C77.717 15.028 77.031 15.196 76.2564 15.196C75.5284 15.196 74.875 15.042 74.2964 14.734C73.7177 14.426 73.265 13.992 72.9384 13.432C72.6117 12.872 72.4484 12.2233 72.4484 11.486C72.4484 10.7487 72.6117 10.0813 72.9384 9.484C73.2744 8.88667 73.741 8.42 74.3384 8.084C74.9357 7.73867 75.6264 7.566 76.4104 7.566ZM76.2844 7.818C75.9484 7.818 75.6497 7.96267 75.3884 8.252C75.127 8.54133 74.9217 8.96133 74.7724 9.512C74.6324 10.0533 74.5624 10.6973 74.5624 11.444C74.5624 12.6293 74.7304 13.5113 75.0664 14.09C75.4117 14.6593 75.8504 14.944 76.3824 14.944C76.7184 14.944 77.0124 14.7993 77.2644 14.51C77.5257 14.2113 77.731 13.7913 77.8804 13.25C78.0297 12.6993 78.1044 12.0507 78.1044 11.304C78.1044 10.1187 77.9317 9.24133 77.5864 8.672C77.2504 8.10267 76.8164 7.818 76.2844 7.818Z" fill="#F1F5F4"/>
</svg>
