<svg width="81" height="12" viewBox="0 0 81 12" fill="none" xmlns="http://www.w3.org/2000/svg">
<path opacity="0.7" d="M3.948 9.642C3.948 10.0433 4.02267 10.3233 4.172 10.482C4.32133 10.6313 4.58267 10.706 4.956 10.706V11C3.948 10.9627 3.304 10.944 3.024 10.944C2.716 10.944 2.044 10.958 1.008 10.986L0.616 11V10.706C1.05467 10.706 1.38133 10.622 1.596 10.454C1.82 10.286 1.932 9.98733 1.932 9.558V6.142C1.932 5.694 1.89 5.36733 1.806 5.162C1.73133 4.94733 1.60067 4.80733 1.414 4.742C1.22733 4.66733 0.942667 4.63 0.56 4.63V4.322C1.372 4.30333 2.03933 4.24267 2.562 4.14C3.08467 4.028 3.54667 3.85067 3.948 3.608V9.642ZM9.95138 3.566C10.6887 3.566 11.3467 3.72 11.9254 4.028C12.504 4.336 12.952 4.77 13.2694 5.33C13.596 5.89 13.7594 6.534 13.7594 7.262C13.7594 8.00867 13.5914 8.68067 13.2554 9.278C12.9287 9.87533 12.462 10.3467 11.8554 10.692C11.258 11.028 10.572 11.196 9.79738 11.196C9.06938 11.196 8.41604 11.042 7.83738 10.734C7.25871 10.426 6.80604 9.992 6.47938 9.432C6.15271 8.872 5.98938 8.22333 5.98938 7.486C5.98938 6.74867 6.15271 6.08133 6.47938 5.484C6.81538 4.88667 7.28204 4.42 7.87938 4.084C8.47671 3.73867 9.16738 3.566 9.95138 3.566ZM9.82538 3.818C9.48938 3.818 9.19071 3.96267 8.92938 4.252C8.66804 4.54133 8.46271 4.96133 8.31338 5.512C8.17338 6.05333 8.10338 6.69733 8.10338 7.444C8.10338 8.62933 8.27138 9.51133 8.60738 10.09C8.95271 10.6593 9.39138 10.944 9.92338 10.944C10.2594 10.944 10.5534 10.7993 10.8054 10.51C11.0667 10.2113 11.272 9.79133 11.4214 9.25C11.5707 8.69933 11.6454 8.05067 11.6454 7.304C11.6454 6.11867 11.4727 5.24133 11.1274 4.672C10.7914 4.10267 10.3574 3.818 9.82538 3.818ZM16.2728 9.04C16.6368 9.04 16.9261 9.138 17.1408 9.334C17.3555 9.52067 17.4628 9.782 17.4628 10.118C17.4628 10.454 17.3555 10.72 17.1408 10.916C16.9261 11.1027 16.6368 11.196 16.2728 11.196C15.9088 11.196 15.6195 11.1027 15.4048 10.916C15.1901 10.72 15.0828 10.454 15.0828 10.118C15.0828 9.782 15.1901 9.52067 15.4048 9.334C15.6195 9.138 15.9088 9.04 16.2728 9.04ZM22.7483 3.566C23.4856 3.566 24.1436 3.72 24.7223 4.028C25.3009 4.336 25.7489 4.77 26.0662 5.33C26.3929 5.89 26.5563 6.534 26.5563 7.262C26.5563 8.00867 26.3883 8.68067 26.0523 9.278C25.7256 9.87533 25.2589 10.3467 24.6523 10.692C24.0549 11.028 23.3689 11.196 22.5943 11.196C21.8663 11.196 21.2129 11.042 20.6343 10.734C20.0556 10.426 19.6029 9.992 19.2763 9.432C18.9496 8.872 18.7863 8.22333 18.7863 7.486C18.7863 6.74867 18.9496 6.08133 19.2763 5.484C19.6123 4.88667 20.0789 4.42 20.6763 4.084C21.2736 3.73867 21.9643 3.566 22.7483 3.566ZM22.6223 3.818C22.2863 3.818 21.9876 3.96267 21.7263 4.252C21.4649 4.54133 21.2596 4.96133 21.1103 5.512C20.9703 6.05333 20.9003 6.69733 20.9003 7.444C20.9003 8.62933 21.0683 9.51133 21.4043 10.09C21.7496 10.6593 22.1883 10.944 22.7203 10.944C23.0563 10.944 23.3503 10.7993 23.6023 10.51C23.8636 10.2113 24.0689 9.79133 24.2183 9.25C24.3676 8.69933 24.4423 8.05067 24.4423 7.304C24.4423 6.11867 24.2696 5.24133 23.9243 4.672C23.5883 4.10267 23.1543 3.818 22.6223 3.818ZM32.0377 5.12C32.6164 5.61467 33.0504 6.00667 33.3397 6.296C33.6384 6.576 33.8997 6.912 34.1237 7.304C34.3477 7.68667 34.4597 8.102 34.4597 8.55C34.4597 9.06333 34.3104 9.52067 34.0117 9.922C33.7224 10.3233 33.3164 10.636 32.7937 10.86C32.271 11.084 31.683 11.196 31.0297 11.196C30.4417 11.196 29.9004 11.1073 29.4057 10.93C28.911 10.7433 28.5144 10.468 28.2157 10.104C27.9264 9.74 27.7817 9.306 27.7817 8.802C27.7817 8.19533 27.987 7.668 28.3977 7.22C28.8084 6.772 29.3637 6.394 30.0637 6.086C29.485 5.59133 29.037 5.12467 28.7197 4.686C28.4024 4.238 28.2437 3.734 28.2437 3.174C28.2437 2.68867 28.379 2.27333 28.6497 1.928C28.9204 1.58267 29.2797 1.326 29.7277 1.158C30.1757 0.980666 30.6704 0.891999 31.2117 0.891999C32.0144 0.891999 32.6724 1.074 33.1857 1.438C33.699 1.79267 33.9557 2.264 33.9557 2.852C33.9557 3.30933 33.7924 3.72 33.4657 4.084C33.1484 4.43867 32.6724 4.784 32.0377 5.12ZM31.0997 1.144C30.7917 1.144 30.5444 1.25133 30.3577 1.466C30.1804 1.67133 30.0917 1.95133 30.0917 2.306C30.0917 2.77267 30.2364 3.20667 30.5257 3.608C30.8244 4.00933 31.2537 4.45267 31.8137 4.938C31.991 4.686 32.1217 4.38267 32.2057 4.028C32.2897 3.664 32.3317 3.30933 32.3317 2.964C32.3317 2.39467 32.2197 1.95133 31.9957 1.634C31.781 1.30733 31.4824 1.144 31.0997 1.144ZM31.0997 10.944C31.5384 10.944 31.8837 10.8087 32.1357 10.538C32.3877 10.258 32.5137 9.88933 32.5137 9.432C32.5137 9.012 32.411 8.62467 32.2057 8.27C32.0004 7.91533 31.7577 7.60267 31.4777 7.332C31.1977 7.06133 30.7964 6.70667 30.2737 6.268C29.7697 6.8 29.5177 7.56067 29.5177 8.55C29.5177 9.25933 29.639 9.838 29.8817 10.286C30.1337 10.7247 30.5397 10.944 31.0997 10.944ZM44.1889 7.794H39.1349V6.632H44.1889V7.794ZM52.2507 9.642C52.2507 10.0433 52.3254 10.3233 52.4747 10.482C52.6241 10.6313 52.8854 10.706 53.2587 10.706V11C52.2507 10.9627 51.6067 10.944 51.3267 10.944C51.0187 10.944 50.3467 10.958 49.3107 10.986L48.9187 11V10.706C49.3574 10.706 49.6841 10.622 49.8987 10.454C50.1227 10.286 50.2347 9.98733 50.2347 9.558V6.142C50.2347 5.694 50.1927 5.36733 50.1087 5.162C50.0341 4.94733 49.9034 4.80733 49.7167 4.742C49.5301 4.66733 49.2454 4.63 48.8627 4.63V4.322C49.6747 4.30333 50.3421 4.24267 50.8647 4.14C51.3874 4.028 51.8494 3.85067 52.2507 3.608V9.642ZM58.2541 3.566C58.9914 3.566 59.6494 3.72 60.2281 4.028C60.8068 4.336 61.2548 4.77 61.5721 5.33C61.8988 5.89 62.0621 6.534 62.0621 7.262C62.0621 8.00867 61.8941 8.68067 61.5581 9.278C61.2314 9.87533 60.7648 10.3467 60.1581 10.692C59.5608 11.028 58.8748 11.196 58.1001 11.196C57.3721 11.196 56.7188 11.042 56.1401 10.734C55.5614 10.426 55.1088 9.992 54.7821 9.432C54.4554 8.872 54.2921 8.22333 54.2921 7.486C54.2921 6.74867 54.4554 6.08133 54.7821 5.484C55.1181 4.88667 55.5848 4.42 56.1821 4.084C56.7794 3.73867 57.4701 3.566 58.2541 3.566ZM58.1281 3.818C57.7921 3.818 57.4934 3.96267 57.2321 4.252C56.9708 4.54133 56.7654 4.96133 56.6161 5.512C56.4761 6.05333 56.4061 6.69733 56.4061 7.444C56.4061 8.62933 56.5741 9.51133 56.9101 10.09C57.2554 10.6593 57.6941 10.944 58.2261 10.944C58.5621 10.944 58.8561 10.7993 59.1081 10.51C59.3694 10.2113 59.5748 9.79133 59.7241 9.25C59.8734 8.69933 59.9481 8.05067 59.9481 7.304C59.9481 6.11867 59.7754 5.24133 59.4301 4.672C59.0941 4.10267 58.6601 3.818 58.1281 3.818ZM64.5755 9.04C64.9395 9.04 65.2289 9.138 65.4435 9.334C65.6582 9.52067 65.7655 9.782 65.7655 10.118C65.7655 10.454 65.6582 10.72 65.4435 10.916C65.2289 11.1027 64.9395 11.196 64.5755 11.196C64.2115 11.196 63.9222 11.1027 63.7075 10.916C63.4929 10.72 63.3855 10.454 63.3855 10.118C63.3855 9.782 63.4929 9.52067 63.7075 9.334C63.9222 9.138 64.2115 9.04 64.5755 9.04ZM70.407 9.642C70.407 10.0433 70.4817 10.3233 70.631 10.482C70.7803 10.6313 71.0417 10.706 71.415 10.706V11C70.407 10.9627 69.763 10.944 69.483 10.944C69.175 10.944 68.503 10.958 67.467 10.986L67.075 11V10.706C67.5137 10.706 67.8403 10.622 68.055 10.454C68.279 10.286 68.391 9.98733 68.391 9.558V6.142C68.391 5.694 68.349 5.36733 68.265 5.162C68.1903 4.94733 68.0597 4.80733 67.873 4.742C67.6863 4.66733 67.4017 4.63 67.019 4.63V4.322C67.831 4.30333 68.4983 4.24267 69.021 4.14C69.5437 4.028 70.0057 3.85067 70.407 3.608V9.642ZM76.4104 3.566C77.1477 3.566 77.8057 3.72 78.3844 4.028C78.963 4.336 79.411 4.77 79.7284 5.33C80.055 5.89 80.2184 6.534 80.2184 7.262C80.2184 8.00867 80.0504 8.68067 79.7144 9.278C79.3877 9.87533 78.921 10.3467 78.3144 10.692C77.717 11.028 77.031 11.196 76.2564 11.196C75.5284 11.196 74.875 11.042 74.2964 10.734C73.7177 10.426 73.265 9.992 72.9384 9.432C72.6117 8.872 72.4484 8.22333 72.4484 7.486C72.4484 6.74867 72.6117 6.08133 72.9384 5.484C73.2744 4.88667 73.741 4.42 74.3384 4.084C74.9357 3.73867 75.6264 3.566 76.4104 3.566ZM76.2844 3.818C75.9484 3.818 75.6497 3.96267 75.3884 4.252C75.127 4.54133 74.9217 4.96133 74.7724 5.512C74.6324 6.05333 74.5624 6.69733 74.5624 7.444C74.5624 8.62933 74.7304 9.51133 75.0664 10.09C75.4117 10.6593 75.8504 10.944 76.3824 10.944C76.7184 10.944 77.0124 10.7993 77.2644 10.51C77.5257 10.2113 77.731 9.79133 77.8804 9.25C78.0297 8.69933 78.1044 8.05067 78.1044 7.304C78.1044 6.11867 77.9317 5.24133 77.5864 4.672C77.2504 4.10267 76.8164 3.818 76.2844 3.818Z" fill="#F1F5F4"/>
</svg>
