<?xml version="1.0" standalone="no"?>
<!DOCTYPE svg PUBLIC "-//W3C//DTD SVG 20010904//EN"
 "http://www.w3.org/TR/2001/REC-SVG-20010904/DTD/svg10.dtd">
<svg version="1.0" xmlns="http://www.w3.org/2000/svg"
 width="564.000000pt" height="576.000000pt" viewBox="0 0 564.000000 576.000000"
 preserveAspectRatio="xMidYMid meet">

<g transform="translate(0.000000,576.000000) scale(0.100000,-0.100000)"
fill="#000000" stroke="none">
<path d="M1457 5279 c-43 -7 -81 -32 -111 -73 -21 -27 -21 -36 -21 -691 0
-655 0 -664 21 -691 42 -58 69 -69 157 -69 70 0 87 3 115 23 67 48 66 48 72
456 l5 368 290 -363 c159 -200 308 -384 330 -407 54 -60 101 -82 172 -82 70 0
110 21 144 76 l24 39 0 645 c0 633 0 646 -21 684 -32 62 -64 80 -148 84 -94 5
-145 -18 -178 -81 -23 -41 -23 -47 -23 -399 0 -197 -4 -357 -9 -355 -4 1 -151
180 -325 397 -193 241 -329 402 -350 414 -42 24 -95 34 -144 25z"/>
<path d="M3553 5279 c-89 -16 -145 -68 -199 -184 -17 -38 -68 -146 -111 -240
-312 -670 -415 -899 -420 -933 -8 -56 13 -108 54 -139 30 -23 48 -28 107 -31
59 -2 78 1 111 20 35 20 48 39 108 161 l68 137 325 -2 326 -3 47 -106 c26 -58
58 -121 71 -139 31 -44 91 -70 165 -70 70 0 114 22 146 72 38 60 25 102 -131
438 -461 990 -440 950 -504 989 -43 27 -110 39 -163 30z m145 -684 l88 -210
-189 -3 c-105 -1 -192 -1 -194 2 -2 2 17 52 42 111 25 60 66 158 92 219 55
135 54 134 64 110 4 -10 48 -113 97 -229z"/>
<path d="M1285 2377 c-25 -14 -48 -37 -60 -62 -19 -39 -20 -60 -20 -675 0
-701 -1 -689 62 -737 29 -22 49 -28 102 -31 80 -4 130 14 163 60 23 33 23 36
28 382 4 261 8 346 16 335 6 -8 64 -106 129 -219 193 -337 196 -340 296 -340
102 0 104 3 307 357 l127 223 5 -343 c5 -319 6 -344 25 -376 33 -55 67 -75
141 -79 82 -5 135 16 167 67 l22 36 3 649 c3 644 2 649 -19 693 -28 58 -76 83
-159 83 -77 0 -117 -17 -161 -68 -19 -22 -128 -210 -243 -417 -114 -207 -209
-375 -211 -373 -1 2 -96 172 -210 378 -115 206 -220 390 -233 408 -38 50 -89
72 -169 72 -52 0 -78 -6 -108 -23z"/>
<path d="M3150 2378 c-33 -17 -51 -35 -67 -68 -23 -44 -23 -48 -23 -471 0
-490 5 -533 71 -667 71 -146 187 -235 369 -283 119 -32 326 -33 454 -1 227 57
359 188 418 415 19 75 21 116 25 481 3 219 2 423 -2 452 -7 58 -34 105 -78
138 -24 18 -43 21 -117 21 -95 0 -121 -11 -162 -66 -31 -41 -38 -132 -38 -511
0 -226 -4 -386 -11 -418 -15 -69 -64 -139 -119 -170 -39 -22 -57 -25 -140 -25
-107 0 -156 18 -204 76 -61 72 -60 65 -66 544 l-5 440 -25 45 c-35 62 -87 90
-170 90 -49 0 -78 -6 -110 -22z"/>
</g>
</svg>
