<svg width="17" height="20" viewBox="0 0 17 20" fill="none" xmlns="http://www.w3.org/2000/svg">
<path fill-rule="evenodd" clip-rule="evenodd" d="M0.146446 7.93941C-0.048816 8.13468 -0.048816 8.45126 0.146446 8.64652C0.341708 8.84178 0.658291 8.84178 0.853553 8.64652L7.79289 1.70718L7.79289 19.5C7.79289 19.7761 8.01675 20 8.29289 20C8.56904 20 8.79289 19.7761 8.79289 19.5L8.79289 1.72175L15.7176 8.64644C15.9128 8.84171 16.2294 8.84171 16.4247 8.64644C16.62 8.45118 16.62 8.1346 16.4247 7.93934L8.7109 0.225542C8.62151 0.0896832 8.46768 -3.70134e-07 8.29289 -3.62494e-07C8.15061 -3.56275e-07 8.02221 0.0594288 7.93116 0.154815C7.92897 0.156932 7.92679 0.159074 7.92462 0.161241L0.146446 7.93941Z" fill="#F1F5F4"/>
</svg>
