<svg width="127" height="20" viewBox="0 0 127 20" fill="none" xmlns="http://www.w3.org/2000/svg">
<path d="M2.90909 10.9434V20H6.54545V10.9434H9.27273L10 7.16981H6.54545V4.5283C6.54545 3.96226 7.09091 3.39623 7.63636 3.39623H10V0H5.81818C4.90909 0 2.90909 1.32075 2.90909 3.39623V7.16981H0V10.9434H2.90909Z" fill="#C4C4C4"/>
<path d="M33.7895 16.9669C32.9474 17.4548 30.9123 17.4412 30 17.3734C30.4211 17.78 33.5789 19 36.5263 19C39.4737 19 41.5789 18.5934 45.1579 15.3408C48.0211 12.7387 48.3158 8.971 48.1053 7.41244L50 5.37953H48.3158L49.3684 3.34663C48.5965 3.82095 47.0105 4.64763 46.8421 4.15973C46.6316 3.54986 43.6842 2.12682 41.1579 3.75314C39.1368 5.0542 39.4737 6.80257 39.6842 8.22553C35.8947 7.81902 31.0526 3.75314 31.0526 3.75314C29.8775 5.86053 31.4634 8.41233 32.0991 9.43529L32.1053 9.4452L30.6316 9.03862C30.6316 10.8276 32.3158 12.0881 33.1579 12.6978H31.8947C32.5684 14.4867 34.7018 15.4761 35.6842 15.7471C35.4035 15.9504 34.6316 16.479 33.7895 16.9669Z" fill="#C4C4C4"/>
<path fill-rule="evenodd" clip-rule="evenodd" d="M76.3918 18.4122L80.0206 15.2369L86.1443 19.9998L90 0.948242L68 9.11319L74.1237 11.8348L76.3918 18.4122ZM76.8453 16.5978V12.9689L86.1443 4.80396L74.8041 11.3813L76.8453 17.0514V16.5978Z" fill="#C4C4C4"/>
<path fill-rule="evenodd" clip-rule="evenodd" d="M110 15.2442V4.56977C110 3.38372 111.384 2 112.767 2H124.233C125.814 2 127 3.5814 127 5.36047V16.0349C127 17.2209 126.012 19 123.837 19H113.953C111.779 19 110 17.4186 110 15.2442ZM118.5 7.54189C116.866 7.54189 115.542 8.8663 115.542 10.5C115.542 12.1338 116.866 13.4582 118.5 13.4582C120.134 13.4582 121.458 12.1338 121.458 10.5C121.458 8.8663 120.134 7.54189 118.5 7.54189ZM114.342 10.5C114.342 8.20356 116.204 6.34189 118.5 6.34189C120.797 6.34189 122.658 8.20356 122.658 10.5C122.658 12.7965 120.797 14.6582 118.5 14.6582C116.204 14.6582 114.342 12.7965 114.342 10.5ZM123.047 6.5465C123.592 6.5465 124.035 6.10399 124.035 5.55813C124.035 5.01226 123.592 4.56976 123.047 4.56976C122.501 4.56976 122.058 5.01226 122.058 5.55813C122.058 6.10399 122.501 6.5465 123.047 6.5465Z" fill="#C4C4C4"/>
</svg>
