<svg width="16" height="16" viewBox="0 0 16 16" fill="none" xmlns="http://www.w3.org/2000/svg">
<path d="M5.73475 4.07584V11.0787L1.35649 4.07584H0V12.9242H1.10284V5.73174L5.62447 12.9242H6.83759V4.07584H5.73475Z" fill="#1C1B29"/>
<path d="M14.9302 4.07584V5.75702C14.2906 4.73315 13.2981 4 12.1621 4C9.9344 4 8.32426 5.89607 8.32426 8.5C8.32426 11.1039 9.9344 13 12.1621 13C13.2981 13 14.2906 12.2669 14.9302 11.243V12.9242H16V4.07584H14.9302ZM12.2062 11.8371C10.6292 11.8371 9.48224 10.434 9.48224 8.5C9.48224 6.56601 10.6292 5.16292 12.2062 5.16292C13.7833 5.16292 14.9302 6.56601 14.9302 8.5C14.9302 10.434 13.7833 11.8371 12.2062 11.8371Z" fill="#1C1B29"/>
</svg>
