<?xml version="1.0" encoding="iso-8859-1"?>
<!-- Generator: Adobe Illustrator 19.0.0, SVG Export Plug-In . SVG Version: 6.00 Build 0)  -->
<svg version="1.1" id="Layer_1" xmlns="http://www.w3.org/2000/svg" xmlns:xlink="http://www.w3.org/1999/xlink" x="0px" y="0px"
	 viewBox="0 0 512 512" style="enable-background:new 0 0 512 512;" xml:space="preserve">
<g>
	<g>
		<path d="M256,22.294L0,107.628v86.256h56.889v147.911H34.133v45.511H0v102.4h512v-102.4h-34.133v-45.511h-22.756V193.884H512
			v-86.256L256,22.294z M477.867,421.44v34.133H34.133V421.44h34.133v-45.511h375.467v45.511H477.867z M91.022,341.796V193.885
			h34.133v147.911H91.022z M159.289,341.796V193.885H204.8v147.911H159.289z M238.933,341.796V193.885h34.133v147.911H238.933z
			 M307.2,341.796V193.885h45.511v147.911H307.2z M386.844,341.796V193.885h34.133v147.911H386.844z M477.867,159.751H34.133
			v-27.521L256,58.275l221.867,73.956V159.751z"/>
	</g>
</g>
<g>
</g>
<g>
</g>
<g>
</g>
<g>
</g>
<g>
</g>
<g>
</g>
<g>
</g>
<g>
</g>
<g>
</g>
<g>
</g>
<g>
</g>
<g>
</g>
<g>
</g>
<g>
</g>
<g>
</g>
</svg>
