<svg width="35" height="24" viewBox="0 0 35 24" fill="none" xmlns="http://www.w3.org/2000/svg">
<path d="M6.32925 18.08C5.42258 18.08 4.65992 17.9253 4.04125 17.616C3.42258 17.296 2.92658 16.8693 2.55325 16.336C2.17992 15.792 1.90792 15.1787 1.73725 14.496C1.56658 13.8133 1.48125 13.1093 1.48125 12.384V6.64H2.92125V12.384C2.92125 12.9387 2.97458 13.4827 3.08125 14.016C3.19858 14.5387 3.38525 15.008 3.64125 15.424C3.89725 15.84 4.24392 16.1707 4.68125 16.416C5.11858 16.6613 5.66258 16.784 6.31325 16.784C6.97458 16.784 7.52392 16.6613 7.96125 16.416C8.39858 16.16 8.74525 15.824 9.00125 15.408C9.25725 14.9813 9.43858 14.5067 9.54525 13.984C9.66258 13.4613 9.72125 12.928 9.72125 12.384V6.64H11.1613V12.384C11.1613 13.152 11.0706 13.8827 10.8893 14.576C10.7186 15.2587 10.4413 15.8613 10.0573 16.384C9.67325 16.9067 9.17192 17.3227 8.55325 17.632C7.94525 17.9307 7.20392 18.08 6.32925 18.08ZM16.7066 6.64H17.9226L22.5626 18H21.0266L19.6826 14.672H14.9146L13.5866 18H12.0506L16.7066 6.64ZM19.3626 13.552L17.3146 8.304L15.2026 13.552H19.3626Z" fill="#F1F5F4"/>
<path fill-rule="evenodd" clip-rule="evenodd" d="M26.7969 10.0815C26.6883 9.97284 26.5121 9.97284 26.4034 10.0815L26.0815 10.4034C25.9728 10.5121 25.9728 10.6883 26.0815 10.7969L29.4459 14.1613C29.4564 14.1775 29.4687 14.1928 29.4829 14.207L29.8048 14.529C29.9135 14.6376 30.0897 14.6376 30.1983 14.529L33.9185 10.8088C34.0272 10.7001 34.0272 10.5239 33.9185 10.4153L33.5966 10.0933C33.4879 9.98469 33.3117 9.98469 33.2031 10.0933L30.0059 13.2905L26.7969 10.0815Z" fill="#F1F5F4"/>
</svg>
