<svg width="22" height="13" viewBox="0 0 22 13" fill="none" xmlns="http://www.w3.org/2000/svg">
<path d="M5.31325 10.784C5.97458 10.784 6.52392 10.656 6.96125 10.4C7.39858 10.144 7.74525 9.81333 8.00125 9.408C8.26792 8.992 8.45458 8.52267 8.56125 8C8.66792 7.46667 8.72125 6.928 8.72125 6.384V0.639999H10.1613V6.384C10.1613 7.152 10.0706 7.88267 9.88925 8.576C9.71858 9.25867 9.44125 9.86133 9.05725 10.384C8.67325 10.9067 8.17192 11.3227 7.55325 11.632C6.94525 11.9307 6.20392 12.08 5.32925 12.08C4.42258 12.08 3.65992 11.92 3.04125 11.6C2.42258 11.28 1.92125 10.8587 1.53725 10.336C1.16392 9.80267 0.891917 9.19467 0.72125 8.512C0.56125 7.81867 0.48125 7.10933 0.48125 6.384V0.639999H1.92125V6.384C1.92125 6.94933 1.97458 7.49867 2.08125 8.032C2.19858 8.55467 2.38525 9.01867 2.64125 9.424C2.90792 9.82933 3.25458 10.16 3.68125 10.416C4.11858 10.6613 4.66258 10.784 5.31325 10.784ZM15.7066 0.639999H16.9226L21.5626 12H20.0266L18.6826 8.672H13.9146L12.5866 12H11.0506L15.7066 0.639999ZM18.3626 7.552L16.3146 2.304L14.2026 7.552H18.3626Z" fill="#F1F5F4"/>
</svg>
