<svg width="124" height="37" viewBox="0 0 124 37" fill="none" xmlns="http://www.w3.org/2000/svg">
<path d="M21.9602 6.216V26.16L7.66823 6.216H3.24023V31.416H6.84023V10.932L21.6002 31.416H25.5602V6.216H21.9602Z" fill="#F1F5F4"/>
<path d="M51.9772 6.216V11.004C49.8892 8.088 46.6492 6 42.9412 6C35.6692 6 30.4132 11.4 30.4132 18.816C30.4132 26.232 35.6692 31.632 42.9412 31.632C46.6492 31.632 49.8892 29.544 51.9772 26.628V31.416H55.4692V6.216H51.9772ZM43.0852 28.32C37.9372 28.32 34.1932 24.324 34.1932 18.816C34.1932 13.308 37.9372 9.312 43.0852 9.312C48.2332 9.312 51.9772 13.308 51.9772 18.816C51.9772 24.324 48.2332 28.32 43.0852 28.32Z" fill="#F1F5F4"/>
<path d="M91.8312 6.216H86.6832L76.9632 27.168L67.2072 6.216H61.9512V31.416H65.5512V10.896L75.0552 31.416H78.6552L88.2312 10.716V31.416H91.8312V6.216Z" fill="#F1F5F4"/>
<path d="M108.923 31.776C115.187 31.776 119.903 27.204 119.903 21.12V6.216H116.303V21.12C116.303 25.224 113.135 28.32 108.923 28.32C104.711 28.32 101.543 25.224 101.543 21.12V6.216H97.9427V21.12C97.9427 27.204 102.659 31.776 108.923 31.776Z" fill="#F1F5F4"/>
</svg>
