<svg width="124.000000" height="37.000000" viewBox="0 0 124 37" fill="none" xmlns="http://www.w3.org/2000/svg" xmlns:xlink="http://www.w3.org/1999/xlink">
	<desc>
			Created with Pixso.
	</desc>
	<defs/>
	<rect id="logo" width="124.000000" height="37.000000" fill="#FFFFFF" fill-opacity="0"/>
	<path id="NAMU" d="M51.9769 11.0039L51.9769 6.21582L55.469 6.21582L55.469 31.416L51.9769 31.416L51.9769 26.6279C49.8889 29.5439 46.6489 31.6318 42.9409 31.6318C35.6689 31.6318 30.413 26.2319 30.413 18.8159C30.413 11.3999 35.6689 6 42.9409 6C46.6489 6 49.8889 8.08789 51.9769 11.0039ZM21.96 26.1602L21.96 6.21582L25.5599 6.21582L25.5599 31.416L21.6 31.416L6.83997 10.9321L6.83997 31.416L3.23999 31.416L3.23999 6.21582L7.66797 6.21582L21.96 26.1602ZM91.8309 6.21582L86.683 6.21582L76.9629 27.168L67.2069 6.21582L61.9509 6.21582L61.9509 31.416L65.5509 31.416L65.5509 10.896L75.0549 31.416L78.6549 31.416L88.231 10.7158L88.231 31.416L91.8309 31.416L91.8309 6.21582ZM119.902 21.1201C119.902 27.2041 115.187 31.7759 108.922 31.7759C102.658 31.7759 97.9425 27.2041 97.9425 21.1201L97.9425 6.21582L101.542 6.21582L101.542 21.1201C101.542 25.2241 104.71 28.3198 108.922 28.3198C113.135 28.3198 116.302 25.2241 116.302 21.1201L116.302 6.21582L119.902 6.21582L119.902 21.1201ZM34.193 18.8159C34.193 24.3242 37.937 28.3198 43.085 28.3198C48.2329 28.3198 51.9769 24.3242 51.9769 18.8159C51.9769 13.3081 48.2329 9.31201 43.085 9.31201C37.937 9.31201 34.193 13.3081 34.193 18.8159Z" fill="#F1F5F4" fill-opacity="1.000000" fill-rule="evenodd"/>
</svg>
