<?xml version="1.0" encoding="iso-8859-1"?>
<!-- Generator: Adobe Illustrator 19.0.0, SVG Export Plug-In . SVG Version: 6.00 Build 0)  -->
<svg version="1.1" id="Layer_1" xmlns="http://www.w3.org/2000/svg" xmlns:xlink="http://www.w3.org/1999/xlink" x="0px" y="0px"
	 viewBox="0 0 512.002 512.002" style="enable-background:new 0 0 512.002 512.002;" xml:space="preserve">
<g>
	<g>
		<g>
			<path d="M506.644,125.843L259.438,20.853c-2.195-0.932-4.676-0.932-6.873,0L5.357,125.843c-3.848,1.634-6.013,5.75-5.179,9.846
				c0.835,4.096,4.436,7.039,8.617,7.039H31.23v24.29c0,4.856,3.936,8.793,8.793,8.793h10.55v31.13c0,4.856,3.936,8.793,8.793,8.793
				h20.805v178.685H59.365c-4.857,0-8.793,3.937-8.793,8.793v31.13H30.467c-4.857,0-8.793,3.937-8.793,8.793v39.923
				c0,4.856,3.936,8.792,8.793,8.792h451.069c4.857,0,8.792-3.937,8.792-8.792v-39.923c0-4.856-3.935-8.793-8.792-8.793h-20.104
				v-31.13c0-4.856-3.936-8.793-8.793-8.793h-20.807V215.733h20.807c4.857,0,8.793-3.937,8.793-8.793v-31.13h10.549
				c4.857,0,8.793-3.937,8.793-8.793v-24.29h22.436c4.179,0,7.782-2.943,8.617-7.039
				C512.657,131.593,510.492,127.477,506.644,125.843z M256.001,38.498l204.011,86.645H51.989L256.001,38.498z M472.741,451.926
				v22.338H39.258v-22.338h20.106h393.273H472.741z M443.846,412.004v22.338H68.158v-22.338h20.805h53.197h87.243H282.6h87.242
				h53.197H443.846z M97.756,394.418V215.733h35.612v178.685H97.756z M150.953,394.418V215.733h69.658v178.685H150.953z
				 M238.196,394.419V215.733h35.612v178.686H238.196z M291.393,394.418V215.733h69.657v178.685H291.393z M378.634,394.419V215.733
				h35.612v178.686H378.634z M443.846,198.148h-20.807h-53.197H282.6h-53.197H142.16H88.963H68.158V175.81h375.688V198.148z
				 M463.187,158.226L463.187,158.226h-10.549H59.365h-10.55v-15.497h414.371V158.226z"/>
			<path d="M256.001,60.591c-14.236,0-25.816,11.58-25.816,25.816s11.58,25.816,25.816,25.816s25.816-11.58,25.816-25.816
				S270.237,60.591,256.001,60.591z M256.001,94.636c-4.538,0-8.231-3.692-8.231-8.231c0-4.539,3.692-8.231,8.231-8.231
				c4.539,0,8.231,3.692,8.231,8.231C264.232,90.945,260.539,94.636,256.001,94.636z"/>
		</g>
	</g>
</g>
<g>
</g>
<g>
</g>
<g>
</g>
<g>
</g>
<g>
</g>
<g>
</g>
<g>
</g>
<g>
</g>
<g>
</g>
<g>
</g>
<g>
</g>
<g>
</g>
<g>
</g>
<g>
</g>
<g>
</g>
</svg>
