<?xml version="1.0" ?><svg id="Capa_1" style="enable-background:new 0 0 512 512;" version="1.1" viewBox="0 0 512 512" xml:space="preserve" xmlns="http://www.w3.org/2000/svg" xmlns:xlink="http://www.w3.org/1999/xlink"><g><path d="M276,50.003V30.004c0-11.003-9-20-20.002-20c-11.002,0-19.998,8.997-19.998,20v19.999H276z" style="fill:#986E62;"/><polygon points="296,50.003 276,50.003 236,50.003 215.998,50.003 133.001,130.584 51.521,209.689    10.002,250 501.996,250 460.478,209.689 378.999,130.584  " style="fill:#FF5A5A;"/><path d="M501.996,250H10.002c0,10.002,15.457,30.001,25.996,30.001h80.001h99.997h79.999h99.999h79.999   C487.476,280.001,501.996,261.561,501.996,250z" style="fill:#986E62;"/><g><polygon points="115.999,309.998 115.999,280.001 35.998,280.001 35.998,309.998 46,309.998     105.999,309.998   " style="fill:#FF9D21;"/><polygon points="215.996,280.001 215.996,309.998 225.996,309.998 285.998,309.998 295.996,309.998     295.996,280.001   " style="fill:#FF9D21;"/><polygon points="395.995,280.001 395.995,309.998 405.997,309.998 465.992,309.998 475.994,309.998     475.994,280.001   " style="fill:#FF9D21;"/></g><g><rect height="121.999" style="fill:#FFDAAE;" width="59.996" x="405.997" y="309.998"/><rect height="121.999" style="fill:#FFDAAE;" width="60" x="225.998" y="309.998"/><rect height="121.999" style="fill:#FFDAAE;" width="60" x="46" y="309.998"/></g><g><polygon points="105.999,431.998 46,431.998 35.998,431.998 35.998,461.998 115.999,461.998     115.999,431.998   " style="fill:#FF9D21;"/><polygon points="215.996,431.998 215.996,461.998 295.996,461.998 295.996,431.998 285.998,431.998     225.996,431.998   " style="fill:#FF9D21;"/><polygon points="395.995,431.998 395.995,461.998 475.994,461.998 475.994,431.998 465.992,431.998     405.997,431.998   " style="fill:#FF9D21;"/></g><path d="M475.994,461.998h-79.999h-99.999h-79.999h-99.997H35.998H29.99c-10.982,0-19.99,8.996-19.99,19.999   v19.999h492v-19.999c0-11.003-9.01-19.999-20.012-19.999H475.994z" style="fill:#986E62;"/></g><g><path d="M216.002,200.003c5.521,0,10-4.477,10-10v-55.858l22.926,22.928c1.875,1.875,4.42,2.929,7.072,2.929   s5.195-1.054,7.07-2.929L286,134.145v55.859c0,5.523,4.477,10,10,10c5.522,0,10-4.477,10-10v-80c0-4.045-2.438-7.691-6.174-9.239   c-3.736-1.546-8.039-0.692-10.898,2.168L256,135.86l-32.928-32.928c-2.859-2.86-7.16-3.714-10.898-2.168   c-3.736,1.548-6.172,5.194-6.172,9.239v80C206.002,195.525,210.478,200.003,216.002,200.003z" style="fill:#000001;"/><path d="M485.994,452.273v-20.276c0-5.523-4.476-10-10-10h-0.002v-102h0.002c5.524,0,10-4.478,10-10v-22.381   c13.84-6.375,26.002-24.264,26.002-37.617c0-0.024-0.004-0.048-0.004-0.071c-0.002-0.202-0.018-0.404-0.031-0.605   c-0.008-0.131-0.01-0.263-0.023-0.392c-0.02-0.178-0.053-0.354-0.082-0.53c-0.023-0.148-0.041-0.299-0.07-0.445   c-0.027-0.132-0.068-0.261-0.102-0.392c-0.045-0.185-0.086-0.372-0.143-0.552c-0.027-0.085-0.064-0.168-0.092-0.252   c-0.076-0.221-0.15-0.442-0.24-0.655c-0.213-0.504-0.478-0.989-0.777-1.46c-0.051-0.08-0.096-0.164-0.148-0.242   c-0.092-0.137-0.197-0.266-0.297-0.398c-0.1-0.131-0.193-0.266-0.297-0.391c-0.088-0.105-0.188-0.205-0.279-0.308   c-0.131-0.145-0.26-0.29-0.398-0.427c-0.018-0.018-0.033-0.037-0.051-0.055l-41.395-40.189c-0.018-0.017-0.033-0.033-0.051-0.049   L302.965,42.828c-1.865-1.812-4.365-2.825-6.965-2.825h-10v-9.999c0-16.542-13.457-30-30.002-30c-16.541,0-29.998,13.458-29.998,30   v9.999h-10.002c-2.6,0-5.1,1.014-6.965,2.825L3.035,242.825c-0.018,0.018-0.033,0.037-0.051,0.055   c-0.137,0.135-0.264,0.28-0.395,0.424c-0.094,0.104-0.193,0.204-0.283,0.311c-0.1,0.121-0.189,0.251-0.285,0.377   c-0.104,0.138-0.213,0.271-0.309,0.413c-0.043,0.063-0.076,0.13-0.117,0.193c-0.313,0.485-0.588,0.987-0.809,1.509   c-0.039,0.094-0.068,0.192-0.106,0.287c-0.078,0.206-0.16,0.41-0.226,0.62c-0.051,0.167-0.088,0.34-0.133,0.51   c-0.035,0.145-0.08,0.287-0.111,0.434c-0.029,0.142-0.045,0.289-0.068,0.434c-0.029,0.181-0.063,0.36-0.082,0.541   c-0.014,0.128-0.016,0.26-0.025,0.39c-0.014,0.202-0.029,0.404-0.029,0.607c-0.002,0.023-0.004,0.047-0.004,0.071   c0,11.316,12.109,30.495,25.996,37.413v22.584c0,5.522,4.479,10,10,10H36v102h-0.002c-5.521,0-10,4.477-10,10v20.274   C11.344,454.231,0,466.81,0,481.997v19.999c0,5.522,4.477,10,10,10h492c5.521,0,10-4.478,10-10v-19.999   C512,466.813,500.654,454.238,485.994,452.273z M305.996,451.998v-20.001c0-5.522-4.476-9.998-9.998-10v-102   c5.522-0.002,9.998-4.478,9.998-10v-19.997h79.999v19.997c0,5.522,4.477,10,10,10h0.002v102h-0.002c-5.523,0-10,4.477-10,10v20.001   H305.996z M125.999,451.998v-20.001c0-5.523-4.479-10-10-10v-102c5.521,0,10-4.478,10-10v-19.997h79.997v19.997   c0,5.522,4.479,10,10,10v102c-5.521,0-10,4.477-10,10v20.001H125.999z M45.998,441.998h60.002v10.001H45.998V441.998z    M45.998,299.998v-9.997h60.002v9.997H45.998z M275.998,319.997v102h-40.002v-102H275.998z M285.996,299.998h-60v-9.997h60V299.998   z M225.996,441.998h60v10.001h-60L225.996,441.998L225.996,441.998z M465.994,299.998h-60v-9.997h60V299.998z M405.995,441.998h60   v10.001h-60V441.998z M455.992,421.998h-39.996v-102h39.996V421.998z M246,30.004c0-5.514,4.484-10,10.002-10   c5.514,0,9.998,4.486,9.998,10v9.999h-20L246,30.004L246,30.004z M220.055,60.003H236h40h15.943l143.876,139.687h-26.377   c-5.522,0-10,4.477-10,10c0,5.522,4.478,10,10,10h46.978L477.339,240H34.658l20.92-20.311h46.979c5.523,0,10-4.478,10-10   c0-5.523-4.477-10-10-10H76.177L220.055,60.003z M487.838,260c-0.66,0.97-1.396,1.95-2.207,2.92   c-4.477,5.351-8.426,7.081-9.637,7.081h-79.999h-99.999h-79.999h-99.997H36.084c-1.191-0.2-5.209-2.486-9.77-8.162   c-0.5-0.622-0.967-1.236-1.402-1.839L487.838,260L487.838,260z M56,319.997h40v102H56V319.997z M492,491.996H20v-9.999   c0-5.514,4.482-9.999,9.99-9.999h6.008h80.001h99.997h79.999h99.999h79.999h5.994c5.52,0,10.012,4.485,10.012,9.999L492,491.996   L492,491.996z" style="fill:#000001;"/><path d="M131.286,219.689h0.234c5.523,0,10-4.478,10-10c0-5.523-4.477-10-10-10h-0.234   c-5.523,0-10,4.477-10,10C121.286,215.211,125.763,219.689,131.286,219.689z" style="fill:#000001;"/><path d="M380.479,219.689h0.236c5.522,0,10-4.478,10-10c0-5.523-4.478-10-10-10h-0.236   c-5.521,0-10,4.477-10,10C370.479,215.211,374.958,219.689,380.479,219.689z" style="fill:#000001;"/></g><g/><g/><g/><g/><g/><g/><g/><g/><g/><g/><g/><g/><g/><g/><g/></svg>