<svg width="16" height="16" viewBox="0 0 16 16" fill="none" xmlns="http://www.w3.org/2000/svg">
<rect width="16" height="16" rx="3" fill="#3F5252"/>
<path d="M6.90726 4.03094V6.88784L4.68768 4.03094H4V7.64074H4.55909V4.70649L6.85135 7.64074H7.46634V4.03094H6.90726Z" fill="#F7F7F7"/>
<path d="M11.569 4.03094V4.7168C11.2447 4.2991 10.7415 4 10.1656 4C9.03629 4 8.22002 4.77353 8.22002 5.83584C8.22002 6.89815 9.03629 7.67168 10.1656 7.67168C10.7415 7.67168 11.2447 7.37258 11.569 6.95488V7.64074H12.1113V4.03094H11.569ZM10.188 7.19725C9.38851 7.19725 8.80706 6.62484 8.80706 5.83584C8.80706 5.04684 9.38851 4.47443 10.188 4.47443C10.9875 4.47443 11.569 5.04684 11.569 5.83584C11.569 6.62484 10.9875 7.19725 10.188 7.19725Z" fill="#F7F7F7"/>
<path d="M8.64043 8.33863H7.84093L6.33139 11.3399L4.81627 8.33863H4V11.9484H4.55909V9.00902L6.03508 11.9484H6.59417L8.08134 8.98324V11.9484H8.64043V8.33863Z" fill="#F7F7F7"/>
<path d="M11.2948 12C12.2676 12 13 11.3451 13 10.4736V8.33863H12.4409V10.4736C12.4409 11.0615 11.9489 11.5049 11.2948 11.5049C10.6407 11.5049 10.1487 11.0615 10.1487 10.4736V8.33863H9.58957V10.4736C9.58957 11.3451 10.322 12 11.2948 12Z" fill="#F7F7F7"/>
</svg>
