<svg width="117" height="26" viewBox="0 0 117 26" fill="none" xmlns="http://www.w3.org/2000/svg">
<path d="M18.9602 0.215999V20.16L4.66823 0.215999H0.240234V25.416H3.84023V4.932L18.6002 25.416H22.5602V0.215999H18.9602Z" fill="#F1F5F4"/>
<path d="M48.9772 0.215999V5.004C46.8892 2.088 43.6492 0 39.9412 0C32.6692 0 27.4132 5.4 27.4132 12.816C27.4132 20.232 32.6692 25.632 39.9412 25.632C43.6492 25.632 46.8892 23.544 48.9772 20.628V25.416H52.4692V0.215999H48.9772ZM40.0852 22.32C34.9372 22.32 31.1932 18.324 31.1932 12.816C31.1932 7.308 34.9372 3.312 40.0852 3.312C45.2332 3.312 48.9772 7.308 48.9772 12.816C48.9772 18.324 45.2332 22.32 40.0852 22.32Z" fill="#F1F5F4"/>
<path d="M88.8312 0.215999H83.6832L73.9632 21.168L64.2072 0.215999H58.9512V25.416H62.5512V4.896L72.0552 25.416H75.6552L85.2312 4.716V25.416H88.8312V0.215999Z" fill="#F1F5F4"/>
<path d="M105.923 25.776C112.187 25.776 116.903 21.204 116.903 15.12V0.215999H113.303V15.12C113.303 19.224 110.135 22.32 105.923 22.32C101.711 22.32 98.5427 19.224 98.5427 15.12V0.215999H94.9427V15.12C94.9427 21.204 99.6587 25.776 105.923 25.776Z" fill="#F1F5F4"/>
</svg>
