<svg width="20" height="17" viewBox="0 0 20 17" fill="none" xmlns="http://www.w3.org/2000/svg">
<path fill-rule="evenodd" clip-rule="evenodd" d="M12.0606 0.353553C11.8653 0.158291 11.5487 0.158291 11.3535 0.353553C11.1582 0.548816 11.1582 0.865398 11.3535 1.06066L18.2928 8H0.5C0.223858 8 0 8.22386 0 8.5C0 8.77614 0.223857 9 0.5 9H18.2783L11.3536 15.9247C11.1583 16.12 11.1583 16.4365 11.3536 16.6318C11.5488 16.8271 11.8654 16.8271 12.0607 16.6318L19.7745 8.918C19.9103 8.82862 20 8.67478 20 8.5C20 8.35772 19.9406 8.22932 19.8452 8.13827C19.8431 8.13607 19.8409 8.13389 19.8388 8.13173L12.0606 0.353553Z" fill="#F1F5F4"/>
</svg>
