<?xml version="1.0" encoding="iso-8859-1"?>
<!-- Generator: Adobe Illustrator 19.0.0, SVG Export Plug-In . SVG Version: 6.00 Build 0)  -->
<svg version="1.1" id="Layer_1" xmlns="http://www.w3.org/2000/svg" xmlns:xlink="http://www.w3.org/1999/xlink" x="0px" y="0px"
	 viewBox="0 0 512 512" style="enable-background:new 0 0 512 512;" xml:space="preserve">
<rect x="61.213" y="10.881" style="fill:#B27214;" width="389.904" height="491.624"/>
<rect x="96.804" y="46.373" style="fill:#2197D8;" width="318.395" height="419.245"/>
<rect x="96.804" y="161.938" style="fill:#9AD14B;" width="318.395" height="303.68"/>
<path style="fill:#80A52F;" d="M96.796,235.777c46.973,0,52.366,16.968,89.787,20.855l118.082-42.365
	c1.43-0.033,2.891-0.054,4.397-0.054c53.07,0,53.07,21.656,106.138,21.656v229.755H96.8L96.796,235.777z"/>
<path style="fill:#666666;" d="M289.865,414.773c-3.029-7.81-7.708-14.636-13.563-20.129l88.135-72.526v96.973
	c0,25.701-20.83,46.531-46.531,46.531h-75.499h-15.823l6.781-50.849h9.042L289.865,414.773L289.865,414.773z"/>
<path style="fill:#4D4D4D;" d="M364.438,292.121v29.996l-88.135,72.526c-9.957-9.37-23.294-14.896-37.557-14.896h-35.444
	l59.348-53.132l11.958-10.715l59.947-53.674c8.251,0,15.721,3.345,21.135,8.759C361.092,276.388,364.438,283.859,364.438,292.121z"
	/>
<g>
	<path style="fill:#FCD495;" d="M289.865,414.773h-47.458h-9.042h-16.354l21.734-35.026c14.263,0,27.6,5.527,37.557,14.896
		C282.157,400.136,286.836,406.963,289.865,414.773z"/>
	<path style="fill:#FCD495;" d="M273.59,314.77l1.017,1.13l-11.958,10.715l-0.011-0.011c-29.623-1.017-54.872-19.214-66.095-44.926
		c14.829-12.523,23.52-31.036,23.52-50.645v-14.037c3.221,0.757,6.578,1.164,10.025,1.164c24.029,0,43.502-19.474,43.502-43.502
		V314.77z"/>
	<path style="fill:#FCD495;" d="M220.063,216.995c-7.991-1.887-15.122-5.968-20.728-11.573c-7.878-7.878-12.749-18.75-12.749-30.765
		v-39.264c0-1.967,0.09-3.911,0.283-5.821c0.023-0.192,0.045-0.384,0.068-0.565c2.724-21.418,21.011-37.964,43.152-37.964
		c12.014,0,22.887,4.871,30.765,12.738c7.866,7.878,12.738,18.75,12.738,30.765v33.895v6.216c0,24.029-19.474,43.502-43.502,43.502
		C226.641,218.159,223.284,217.752,220.063,216.995z"/>
</g>
<g>
	<path style="fill:#666666;" d="M186.586,289.329c1.628-1.39,3.323-2.701,5.097-3.933c1.684-1.175,3.3-2.419,4.86-3.718
		c11.223,25.713,36.472,43.909,66.095,44.926l0.011,0.011l-59.348,53.132c-11.042,0-21.045-4.476-28.289-11.709
		c-7.233-7.233-11.709-17.236-11.709-28.278c0-10.839,2.645-21.339,7.527-30.663C174.73,301.626,180.053,294.89,186.586,289.329z"/>
	<path style="fill:#666666;" d="M238.745,379.747l-21.734,35.026c-29.657,0-53.708-24.04-53.708-53.708V339.76
		c0,11.042,4.476,21.045,11.709,28.278c7.245,7.233,17.247,11.709,28.289,11.709L238.745,379.747L238.745,379.747z"/>
</g>
<path style="fill:#FCD495;" d="M233.366,414.773l-6.781,50.849h-9.573c-29.657,0-53.708-24.04-53.708-53.708v-50.849
	c0,29.668,24.051,53.708,53.708,53.708H233.366z"/>
<g>
	<path style="fill:#995C0D;" d="M220.063,216.995v14.037c0,19.609-8.691,38.122-23.52,50.645c-1.56,1.3-3.176,2.543-4.86,3.718
		c-1.774,1.232-3.47,2.543-5.097,3.933V174.657c0,12.014,4.871,22.887,12.749,30.765
		C204.94,211.027,212.072,215.107,220.063,216.995z"/>
	<path style="fill:#995C0D;" d="M230.088,91.043c-22.141,0-40.428,16.546-43.152,37.964c3.176-29.601,28.244-52.657,58.692-52.657
		c16.298,0,31.059,6.612,41.75,17.292c10.681,10.692,17.292,25.453,17.292,41.75v96.951c0,16.501,13.382,29.883,29.883,29.883
		l-59.947,53.674l-1.017-1.13V174.657v-6.216v-33.895c0-12.014-4.871-22.887-12.738-30.765
		C252.975,95.914,242.102,91.043,230.088,91.043z"/>
</g>
<g>
	<path style="fill:#333333;" d="M243.087,144.145h-11.865c-4.681,0-8.477,3.795-8.477,8.477s3.795,8.477,8.477,8.477h11.865
		c4.681,0,8.477-3.795,8.477-8.477S247.768,144.145,243.087,144.145z"/>
	<path style="fill:#333333;" d="M453.099,0H58.901c-4.681,0-8.477,3.795-8.477,8.477v495.047c0,4.681,3.795,8.477,8.477,8.477
		h394.198c4.681,0,8.477-3.795,8.477-8.477V8.477C461.576,3.795,457.78,0,453.099,0z M406.724,227.183
		c-19.335-0.992-30.089-5.378-41.39-9.99c-13.117-5.354-26.67-10.876-52.188-11.411v-35.361h93.578V227.183z M355.964,318.115
		l-79.7,65.582c-10.686-7.873-23.793-12.429-37.523-12.429h-13.269l112.064-100.331c10.396,1.458,18.428,10.386,18.428,21.177
		V318.115z M105.276,170.421h72.835v4.236v72.167c-9.96-1.923-17.347-4.927-25.054-8.071c-12.341-5.035-25.067-10.219-47.781-11.26
		C105.276,227.492,105.276,170.421,105.276,170.421z M259.639,317.925c-22.135-1.882-42.053-14.922-52.708-34.331
		c13.712-13.863,21.61-32.717,21.61-52.563v-4.433c0.517,0.015,1.032,0.04,1.553,0.04c13.482,0,25.78-5.162,35.027-13.61v99.991
		L259.639,317.925z M195.065,213.027c4.777,4.365,10.373,7.843,16.522,10.193v7.81c0,15.252-6.039,29.74-16.522,40.44V213.027z
		 M265.119,174.657c0,19.314-15.714,35.027-35.027,35.027c-19.314,0-35.028-15.713-35.028-35.027v-16.948h4.607
		c0.573,0,1.04,0.467,1.04,1.04v15.908c0,4.681,3.795,8.477,8.477,8.477s8.477-3.795,8.477-8.477v-15.908
		c0-9.921-8.072-17.993-17.993-17.993h-4.607v-5.365c0-1.651,0.086-3.282,0.241-4.894c2.013-17.414,16.841-30.982,34.786-30.982
		c19.313,0,35.027,15.713,35.027,35.027v40.115H265.119z M193.648,294.495c11.159,18.587,29.238,32.131,49.997,37.748
		l-43.419,38.873c-15.941-1.548-28.442-15.021-28.442-31.361C171.783,322.072,179.895,305.41,193.648,294.495z M203.296,388.223
		h20.213l-11.068,17.845c-16.358-1.65-30.159-12.057-36.66-26.443C183.604,385.04,193.083,388.223,203.296,388.223z
		 M232.248,406.298l11.063-17.837c12.733,1.285,24.372,7.873,32.106,17.837H232.248z M282.073,297.84V134.543
		c0-23.375-15.511-43.191-36.781-49.708c0.113-0.001,0.224-0.009,0.337-0.009c27.881,0,50.564,22.684,50.564,50.564v96.954
		c0,14.867,8.506,27.775,20.901,34.141L282.073,297.84z M406.724,153.467h-93.578v-18.078c0-37.23-30.288-67.517-67.517-67.517
		c-34.994,0-64.177,26.763-67.517,60.893c-0.211,1.898,0,24.702,0,24.702h-72.835V54.852h301.447V153.467z M105.276,244.465
		c19.329,0.992,30.08,5.376,41.377,9.986c8.974,3.661,18.223,7.421,31.458,9.593v21.513c-14.738,13.996-23.281,33.56-23.281,54.2
		v72.158c0,17.811,7.539,33.884,19.578,45.233h-69.131V244.465z M171.783,411.915v-8.242c11.347,12.039,27.421,19.578,45.233,19.578
		h6.667l-4.52,33.895h-2.149C192.074,457.147,171.783,436.856,171.783,411.915z M240.786,423.252h72.807
		c4.681,0,8.477-3.795,8.477-8.477c0-4.681-3.795-8.477-8.477-8.477h-18.236c-1.921-3.831-4.212-7.424-6.827-10.737l67.436-55.491
		v79.017c0,20.986-17.073,38.059-38.059,38.059h-81.638L240.786,423.252z M372.918,419.088V292.115
		c0-21.153-17.21-38.362-38.362-38.362c-11.805,0-21.409-9.603-21.409-21.409v-9.606c22.155,0.513,33.654,5.202,45.782,10.152
		c12.344,5.037,25.073,10.225,47.796,11.265v212.993h-49.153C367.064,447.257,372.918,433.847,372.918,419.088z M411.69,37.899
		H100.311L79.366,16.953h353.269L411.69,37.899z M88.323,49.887v412.226l-20.945,20.945V28.942L88.323,49.887z M100.311,474.1
		H411.69l20.945,20.945H79.366L100.311,474.1z M423.677,462.113V49.887l20.945-20.945v454.117L423.677,462.113z"/>
</g>
<g>
</g>
<g>
</g>
<g>
</g>
<g>
</g>
<g>
</g>
<g>
</g>
<g>
</g>
<g>
</g>
<g>
</g>
<g>
</g>
<g>
</g>
<g>
</g>
<g>
</g>
<g>
</g>
<g>
</g>
</svg>
