<svg width="20" height="17" viewBox="0 0 20 17" fill="none" xmlns="http://www.w3.org/2000/svg">
<path fill-rule="evenodd" clip-rule="evenodd" d="M12.0606 0.353478C11.8653 0.158216 11.5487 0.158216 11.3535 0.353478C11.1582 0.54874 11.1582 0.865323 11.3535 1.06058L18.2928 7.99992H0.5C0.223858 7.99992 0 8.22378 0 8.49992C0 8.77607 0.223857 8.99992 0.5 8.99992H18.2783L11.3536 15.9246C11.1583 16.1199 11.1583 16.4365 11.3536 16.6317C11.5488 16.827 11.8654 16.827 12.0607 16.6317L19.7745 8.91793C19.9103 8.82854 20 8.67471 20 8.49992C20 8.35765 19.9406 8.22925 19.8452 8.13819C19.8431 8.136 19.8409 8.13382 19.8388 8.13165L12.0606 0.353478Z" fill="#F1F5F4"/>
</svg>
