<svg width="20" height="20" viewBox="0 0 20 20" fill="none" xmlns="http://www.w3.org/2000/svg">
<path fill-rule="evenodd" clip-rule="evenodd" d="M2.33337 10C2.33337 9.44772 2.78109 9 3.33337 9H16.6667C17.219 9 17.6667 9.44772 17.6667 10C17.6667 10.5523 17.219 11 16.6667 11H3.33337C2.78109 11 2.33337 10.5523 2.33337 10Z" fill="#1C1B29"/>
<path fill-rule="evenodd" clip-rule="evenodd" d="M10.1263 3.4594C10.5168 3.06887 11.15 3.06887 11.5405 3.4594L17.3738 9.29273C17.7643 9.68326 17.7643 10.3164 17.3738 10.7069L11.5405 16.5403C11.15 16.9308 10.5168 16.9308 10.1263 16.5403C9.73574 16.1498 9.73574 15.5166 10.1263 15.1261L15.2525 9.99984L10.1263 4.87361C9.73574 4.48309 9.73574 3.84992 10.1263 3.4594Z" fill="#1C1B29"/>
</svg>
