<svg xmlns="http://www.w3.org/2000/svg" viewBox="0 0 25 25" width="256" height="256"><path d="M12.583 8.27a4.23 4.23 0 1 0 4.23 4.23 4.234 4.234 0 0 0-4.23-4.23Z" fill="#000000" class="color000 svgShape"></path><path d="M18.484 2H6.682a4.603 4.603 0 0 0-4.599 4.599V18.4A4.603 4.603 0 0 0 6.682 23h11.802a4.603 4.603 0 0 0 4.599-4.599V6.6A4.603 4.603 0 0 0 18.484 2Zm.016 5.5a1 1 0 1 1 1-1 1 1 0 0 1-1 1Zm-5.917 10.23a5.23 5.23 0 1 1 5.23-5.23 5.235 5.235 0 0 1-5.23 5.23Z" fill="#000000" class="color000 svgShape"></path></svg>
