<svg width="96" height="12" viewBox="0 0 96 12" fill="none" xmlns="http://www.w3.org/2000/svg">
<path d="M5.23383 11.098C4.4965 11.098 3.81516 10.972 3.18983 10.72C2.56449 10.468 2.01849 10.1133 1.55183 9.656C1.09449 9.19867 0.735162 8.662 0.473828 8.046C0.221828 7.43 0.0958281 6.758 0.0958281 6.03C0.0958281 5.31133 0.221828 4.644 0.473828 4.028C0.735162 3.412 1.09449 2.88 1.55183 2.432C2.01849 1.97467 2.56449 1.62 3.18983 1.368C3.81516 1.116 4.4965 0.99 5.23383 0.99C5.97116 0.99 6.6525 1.116 7.27783 1.368C7.9125 1.62 8.46316 1.97467 8.92983 2.432C9.3965 2.88 9.75583 3.412 10.0078 4.028C10.2692 4.644 10.3998 5.31133 10.3998 6.03C10.3998 6.758 10.2692 7.43 10.0078 8.046C9.75583 8.662 9.3965 9.19867 8.92983 9.656C8.46316 10.1133 7.9125 10.468 7.27783 10.72C6.6525 10.972 5.97116 11.098 5.23383 11.098ZM5.23383 10.58C6.10183 10.58 6.88116 10.3887 7.57183 10.006C8.27183 9.62333 8.82716 9.096 9.23783 8.424C9.6485 7.74267 9.85383 6.954 9.85383 6.058C9.85383 5.414 9.73716 4.81667 9.50383 4.266C9.27983 3.706 8.95783 3.22067 8.53783 2.81C8.11783 2.39933 7.62783 2.082 7.06783 1.858C6.50783 1.62467 5.8965 1.508 5.23383 1.508C4.5805 1.508 3.97383 1.62467 3.41383 1.858C2.85383 2.082 2.36383 2.39933 1.94383 2.81C1.53316 3.22067 1.21116 3.70133 0.977828 4.252C0.753828 4.80267 0.641828 5.4 0.641828 6.044C0.641828 6.688 0.753828 7.28533 0.977828 7.836C1.21116 8.38667 1.53316 8.86733 1.94383 9.278C2.36383 9.68867 2.84916 10.0107 3.39983 10.244C3.95983 10.468 4.57116 10.58 5.23383 10.58ZM5.34583 9.278C4.77649 9.278 4.23983 9.14733 3.73583 8.886C3.24116 8.61533 2.83983 8.23733 2.53183 7.752C2.22383 7.25733 2.06983 6.68333 2.06983 6.03C2.06983 5.638 2.13516 5.25067 2.26583 4.868C2.39649 4.476 2.59249 4.12133 2.85383 3.804C3.11516 3.48667 3.44649 3.23467 3.84783 3.048C4.24916 2.852 4.7205 2.754 5.26183 2.754C5.8685 2.754 6.4145 2.88933 6.89983 3.16C7.38516 3.42133 7.73516 3.804 7.94983 4.308L7.02583 4.602C6.9045 4.322 6.7365 4.112 6.52183 3.972C6.3165 3.82267 6.09716 3.72467 5.86383 3.678C5.63983 3.622 5.43916 3.594 5.26183 3.594C4.76716 3.594 4.3565 3.71533 4.02983 3.958C3.70316 4.20067 3.45583 4.50867 3.28783 4.882C3.12916 5.25533 3.04983 5.638 3.04983 6.03C3.04983 6.54333 3.16649 6.982 3.39983 7.346C3.63316 7.70067 3.9225 7.976 4.26783 8.172C4.61316 8.35867 4.95383 8.452 5.28983 8.452C5.63516 8.452 5.98983 8.35867 6.35383 8.172C6.71783 7.976 6.9745 7.71467 7.12383 7.388L8.04783 7.654C7.9545 7.88733 7.7865 8.13 7.54383 8.382C7.30116 8.62467 6.9885 8.83467 6.60583 9.012C6.2325 9.18933 5.8125 9.278 5.34583 9.278ZM15.2566 11C15.2566 10.58 15.308 10.1553 15.4106 9.726C15.5226 9.28733 15.742 8.86733 16.0686 8.466C16.4046 8.05533 16.9086 7.67733 17.5806 7.332C17.8513 7.192 18.1313 7.05667 18.4206 6.926C18.71 6.786 18.9806 6.63667 19.2326 6.478C19.4846 6.31 19.69 6.12333 19.8486 5.918C20.0073 5.70333 20.0866 5.45133 20.0866 5.162C20.0866 4.92867 20.0166 4.70467 19.8766 4.49C19.7366 4.266 19.5313 4.084 19.2606 3.944C18.99 3.79467 18.6493 3.72 18.2386 3.72C17.8466 3.72 17.4966 3.79 17.1886 3.93C16.89 4.07 16.638 4.23333 16.4326 4.42C16.2366 4.59733 16.0873 4.742 15.9846 4.854L15.3826 4.196C15.4386 4.14 15.546 4.042 15.7046 3.902C15.8633 3.75267 16.0686 3.59867 16.3206 3.44C16.582 3.28133 16.8853 3.146 17.2306 3.034C17.576 2.922 17.9633 2.866 18.3926 2.866C18.962 2.866 19.4473 2.96867 19.8486 3.174C20.2593 3.37933 20.572 3.65 20.7866 3.986C21.0013 4.31267 21.1086 4.672 21.1086 5.064C21.1086 5.44667 21.0246 5.778 20.8566 6.058C20.698 6.32867 20.488 6.56667 20.2266 6.772C19.9746 6.968 19.7086 7.14067 19.4286 7.29C19.158 7.43 18.9106 7.55133 18.6866 7.654C18.0986 7.934 17.6366 8.214 17.3006 8.494C16.9646 8.76467 16.7173 9.03533 16.5586 9.306C16.4093 9.57667 16.3066 9.852 16.2506 10.132H21.2626V11H15.2566ZM29.7394 6.898C29.7394 7.71933 29.5854 8.452 29.2774 9.096C28.9694 9.73067 28.5494 10.23 28.0174 10.594C27.4947 10.958 26.8974 11.14 26.2254 11.14C25.5534 11.14 24.9514 10.958 24.4194 10.594C23.8874 10.23 23.4674 9.73067 23.1594 9.096C22.8607 8.452 22.7114 7.71933 22.7114 6.898C22.7114 6.07667 22.8607 5.34867 23.1594 4.714C23.4674 4.07 23.8874 3.566 24.4194 3.202C24.9514 2.82867 25.5534 2.642 26.2254 2.642C26.8974 2.642 27.4947 2.82867 28.0174 3.202C28.5494 3.566 28.9694 4.07 29.2774 4.714C29.5854 5.34867 29.7394 6.07667 29.7394 6.898ZM28.7734 6.898C28.7734 6.23533 28.6661 5.652 28.4514 5.148C28.2367 4.63467 27.9381 4.238 27.5554 3.958C27.1727 3.678 26.7294 3.538 26.2254 3.538C25.7214 3.538 25.2781 3.678 24.8954 3.958C24.5127 4.238 24.2094 4.63467 23.9854 5.148C23.7707 5.652 23.6634 6.23533 23.6634 6.898C23.6634 7.56067 23.7707 8.144 23.9854 8.648C24.2094 9.152 24.5127 9.544 24.8954 9.824C25.2781 10.104 25.7214 10.244 26.2254 10.244C26.7294 10.244 27.1727 10.104 27.5554 9.824C27.9381 9.544 28.2367 9.152 28.4514 8.648C28.6661 8.144 28.7734 7.56067 28.7734 6.898ZM36.1977 10.132V11H31.4517V10.132H33.4397V4.14C33.337 4.28 33.1503 4.43867 32.8797 4.616C32.609 4.79333 32.315 4.94733 31.9977 5.078C31.6803 5.19933 31.4003 5.26 31.1577 5.26V4.336C31.3723 4.336 31.6057 4.27533 31.8577 4.154C32.119 4.03267 32.3617 3.89267 32.5857 3.734C32.819 3.566 33.015 3.412 33.1737 3.272C33.3323 3.132 33.421 3.04333 33.4397 3.006H34.4197V10.132H36.1977ZM44.3 6.898C44.3 7.71933 44.146 8.452 43.838 9.096C43.53 9.73067 43.11 10.23 42.578 10.594C42.0553 10.958 41.458 11.14 40.786 11.14C40.114 11.14 39.512 10.958 38.98 10.594C38.448 10.23 38.028 9.73067 37.72 9.096C37.4213 8.452 37.272 7.71933 37.272 6.898C37.272 6.07667 37.4213 5.34867 37.72 4.714C38.028 4.07 38.448 3.566 38.98 3.202C39.512 2.82867 40.114 2.642 40.786 2.642C41.458 2.642 42.0553 2.82867 42.578 3.202C43.11 3.566 43.53 4.07 43.838 4.714C44.146 5.34867 44.3 6.07667 44.3 6.898ZM43.334 6.898C43.334 6.23533 43.2266 5.652 43.012 5.148C42.7973 4.63467 42.4986 4.238 42.116 3.958C41.7333 3.678 41.29 3.538 40.786 3.538C40.282 3.538 39.8386 3.678 39.456 3.958C39.0733 4.238 38.77 4.63467 38.546 5.148C38.3313 5.652 38.224 6.23533 38.224 6.898C38.224 7.56067 38.3313 8.144 38.546 8.648C38.77 9.152 39.0733 9.544 39.456 9.824C39.8386 10.104 40.282 10.244 40.786 10.244C41.29 10.244 41.7333 10.104 42.116 9.824C42.4986 9.544 42.7973 9.152 43.012 8.648C43.2266 8.144 43.334 7.56067 43.334 6.898ZM49.5526 7.626V6.744H60.3466V7.626H49.5526ZM65.4461 11C65.4461 10.58 65.4974 10.1553 65.6001 9.726C65.7121 9.28733 65.9314 8.86733 66.2581 8.466C66.5941 8.05533 67.0981 7.67733 67.7701 7.332C68.0407 7.192 68.3207 7.05667 68.6101 6.926C68.8994 6.786 69.1701 6.63667 69.4221 6.478C69.6741 6.31 69.8794 6.12333 70.0381 5.918C70.1967 5.70333 70.2761 5.45133 70.2761 5.162C70.2761 4.92867 70.2061 4.70467 70.0661 4.49C69.9261 4.266 69.7207 4.084 69.4501 3.944C69.1794 3.79467 68.8387 3.72 68.4281 3.72C68.0361 3.72 67.6861 3.79 67.3781 3.93C67.0794 4.07 66.8274 4.23333 66.6221 4.42C66.4261 4.59733 66.2767 4.742 66.1741 4.854L65.5721 4.196C65.6281 4.14 65.7354 4.042 65.8941 3.902C66.0527 3.75267 66.2581 3.59867 66.5101 3.44C66.7714 3.28133 67.0747 3.146 67.4201 3.034C67.7654 2.922 68.1527 2.866 68.5821 2.866C69.1514 2.866 69.6367 2.96867 70.0381 3.174C70.4487 3.37933 70.7614 3.65 70.9761 3.986C71.1907 4.31267 71.2981 4.672 71.2981 5.064C71.2981 5.44667 71.2141 5.778 71.0461 6.058C70.8874 6.32867 70.6774 6.56667 70.4161 6.772C70.1641 6.968 69.8981 7.14067 69.6181 7.29C69.3474 7.43 69.1001 7.55133 68.8761 7.654C68.2881 7.934 67.8261 8.214 67.4901 8.494C67.1541 8.76467 66.9067 9.03533 66.7481 9.306C66.5987 9.57667 66.4961 9.852 66.4401 10.132H71.4521V11H65.4461ZM79.9289 6.898C79.9289 7.71933 79.7749 8.452 79.4669 9.096C79.1589 9.73067 78.7389 10.23 78.2069 10.594C77.6842 10.958 77.0869 11.14 76.4149 11.14C75.7429 11.14 75.1409 10.958 74.6089 10.594C74.0769 10.23 73.6569 9.73067 73.3489 9.096C73.0502 8.452 72.9009 7.71933 72.9009 6.898C72.9009 6.07667 73.0502 5.34867 73.3489 4.714C73.6569 4.07 74.0769 3.566 74.6089 3.202C75.1409 2.82867 75.7429 2.642 76.4149 2.642C77.0869 2.642 77.6842 2.82867 78.2069 3.202C78.7389 3.566 79.1589 4.07 79.4669 4.714C79.7749 5.34867 79.9289 6.07667 79.9289 6.898ZM78.9629 6.898C78.9629 6.23533 78.8555 5.652 78.6409 5.148C78.4262 4.63467 78.1275 4.238 77.7449 3.958C77.3622 3.678 76.9189 3.538 76.4149 3.538C75.9109 3.538 75.4675 3.678 75.0849 3.958C74.7022 4.238 74.3989 4.63467 74.1749 5.148C73.9602 5.652 73.8529 6.23533 73.8529 6.898C73.8529 7.56067 73.9602 8.144 74.1749 8.648C74.3989 9.152 74.7022 9.544 75.0849 9.824C75.4675 10.104 75.9109 10.244 76.4149 10.244C76.9189 10.244 77.3622 10.104 77.7449 9.824C78.1275 9.544 78.4262 9.152 78.6409 8.648C78.8555 8.144 78.9629 7.56067 78.9629 6.898ZM81.3191 11C81.3191 10.58 81.3705 10.1553 81.4731 9.726C81.5851 9.28733 81.8045 8.86733 82.1311 8.466C82.4671 8.05533 82.9711 7.67733 83.6431 7.332C83.9138 7.192 84.1938 7.05667 84.4831 6.926C84.7725 6.786 85.0431 6.63667 85.2951 6.478C85.5471 6.31 85.7525 6.12333 85.9111 5.918C86.0698 5.70333 86.1491 5.45133 86.1491 5.162C86.1491 4.92867 86.0791 4.70467 85.9391 4.49C85.7991 4.266 85.5938 4.084 85.3231 3.944C85.0525 3.79467 84.7118 3.72 84.3011 3.72C83.9091 3.72 83.5591 3.79 83.2511 3.93C82.9525 4.07 82.7005 4.23333 82.4951 4.42C82.2991 4.59733 82.1498 4.742 82.0471 4.854L81.4451 4.196C81.5011 4.14 81.6085 4.042 81.7671 3.902C81.9258 3.75267 82.1311 3.59867 82.3831 3.44C82.6445 3.28133 82.9478 3.146 83.2931 3.034C83.6385 2.922 84.0258 2.866 84.4551 2.866C85.0245 2.866 85.5098 2.96867 85.9111 3.174C86.3218 3.37933 86.6345 3.65 86.8491 3.986C87.0638 4.31267 87.1711 4.672 87.1711 5.064C87.1711 5.44667 87.0871 5.778 86.9191 6.058C86.7605 6.32867 86.5505 6.56667 86.2891 6.772C86.0371 6.968 85.7711 7.14067 85.4911 7.29C85.2205 7.43 84.9731 7.55133 84.7491 7.654C84.1611 7.934 83.6991 8.214 83.3631 8.494C83.0271 8.76467 82.7798 9.03533 82.6211 9.306C82.4718 9.57667 82.3691 9.852 82.3131 10.132H87.3251V11H81.3191ZM95.8019 6.898C95.8019 7.71933 95.6479 8.452 95.3399 9.096C95.0319 9.73067 94.6119 10.23 94.0799 10.594C93.5572 10.958 92.9599 11.14 92.2879 11.14C91.6159 11.14 91.0139 10.958 90.4819 10.594C89.9499 10.23 89.5299 9.73067 89.2219 9.096C88.9232 8.452 88.7739 7.71933 88.7739 6.898C88.7739 6.07667 88.9232 5.34867 89.2219 4.714C89.5299 4.07 89.9499 3.566 90.4819 3.202C91.0139 2.82867 91.6159 2.642 92.2879 2.642C92.9599 2.642 93.5572 2.82867 94.0799 3.202C94.6119 3.566 95.0319 4.07 95.3399 4.714C95.6479 5.34867 95.8019 6.07667 95.8019 6.898ZM94.8359 6.898C94.8359 6.23533 94.7286 5.652 94.5139 5.148C94.2992 4.63467 94.0006 4.238 93.6179 3.958C93.2352 3.678 92.7919 3.538 92.2879 3.538C91.7839 3.538 91.3406 3.678 90.9579 3.958C90.5752 4.238 90.2719 4.63467 90.0479 5.148C89.8332 5.652 89.7259 6.23533 89.7259 6.898C89.7259 7.56067 89.8332 8.144 90.0479 8.648C90.2719 9.152 90.5752 9.544 90.9579 9.824C91.3406 10.104 91.7839 10.244 92.2879 10.244C92.7919 10.244 93.2352 10.104 93.6179 9.824C94.0006 9.544 94.2992 9.152 94.5139 8.648C94.7286 8.144 94.8359 7.56067 94.8359 6.898Z" fill="#F1F5F4"/>
</svg>
