<svg width="20.000000" height="20.000000" viewBox="0 0 20 20" fill="none" xmlns="http://www.w3.org/2000/svg" xmlns:xlink="http://www.w3.org/1999/xlink">
	<desc>
			Created with Pixso.
	</desc>
	<defs/>
	<rect id="facebook" width="20.000000" height="20.000000" fill="#FFFFFF" fill-opacity="0"/>
	<path id="Vector" d="M7.90906 20L7.90906 10.9434L5 10.9434L5 7.16992L7.90906 7.16992C7.90906 6.604 7.90906 5.05664 7.90906 3.396C7.90906 1.3208 9.90906 0 10.8182 0C11.5454 0 13.9091 0 15 0L15 3.396C14.3939 3.396 13.0728 3.396 12.6364 3.396C12.0909 3.396 11.5454 3.9624 11.5454 4.52832C11.5454 4.98096 11.5454 6.47803 11.5454 7.16992L15 7.16992L14.2727 10.9434L11.5454 10.9434L11.5454 20L7.90906 20Z" fill="#F1F5F4" fill-opacity="1.000000" fill-rule="evenodd"/>
</svg>
