<svg width="124" height="37" viewBox="0 0 124 37" fill="none" xmlns="http://www.w3.org/2000/svg">
<path d="M21.96 6.216V26.16L7.66799 6.216H3.23999V31.416H6.83999V10.932L21.6 31.416H25.56V6.216H21.96Z" fill="#1C1B29"/>
<path d="M51.977 6.216V11.004C49.889 8.088 46.649 6 42.941 6C35.669 6 30.413 11.4 30.413 18.816C30.413 26.232 35.669 31.632 42.941 31.632C46.649 31.632 49.889 29.544 51.977 26.628V31.416H55.469V6.216H51.977ZM43.085 28.32C37.937 28.32 34.193 24.324 34.193 18.816C34.193 13.308 37.937 9.312 43.085 9.312C48.233 9.312 51.977 13.308 51.977 18.816C51.977 24.324 48.233 28.32 43.085 28.32Z" fill="#1C1B29"/>
<path d="M91.8309 6.216H86.6829L76.9629 27.168L67.2069 6.216H61.9509V31.416H65.5509V10.896L75.0549 31.416H78.6549L88.2309 10.716V31.416H91.8309V6.216Z" fill="#1C1B29"/>
<path d="M108.922 31.776C115.186 31.776 119.902 27.204 119.902 21.12V6.216H116.302V21.12C116.302 25.224 113.134 28.32 108.922 28.32C104.71 28.32 101.542 25.224 101.542 21.12V6.216H97.9425V21.12C97.9425 27.204 102.658 31.776 108.922 31.776Z" fill="#1C1B29"/>
</svg>
