<svg width="125" height="40" viewBox="0 0 125 40" fill="none" xmlns="http://www.w3.org/2000/svg">
<g filter="url(#filter0_d_12501_2028)">
<path d="M22.96 6.216V26.16L8.66799 6.216H4.23999V31.416H7.83999V10.932L22.6 31.416H26.56V6.216H22.96Z" fill="#F1F5F4"/>
<path d="M52.977 6.216V11.004C50.889 8.088 47.649 6 43.941 6C36.669 6 31.413 11.4 31.413 18.816C31.413 26.232 36.669 31.632 43.941 31.632C47.649 31.632 50.889 29.544 52.977 26.628V31.416H56.469V6.216H52.977ZM44.085 28.32C38.937 28.32 35.193 24.324 35.193 18.816C35.193 13.308 38.937 9.312 44.085 9.312C49.233 9.312 52.977 13.308 52.977 18.816C52.977 24.324 49.233 28.32 44.085 28.32Z" fill="#F1F5F4"/>
<path d="M92.8309 6.216H87.6829L77.9629 27.168L68.2069 6.216H62.9509V31.416H66.5509V10.896L76.0549 31.416H79.6549L89.2309 10.716V31.416H92.8309V6.216Z" fill="#F1F5F4"/>
<path d="M109.922 31.776C116.186 31.776 120.902 27.204 120.902 21.12V6.216H117.302V21.12C117.302 25.224 114.134 28.32 109.922 28.32C105.71 28.32 102.542 25.224 102.542 21.12V6.216H98.9425V21.12C98.9425 27.204 103.658 31.776 109.922 31.776Z" fill="#F1F5F4"/>
</g>
<defs>
<filter id="filter0_d_12501_2028" x="-3" y="0" width="132" height="45" filterUnits="userSpaceOnUse" color-interpolation-filters="sRGB">
<feFlood flood-opacity="0" result="BackgroundImageFix"/>
<feColorMatrix in="SourceAlpha" type="matrix" values="0 0 0 0 0 0 0 0 0 0 0 0 0 0 0 0 0 0 127 0" result="hardAlpha"/>
<feOffset dy="4"/>
<feGaussianBlur stdDeviation="2"/>
<feComposite in2="hardAlpha" operator="out"/>
<feColorMatrix type="matrix" values="0 0 0 0 0 0 0 0 0 0 0 0 0 0 0 0 0 0 0.25 0"/>
<feBlend mode="normal" in2="BackgroundImageFix" result="effect1_dropShadow_12501_2028"/>
<feBlend mode="normal" in="SourceGraphic" in2="effect1_dropShadow_12501_2028" result="shape"/>
</filter>
</defs>
</svg>
