<svg width="25" height="26" viewBox="0 0 25 26" fill="none" xmlns="http://www.w3.org/2000/svg">
<g filter="url(#filter0_d_12431_2929)">
<path fill-rule="evenodd" clip-rule="evenodd" d="M4 14.2442V3.56977C4 2.38372 5.38372 1 6.76744 1H18.2326C19.814 1 21 2.5814 21 4.36047V15.0349C21 16.2209 20.0116 18 17.8372 18H7.95349C5.77907 18 4 16.4186 4 14.2442ZM12.5 6.54189C10.8663 6.54189 9.54189 7.8663 9.54189 9.50003C9.54189 11.1338 10.8663 12.4582 12.5 12.4582C14.1338 12.4582 15.4582 11.1338 15.4582 9.50003C15.4582 7.8663 14.1338 6.54189 12.5 6.54189ZM8.34189 9.50003C8.34189 7.20356 10.2036 5.34189 12.5 5.34189C14.7965 5.34189 16.6582 7.20356 16.6582 9.50003C16.6582 11.7965 14.7965 13.6582 12.5 13.6582C10.2036 13.6582 8.34189 11.7965 8.34189 9.50003ZM17.0466 5.5465C17.5924 5.5465 18.035 5.10399 18.035 4.55813C18.035 4.01226 17.5924 3.56976 17.0466 3.56976C16.5007 3.56976 16.0582 4.01226 16.0582 4.55813C16.0582 5.10399 16.5007 5.5465 17.0466 5.5465Z" fill="#F1F5F4"/>
</g>
<defs>
<filter id="filter0_d_12431_2929" x="-1" y="0" width="28" height="28" filterUnits="userSpaceOnUse" color-interpolation-filters="sRGB">
<feFlood flood-opacity="0" result="BackgroundImageFix"/>
<feColorMatrix in="SourceAlpha" type="matrix" values="0 0 0 0 0 0 0 0 0 0 0 0 0 0 0 0 0 0 127 0" result="hardAlpha"/>
<feOffset dy="4"/>
<feGaussianBlur stdDeviation="2"/>
<feComposite in2="hardAlpha" operator="out"/>
<feColorMatrix type="matrix" values="0 0 0 0 0 0 0 0 0 0 0 0 0 0 0 0 0 0 0.25 0"/>
<feBlend mode="normal" in2="BackgroundImageFix" result="effect1_dropShadow_12431_2929"/>
<feBlend mode="normal" in="SourceGraphic" in2="effect1_dropShadow_12431_2929" result="shape"/>
</filter>
</defs>
</svg>
