<svg width="32" height="32" viewBox="0 0 32 32" fill="none" xmlns="http://www.w3.org/2000/svg">
<path d="M16.0027 9.8467C12.5974 9.8467 9.85075 12.594 9.85075 16C9.85075 19.406 12.5974 22.1533 16.0027 22.1533C19.4079 22.1533 22.1546 19.406 22.1546 16C22.1546 12.594 19.4079 9.8467 16.0027 9.8467ZM16.0027 20.0004C13.8021 20.0004 12.0031 18.2064 12.0031 16C12.0031 13.7936 13.7968 11.9996 16.0027 11.9996C18.2086 11.9996 20.0022 13.7936 20.0022 16C20.0022 18.2064 18.2032 20.0004 16.0027 20.0004ZM23.8412 9.595C23.8412 10.3929 23.1987 11.0302 22.4062 11.0302C21.6085 11.0302 20.9713 10.3876 20.9713 9.595C20.9713 8.80241 21.6138 8.15977 22.4062 8.15977C23.1987 8.15977 23.8412 8.80241 23.8412 9.595ZM27.9157 11.0517C27.8247 9.12909 27.3856 7.42608 25.9775 6.02298C24.5747 4.61988 22.8721 4.18074 20.9499 4.08435C18.9689 3.97188 13.0311 3.97188 11.0501 4.08435C9.1333 4.17539 7.43068 4.61453 6.02253 6.01763C4.61439 7.42073 4.1807 9.12373 4.08433 11.0463C3.97189 13.0278 3.97189 18.9669 4.08433 20.9483C4.17535 22.8709 4.61439 24.5739 6.02253 25.977C7.43068 27.3801 9.12794 27.8193 11.0501 27.9157C13.0311 28.0281 18.9689 28.0281 20.9499 27.9157C22.8721 27.8246 24.5747 27.3855 25.9775 25.977C27.3803 24.5739 27.8193 22.8709 27.9157 20.9483C28.0281 18.9669 28.0281 13.0331 27.9157 11.0517ZM25.3564 23.0744C24.9388 24.1241 24.1303 24.9327 23.0755 25.3558C21.496 25.9824 17.7481 25.8378 16.0027 25.8378C14.2572 25.8378 10.504 25.977 8.92984 25.3558C7.88042 24.9381 7.07195 24.1294 6.64897 23.0744C6.02253 21.4946 6.16709 17.7458 6.16709 16C6.16709 14.2542 6.02789 10.5001 6.64897 8.92558C7.06659 7.87593 7.87507 7.06728 8.92984 6.6442C10.5093 6.01763 14.2572 6.16222 16.0027 6.16222C17.7481 6.16222 21.5014 6.02298 23.0755 6.6442C24.1249 7.06192 24.9334 7.87058 25.3564 8.92558C25.9828 10.5054 25.8383 14.2542 25.8383 16C25.8383 17.7458 25.9828 21.4999 25.3564 23.0744Z" fill="white"/>
</svg>
