<svg width="20.000000" height="20.000000" viewBox="0 0 20 20" fill="none" xmlns="http://www.w3.org/2000/svg" xmlns:xlink="http://www.w3.org/1999/xlink">
	<desc>
			Created with Pixso.
	</desc>
	<defs/>
	<rect id="instagram" width="20.000000" height="20.000000" fill="#FFFFFF" fill-opacity="0"/>
	<path id="Subtract" d="M1 14.2441L1 3.56982C1 2.38379 2.38367 1 3.76746 1L15.2325 1C16.814 1 18 2.58154 18 4.36035L18 15.0347C18 16.2207 17.0116 18 14.8372 18L4.95349 18C2.77905 18 1 16.4185 1 14.2441ZM14.0466 3.56982C13.5007 3.56982 13.0582 4.01221 13.0582 4.55811C13.0582 5.104 13.5007 5.54639 14.0466 5.54639C14.5924 5.54639 15.0349 5.104 15.0349 4.55811C15.0349 4.01221 14.5924 3.56982 14.0466 3.56982ZM5.34192 9.5C5.34192 7.20361 7.20361 5.3418 9.5 5.3418C11.7965 5.3418 13.6582 7.20361 13.6582 9.5C13.6582 11.7964 11.7965 13.6582 9.5 13.6582C7.20361 13.6582 5.34192 11.7964 5.34192 9.5ZM6.54187 9.5C6.54187 7.86621 7.86633 6.54199 9.5 6.54199C11.1338 6.54199 12.4581 7.86621 12.4581 9.5C12.4581 11.1338 11.1338 12.458 9.5 12.458C7.86633 12.458 6.54187 11.1338 6.54187 9.5Z" clip-rule="evenodd" fill="#F1F5F4" fill-opacity="1.000000" fill-rule="evenodd"/>
</svg>
