<svg width="22" height="13" viewBox="0 0 22 13" fill="none" xmlns="http://www.w3.org/2000/svg">
<path d="M5.32925 12.08C4.42258 12.08 3.65992 11.9253 3.04125 11.616C2.42258 11.296 1.92658 10.8693 1.55325 10.336C1.17992 9.792 0.907917 9.17867 0.73725 8.496C0.566583 7.81333 0.48125 7.10933 0.48125 6.384V0.639999H1.92125V6.384C1.92125 6.93867 1.97458 7.48267 2.08125 8.016C2.19858 8.53867 2.38525 9.008 2.64125 9.424C2.89725 9.84 3.24392 10.1707 3.68125 10.416C4.11858 10.6613 4.66258 10.784 5.31325 10.784C5.97458 10.784 6.52392 10.6613 6.96125 10.416C7.39858 10.16 7.74525 9.824 8.00125 9.408C8.25725 8.98133 8.43858 8.50667 8.54525 7.984C8.66258 7.46133 8.72125 6.928 8.72125 6.384V0.639999H10.1613V6.384C10.1613 7.152 10.0706 7.88267 9.88925 8.576C9.71858 9.25867 9.44125 9.86133 9.05725 10.384C8.67325 10.9067 8.17192 11.3227 7.55325 11.632C6.94525 11.9307 6.20392 12.08 5.32925 12.08ZM15.7066 0.639999H16.9226L21.5626 12H20.0266L18.6826 8.672H13.9146L12.5866 12H11.0506L15.7066 0.639999ZM18.3626 7.552L16.3146 2.304L14.2026 7.552H18.3626Z" fill="#F1F5F4"/>
</svg>
