<svg width="105" height="15" viewBox="0 0 105 15" fill="none" xmlns="http://www.w3.org/2000/svg">
<path d="M0.52725 11V1.06H4.64325C5.07258 1.06 5.46458 1.14867 5.81925 1.326C6.18325 1.50333 6.49592 1.746 6.75725 2.054C7.02792 2.35267 7.23325 2.68867 7.37325 3.062C7.52258 3.426 7.59725 3.79933 7.59725 4.182C7.59725 4.72333 7.47592 5.23667 7.23325 5.722C6.99058 6.198 6.65458 6.58533 6.22525 6.884C5.79592 7.18267 5.29658 7.332 4.72725 7.332H1.50725V11H0.52725ZM1.50725 6.464H4.68525C5.07725 6.464 5.41792 6.35667 5.70725 6.142C5.99658 5.92733 6.22058 5.64733 6.37925 5.302C6.53792 4.95667 6.61725 4.58333 6.61725 4.182C6.61725 3.77133 6.52392 3.398 6.33725 3.062C6.15058 2.71667 5.90325 2.44133 5.59525 2.236C5.29658 2.03067 4.96525 1.928 4.60125 1.928H1.50725V6.464ZM12.6802 4.546C12.0456 4.56467 11.4856 4.742 11.0002 5.078C10.5242 5.414 10.1882 5.876 9.99223 6.464V11H9.04023V3.706H9.93623V5.456C10.1882 4.94267 10.5196 4.52733 10.9302 4.21C11.3502 3.89267 11.7936 3.71533 12.2602 3.678C12.3536 3.66867 12.4329 3.664 12.4982 3.664C12.5636 3.664 12.6242 3.66867 12.6802 3.678V4.546ZM13.9484 2.18V0.78H14.9004V2.18H13.9484ZM13.9484 11V3.706H14.9004V11H13.9484ZM19.1673 11L16.2133 3.706H17.2073L19.6993 10.048L22.2053 3.706H23.1433L20.1893 11H19.1673ZM23.6964 8.9C23.6964 8.452 23.827 8.06467 24.0884 7.738C24.3497 7.402 24.709 7.14067 25.1664 6.954C25.633 6.76733 26.1697 6.674 26.7764 6.674C27.131 6.674 27.4997 6.70667 27.8824 6.772C28.265 6.828 28.6057 6.90733 28.9044 7.01V6.394C28.9044 5.778 28.7224 5.288 28.3584 4.924C27.9944 4.56 27.4904 4.378 26.8464 4.378C26.4637 4.378 26.081 4.45267 25.6984 4.602C25.3157 4.742 24.919 4.952 24.5084 5.232L24.1444 4.56C24.6204 4.23333 25.087 3.99067 25.5444 3.832C26.0017 3.664 26.4684 3.58 26.9444 3.58C27.8404 3.58 28.5497 3.83667 29.0724 4.35C29.595 4.86333 29.8564 5.57267 29.8564 6.478V9.852C29.8564 10.104 29.973 10.2347 30.2064 10.244V11C30.001 11.028 29.8564 11.0373 29.7724 11.028C29.539 11.0187 29.3617 10.944 29.2404 10.804C29.119 10.664 29.0537 10.5147 29.0444 10.356L29.0304 9.824C28.7037 10.244 28.279 10.5707 27.7564 10.804C27.2337 11.028 26.7017 11.14 26.1604 11.14C25.6844 11.14 25.2597 11.042 24.8864 10.846C24.513 10.6407 24.219 10.37 24.0044 10.034C23.799 9.68867 23.6964 9.31067 23.6964 8.9ZM28.5824 9.46C28.797 9.208 28.9044 8.97467 28.9044 8.76V7.696C28.2604 7.444 27.5884 7.318 26.8884 7.318C26.207 7.318 25.6564 7.45333 25.2364 7.724C24.8164 7.99467 24.6064 8.36333 24.6064 8.83C24.6064 9.23133 24.7604 9.59533 25.0684 9.922C25.3857 10.2487 25.8244 10.412 26.3844 10.412C26.8417 10.412 27.2664 10.3233 27.6584 10.146C28.0597 9.96867 28.3677 9.74 28.5824 9.46ZM35.0773 11.14C34.3679 11.14 33.7379 10.9673 33.1873 10.622C32.6366 10.2673 32.2026 9.80533 31.8853 9.236C31.5679 8.65733 31.4093 8.02267 31.4093 7.332C31.4093 6.64133 31.5633 6.016 31.8713 5.456C32.1793 4.88667 32.6086 4.434 33.1593 4.098C33.7099 3.75267 34.3446 3.58 35.0633 3.58C35.7446 3.58 36.3419 3.73867 36.8553 4.056C37.3779 4.364 37.7699 4.784 38.0313 5.316L37.1073 5.61C36.9019 5.23667 36.6126 4.94733 36.2393 4.742C35.8753 4.52733 35.4693 4.42 35.0213 4.42C34.5266 4.42 34.0786 4.546 33.6773 4.798C33.2853 5.05 32.9679 5.4 32.7253 5.848C32.4919 6.28667 32.3753 6.78133 32.3753 7.332C32.3753 7.88267 32.4966 8.382 32.7393 8.83C32.9819 9.278 33.3039 9.63733 33.7053 9.908C34.1066 10.1693 34.5499 10.3 35.0353 10.3C35.3526 10.3 35.6606 10.244 35.9593 10.132C36.2579 10.02 36.5146 9.87067 36.7293 9.684C36.9439 9.488 37.0886 9.278 37.1633 9.054L38.1013 9.334C37.9706 9.67933 37.7559 9.992 37.4573 10.272C37.1586 10.5427 36.8039 10.7573 36.3933 10.916C35.9826 11.0653 35.5439 11.14 35.0773 11.14ZM39.9075 13.24C40.0382 13.2493 40.1642 13.254 40.2855 13.254C40.4068 13.2633 40.4955 13.2587 40.5515 13.24C40.6635 13.2307 40.7662 13.1653 40.8595 13.044C40.9622 12.932 41.0835 12.7173 41.2235 12.4C41.3728 12.092 41.5735 11.6253 41.8255 11L38.6475 3.706H39.6555L42.3295 10.02L44.7935 3.706H45.7455L41.9655 13.114C41.8628 13.3847 41.6902 13.618 41.4475 13.814C41.2048 14.01 40.8828 14.1127 40.4815 14.122C40.3975 14.1313 40.3088 14.1313 40.2155 14.122C40.1222 14.122 40.0195 14.1127 39.9075 14.094V13.24ZM50.1209 7.626V6.744H60.9149V7.626H50.1209ZM73.2903 1.928H69.7483V11H68.7683V1.928H65.2263V1.06H73.2903V1.928ZM76.1609 11.14C75.4609 11.14 74.8356 10.9673 74.2849 10.622C73.7343 10.2767 73.3003 9.81467 72.9829 9.236C72.6656 8.65733 72.5069 8.02267 72.5069 7.332C72.5069 6.65067 72.6609 6.02533 72.9689 5.456C73.2863 4.88667 73.7203 4.434 74.2709 4.098C74.8216 3.75267 75.4469 3.58 76.1469 3.58C76.8656 3.58 77.4956 3.75267 78.0369 4.098C78.5783 4.44333 78.9983 4.90067 79.2969 5.47C79.6049 6.03 79.7589 6.646 79.7589 7.318C79.7589 7.46733 79.7543 7.59333 79.7449 7.696H73.5009C73.5476 8.21867 73.6969 8.68533 73.9489 9.096C74.2009 9.49733 74.5229 9.81933 74.9149 10.062C75.3069 10.2953 75.7363 10.412 76.2029 10.412C76.6789 10.412 77.1269 10.2907 77.5469 10.048C77.9669 9.80533 78.2656 9.488 78.4429 9.096L79.2689 9.32C79.1196 9.67467 78.8863 9.992 78.5689 10.272C78.2609 10.5427 77.9016 10.7573 77.4909 10.916C77.0803 11.0653 76.6369 11.14 76.1609 11.14ZM73.4729 7.01H78.8629C78.8256 6.48733 78.6809 6.02533 78.4289 5.624C78.1769 5.21333 77.8549 4.896 77.4629 4.672C77.0709 4.43867 76.6369 4.322 76.1609 4.322C75.6849 4.322 75.2509 4.43867 74.8589 4.672C74.4669 4.896 74.1449 5.21333 73.8929 5.624C73.6503 6.02533 73.5103 6.48733 73.4729 7.01ZM84.8677 4.546C84.2331 4.56467 83.6731 4.742 83.1877 5.078C82.7117 5.414 82.3757 5.876 82.1797 6.464V11H81.2277V3.706H82.1237V5.456C82.3757 4.94267 82.7071 4.52733 83.1177 4.21C83.5377 3.89267 83.9811 3.71533 84.4477 3.678C84.5411 3.66867 84.6204 3.664 84.6857 3.664C84.7511 3.664 84.8117 3.66867 84.8677 3.678V4.546ZM96.9859 11H96.0339V6.926C96.0339 6.086 95.8986 5.46533 95.6279 5.064C95.3573 4.65333 94.9559 4.448 94.4239 4.448C93.8639 4.448 93.3693 4.644 92.9399 5.036C92.5106 5.428 92.2073 5.932 92.0299 6.548V11H91.0779V6.926C91.0779 6.06733 90.9426 5.442 90.6719 5.05C90.4106 4.64867 90.0139 4.448 89.4819 4.448C88.9313 4.448 88.4366 4.63933 87.9979 5.022C87.5686 5.40467 87.2653 5.90867 87.0879 6.534V11H86.1359V3.706H87.0039V5.358C87.3026 4.798 87.6946 4.364 88.1799 4.056C88.6653 3.73867 89.2019 3.58 89.7899 3.58C90.3966 3.58 90.8866 3.75733 91.2599 4.112C91.6333 4.45733 91.8619 4.90533 91.9459 5.456C92.6179 4.20533 93.5559 3.58 94.7599 3.58C95.5813 3.58 96.1553 3.86933 96.4819 4.448C96.8179 5.01733 96.9859 5.778 96.9859 6.73V11ZM101.395 11.14C100.798 11.14 100.243 11.042 99.7292 10.846C99.2252 10.6407 98.7818 10.342 98.3992 9.95L98.7912 9.278C99.2018 9.66067 99.6125 9.94067 100.023 10.118C100.443 10.286 100.887 10.37 101.353 10.37C101.913 10.37 102.371 10.258 102.725 10.034C103.089 9.80067 103.271 9.46933 103.271 9.04C103.271 8.75067 103.183 8.53133 103.005 8.382C102.837 8.22333 102.59 8.09733 102.263 8.004C101.946 7.91067 101.563 7.80333 101.115 7.682C100.611 7.542 100.187 7.39733 99.8412 7.248C99.5052 7.08933 99.2485 6.89333 99.0712 6.66C98.9032 6.41733 98.8192 6.10467 98.8192 5.722C98.8192 5.25533 98.9358 4.86333 99.1692 4.546C99.4118 4.22867 99.7385 3.99067 100.149 3.832C100.569 3.664 101.036 3.58 101.549 3.58C102.109 3.58 102.604 3.66867 103.033 3.846C103.463 4.02333 103.813 4.27067 104.083 4.588L103.621 5.232C103.369 4.93333 103.057 4.714 102.683 4.574C102.319 4.42467 101.923 4.35 101.493 4.35C101.195 4.35 100.91 4.392 100.639 4.476C100.369 4.55067 100.145 4.68133 99.9672 4.868C99.7992 5.04533 99.7152 5.29267 99.7152 5.61C99.7152 6.002 99.8598 6.27267 100.149 6.422C100.439 6.57133 100.877 6.73 101.465 6.898C102.016 7.04733 102.497 7.19667 102.907 7.346C103.318 7.49533 103.635 7.696 103.859 7.948C104.083 8.19067 104.195 8.53133 104.195 8.97C104.195 9.65133 103.939 10.1833 103.425 10.566C102.912 10.9487 102.235 11.14 101.395 11.14Z" fill="#F1F5F4"/>
</svg>
