<svg width="20.000000" height="20.000000" viewBox="0 0 20 20" fill="none" xmlns="http://www.w3.org/2000/svg" xmlns:xlink="http://www.w3.org/1999/xlink">
	<desc>
			Created with Pixso.
	</desc>
	<defs/>
	<rect id="twitter" width="20.000000" height="20.000000" fill="#FFFFFF" fill-opacity="0"/>
	<path id="Vector 2" d="M0 16.3735C0.912231 16.4414 2.94739 16.4546 3.78943 15.9668C4.63159 15.479 5.40356 14.9502 5.6842 14.7471C4.70178 14.4761 2.56848 13.4868 1.89478 11.6978L3.15784 11.6978C2.3158 11.0879 0.631592 9.82764 0.631592 8.03857L2.10522 8.44531C1.47363 7.42871 -0.126343 4.86719 1.05261 2.75293C1.05261 2.75293 5.89478 6.81885 9.6842 7.22559C9.47363 5.80273 9.13684 4.0542 11.1578 2.75293C13.6842 1.12695 16.6316 2.5498 16.8422 3.15967C17.0105 3.64746 18.5964 2.8208 19.3684 2.34668L18.3158 4.37939L20 4.37939L18.1052 6.4126C18.3158 7.97119 18.021 11.7388 15.1578 14.3408C11.579 17.5933 9.47363 18 6.52637 18C3.57898 18 0.421021 16.7798 0 16.3735Z" fill="#F1F5F4" fill-opacity="1.000000" fill-rule="evenodd"/>
</svg>
