<?xml version="1.0" encoding="UTF-8"?>
<svg version="1.1" viewBox="0 0 2048 1276" width="1280" height="1280" xmlns="http://www.w3.org/2000/svg">
<path transform="translate(0)" d="m0 0h2048v1276h-2048z" fill="none"/>
<path transform="translate(1020,121)" d="m0 0 31 1 41 4 32 5 31 7 24 7 32 11 26 11 27 13 23 13 24 15 20 14 14 11 17 14 12 11 8 7 22 22 7 8 12 14 11 14 15 20 11 17 11 18 12 22 12 24 10 24 10 27 9 31 7 30 5 30 4 36 1 16v37l-2 29-3 27-4 25-8 34-8 28-10 28-12 28-10 21-13 23-12 20-11 16-14 19-8 10-11 13-9 10-7 8-24 24-11 9-10 9-14 11-16 12-24 16-18 11-28 15-21 10-33 13-37 12-34 8-28 5-35 4-15 1h-56l-33-3-33-5-36-8-24-7-27-9-31-13-21-10-22-12-20-12-21-14-19-14-16-13-10-9-8-7-13-12-15-15-7-8-9-10-11-14-12-15-22-33-14-24-12-23-13-28-14-38-8-28-7-30-5-29-3-26-1-14v-65l2-25 4-29 8-38 7-26 9-27 13-32 14-29 12-22 13-21 11-16 14-19 9-11 12-14 11-12 7-8 13-13 8-7 13-12 28-22 17-12 23-15 21-12 23-12 27-12 24-9 27-9 36-9 26-5 31-4 25-2z"/>
<path transform="translate(705,338)" d="m0 0h191l8 10 14 19 16 21 14 19 16 21 14 19 12 16 16 21 10 14 16 21 14 19 11 15 3 1 2-4 8-8 7-8 14-15 11-12 16-17 9-10 12-13 16-17 11-12 28-30 9-10 16-17 9-10 14-15 12-13 5-5h56l-6 8-11 11-7 8-16 17-7 8-7 7-7 8-16 17-11 12-14 15-22 24-7 7-7 8-14 15-7 8-10 10-7 8-15 16-7 8-7 7-7 8-16 17-2 2 1 4 13 18 14 18 8 11 21 28 14 19 16 21 14 19 16 21 14 19 12 16 16 21 14 19 12 16 14 19 16 21 14 19 16 21 9 12 5 7v2h-190l-7-8-8-11-16-21-28-38-13-17-9-12-14-19-16-21-14-19-16-21-10-14-14-18-10-14h-3l-16 17-9 10-15 16-11 12-14 15-12 13-14 15-7 8-8 8-7 8-14 15-12 13-14 15-22 24-16 17-12 13-9 10-4 4h-56l2-4 12-12 7-8 14-15 11-12 15-16 9-10 14-15 15-16 7-8 16-17 14-15 11-12 15-16 9-10 14-15 4-5h2l2-4 10-10 7-8 12-13 15-16 9-10 1-3-14-19-16-21-14-19-16-21-13-18-16-21-24-32-14-19-16-21-14-19-16-21-28-38-10-13-14-19-13-17-8-10z" fill="#F1F5F4"/>
<path transform="translate(788,380)" d="m0 0h87l5 5 10 14 16 21 8 11 9 12 14 19 16 21 14 19 16 21 14 19 16 21 14 19 27 36 14 19 16 21 14 19 16 21 14 19 16 21 28 38 14 18 13 18 16 21 14 19 16 21 16 22v1h-87l-10-13-14-19-13-17-14-19-16-21-14-19-9-12-16-21-13-18-13-17-12-16-14-19-16-21-14-19-16-21-14-19-42-56-14-19-16-21-14-19-16-21-14-19-24-32-14-19-10-13z"/>
</svg>
