<svg width="20.000000" height="20.000000" viewBox="0 0 20 20" fill="none" xmlns="http://www.w3.org/2000/svg" xmlns:xlink="http://www.w3.org/1999/xlink">
	<desc>
			Created with Pixso.
	</desc>
	<defs/>
	<rect id="facebook" width="20.000000" height="20.000000" fill="#FFFFFF" fill-opacity="0"/>
	<path id="Vector" d="M7.9 20L7.9 10.94L5 10.94L5 7.16L7.9 7.16C7.9 6.6 7.9 5.05 7.9 3.39C7.9 1.32 9.9 0 10.81 0C11.54 0 13.9 0 15 0L15 3.39C14.39 3.39 13.07 3.39 12.63 3.39C12.09 3.39 11.54 3.96 11.54 4.52C11.54 4.98 11.54 6.47 11.54 7.16L15 7.16L14.27 10.94L11.54 10.94L11.54 20L7.9 20Z" fill="#F1F5F4" fill-opacity="1.000000" fill-rule="evenodd"/>
</svg>
