<svg xmlns="http://www.w3.org/2000/svg" width="800" height="800" viewBox="0 0 50 50"><path d="M24.982 2a1 1 0 0 0-.447.113l-21 11A1 1 0 0 0 3 14v3a1 1 0 0 0 1 1h1v1.4c0 1.212.864 2.245 2 2.522v18.09H4.1l.166.013C3.034 39.818 2 40.875 2 42.031v2.748C2 45.96 2.934 47 4.1 47h41.7c1.166 0 2.1-.963 2.1-2.12v-2.747c0-1.157-.934-2.121-2.1-2.121H43v-18.09c1.136-.277 2-1.31 2-2.522V18h1a1 1 0 0 0 1-1v-3a1 1 0 0 0-.535-.887l-21-11A1 1 0 0 0 24.983 2M25 4.13l20 10.475V16h-.832a1 1 0 0 0-.326 0h-9.688a1 1 0 0 0-.17-.014 1 1 0 0 0-.145.014h-3.671a1 1 0 0 0-.326 0h-9.688a1 1 0 0 0-.17-.014 1 1 0 0 0-.145.014h-3.671a1 1 0 0 0-.326 0H6.154a1 1 0 0 0-.17-.014A1 1 0 0 0 5.84 16H5v-1.395ZM7 18h8v1.4c0 .382-.218.6-.6.6H7.6c-.382 0-.6-.218-.6-.6Zm10 0h2v1.4c0 1.212.864 2.245 2 2.522v18.09h-6v-18.09c1.136-.277 2-1.31 2-2.522Zm4 0h8v1.4c0 .382-.218.6-.6.6h-6.8c-.382 0-.6-.218-.6-.6Zm10 0h2v1.4c0 1.212.864 2.245 2 2.522v18.09h-6v-18.09c1.136-.277 2-1.31 2-2.522Zm4 0h8v1.4c0 .382-.218.6-.6.6h-6.8c-.382 0-.6-.218-.6-.6ZM9 22h4v18H9Zm14 0h4v18h-4Zm14 0h4v18h-4ZM3.984 42.004a1 1 0 0 0 .115.008h41.702c.034 0 .1.055.1.12v2.749c0 .065-.066.119-.1.119H4.1c-.035 0-.1.023-.1-.22V42.03c0-.023-.009-.023-.016-.027"/></svg>