<svg xmlns="http://www.w3.org/2000/svg" width="20" height="20" fill="none" viewBox="0 0 20 20"><path fill="#f1f5f4" fill-rule="evenodd" d="M1 14.244V3.57c0-1.186 1.384-2.57 2.767-2.57h11.465C16.815 1 18 2.581 18 4.36v10.674A3.07 3.07 0 0 1 14.837 18H4.953C2.78 18.001 1 16.42 1 14.245m8.5-7.702A2.958 2.958 0 1 0 9.5 12.458 2.958 2.958 0 0 0 9.5 6.542M5.342 9.5A4.158 4.158 0 1 1 13.658 9.5 4.158 4.158 0 0 1 5.342 9.5m8.705-3.954A.988.988 0 1 0 14.047 3.57.988.988 0 0 0 14.047 5.547" clip-rule="evenodd"/></svg>