<svg xmlns="http://www.w3.org/2000/svg" width="124" height="37" fill="#F1F5F4"><path d="M21.96 6.216V26.16L7.668 6.216H3.24v25.2h3.6V10.932L21.6 31.416h3.96v-25.2zM51.977 6.216v4.788C49.889 8.088 46.649 6 42.941 6c-7.272 0-12.528 5.4-12.528 12.816s5.256 12.816 12.528 12.816c3.708 0 6.948-2.088 9.036-5.004v4.788h3.492v-25.2zM43.085 28.32c-5.148 0-8.892-3.996-8.892-9.504s3.744-9.504 8.892-9.504 8.892 3.996 8.892 9.504-3.744 9.504-8.892 9.504M91.83 6.216h-5.147l-9.72 20.952-9.756-20.952H61.95v25.2h3.6v-20.52l9.504 20.52h3.6l9.576-20.7v20.7h3.6zM108.922 31.776c6.264 0 10.98-4.572 10.98-10.656V6.216h-3.6V21.12c0 4.104-3.168 7.2-7.38 7.2s-7.38-3.096-7.38-7.2V6.216h-3.6V21.12c0 6.084 4.716 10.656 10.98 10.656"/></svg>