<svg width="16" height="16" fill="none" xmlns="http://www.w3.org/2000/svg"><rect width="16" height="16" rx="3" fill="#3F5252"/><path d="M6.907 4.03v2.858L4.687 4.03H4v3.61h.56V4.706l2.29 2.935h.615V4.03h-.559zm4.662 0v.687C11.245 4.299 10.741 4 10.166 4c-1.13 0-1.946.774-1.946 1.836s.816 1.836 1.946 1.836c.575 0 1.079-.3 1.403-.717v.686h.542V4.03h-.542zm-1.381 3.167c-.8 0-1.38-.572-1.38-1.361 0-.79.58-1.362 1.38-1.362.8 0 1.381.573 1.381 1.362 0 .789-.582 1.361-1.381 1.361zM8.64 8.339h-.8l-1.509 3-1.515-3H4v3.61h.56v-2.94l1.475 2.94h.56L8.08 8.982v2.965h.56v-3.61zM11.295 12c.973 0 1.705-.655 1.705-1.526V8.339h-.56v2.135c0 .588-.491 1.03-1.145 1.03s-1.146-.442-1.146-1.03V8.339h-.56v2.135c0 .871.733 1.526 1.706 1.526z" fill="#F7F7F7"/></svg>