<svg width="20.000000" height="20.000000" viewBox="0 0 20 20" fill="none" xmlns="http://www.w3.org/2000/svg" xmlns:xlink="http://www.w3.org/1999/xlink">
	<desc>
			Created with Pixso.
	</desc>
	<defs/>
	<rect id="twitter" width="20.000000" height="20.000000" fill="#FFFFFF" fill-opacity="0"/>
	<path id="Vector 2" d="M0 16.37C0.91 16.44 2.94 16.45 3.78 15.96C4.63 15.47 5.4 14.95 5.68 14.74C4.7 14.47 2.56 13.48 1.89 11.69L3.15 11.69C2.31 11.08 0.63 9.82 0.63 8.03L2.1 8.44C1.47 7.42 -0.13 4.86 1.05 2.75C1.05 2.75 5.89 6.81 9.68 7.22C9.47 5.8 9.13 4.05 11.15 2.75C13.68 1.12 16.63 2.54 16.84 3.15C17.01 3.64 18.59 2.82 19.36 2.34L18.31 4.37L20 4.37L18.1 6.41C18.31 7.97 18.02 11.73 15.15 14.34C11.57 17.59 9.47 18 6.52 18C3.57 18 0.42 16.78 0 16.37Z" fill="#F1F5F4" fill-opacity="1.000000" fill-rule="evenodd"/>
</svg>
