<svg width="270" height="60" viewBox="0 0 270 60" fill="none" xmlns="http://www.w3.org/2000/svg">
<path d="M66.8256 24.64H68.5216L72.9376 36H71.0496L69.8496 32.912H65.4656L64.2816 36H62.3776L66.8256 24.64ZM69.4976 31.584L67.6736 26.608L65.7856 31.584H69.4976ZM78.8705 36.16C78.1985 36.16 77.6065 36 77.0945 35.68C76.5825 35.36 76.1772 34.944 75.8785 34.432V39.408H74.1185V27.632H75.6705V29.136C75.9905 28.6347 76.4065 28.2347 76.9185 27.936C77.4305 27.6373 78.0012 27.488 78.6305 27.488C79.3985 27.488 80.0758 27.6907 80.6625 28.096C81.2598 28.4907 81.7292 29.0187 82.0705 29.68C82.4118 30.3307 82.5825 31.04 82.5825 31.808C82.5825 32.6187 82.4225 33.3547 82.1025 34.016C81.7825 34.6667 81.3452 35.1893 80.7905 35.584C80.2358 35.968 79.5958 36.16 78.8705 36.16ZM78.2945 34.656C78.7958 34.656 79.2278 34.5227 79.5905 34.256C79.9638 33.9787 80.2518 33.6267 80.4545 33.2C80.6678 32.7627 80.7745 32.2987 80.7745 31.808C80.7745 31.296 80.6572 30.8267 80.4225 30.4C80.1985 29.9733 79.8892 29.632 79.4945 29.376C79.1105 29.12 78.6678 28.992 78.1665 28.992C77.8678 28.992 77.5532 29.0667 77.2225 29.216C76.9025 29.3653 76.6198 29.5627 76.3745 29.808C76.1292 30.0533 75.9638 30.3307 75.8785 30.64V32.832C76.0918 33.344 76.4172 33.776 76.8545 34.128C77.3025 34.48 77.7825 34.656 78.2945 34.656ZM85.1574 27.632L87.1414 30.496L87.2854 30.768L87.4294 30.496L89.3974 27.632H91.3014L88.2934 31.824L91.3334 36H89.4294L87.4294 33.152L87.2854 32.896L87.1414 33.152L85.1414 36H83.2374L86.2774 31.84L83.2694 27.632H85.1574ZM92.5247 26.256V24.32H94.2848V26.256H92.5247ZM92.5247 36V27.632H94.2848V36H92.5247ZM96.3997 36V27.632H100.88C101.413 27.632 101.85 27.7333 102.192 27.936C102.544 28.128 102.805 28.3787 102.976 28.688C103.146 28.9973 103.232 29.328 103.232 29.68C103.232 30.1387 103.12 30.544 102.896 30.896C102.682 31.248 102.373 31.5147 101.968 31.696C102.448 31.8347 102.837 32.08 103.136 32.432C103.445 32.784 103.6 33.2267 103.6 33.76C103.6 34.496 103.338 35.056 102.816 35.44C102.293 35.8133 101.6 36 100.736 36H96.3997ZM98.0638 31.216H100.432C100.762 31.216 101.034 31.0933 101.248 30.848C101.461 30.6027 101.568 30.3147 101.568 29.984C101.568 29.6747 101.466 29.408 101.264 29.184C101.061 28.96 100.794 28.848 100.464 28.848H98.0638V31.216ZM98.0638 34.784H100.688C101.029 34.784 101.317 34.6667 101.552 34.432C101.786 34.1867 101.904 33.8987 101.904 33.568C101.904 33.2267 101.792 32.9387 101.568 32.704C101.344 32.4693 101.061 32.352 100.72 32.352H98.0638V34.784ZM109.228 36V27.632H113.708C114.241 27.632 114.679 27.7333 115.02 27.936C115.372 28.128 115.633 28.3787 115.804 28.688C115.975 28.9973 116.06 29.328 116.06 29.68C116.06 30.1387 115.948 30.544 115.724 30.896C115.511 31.248 115.201 31.5147 114.796 31.696C115.276 31.8347 115.665 32.08 115.964 32.432C116.273 32.784 116.428 33.2267 116.428 33.76C116.428 34.496 116.167 35.056 115.644 35.44C115.121 35.8133 114.428 36 113.564 36H109.228ZM110.892 31.216H113.26C113.591 31.216 113.863 31.0933 114.076 30.848C114.289 30.6027 114.396 30.3147 114.396 29.984C114.396 29.6747 114.295 29.408 114.092 29.184C113.889 28.96 113.623 28.848 113.292 28.848H110.892V31.216ZM110.892 34.784H113.516C113.857 34.784 114.145 34.6667 114.38 34.432C114.615 34.1867 114.732 33.8987 114.732 33.568C114.732 33.2267 114.62 32.9387 114.396 32.704C114.172 32.4693 113.889 32.352 113.548 32.352H110.892V34.784ZM118.103 36V27.648H119.863V33.648L124.103 27.632H125.703V36H123.943V30.128L119.751 36H118.103ZM131.598 36.16C130.734 36.16 129.977 35.9627 129.326 35.568C128.675 35.1627 128.169 34.6293 127.806 33.968C127.443 33.3067 127.262 32.5867 127.262 31.808C127.262 31.0293 127.438 30.3147 127.79 29.664C128.153 29.0027 128.654 28.4747 129.294 28.08C129.945 27.6853 130.713 27.488 131.598 27.488C132.462 27.488 133.203 27.68 133.822 28.064C134.451 28.4373 134.921 28.9387 135.23 29.568L133.518 30.112C133.326 29.76 133.054 29.488 132.702 29.296C132.361 29.0933 131.982 28.992 131.566 28.992C131.097 28.992 130.67 29.1147 130.286 29.36C129.913 29.5947 129.614 29.9253 129.39 30.352C129.177 30.7787 129.07 31.264 129.07 31.808C129.07 32.352 129.182 32.8373 129.406 33.264C129.641 33.6907 129.945 34.032 130.318 34.288C130.702 34.5333 131.123 34.656 131.582 34.656C132.009 34.656 132.414 34.544 132.798 34.32C133.182 34.096 133.438 33.824 133.566 33.504L135.294 34.016C135.017 34.6453 134.553 35.1627 133.902 35.568C133.251 35.9627 132.483 36.16 131.598 36.16ZM138.728 36V29.184H135.96V27.632H143.272V29.184H140.488V36H138.728ZM143.964 33.552C143.964 33.0187 144.113 32.5547 144.412 32.16C144.71 31.7547 145.126 31.4453 145.66 31.232C146.204 31.008 146.828 30.896 147.532 30.896C147.905 30.896 148.284 30.928 148.668 30.992C149.062 31.0453 149.409 31.1253 149.708 31.232V30.704C149.708 30.1173 149.532 29.6587 149.18 29.328C148.828 28.9973 148.321 28.832 147.66 28.832C147.201 28.832 146.758 28.912 146.332 29.072C145.905 29.232 145.462 29.4667 145.004 29.776L144.412 28.592C144.966 28.2293 145.521 27.9573 146.076 27.776C146.641 27.584 147.233 27.488 147.852 27.488C148.972 27.488 149.852 27.7867 150.492 28.384C151.142 28.9707 151.468 29.808 151.468 30.896V34.016C151.468 34.2187 151.5 34.3627 151.564 34.448C151.638 34.5333 151.761 34.5813 151.932 34.592V36C151.772 36.032 151.628 36.0533 151.5 36.064C151.372 36.0747 151.265 36.08 151.18 36.08C150.796 36.08 150.508 35.9893 150.316 35.808C150.134 35.616 150.028 35.4027 149.996 35.168L149.948 34.688C149.585 35.1573 149.121 35.52 148.556 35.776C147.99 36.032 147.42 36.16 146.844 36.16C146.289 36.16 145.793 36.048 145.356 35.824C144.918 35.5893 144.577 35.2747 144.332 34.88C144.086 34.4853 143.964 34.0427 143.964 33.552ZM149.292 34.064C149.569 33.7867 149.708 33.5253 149.708 33.28V32.32C149.078 32.0853 148.438 31.968 147.788 31.968C147.148 31.968 146.625 32.1013 146.22 32.368C145.825 32.624 145.628 32.9707 145.628 33.408C145.628 33.7707 145.772 34.1067 146.06 34.416C146.358 34.7147 146.785 34.864 147.34 34.864C147.713 34.864 148.076 34.7893 148.428 34.64C148.78 34.4907 149.068 34.2987 149.292 34.064ZM153.603 36V27.632H158.083C158.616 27.632 159.054 27.7333 159.395 27.936C159.747 28.128 160.008 28.3787 160.179 28.688C160.35 28.9973 160.435 29.328 160.435 29.68C160.435 30.1387 160.323 30.544 160.099 30.896C159.886 31.248 159.576 31.5147 159.171 31.696C159.651 31.8347 160.04 32.08 160.339 32.432C160.648 32.784 160.803 33.2267 160.803 33.76C160.803 34.496 160.542 35.056 160.019 35.44C159.496 35.8133 158.803 36 157.939 36H153.603ZM155.267 31.216H157.635C157.966 31.216 158.238 31.0933 158.451 30.848C158.664 30.6027 158.771 30.3147 158.771 29.984C158.771 29.6747 158.67 29.408 158.467 29.184C158.264 28.96 157.998 28.848 157.667 28.848H155.267V31.216ZM155.267 34.784H157.891C158.232 34.784 158.52 34.6667 158.755 34.432C158.99 34.1867 159.107 33.8987 159.107 33.568C159.107 33.2267 158.995 32.9387 158.771 32.704C158.547 32.4693 158.264 32.352 157.923 32.352H155.267V34.784ZM166.238 36.16C165.363 36.16 164.601 35.9627 163.95 35.568C163.31 35.1627 162.814 34.6347 162.462 33.984C162.11 33.3227 161.934 32.6027 161.934 31.824C161.934 31.0453 162.11 30.3307 162.462 29.68C162.825 29.0187 163.326 28.4907 163.966 28.096C164.617 27.6907 165.374 27.488 166.238 27.488C167.102 27.488 167.854 27.6907 168.494 28.096C169.145 28.4907 169.646 29.0187 169.998 29.68C170.361 30.3307 170.542 31.0453 170.542 31.824C170.542 32.6027 170.366 33.3227 170.014 33.984C169.662 34.6347 169.161 35.1627 168.51 35.568C167.87 35.9627 167.113 36.16 166.238 36.16ZM163.742 31.84C163.742 32.3733 163.854 32.8533 164.078 33.28C164.302 33.7067 164.601 34.0427 164.974 34.288C165.347 34.5333 165.769 34.656 166.238 34.656C166.697 34.656 167.113 34.5333 167.486 34.288C167.87 34.032 168.174 33.6907 168.398 33.264C168.622 32.8373 168.734 32.3573 168.734 31.824C168.734 31.2907 168.622 30.8107 168.398 30.384C168.174 29.9573 167.87 29.6213 167.486 29.376C167.113 29.12 166.697 28.992 166.238 28.992C165.779 28.992 165.358 29.12 164.974 29.376C164.601 29.6213 164.302 29.9627 164.078 30.4C163.854 30.8267 163.742 31.3067 163.742 31.84ZM172.103 36V27.632H173.847V30.944H174.679L177.143 27.632H179.095L176.039 31.68L179.447 36H177.415L174.663 32.528H173.847V36H172.103Z" fill="#AF3419"/>
<path d="M191.333 30H204.667" stroke="#AF3419" stroke-width="2" stroke-linecap="round" stroke-linejoin="round"/>
<path d="M198.833 24.1665L204.667 29.9998L198.833 35.8332" stroke="#AF3419" stroke-width="2" stroke-linecap="round" stroke-linejoin="round"/>
<rect x="0.5" y="0.5" width="269" height="59" stroke="#AF3419"/>
</svg>
