<svg width="280" height="60" viewBox="0 0 280 60" fill="none" xmlns="http://www.w3.org/2000/svg">
<path d="M71.8256 24.64H73.5216L77.9376 36H76.0496L74.8496 32.912H70.4656L69.2816 36H67.3776L71.8256 24.64ZM74.4976 31.584L72.6736 26.608L70.7856 31.584H74.4976ZM83.8705 36.16C83.1985 36.16 82.6065 36 82.0945 35.68C81.5825 35.36 81.1772 34.944 80.8785 34.432V39.408H79.1185V27.632H80.6705V29.136C80.9905 28.6347 81.4065 28.2347 81.9185 27.936C82.4305 27.6373 83.0012 27.488 83.6305 27.488C84.3985 27.488 85.0758 27.6907 85.6625 28.096C86.2598 28.4907 86.7292 29.0187 87.0705 29.68C87.4118 30.3307 87.5825 31.04 87.5825 31.808C87.5825 32.6187 87.4225 33.3547 87.1025 34.016C86.7825 34.6667 86.3452 35.1893 85.7905 35.584C85.2358 35.968 84.5958 36.16 83.8705 36.16ZM83.2945 34.656C83.7958 34.656 84.2278 34.5227 84.5905 34.256C84.9638 33.9787 85.2518 33.6267 85.4545 33.2C85.6678 32.7627 85.7745 32.2987 85.7745 31.808C85.7745 31.296 85.6572 30.8267 85.4225 30.4C85.1985 29.9733 84.8892 29.632 84.4945 29.376C84.1105 29.12 83.6678 28.992 83.1665 28.992C82.8678 28.992 82.5532 29.0667 82.2225 29.216C81.9025 29.3653 81.6198 29.5627 81.3745 29.808C81.1292 30.0533 80.9638 30.3307 80.8785 30.64V32.832C81.0918 33.344 81.4172 33.776 81.8545 34.128C82.3025 34.48 82.7825 34.656 83.2945 34.656ZM90.1574 27.632L92.1414 30.496L92.2854 30.768L92.4294 30.496L94.3974 27.632H96.3014L93.2934 31.824L96.3334 36H94.4294L92.4294 33.152L92.2854 32.896L92.1414 33.152L90.1414 36H88.2374L91.2774 31.84L88.2694 27.632H90.1574ZM97.5247 26.256V24.32H99.2848V26.256H97.5247ZM97.5247 36V27.632H99.2848V36H97.5247ZM101.4 36V27.632H105.88C106.413 27.632 106.85 27.7333 107.192 27.936C107.544 28.128 107.805 28.3787 107.976 28.688C108.146 28.9973 108.232 29.328 108.232 29.68C108.232 30.1387 108.12 30.544 107.896 30.896C107.682 31.248 107.373 31.5147 106.968 31.696C107.448 31.8347 107.837 32.08 108.136 32.432C108.445 32.784 108.6 33.2267 108.6 33.76C108.6 34.496 108.338 35.056 107.816 35.44C107.293 35.8133 106.6 36 105.736 36H101.4ZM103.064 31.216H105.432C105.762 31.216 106.034 31.0933 106.248 30.848C106.461 30.6027 106.568 30.3147 106.568 29.984C106.568 29.6747 106.466 29.408 106.264 29.184C106.061 28.96 105.794 28.848 105.464 28.848H103.064V31.216ZM103.064 34.784H105.688C106.029 34.784 106.317 34.6667 106.552 34.432C106.786 34.1867 106.904 33.8987 106.904 33.568C106.904 33.2267 106.792 32.9387 106.568 32.704C106.344 32.4693 106.061 32.352 105.72 32.352H103.064V34.784ZM114.228 36V27.632H118.708C119.241 27.632 119.679 27.7333 120.02 27.936C120.372 28.128 120.633 28.3787 120.804 28.688C120.975 28.9973 121.06 29.328 121.06 29.68C121.06 30.1387 120.948 30.544 120.724 30.896C120.511 31.248 120.201 31.5147 119.796 31.696C120.276 31.8347 120.665 32.08 120.964 32.432C121.273 32.784 121.428 33.2267 121.428 33.76C121.428 34.496 121.167 35.056 120.644 35.44C120.121 35.8133 119.428 36 118.564 36H114.228ZM115.892 31.216H118.26C118.591 31.216 118.863 31.0933 119.076 30.848C119.289 30.6027 119.396 30.3147 119.396 29.984C119.396 29.6747 119.295 29.408 119.092 29.184C118.889 28.96 118.623 28.848 118.292 28.848H115.892V31.216ZM115.892 34.784H118.516C118.857 34.784 119.145 34.6667 119.38 34.432C119.615 34.1867 119.732 33.8987 119.732 33.568C119.732 33.2267 119.62 32.9387 119.396 32.704C119.172 32.4693 118.889 32.352 118.548 32.352H115.892V34.784ZM123.103 36V27.648H124.863V33.648L129.103 27.632H130.703V36H128.943V30.128L124.751 36H123.103ZM136.598 36.16C135.734 36.16 134.977 35.9627 134.326 35.568C133.675 35.1627 133.169 34.6293 132.806 33.968C132.443 33.3067 132.262 32.5867 132.262 31.808C132.262 31.0293 132.438 30.3147 132.79 29.664C133.153 29.0027 133.654 28.4747 134.294 28.08C134.945 27.6853 135.713 27.488 136.598 27.488C137.462 27.488 138.203 27.68 138.822 28.064C139.451 28.4373 139.921 28.9387 140.23 29.568L138.518 30.112C138.326 29.76 138.054 29.488 137.702 29.296C137.361 29.0933 136.982 28.992 136.566 28.992C136.097 28.992 135.67 29.1147 135.286 29.36C134.913 29.5947 134.614 29.9253 134.39 30.352C134.177 30.7787 134.07 31.264 134.07 31.808C134.07 32.352 134.182 32.8373 134.406 33.264C134.641 33.6907 134.945 34.032 135.318 34.288C135.702 34.5333 136.123 34.656 136.582 34.656C137.009 34.656 137.414 34.544 137.798 34.32C138.182 34.096 138.438 33.824 138.566 33.504L140.294 34.016C140.017 34.6453 139.553 35.1627 138.902 35.568C138.251 35.9627 137.483 36.16 136.598 36.16ZM143.728 36V29.184H140.96V27.632H148.272V29.184H145.488V36H143.728ZM148.964 33.552C148.964 33.0187 149.113 32.5547 149.412 32.16C149.71 31.7547 150.126 31.4453 150.66 31.232C151.204 31.008 151.828 30.896 152.532 30.896C152.905 30.896 153.284 30.928 153.668 30.992C154.062 31.0453 154.409 31.1253 154.708 31.232V30.704C154.708 30.1173 154.532 29.6587 154.18 29.328C153.828 28.9973 153.321 28.832 152.66 28.832C152.201 28.832 151.758 28.912 151.332 29.072C150.905 29.232 150.462 29.4667 150.004 29.776L149.412 28.592C149.966 28.2293 150.521 27.9573 151.076 27.776C151.641 27.584 152.233 27.488 152.852 27.488C153.972 27.488 154.852 27.7867 155.492 28.384C156.142 28.9707 156.468 29.808 156.468 30.896V34.016C156.468 34.2187 156.5 34.3627 156.564 34.448C156.638 34.5333 156.761 34.5813 156.932 34.592V36C156.772 36.032 156.628 36.0533 156.5 36.064C156.372 36.0747 156.265 36.08 156.18 36.08C155.796 36.08 155.508 35.9893 155.316 35.808C155.134 35.616 155.028 35.4027 154.996 35.168L154.948 34.688C154.585 35.1573 154.121 35.52 153.556 35.776C152.99 36.032 152.42 36.16 151.844 36.16C151.289 36.16 150.793 36.048 150.356 35.824C149.918 35.5893 149.577 35.2747 149.332 34.88C149.086 34.4853 148.964 34.0427 148.964 33.552ZM154.292 34.064C154.569 33.7867 154.708 33.5253 154.708 33.28V32.32C154.078 32.0853 153.438 31.968 152.788 31.968C152.148 31.968 151.625 32.1013 151.22 32.368C150.825 32.624 150.628 32.9707 150.628 33.408C150.628 33.7707 150.772 34.1067 151.06 34.416C151.358 34.7147 151.785 34.864 152.34 34.864C152.713 34.864 153.076 34.7893 153.428 34.64C153.78 34.4907 154.068 34.2987 154.292 34.064ZM158.603 36V27.632H163.083C163.616 27.632 164.054 27.7333 164.395 27.936C164.747 28.128 165.008 28.3787 165.179 28.688C165.35 28.9973 165.435 29.328 165.435 29.68C165.435 30.1387 165.323 30.544 165.099 30.896C164.886 31.248 164.576 31.5147 164.171 31.696C164.651 31.8347 165.04 32.08 165.339 32.432C165.648 32.784 165.803 33.2267 165.803 33.76C165.803 34.496 165.542 35.056 165.019 35.44C164.496 35.8133 163.803 36 162.939 36H158.603ZM160.267 31.216H162.635C162.966 31.216 163.238 31.0933 163.451 30.848C163.664 30.6027 163.771 30.3147 163.771 29.984C163.771 29.6747 163.67 29.408 163.467 29.184C163.264 28.96 162.998 28.848 162.667 28.848H160.267V31.216ZM160.267 34.784H162.891C163.232 34.784 163.52 34.6667 163.755 34.432C163.99 34.1867 164.107 33.8987 164.107 33.568C164.107 33.2267 163.995 32.9387 163.771 32.704C163.547 32.4693 163.264 32.352 162.923 32.352H160.267V34.784ZM171.238 36.16C170.363 36.16 169.601 35.9627 168.95 35.568C168.31 35.1627 167.814 34.6347 167.462 33.984C167.11 33.3227 166.934 32.6027 166.934 31.824C166.934 31.0453 167.11 30.3307 167.462 29.68C167.825 29.0187 168.326 28.4907 168.966 28.096C169.617 27.6907 170.374 27.488 171.238 27.488C172.102 27.488 172.854 27.6907 173.494 28.096C174.145 28.4907 174.646 29.0187 174.998 29.68C175.361 30.3307 175.542 31.0453 175.542 31.824C175.542 32.6027 175.366 33.3227 175.014 33.984C174.662 34.6347 174.161 35.1627 173.51 35.568C172.87 35.9627 172.113 36.16 171.238 36.16ZM168.742 31.84C168.742 32.3733 168.854 32.8533 169.078 33.28C169.302 33.7067 169.601 34.0427 169.974 34.288C170.347 34.5333 170.769 34.656 171.238 34.656C171.697 34.656 172.113 34.5333 172.486 34.288C172.87 34.032 173.174 33.6907 173.398 33.264C173.622 32.8373 173.734 32.3573 173.734 31.824C173.734 31.2907 173.622 30.8107 173.398 30.384C173.174 29.9573 172.87 29.6213 172.486 29.376C172.113 29.12 171.697 28.992 171.238 28.992C170.779 28.992 170.358 29.12 169.974 29.376C169.601 29.6213 169.302 29.9627 169.078 30.4C168.854 30.8267 168.742 31.3067 168.742 31.84ZM177.103 36V27.632H178.847V30.944H179.679L182.143 27.632H184.095L181.039 31.68L184.447 36H182.415L179.663 32.528H178.847V36H177.103Z" fill="#CD4D31"/>
<path d="M196.333 30H209.666" stroke="#CD4D31" stroke-width="2" stroke-linecap="round" stroke-linejoin="round"/>
<path d="M203.833 24.1665L209.666 29.9998L203.833 35.8332" stroke="#CD4D31" stroke-width="2" stroke-linecap="round" stroke-linejoin="round"/>
<rect x="0.5" y="0.5" width="279" height="59" stroke="#CD4D31"/>
</svg>
