<?xml version="1.0" encoding="UTF-8" standalone="no"?>
<svg xmlns="http://www.w3.org/2000/svg" width="60" height="60">
  <g fill="none" stroke="#fff" transform="translate(0 -50)">
    <g stroke-linejoin="round">
      <path stroke-linecap="round" stroke-width="8.067" d="m5.653863 47.375-3.1875 5.28125h55.124997l-3.21875-5.28125z" transform="matrix(.929712 0 0 .929712 2.081807 52.01996)"/>
      <path stroke-width="10.756" d="m8.652384 48.42108v-22.64889" transform="matrix(.929712 0 0 .929712 2.005953 51.61739)"/>
      <path stroke-width="10" d="m49.949814 96.635045v-21.056945"/>
    </g>
    <path stroke-width="8.067" d="m5.682583 16.86532c-.458605 0-.827807.3692-.827807.82781v7.50573c0 .45861.369202.82781.827807.82781h48.692557c.45861 0 .82781-.3692.82781-.82781v-7.50573c0-.45861-.3692-.82781-.82781-.82781z" transform="matrix(.929712 0 0 .929712 2.081807 51.61739)"/>
    <path stroke-linecap="round" stroke-linejoin="round" stroke-width="8.739" d="m3.01641 16.43232h54.02491l-26.75876-8.561687z" transform="matrix(.929712 0 0 .929712 2.081807 52.01996)"/>
  </g>
  <path fill="#fff" fill-rule="evenodd" d="m8.7293949 25.752113h42.5412101v21.374302h-42.5412101v-21.374302z"/>
  <g fill="none" stroke="#4c4c4c" stroke-width="5.378">
    <path d="m8.652384 48.42108v-22.64889" transform="matrix(.929712 0 0 .929712 2.005953 1.617396)"/>
    <path d="m19.38142 48.42108v-22.64889" transform="matrix(.929712 0 0 .929712 2.005953 1.617396)"/>
    <path d="m30.11045 48.42108v-22.64889" transform="matrix(.929712 0 0 .929712 2.005953 1.617396)"/>
    <path d="m40.83949 48.42108v-22.64889" transform="matrix(.929712 0 0 .929712 2.005953 1.617396)"/>
    <path d="m51.56852 47.98807v-22.64889" transform="matrix(.929712 0 0 .929712 2.005953 2.019965)"/>
  </g>
  <path fill="#7f7f7f" fill-rule="evenodd" stroke="#000" stroke-width="2.689" d="m5.682583 16.86532c-.458605 0-.827807.3692-.827807.82781v7.50573c0 .45861.369202.82781.827807.82781h48.692557c.45861 0 .82781-.3692.82781-.82781v-7.50573c0-.45861-.3692-.82781-.82781-.82781z" transform="matrix(.929712 0 0 .929712 2.081807 1.617396)"/>
  <path fill="#4c4c4c" fill-rule="evenodd" stroke="#000" stroke-linecap="round" stroke-linejoin="round" stroke-width="3.361" d="m3.01641 16.43232h54.02491l-26.75876-8.561687z" transform="matrix(.929712 0 0 .929712 2.081807 2.019965)"/>
  <path fill="#4c4c4c" fill-rule="evenodd" stroke="#000" stroke-linecap="round" stroke-linejoin="round" stroke-width="2.689" d="m5.653863 47.375-3.1875 5.28125h55.124997l-3.21875-5.28125z" transform="matrix(.929712 0 0 .929712 2.081807 2.019965)"/>
</svg>
