<svg width="0" height="0" class="hidden">
  <symbol xmlns="http://www.w3.org/2000/svg" viewBox="0 0 10 20" id="facebook">
    <path d="M2.90909 10.9434V20H6.54545V10.9434H9.27273L10 7.16981H6.54545V4.5283C6.54545 3.96226 7.09091 3.39623 7.63636 3.39623H10V0H5.81818C4.90909 0 2.90909 1.32075 2.90909 3.39623V7.16981H0V10.9434H2.90909Z"></path>
  </symbol>
  <symbol xmlns="http://www.w3.org/2000/svg" xmlns:xlink="http://www.w3.org/1999/xlink" fill-rule="nonzero" viewBox="0,0,256,256" id="instagram">
    <g fill-rule="nonzero" stroke="none" stroke-width="1" stroke-linecap="butt" stroke-linejoin="miter" stroke-miterlimit="10" stroke-dasharray="" stroke-dashoffset="0" font-family="none" font-weight="none" font-size="none" text-anchor="none">
      <g transform="scale(5.12,5.12)">
        <path d="M16,3c-7.17,0 -13,5.83 -13,13v18c0,7.17 5.83,13 13,13h18c7.17,0 13,-5.83 13,-13v-18c0,-7.17 -5.83,-13 -13,-13zM37,11c1.1,0 2,0.9 2,2c0,1.1 -0.9,2 -2,2c-1.1,0 -2,-0.9 -2,-2c0,-1.1 0.9,-2 2,-2zM25,14c6.07,0 11,4.93 11,11c0,6.07 -4.93,11 -11,11c-6.07,0 -11,-4.93 -11,-11c0,-6.07 4.93,-11 11,-11zM25,16c-4.96,0 -9,4.04 -9,9c0,4.96 4.04,9 9,9c4.96,0 9,-4.04 9,-9c0,-4.96 -4.04,-9 -9,-9z"></path>
      </g>
    </g>
  </symbol>
  <symbol xmlns="http://www.w3.org/2000/svg" xmlns:xlink="http://www.w3.org/1999/xlink" fill-rule="nonzero" viewBox="0,0,256,256" id="telegram">
    <g fill-rule="nonzero" stroke="none" stroke-width="1" stroke-linecap="butt" stroke-linejoin="miter" stroke-miterlimit="10" stroke-dasharray="" stroke-dashoffset="0" font-family="none" font-weight="none" font-size="none" text-anchor="none">
      <g transform="scale(5.12,5.12)">
        <path d="M46.137,6.552c-0.75,-0.636 -1.928,-0.727 -3.146,-0.238h-0.002c-1.281,0.514 -36.261,15.518 -37.685,16.131c-0.259,0.09 -2.521,0.934 -2.288,2.814c0.208,1.695 2.026,2.397 2.248,2.478l8.893,3.045c0.59,1.964 2.765,9.21 3.246,10.758c0.3,0.965 0.789,2.233 1.646,2.494c0.752,0.29 1.5,0.025 1.984,-0.355l5.437,-5.043l8.777,6.845l0.209,0.125c0.596,0.264 1.167,0.396 1.712,0.396c0.421,0 0.825,-0.079 1.211,-0.237c1.315,-0.54 1.841,-1.793 1.896,-1.935l6.556,-34.077c0.4,-1.82 -0.156,-2.746 -0.694,-3.201zM22,32l-3,8l-3,-10l23,-17z"></path>
      </g>
    </g>
  </symbol>
  <symbol xmlns="http://www.w3.org/2000/svg" viewBox="0 0 20 16" id="twitter">
    <path d="M3.78947 13.9669C2.94737 14.4548 0.912281 14.4412 0 14.3734C0.421053 14.78 3.57895 16 6.52632 16C9.47368 16 11.5789 15.5934 15.1579 12.3408C18.0211 9.73865 18.3158 5.971 18.1053 4.41244L20 2.37953H18.3158L19.3684 0.346626C18.5965 0.820951 17.0105 1.64763 16.8421 1.15973C16.6316 0.549857 13.6842 -0.873177 11.1579 0.753142C9.13684 2.0542 9.47368 3.80257 9.68421 5.22553C5.89474 4.81902 1.05263 0.753142 1.05263 0.753142C-0.122503 2.86053 1.46337 5.41233 2.09911 6.43529L2.10526 6.4452L0.631579 6.03862C0.631579 7.82757 2.31579 9.08812 3.15789 9.69776H1.89474C2.56842 11.4867 4.70175 12.4761 5.68421 12.7471C5.40351 12.9504 4.63158 13.479 3.78947 13.9669Z"></path>
  </symbol>
  <symbol xmlns="http://www.w3.org/2000/svg" viewBox="0 0 30 30" id="scroll-up">
    <path d="M15 24.9998V4.99976" stroke-width="2" stroke-linecap="round" scroll-upstroke-linejoin="round"/>
    <path d="M6.25 13.7498L15 4.99976L23.75 13.7498" stroke-width="2" stroke-linecap="round" stroke-linejoin="round"/>
  </symbol>
  <symbol xmlns="http://www.w3.org/2000/svg" viewBox="0 0 20 20" id="arrow-button">
    <path d="M3.33301 10H16.6663" stroke-width="2" stroke-linecap="round" stroke-linejoin="round"/>
    <path d="M10.833 4.16675L16.6663 10.0001L10.833 15.8334" stroke-width="2" stroke-linecap="round" stroke-linejoin="round"/>
  </symbol>
</svg>
